  0
SECTION
  2
HEADER
  9
$ACADVER
  1
AC1009
  9
$INSBASE
 10
0.0
 20
0.0
 30
0.0
  9
$EXTMIN
 10
0.0
 20
0.0
 30
0.0
  9
$EXTMAX
 10
0.0
 20
0.0
 30
0.0
  0
ENDSEC
  0
SECTION
  2
TABLES
  0
TABLE
  2
VPORT
 70
0
  0
ENDTAB
  0
TABLE
  2
LTYPE
 70
1
  0
LTYPE
  2
CONTINUOUS
 70
0
  3
Solid line
 72
65
 73
0
 40
0.0
  0
ENDTAB
  0
TABLE
  2
LAYER
 70
1
  0
LAYER
  2
0
 70
64
 62
7
  6
continuous
  0
ENDTAB
  0
TABLE
  2
STYLE
 70
1
  0
STYLE
  2
STANDARD
 70
0
 40
0
 41
1.0
 50
0.0
 71
0
 42
1
 3
ARIAL.TTF
 4

  0
ENDTAB
  0
TABLE
  2
VIEW
 70
0
  0
ENDTAB
  0
ENDSEC
  0
SECTION
  2
BLOCKS
  0
ENDSEC
  0
SECTION
  2
ENTITIES
  0
POLYLINE
  8
0
 62
0
 70
0
 66
1
 10
0.0
 20
0.0
 30
0.0
  0
VERTEX
  8
0
 10
1.5
 20
-104.6
 30
0.0
  0
VERTEX
  8
0
 10
-1.5
 20
-104.6
 30
0.0
  0
SEQEND
  8
0
  0
CIRCLE
  8
0
 62
0
 10
-35.925
 20
35.5
 30
0.0
 40
1.5
  0
CIRCLE
  8
0
 62
0
 10
0.0
 20
0.0
 30
0.0
 40
2.549999999999997
  0
ARC
  8
0
 62
0
 10
1.5000000000000142
 20
-105.6
 30
0.0
 40
0.9999999999999858
 50
-0.0
 51
90.00000000000081
  0
ARC
  8
0
 62
0
 10
-1.5000000000000142
 20
-105.6
 30
0.0
 40
1.0
 50
89.99999999999919
 51
-180.0
  0
ARC
  8
0
 62
0
 10
36.775000000000006
 20
-106.44999999999999
 30
0.0
 40
1.0
 50
90.0
 51
-180.0
  0
ARC
  8
0
 62
0
 10
-36.775
 20
-106.44999999999999
 30
0.0
 40
1.0
 50
-0.0
 51
90.0
  0
ARC
  8
0
 62
0
 10
-44.925
 20
-104.44999999999999
 30
0.0
 40
1.0
 50
-180.0
 51
-90.0
  0
ARC
  8
0
 62
0
 10
44.925
 20
-104.44999999999999
 30
0.0
 40
1.0
 50
-90.0
 51
-0.0
  0
POLYLINE
  8
0
 62
0
 70
0
 66
1
 10
0.0
 20
0.0
 30
0.0
  0
VERTEX
  8
0
 10
44.925
 20
-105.44999999999999
 30
0.0
  0
VERTEX
  8
0
 10
36.775000000000006
 20
-105.44999999999999
 30
0.0
  0
SEQEND
  8
0
  0
POLYLINE
  8
0
 62
0
 70
0
 66
1
 10
0.0
 20
0.0
 30
0.0
  0
VERTEX
  8
0
 10
-44.925
 20
-105.44999999999999
 30
0.0
  0
VERTEX
  8
0
 10
-36.775
 20
-105.44999999999999
 30
0.0
  0
SEQEND
  8
0
  0
ARC
  8
0
 62
0
 10
-34.775
 20
-107.6
 30
0.0
 40
1.0
 50
-180.0
 51
-90.0
  0
ARC
  8
0
 62
0
 10
34.775000000000006
 20
-107.6
 30
0.0
 40
1.0
 50
-90.0
 51
-0.0
  0
ARC
  8
0
 62
0
 10
-3.5
 20
-107.6
 30
0.0
 40
1.0
 50
-90.0
 51
-0.0
  0
ARC
  8
0
 62
0
 10
3.5
 20
-107.6
 30
0.0
 40
1.0
 50
-180.0
 51
-90.0
  0
POLYLINE
  8
0
 62
0
 70
0
 66
1
 10
0.0
 20
0.0
 30
0.0
  0
VERTEX
  8
0
 10
2.5
 20
-107.6
 30
0.0
  0
VERTEX
  8
0
 10
2.5
 20
-105.6
 30
0.0
  0
SEQEND
  8
0
  0
POLYLINE
  8
0
 62
0
 70
0
 66
1
 10
0.0
 20
0.0
 30
0.0
  0
VERTEX
  8
0
 10
-2.5
 20
-107.6
 30
0.0
  0
VERTEX
  8
0
 10
-2.500000000000014
 20
-105.6
 30
0.0
  0
SEQEND
  8
0
  0
POLYLINE
  8
0
 62
0
 70
0
 66
1
 10
0.0
 20
0.0
 30
0.0
  0
VERTEX
  8
0
 10
-3.5
 20
-108.6
 30
0.0
  0
VERTEX
  8
0
 10
-34.775
 20
-108.6
 30
0.0
  0
SEQEND
  8
0
  0
POLYLINE
  8
0
 62
0
 70
0
 66
1
 10
0.0
 20
0.0
 30
0.0
  0
VERTEX
  8
0
 10
3.5
 20
-108.6
 30
0.0
  0
VERTEX
  8
0
 10
34.775000000000006
 20
-108.6
 30
0.0
  0
SEQEND
  8
0
  0
POLYLINE
  8
0
 62
0
 70
0
 66
1
 10
0.0
 20
0.0
 30
0.0
  0
VERTEX
  8
0
 10
35.775000000000006
 20
-107.6
 30
0.0
  0
VERTEX
  8
0
 10
35.775000000000006
 20
-106.44999999999999
 30
0.0
  0
SEQEND
  8
0
  0
POLYLINE
  8
0
 62
0
 70
0
 66
1
 10
0.0
 20
0.0
 30
0.0
  0
VERTEX
  8
0
 10
-35.775
 20
-107.6
 30
0.0
  0
VERTEX
  8
0
 10
-35.775
 20
-106.44999999999999
 30
0.0
  0
SEQEND
  8
0
  0
ARC
  8
0
 62
0
 10
44.925
 20
39.5
 30
0.0
 40
1.0
 50
-0.0
 51
90.0
  0
ARC
  8
0
 62
0
 10
-44.925
 20
39.5
 30
0.0
 40
1.0
 50
90.0
 51
-180.0
  0
POLYLINE
  8
0
 62
0
 70
0
 66
1
 10
0.0
 20
0.0
 30
0.0
  0
VERTEX
  8
0
 10
-45.925
 20
39.5
 30
0.0
  0
VERTEX
  8
0
 10
-45.925
 20
-104.44999999999999
 30
0.0
  0
SEQEND
  8
0
  0
POLYLINE
  8
0
 62
0
 70
0
 66
1
 10
0.0
 20
0.0
 30
0.0
  0
VERTEX
  8
0
 10
-44.925
 20
40.5
 30
0.0
  0
VERTEX
  8
0
 10
44.925
 20
40.5
 30
0.0
  0
SEQEND
  8
0
  0
POLYLINE
  8
0
 62
0
 70
0
 66
1
 10
0.0
 20
0.0
 30
0.0
  0
VERTEX
  8
0
 10
45.925
 20
39.5
 30
0.0
  0
VERTEX
  8
0
 10
45.925
 20
-104.44999999999999
 30
0.0
  0
SEQEND
  8
0
  0
ARC
  8
0
 62
0
 10
-41.425
 20
-95.1
 30
0.0
 40
1.5
 50
90.0
 51
-90.0
  0
ARC
  8
0
 62
0
 10
-39.425
 20
-95.1
 30
0.0
 40
1.5
 50
-90.0
 51
90.0
  0
POLYLINE
  8
0
 62
0
 70
0
 66
1
 10
0.0
 20
0.0
 30
0.0
  0
VERTEX
  8
0
 10
-39.425
 20
-93.6
 30
0.0
  0
VERTEX
  8
0
 10
-41.425
 20
-93.6
 30
0.0
  0
SEQEND
  8
0
  0
POLYLINE
  8
0
 62
0
 70
0
 66
1
 10
0.0
 20
0.0
 30
0.0
  0
VERTEX
  8
0
 10
-41.425
 20
-96.6
 30
0.0
  0
VERTEX
  8
0
 10
-39.425
 20
-96.6
 30
0.0
  0
SEQEND
  8
0
  0
ENDSEC
  0
EOF
