  0
SECTION
  2
HEADER
  9
$ACADVER
  1
AC1009
  9
$INSBASE
 10
0.0
 20
0.0
 30
0.0
  9
$EXTMIN
 10
0.0
 20
0.0
 30
0.0
  9
$EXTMAX
 10
0.0
 20
0.0
 30
0.0
  0
ENDSEC
  0
SECTION
  2
TABLES
  0
TABLE
  2
VPORT
 70
0
  0
ENDTAB
  0
TABLE
  2
LTYPE
 70
1
  0
LTYPE
  2
CONTINUOUS
 70
0
  3
Solid line
 72
65
 73
0
 40
0.0
  0
ENDTAB
  0
TABLE
  2
LAYER
 70
1
  0
LAYER
  2
0
 70
64
 62
7
  6
continuous
  0
ENDTAB
  0
TABLE
  2
STYLE
 70
1
  0
STYLE
  2
STANDARD
 70
0
 40
0
 41
1.0
 50
0.0
 71
0
 42
1
 3
ARIAL.TTF
 4

  0
ENDTAB
  0
TABLE
  2
VIEW
 70
0
  0
ENDTAB
  0
ENDSEC
  0
SECTION
  2
BLOCKS
  0
ENDSEC
  0
SECTION
  2
ENTITIES
  0
POLYLINE
  8
Group001
 62
0
 70
0
 66
1
 10
0.0
 20
0.0
 30
0.0
  0
VERTEX
  8
Group001
 10
2.5250000000000004
 20
-15.775
 30
0.0
  0
VERTEX
  8
Group001
 10
2.5250000000000004
 20
-3.2750000000000004
 30
0.0
  0
SEQEND
  8
Group001
  0
ARC
  8
Group001
 62
0
 10
3.2750000000000004
 20
-3.2750000000000004
 30
0.0
 40
0.75
 50
90.0
 51
-180.0
  0
POLYLINE
  8
Group001
 62
0
 70
0
 66
1
 10
0.0
 20
0.0
 30
0.0
  0
VERTEX
  8
Group001
 10
3.2750000000000004
 20
-2.5250000000000004
 30
0.0
  0
VERTEX
  8
Group001
 10
15.775
 20
-2.5250000000000004
 30
0.0
  0
SEQEND
  8
Group001
  0
ARC
  8
Group001
 62
0
 10
15.775
 20
-3.2750000000000004
 30
0.0
 40
0.75
 50
-0.0
 51
90.0
  0
POLYLINE
  8
Group001
 62
0
 70
0
 66
1
 10
0.0
 20
0.0
 30
0.0
  0
VERTEX
  8
Group001
 10
16.525
 20
-3.2750000000000004
 30
0.0
  0
VERTEX
  8
Group001
 10
16.525
 20
-15.775
 30
0.0
  0
SEQEND
  8
Group001
  0
ARC
  8
Group001
 62
0
 10
15.775
 20
-15.775000000000002
 30
0.0
 40
0.75
 50
-90.0
 51
-0.0
  0
POLYLINE
  8
Group001
 62
0
 70
0
 66
1
 10
0.0
 20
0.0
 30
0.0
  0
VERTEX
  8
Group001
 10
15.775
 20
-16.525000000000002
 30
0.0
  0
VERTEX
  8
Group001
 10
3.2750000000000004
 20
-16.525000000000006
 30
0.0
  0
SEQEND
  8
Group001
  0
ARC
  8
Group001
 62
0
 10
3.2750000000000004
 20
-15.775
 30
0.0
 40
0.75
 50
-180.0
 51
-90.0
  0
POLYLINE
  8
Group002
 62
0
 70
0
 66
1
 10
0.0
 20
0.0
 30
0.0
  0
VERTEX
  8
Group002
 10
21.575
 20
-15.774999999999999
 30
0.0
  0
VERTEX
  8
Group002
 10
21.575
 20
-3.2749999999999986
 30
0.0
  0
SEQEND
  8
Group002
  0
ARC
  8
Group002
 62
0
 10
22.325
 20
-3.275
 30
0.0
 40
0.75
 50
90.0
 51
-180.0
  0
POLYLINE
  8
Group002
 62
0
 70
0
 66
1
 10
0.0
 20
0.0
 30
0.0
  0
VERTEX
  8
Group002
 10
22.325
 20
-2.525
 30
0.0
  0
VERTEX
  8
Group002
 10
34.825
 20
-2.525
 30
0.0
  0
SEQEND
  8
Group002
  0
ARC
  8
Group002
 62
0
 10
34.825
 20
-3.275
 30
0.0
 40
0.75
 50
-0.0
 51
90.0
  0
POLYLINE
  8
Group002
 62
0
 70
0
 66
1
 10
0.0
 20
0.0
 30
0.0
  0
VERTEX
  8
Group002
 10
35.575
 20
-3.275
 30
0.0
  0
VERTEX
  8
Group002
 10
35.575
 20
-15.774999999999999
 30
0.0
  0
SEQEND
  8
Group002
  0
ARC
  8
Group002
 62
0
 10
34.825
 20
-15.775000000000002
 30
0.0
 40
0.75
 50
-90.0
 51
-0.0
  0
POLYLINE
  8
Group002
 62
0
 70
0
 66
1
 10
0.0
 20
0.0
 30
0.0
  0
VERTEX
  8
Group002
 10
34.825
 20
-16.525000000000002
 30
0.0
  0
VERTEX
  8
Group002
 10
22.325000000000003
 20
-16.525000000000013
 30
0.0
  0
SEQEND
  8
Group002
  0
ARC
  8
Group002
 62
0
 10
22.325
 20
-15.774999999999999
 30
0.0
 40
0.75
 50
-180.0
 51
-90.0
  0
POLYLINE
  8
Group003
 62
0
 70
0
 66
1
 10
0.0
 20
0.0
 30
0.0
  0
VERTEX
  8
Group003
 10
40.62499999999999
 20
-15.774999999999999
 30
0.0
  0
VERTEX
  8
Group003
 10
40.62499999999999
 20
-3.2749999999999986
 30
0.0
  0
SEQEND
  8
Group003
  0
ARC
  8
Group003
 62
0
 10
41.37499999999999
 20
-3.275
 30
0.0
 40
0.75
 50
90.0
 51
-180.0
  0
POLYLINE
  8
Group003
 62
0
 70
0
 66
1
 10
0.0
 20
0.0
 30
0.0
  0
VERTEX
  8
Group003
 10
41.37499999999999
 20
-2.525
 30
0.0
  0
VERTEX
  8
Group003
 10
53.875
 20
-2.525
 30
0.0
  0
SEQEND
  8
Group003
  0
ARC
  8
Group003
 62
0
 10
53.875
 20
-3.275
 30
0.0
 40
0.75
 50
-0.0
 51
90.0
  0
POLYLINE
  8
Group003
 62
0
 70
0
 66
1
 10
0.0
 20
0.0
 30
0.0
  0
VERTEX
  8
Group003
 10
54.625
 20
-3.275
 30
0.0
  0
VERTEX
  8
Group003
 10
54.625
 20
-15.774999999999999
 30
0.0
  0
SEQEND
  8
Group003
  0
ARC
  8
Group003
 62
0
 10
53.875
 20
-15.775000000000002
 30
0.0
 40
0.75
 50
-90.0
 51
-0.0
  0
POLYLINE
  8
Group003
 62
0
 70
0
 66
1
 10
0.0
 20
0.0
 30
0.0
  0
VERTEX
  8
Group003
 10
53.875
 20
-16.525000000000002
 30
0.0
  0
VERTEX
  8
Group003
 10
41.375
 20
-16.525000000000013
 30
0.0
  0
SEQEND
  8
Group003
  0
ARC
  8
Group003
 62
0
 10
41.37499999999999
 20
-15.774999999999999
 30
0.0
 40
0.75
 50
-180.0
 51
-90.0
  0
POLYLINE
  8
Group004
 62
0
 70
0
 66
1
 10
0.0
 20
0.0
 30
0.0
  0
VERTEX
  8
Group004
 10
59.67499999999999
 20
-15.774999999999999
 30
0.0
  0
VERTEX
  8
Group004
 10
59.67499999999999
 20
-3.2749999999999986
 30
0.0
  0
SEQEND
  8
Group004
  0
ARC
  8
Group004
 62
0
 10
60.42499999999999
 20
-3.2750000000000004
 30
0.0
 40
0.75
 50
90.0
 51
-180.0
  0
POLYLINE
  8
Group004
 62
0
 70
0
 66
1
 10
0.0
 20
0.0
 30
0.0
  0
VERTEX
  8
Group004
 10
60.42499999999999
 20
-2.525
 30
0.0
  0
VERTEX
  8
Group004
 10
72.925
 20
-2.525
 30
0.0
  0
SEQEND
  8
Group004
  0
ARC
  8
Group004
 62
0
 10
72.925
 20
-3.2750000000000004
 30
0.0
 40
0.75
 50
-0.0
 51
90.0
  0
POLYLINE
  8
Group004
 62
0
 70
0
 66
1
 10
0.0
 20
0.0
 30
0.0
  0
VERTEX
  8
Group004
 10
73.675
 20
-3.2750000000000004
 30
0.0
  0
VERTEX
  8
Group004
 10
73.675
 20
-15.774999999999999
 30
0.0
  0
SEQEND
  8
Group004
  0
ARC
  8
Group004
 62
0
 10
72.925
 20
-15.775000000000002
 30
0.0
 40
0.75
 50
-90.0
 51
-0.0
  0
POLYLINE
  8
Group004
 62
0
 70
0
 66
1
 10
0.0
 20
0.0
 30
0.0
  0
VERTEX
  8
Group004
 10
72.925
 20
-16.525000000000002
 30
0.0
  0
VERTEX
  8
Group004
 10
60.425
 20
-16.525000000000013
 30
0.0
  0
SEQEND
  8
Group004
  0
ARC
  8
Group004
 62
0
 10
60.42499999999999
 20
-15.774999999999999
 30
0.0
 40
0.75
 50
-180.0
 51
-90.0
  0
POLYLINE
  8
Group005
 62
0
 70
0
 66
1
 10
0.0
 20
0.0
 30
0.0
  0
VERTEX
  8
Group005
 10
21.575
 20
-53.875
 30
0.0
  0
VERTEX
  8
Group005
 10
21.575
 20
-41.375
 30
0.0
  0
SEQEND
  8
Group005
  0
ARC
  8
Group005
 62
0
 10
22.325
 20
-41.375
 30
0.0
 40
0.75
 50
90.0
 51
-180.0
  0
POLYLINE
  8
Group005
 62
0
 70
0
 66
1
 10
0.0
 20
0.0
 30
0.0
  0
VERTEX
  8
Group005
 10
22.325
 20
-40.625
 30
0.0
  0
VERTEX
  8
Group005
 10
34.825
 20
-40.625
 30
0.0
  0
SEQEND
  8
Group005
  0
ARC
  8
Group005
 62
0
 10
34.825
 20
-41.375
 30
0.0
 40
0.75
 50
-0.0
 51
90.0
  0
POLYLINE
  8
Group005
 62
0
 70
0
 66
1
 10
0.0
 20
0.0
 30
0.0
  0
VERTEX
  8
Group005
 10
35.575
 20
-41.375
 30
0.0
  0
VERTEX
  8
Group005
 10
35.575
 20
-53.875
 30
0.0
  0
SEQEND
  8
Group005
  0
ARC
  8
Group005
 62
0
 10
34.825
 20
-53.875
 30
0.0
 40
0.75
 50
-90.0
 51
-0.0
  0
POLYLINE
  8
Group005
 62
0
 70
0
 66
1
 10
0.0
 20
0.0
 30
0.0
  0
VERTEX
  8
Group005
 10
34.825
 20
-54.625
 30
0.0
  0
VERTEX
  8
Group005
 10
22.325000000000003
 20
-54.625000000000014
 30
0.0
  0
SEQEND
  8
Group005
  0
ARC
  8
Group005
 62
0
 10
22.325
 20
-53.875
 30
0.0
 40
0.75
 50
-180.0
 51
-90.0
  0
POLYLINE
  8
Group006
 62
0
 70
0
 66
1
 10
0.0
 20
0.0
 30
0.0
  0
VERTEX
  8
Group006
 10
40.62499999999999
 20
-53.875
 30
0.0
  0
VERTEX
  8
Group006
 10
40.62499999999999
 20
-41.375
 30
0.0
  0
SEQEND
  8
Group006
  0
ARC
  8
Group006
 62
0
 10
41.37499999999999
 20
-41.375
 30
0.0
 40
0.75
 50
90.0
 51
-180.0
  0
POLYLINE
  8
Group006
 62
0
 70
0
 66
1
 10
0.0
 20
0.0
 30
0.0
  0
VERTEX
  8
Group006
 10
41.37499999999999
 20
-40.625
 30
0.0
  0
VERTEX
  8
Group006
 10
53.875
 20
-40.625
 30
0.0
  0
SEQEND
  8
Group006
  0
ARC
  8
Group006
 62
0
 10
53.875
 20
-41.375
 30
0.0
 40
0.75
 50
-0.0
 51
90.0
  0
POLYLINE
  8
Group006
 62
0
 70
0
 66
1
 10
0.0
 20
0.0
 30
0.0
  0
VERTEX
  8
Group006
 10
54.625
 20
-41.375
 30
0.0
  0
VERTEX
  8
Group006
 10
54.625
 20
-53.875
 30
0.0
  0
SEQEND
  8
Group006
  0
ARC
  8
Group006
 62
0
 10
53.875
 20
-53.875
 30
0.0
 40
0.75
 50
-90.0
 51
-0.0
  0
POLYLINE
  8
Group006
 62
0
 70
0
 66
1
 10
0.0
 20
0.0
 30
0.0
  0
VERTEX
  8
Group006
 10
53.875
 20
-54.625
 30
0.0
  0
VERTEX
  8
Group006
 10
41.375
 20
-54.625000000000014
 30
0.0
  0
SEQEND
  8
Group006
  0
ARC
  8
Group006
 62
0
 10
41.37499999999999
 20
-53.875
 30
0.0
 40
0.75
 50
-180.0
 51
-90.0
  0
POLYLINE
  8
Group007
 62
0
 70
0
 66
1
 10
0.0
 20
0.0
 30
0.0
  0
VERTEX
  8
Group007
 10
2.525
 20
-53.875
 30
0.0
  0
VERTEX
  8
Group007
 10
2.525
 20
-41.375
 30
0.0
  0
SEQEND
  8
Group007
  0
ARC
  8
Group007
 62
0
 10
3.275
 20
-41.375
 30
0.0
 40
0.75
 50
90.0
 51
-180.0
  0
POLYLINE
  8
Group007
 62
0
 70
0
 66
1
 10
0.0
 20
0.0
 30
0.0
  0
VERTEX
  8
Group007
 10
3.275
 20
-40.625
 30
0.0
  0
VERTEX
  8
Group007
 10
15.775
 20
-40.625
 30
0.0
  0
SEQEND
  8
Group007
  0
ARC
  8
Group007
 62
0
 10
15.775
 20
-41.375
 30
0.0
 40
0.75
 50
-0.0
 51
90.0
  0
POLYLINE
  8
Group007
 62
0
 70
0
 66
1
 10
0.0
 20
0.0
 30
0.0
  0
VERTEX
  8
Group007
 10
16.525
 20
-41.375
 30
0.0
  0
VERTEX
  8
Group007
 10
16.525
 20
-53.875
 30
0.0
  0
SEQEND
  8
Group007
  0
ARC
  8
Group007
 62
0
 10
15.775
 20
-53.875
 30
0.0
 40
0.75
 50
-90.0
 51
-0.0
  0
POLYLINE
  8
Group007
 62
0
 70
0
 66
1
 10
0.0
 20
0.0
 30
0.0
  0
VERTEX
  8
Group007
 10
15.775
 20
-54.625
 30
0.0
  0
VERTEX
  8
Group007
 10
3.2750000000000004
 20
-54.625000000000014
 30
0.0
  0
SEQEND
  8
Group007
  0
ARC
  8
Group007
 62
0
 10
3.275
 20
-53.875
 30
0.0
 40
0.75
 50
-180.0
 51
-90.0
  0
POLYLINE
  8
Group009
 62
0
 70
0
 66
1
 10
0.0
 20
0.0
 30
0.0
  0
VERTEX
  8
Group009
 10
59.67499999999999
 20
-53.875
 30
0.0
  0
VERTEX
  8
Group009
 10
59.67499999999999
 20
-41.375
 30
0.0
  0
SEQEND
  8
Group009
  0
ARC
  8
Group009
 62
0
 10
60.42499999999999
 20
-41.375
 30
0.0
 40
0.75
 50
90.0
 51
-180.0
  0
POLYLINE
  8
Group009
 62
0
 70
0
 66
1
 10
0.0
 20
0.0
 30
0.0
  0
VERTEX
  8
Group009
 10
60.42499999999999
 20
-40.625
 30
0.0
  0
VERTEX
  8
Group009
 10
72.925
 20
-40.625
 30
0.0
  0
SEQEND
  8
Group009
  0
ARC
  8
Group009
 62
0
 10
72.925
 20
-41.375
 30
0.0
 40
0.75
 50
-0.0
 51
90.0
  0
POLYLINE
  8
Group009
 62
0
 70
0
 66
1
 10
0.0
 20
0.0
 30
0.0
  0
VERTEX
  8
Group009
 10
73.675
 20
-41.375
 30
0.0
  0
VERTEX
  8
Group009
 10
73.675
 20
-53.875
 30
0.0
  0
SEQEND
  8
Group009
  0
ARC
  8
Group009
 62
0
 10
72.925
 20
-53.875
 30
0.0
 40
0.75
 50
-90.0
 51
-0.0
  0
POLYLINE
  8
Group009
 62
0
 70
0
 66
1
 10
0.0
 20
0.0
 30
0.0
  0
VERTEX
  8
Group009
 10
72.925
 20
-54.625
 30
0.0
  0
VERTEX
  8
Group009
 10
60.425
 20
-54.625000000000014
 30
0.0
  0
SEQEND
  8
Group009
  0
ARC
  8
Group009
 62
0
 10
60.42499999999999
 20
-53.875
 30
0.0
 40
0.75
 50
-180.0
 51
-90.0
  0
POLYLINE
  8
Group010
 62
0
 70
0
 66
1
 10
0.0
 20
0.0
 30
0.0
  0
VERTEX
  8
Group010
 10
40.62499999999999
 20
-72.92500000000001
 30
0.0
  0
VERTEX
  8
Group010
 10
40.62499999999999
 20
-60.42500000000001
 30
0.0
  0
SEQEND
  8
Group010
  0
ARC
  8
Group010
 62
0
 10
41.37499999999999
 20
-60.425000000000004
 30
0.0
 40
0.75
 50
90.0
 51
-180.0
  0
POLYLINE
  8
Group010
 62
0
 70
0
 66
1
 10
0.0
 20
0.0
 30
0.0
  0
VERTEX
  8
Group010
 10
41.37499999999999
 20
-59.675000000000004
 30
0.0
  0
VERTEX
  8
Group010
 10
53.875
 20
-59.675000000000004
 30
0.0
  0
SEQEND
  8
Group010
  0
ARC
  8
Group010
 62
0
 10
53.875
 20
-60.425000000000004
 30
0.0
 40
0.75
 50
-0.0
 51
90.0
  0
POLYLINE
  8
Group010
 62
0
 70
0
 66
1
 10
0.0
 20
0.0
 30
0.0
  0
VERTEX
  8
Group010
 10
54.625
 20
-60.425000000000004
 30
0.0
  0
VERTEX
  8
Group010
 10
54.625
 20
-72.92500000000001
 30
0.0
  0
SEQEND
  8
Group010
  0
ARC
  8
Group010
 62
0
 10
53.875
 20
-72.92500000000001
 30
0.0
 40
0.75
 50
-90.0
 51
-0.0
  0
POLYLINE
  8
Group010
 62
0
 70
0
 66
1
 10
0.0
 20
0.0
 30
0.0
  0
VERTEX
  8
Group010
 10
53.875
 20
-73.67500000000001
 30
0.0
  0
VERTEX
  8
Group010
 10
41.375
 20
-73.67500000000003
 30
0.0
  0
SEQEND
  8
Group010
  0
ARC
  8
Group010
 62
0
 10
41.37499999999999
 20
-72.92500000000001
 30
0.0
 40
0.75
 50
-180.0
 51
-90.0
  0
POLYLINE
  8
Group011
 62
0
 70
0
 66
1
 10
0.0
 20
0.0
 30
0.0
  0
VERTEX
  8
Group011
 10
2.525
 20
-72.92500000000001
 30
0.0
  0
VERTEX
  8
Group011
 10
2.525
 20
-60.42500000000001
 30
0.0
  0
SEQEND
  8
Group011
  0
ARC
  8
Group011
 62
0
 10
3.275
 20
-60.425000000000004
 30
0.0
 40
0.75
 50
90.0
 51
-180.0
  0
POLYLINE
  8
Group011
 62
0
 70
0
 66
1
 10
0.0
 20
0.0
 30
0.0
  0
VERTEX
  8
Group011
 10
3.275
 20
-59.675000000000004
 30
0.0
  0
VERTEX
  8
Group011
 10
15.775
 20
-59.675000000000004
 30
0.0
  0
SEQEND
  8
Group011
  0
ARC
  8
Group011
 62
0
 10
15.775
 20
-60.425000000000004
 30
0.0
 40
0.75
 50
-0.0
 51
90.0
  0
POLYLINE
  8
Group011
 62
0
 70
0
 66
1
 10
0.0
 20
0.0
 30
0.0
  0
VERTEX
  8
Group011
 10
16.525
 20
-60.425000000000004
 30
0.0
  0
VERTEX
  8
Group011
 10
16.525
 20
-72.92500000000001
 30
0.0
  0
SEQEND
  8
Group011
  0
ARC
  8
Group011
 62
0
 10
15.775
 20
-72.92500000000001
 30
0.0
 40
0.75
 50
-90.0
 51
-0.0
  0
POLYLINE
  8
Group011
 62
0
 70
0
 66
1
 10
0.0
 20
0.0
 30
0.0
  0
VERTEX
  8
Group011
 10
15.775
 20
-73.67500000000001
 30
0.0
  0
VERTEX
  8
Group011
 10
3.2750000000000004
 20
-73.67500000000003
 30
0.0
  0
SEQEND
  8
Group011
  0
ARC
  8
Group011
 62
0
 10
3.275
 20
-72.92500000000001
 30
0.0
 40
0.75
 50
-180.0
 51
-90.0
  0
POLYLINE
  8
Group012
 62
0
 70
0
 66
1
 10
0.0
 20
0.0
 30
0.0
  0
VERTEX
  8
Group012
 10
21.575
 20
-72.92500000000001
 30
0.0
  0
VERTEX
  8
Group012
 10
21.575
 20
-60.42500000000001
 30
0.0
  0
SEQEND
  8
Group012
  0
ARC
  8
Group012
 62
0
 10
22.325
 20
-60.425000000000004
 30
0.0
 40
0.75
 50
90.0
 51
-180.0
  0
POLYLINE
  8
Group012
 62
0
 70
0
 66
1
 10
0.0
 20
0.0
 30
0.0
  0
VERTEX
  8
Group012
 10
22.325
 20
-59.675000000000004
 30
0.0
  0
VERTEX
  8
Group012
 10
34.825
 20
-59.675000000000004
 30
0.0
  0
SEQEND
  8
Group012
  0
ARC
  8
Group012
 62
0
 10
34.825
 20
-60.425000000000004
 30
0.0
 40
0.75
 50
-0.0
 51
90.0
  0
POLYLINE
  8
Group012
 62
0
 70
0
 66
1
 10
0.0
 20
0.0
 30
0.0
  0
VERTEX
  8
Group012
 10
35.575
 20
-60.425000000000004
 30
0.0
  0
VERTEX
  8
Group012
 10
35.575
 20
-72.92500000000001
 30
0.0
  0
SEQEND
  8
Group012
  0
ARC
  8
Group012
 62
0
 10
34.825
 20
-72.92500000000001
 30
0.0
 40
0.75
 50
-90.0
 51
-0.0
  0
POLYLINE
  8
Group012
 62
0
 70
0
 66
1
 10
0.0
 20
0.0
 30
0.0
  0
VERTEX
  8
Group012
 10
34.825
 20
-73.67500000000001
 30
0.0
  0
VERTEX
  8
Group012
 10
22.325000000000003
 20
-73.67500000000003
 30
0.0
  0
SEQEND
  8
Group012
  0
ARC
  8
Group012
 62
0
 10
22.325
 20
-72.92500000000001
 30
0.0
 40
0.75
 50
-180.0
 51
-90.0
  0
ARC
  8
Group015
 62
0
 10
3.275
 20
-91.97500000000002
 30
0.0
 40
0.75
 50
-180.0
 51
-90.0
  0
ARC
  8
Group017
 62
0
 10
53.875
 20
-79.47500000000002
 30
0.0
 40
0.75
 50
-0.0
 51
90.0
  0
ARC
  8
Group017
 62
0
 10
41.37499999999999
 20
-91.97500000000002
 30
0.0
 40
0.75
 50
-180.0
 51
-90.0
  0
POLYLINE
  8
Group016
 62
0
 70
0
 66
1
 10
0.0
 20
0.0
 30
0.0
  0
VERTEX
  8
Group016
 10
34.825
 20
-92.72500000000002
 30
0.0
  0
VERTEX
  8
Group016
 10
22.325000000000003
 20
-92.72500000000004
 30
0.0
  0
SEQEND
  8
Group016
  0
POLYLINE
  8
Group016
 62
0
 70
0
 66
1
 10
0.0
 20
0.0
 30
0.0
  0
VERTEX
  8
Group016
 10
21.575
 20
-91.97500000000002
 30
0.0
  0
VERTEX
  8
Group016
 10
21.575
 20
-79.47500000000002
 30
0.0
  0
SEQEND
  8
Group016
  0
ARC
  8
Group017
 62
0
 10
41.37499999999999
 20
-79.47500000000002
 30
0.0
 40
0.75
 50
90.0
 51
-180.0
  0
POLYLINE
  8
Group017
 62
0
 70
0
 66
1
 10
0.0
 20
0.0
 30
0.0
  0
VERTEX
  8
Group017
 10
53.875
 20
-92.72500000000002
 30
0.0
  0
VERTEX
  8
Group017
 10
41.375
 20
-92.72500000000004
 30
0.0
  0
SEQEND
  8
Group017
  0
POLYLINE
  8
Group017
 62
0
 70
0
 66
1
 10
0.0
 20
0.0
 30
0.0
  0
VERTEX
  8
Group017
 10
54.625
 20
-79.47500000000002
 30
0.0
  0
VERTEX
  8
Group017
 10
54.625
 20
-91.97500000000002
 30
0.0
  0
SEQEND
  8
Group017
  0
ARC
  8
Group016
 62
0
 10
22.325
 20
-79.47500000000002
 30
0.0
 40
0.75
 50
90.0
 51
-180.0
  0
POLYLINE
  8
Group016
 62
0
 70
0
 66
1
 10
0.0
 20
0.0
 30
0.0
  0
VERTEX
  8
Group016
 10
22.325
 20
-78.72500000000002
 30
0.0
  0
VERTEX
  8
Group016
 10
34.825
 20
-78.72500000000002
 30
0.0
  0
SEQEND
  8
Group016
  0
POLYLINE
  8
Group015
 62
0
 70
0
 66
1
 10
0.0
 20
0.0
 30
0.0
  0
VERTEX
  8
Group015
 10
16.525
 20
-79.47500000000002
 30
0.0
  0
VERTEX
  8
Group015
 10
16.525
 20
-91.97500000000002
 30
0.0
  0
SEQEND
  8
Group015
  0
ARC
  8
Group015
 62
0
 10
15.775
 20
-79.47500000000002
 30
0.0
 40
0.75
 50
-0.0
 51
90.0
  0
POLYLINE
  8
Group015
 62
0
 70
0
 66
1
 10
0.0
 20
0.0
 30
0.0
  0
VERTEX
  8
Group015
 10
15.775
 20
-92.72500000000002
 30
0.0
  0
VERTEX
  8
Group015
 10
3.2750000000000004
 20
-92.72500000000004
 30
0.0
  0
SEQEND
  8
Group015
  0
POLYLINE
  8
Group015
 62
0
 70
0
 66
1
 10
0.0
 20
0.0
 30
0.0
  0
VERTEX
  8
Group015
 10
3.275
 20
-78.72500000000002
 30
0.0
  0
VERTEX
  8
Group015
 10
15.775
 20
-78.72500000000002
 30
0.0
  0
SEQEND
  8
Group015
  0
POLYLINE
  8
Group017
 62
0
 70
0
 66
1
 10
0.0
 20
0.0
 30
0.0
  0
VERTEX
  8
Group017
 10
41.37499999999999
 20
-78.72500000000002
 30
0.0
  0
VERTEX
  8
Group017
 10
53.875
 20
-78.72500000000002
 30
0.0
  0
SEQEND
  8
Group017
  0
POLYLINE
  8
Group017
 62
0
 70
0
 66
1
 10
0.0
 20
0.0
 30
0.0
  0
VERTEX
  8
Group017
 10
40.62499999999999
 20
-91.97500000000002
 30
0.0
  0
VERTEX
  8
Group017
 10
40.62499999999999
 20
-79.47500000000002
 30
0.0
  0
SEQEND
  8
Group017
  0
ARC
  8
Group015
 62
0
 10
15.775
 20
-91.97500000000002
 30
0.0
 40
0.75
 50
-90.0
 51
-0.0
  0
POLYLINE
  8
Group016
 62
0
 70
0
 66
1
 10
0.0
 20
0.0
 30
0.0
  0
VERTEX
  8
Group016
 10
35.575
 20
-79.47500000000002
 30
0.0
  0
VERTEX
  8
Group016
 10
35.575
 20
-91.97500000000002
 30
0.0
  0
SEQEND
  8
Group016
  0
ARC
  8
Group016
 62
0
 10
34.825
 20
-91.97500000000002
 30
0.0
 40
0.75
 50
-90.0
 51
-0.0
  0
ARC
  8
Group017
 62
0
 10
53.875
 20
-91.97500000000002
 30
0.0
 40
0.75
 50
-90.0
 51
-0.0
  0
ARC
  8
Group016
 62
0
 10
22.325
 20
-91.97500000000002
 30
0.0
 40
0.75
 50
-180.0
 51
-90.0
  0
POLYLINE
  8
Group015
 62
0
 70
0
 66
1
 10
0.0
 20
0.0
 30
0.0
  0
VERTEX
  8
Group015
 10
2.525
 20
-91.97500000000002
 30
0.0
  0
VERTEX
  8
Group015
 10
2.525
 20
-79.47500000000002
 30
0.0
  0
SEQEND
  8
Group015
  0
ARC
  8
Group016
 62
0
 10
34.825
 20
-79.47500000000002
 30
0.0
 40
0.75
 50
-0.0
 51
90.0
  0
ARC
  8
Group015
 62
0
 10
3.275
 20
-79.47500000000002
 30
0.0
 40
0.75
 50
90.0
 51
-180.0
  0
POLYLINE
  8
Group020
 62
0
 70
0
 66
1
 10
0.0
 20
0.0
 30
0.0
  0
VERTEX
  8
Group020
 10
21.575000000000003
 20
-111.02500000000003
 30
0.0
  0
VERTEX
  8
Group020
 10
21.575000000000003
 20
-98.52500000000003
 30
0.0
  0
SEQEND
  8
Group020
  0
ARC
  8
Group021
 62
0
 10
53.875
 20
-98.52500000000003
 30
0.0
 40
0.75
 50
-0.0
 51
90.0
  0
ARC
  8
Group021
 62
0
 10
41.37499999999999
 20
-111.02500000000003
 30
0.0
 40
0.75
 50
-180.0
 51
-90.0
  0
POLYLINE
  8
Group020
 62
0
 70
0
 66
1
 10
0.0
 20
0.0
 30
0.0
  0
VERTEX
  8
Group020
 10
34.825
 20
-111.77500000000003
 30
0.0
  0
VERTEX
  8
Group020
 10
22.325000000000003
 20
-111.77500000000005
 30
0.0
  0
SEQEND
  8
Group020
  0
ARC
  8
Group021
 62
0
 10
53.875
 20
-111.02500000000003
 30
0.0
 40
0.75
 50
-90.0
 51
-0.0
  0
ARC
  8
Group020
 62
0
 10
34.825
 20
-98.52500000000003
 30
0.0
 40
0.75
 50
-0.0
 51
90.0
  0
ARC
  8
Group019
 62
0
 10
15.775
 20
-98.52500000000003
 30
0.0
 40
0.75
 50
-0.0
 51
90.0
  0
POLYLINE
  8
Group019
 62
0
 70
0
 66
1
 10
0.0
 20
0.0
 30
0.0
  0
VERTEX
  8
Group019
 10
3.2750000000000004
 20
-97.77500000000003
 30
0.0
  0
VERTEX
  8
Group019
 10
15.775
 20
-97.77500000000003
 30
0.0
  0
SEQEND
  8
Group019
  0
POLYLINE
  8
Group021
 62
0
 70
0
 66
1
 10
0.0
 20
0.0
 30
0.0
  0
VERTEX
  8
Group021
 10
40.62499999999999
 20
-111.02500000000003
 30
0.0
  0
VERTEX
  8
Group021
 10
40.62499999999999
 20
-98.52500000000003
 30
0.0
  0
SEQEND
  8
Group021
  0
POLYLINE
  8
Group020
 62
0
 70
0
 66
1
 10
0.0
 20
0.0
 30
0.0
  0
VERTEX
  8
Group020
 10
35.575
 20
-98.52500000000003
 30
0.0
  0
VERTEX
  8
Group020
 10
35.575
 20
-111.02500000000003
 30
0.0
  0
SEQEND
  8
Group020
  0
ARC
  8
Group019
 62
0
 10
15.775
 20
-111.02500000000003
 30
0.0
 40
0.75
 50
-90.0
 51
-0.0
  0
ARC
  8
Group020
 62
0
 10
34.825
 20
-111.02500000000003
 30
0.0
 40
0.75
 50
-90.0
 51
-0.0
  0
POLYLINE
  8
Group019
 62
0
 70
0
 66
1
 10
0.0
 20
0.0
 30
0.0
  0
VERTEX
  8
Group019
 10
2.5250000000000004
 20
-111.02500000000003
 30
0.0
  0
VERTEX
  8
Group019
 10
2.5250000000000004
 20
-98.52500000000003
 30
0.0
  0
SEQEND
  8
Group019
  0
POLYLINE
  8
Group021
 62
0
 70
0
 66
1
 10
0.0
 20
0.0
 30
0.0
  0
VERTEX
  8
Group021
 10
41.37499999999999
 20
-97.77500000000003
 30
0.0
  0
VERTEX
  8
Group021
 10
53.875
 20
-97.77500000000003
 30
0.0
  0
SEQEND
  8
Group021
  0
ARC
  8
Group021
 62
0
 10
41.37499999999999
 20
-98.52500000000003
 30
0.0
 40
0.75
 50
90.0
 51
-180.0
  0
POLYLINE
  8
Group019
 62
0
 70
0
 66
1
 10
0.0
 20
0.0
 30
0.0
  0
VERTEX
  8
Group019
 10
16.525
 20
-98.52500000000003
 30
0.0
  0
VERTEX
  8
Group019
 10
16.525
 20
-111.02500000000003
 30
0.0
  0
SEQEND
  8
Group019
  0
ARC
  8
Group020
 62
0
 10
22.325000000000003
 20
-98.52500000000003
 30
0.0
 40
0.75
 50
90.0
 51
-180.0
  0
POLYLINE
  8
Group021
 62
0
 70
0
 66
1
 10
0.0
 20
0.0
 30
0.0
  0
VERTEX
  8
Group021
 10
53.875
 20
-111.77500000000003
 30
0.0
  0
VERTEX
  8
Group021
 10
41.375
 20
-111.77500000000005
 30
0.0
  0
SEQEND
  8
Group021
  0
POLYLINE
  8
Group020
 62
0
 70
0
 66
1
 10
0.0
 20
0.0
 30
0.0
  0
VERTEX
  8
Group020
 10
22.325000000000003
 20
-97.77500000000003
 30
0.0
  0
VERTEX
  8
Group020
 10
34.82500000000001
 20
-97.77500000000003
 30
0.0
  0
SEQEND
  8
Group020
  0
POLYLINE
  8
Group019
 62
0
 70
0
 66
1
 10
0.0
 20
0.0
 30
0.0
  0
VERTEX
  8
Group019
 10
15.775
 20
-111.77500000000003
 30
0.0
  0
VERTEX
  8
Group019
 10
3.2750000000000004
 20
-111.77500000000005
 30
0.0
  0
SEQEND
  8
Group019
  0
POLYLINE
  8
Group021
 62
0
 70
0
 66
1
 10
0.0
 20
0.0
 30
0.0
  0
VERTEX
  8
Group021
 10
54.62500000000001
 20
-98.52500000000003
 30
0.0
  0
VERTEX
  8
Group021
 10
54.62500000000001
 20
-111.02500000000003
 30
0.0
  0
SEQEND
  8
Group021
  0
ARC
  8
Group020
 62
0
 10
22.325000000000003
 20
-111.02500000000003
 30
0.0
 40
0.75
 50
-180.0
 51
-90.0
  0
ARC
  8
Group019
 62
0
 10
3.2750000000000004
 20
-98.52500000000003
 30
0.0
 40
0.75
 50
90.0
 51
-180.0
  0
ARC
  8
Group019
 62
0
 10
3.2750000000000004
 20
-111.02500000000003
 30
0.0
 40
0.75
 50
-180.0
 51
-90.0
  0
POLYLINE
  8
plus
 62
0
 70
0
 66
1
 10
0.0
 20
0.0
 30
0.0
  0
VERTEX
  8
plus
 10
73.67499999999998
 20
-69.94999999999999
 30
0.0
  0
VERTEX
  8
plus
 10
73.675
 20
-82.44999999999999
 30
0.0
  0
SEQEND
  8
plus
  0
ARC
  8
plus
 62
0
 10
72.92499999999998
 20
-82.45
 30
0.0
 40
0.75
 50
-90.0
 51
-0.0
  0
ARC
  8
plus
 62
0
 10
60.42499999999997
 20
-69.94999999999999
 30
0.0
 40
0.75
 50
90.0
 51
-180.0
  0
POLYLINE
  8
plus
 62
0
 70
0
 66
1
 10
0.0
 20
0.0
 30
0.0
  0
VERTEX
  8
plus
 10
59.67499999999997
 20
-82.45
 30
0.0
  0
VERTEX
  8
plus
 10
59.67499999999996
 20
-69.94999999999999
 30
0.0
  0
SEQEND
  8
plus
  0
POLYLINE
  8
plus
 62
0
 70
0
 66
1
 10
0.0
 20
0.0
 30
0.0
  0
VERTEX
  8
plus
 10
60.42499999999997
 20
-69.19999999999999
 30
0.0
  0
VERTEX
  8
plus
 10
72.92499999999997
 20
-69.19999999999999
 30
0.0
  0
SEQEND
  8
plus
  0
ARC
  8
plus
 62
0
 10
60.42499999999997
 20
-82.45
 30
0.0
 40
0.75
 50
-180.0
 51
-90.0
  0
ARC
  8
plus
 62
0
 10
72.92499999999998
 20
-69.94999999999999
 30
0.0
 40
0.75
 50
-0.0
 51
90.0
  0
POLYLINE
  8
plus
 62
0
 70
0
 66
1
 10
0.0
 20
0.0
 30
0.0
  0
VERTEX
  8
plus
 10
72.92499999999998
 20
-83.2
 30
0.0
  0
VERTEX
  8
plus
 10
60.42499999999999
 20
-83.2
 30
0.0
  0
SEQEND
  8
plus
  0
ARC
  8
Group032
 62
0
 10
58.92499993115233
 20
-90.88799999999999
 30
0.0
 40
0.75
 50
-180.0
 51
-90.0
  0
ARC
  8
Group032
 62
0
 10
58.92499993115233
 20
-85.38799999999999
 30
0.0
 40
0.75
 50
90.0
 51
-180.0
  0
POLYLINE
  8
Group032
 62
0
 70
0
 66
1
 10
0.0
 20
0.0
 30
0.0
  0
VERTEX
  8
Group032
 10
58.92499993115233
 20
-91.63799999999999
 30
0.0
  0
VERTEX
  8
Group032
 10
72.92499993115231
 20
-91.63799999999999
 30
0.0
  0
SEQEND
  8
Group032
  0
POLYLINE
  8
Group032
 62
0
 70
0
 66
1
 10
0.0
 20
0.0
 30
0.0
  0
VERTEX
  8
Group032
 10
58.17499993115233
 20
-90.88799999999999
 30
0.0
  0
VERTEX
  8
Group032
 10
58.174999931152314
 20
-85.38799999999999
 30
0.0
  0
SEQEND
  8
Group032
  0
POLYLINE
  8
Group032
 62
0
 70
0
 66
1
 10
0.0
 20
0.0
 30
0.0
  0
VERTEX
  8
Group032
 10
73.67499993115231
 20
-85.388
 30
0.0
  0
VERTEX
  8
Group032
 10
73.67499993115233
 20
-90.888
 30
0.0
  0
SEQEND
  8
Group032
  0
ARC
  8
Group032
 62
0
 10
72.92499993115231
 20
-90.888
 30
0.0
 40
0.75
 50
-90.0
 51
-0.0
  0
ARC
  8
Group032
 62
0
 10
72.92499993115231
 20
-85.388
 30
0.0
 40
0.75
 50
-0.0
 51
90.0
  0
POLYLINE
  8
Group032
 62
0
 70
0
 66
1
 10
0.0
 20
0.0
 30
0.0
  0
VERTEX
  8
Group032
 10
58.92499993115233
 20
-84.63799999999999
 30
0.0
  0
VERTEX
  8
Group032
 10
72.92499993115231
 20
-84.638
 30
0.0
  0
SEQEND
  8
Group032
  0
ARC
  8
Group033
 62
0
 10
58.92499993115233
 20
-67.01199999999999
 30
0.0
 40
0.75
 50
-180.0
 51
-90.0
  0
ARC
  8
Group033
 62
0
 10
58.92499993115233
 20
-61.511999999999986
 30
0.0
 40
0.75
 50
90.0
 51
-180.0
  0
POLYLINE
  8
Group033
 62
0
 70
0
 66
1
 10
0.0
 20
0.0
 30
0.0
  0
VERTEX
  8
Group033
 10
58.92499993115233
 20
-67.76199999999999
 30
0.0
  0
VERTEX
  8
Group033
 10
72.92499993115233
 20
-67.76199999999999
 30
0.0
  0
SEQEND
  8
Group033
  0
POLYLINE
  8
Group033
 62
0
 70
0
 66
1
 10
0.0
 20
0.0
 30
0.0
  0
VERTEX
  8
Group033
 10
58.17499993115233
 20
-67.01199999999999
 30
0.0
  0
VERTEX
  8
Group033
 10
58.17499993115233
 20
-61.511999999999986
 30
0.0
  0
SEQEND
  8
Group033
  0
POLYLINE
  8
Group033
 62
0
 70
0
 66
1
 10
0.0
 20
0.0
 30
0.0
  0
VERTEX
  8
Group033
 10
73.67499993115231
 20
-61.512
 30
0.0
  0
VERTEX
  8
Group033
 10
73.67499993115231
 20
-67.012
 30
0.0
  0
SEQEND
  8
Group033
  0
ARC
  8
Group033
 62
0
 10
72.92499993115231
 20
-67.012
 30
0.0
 40
0.75
 50
-90.0
 51
-0.0
  0
ARC
  8
Group033
 62
0
 10
72.92499993115231
 20
-61.512
 30
0.0
 40
0.75
 50
-0.0
 51
90.0
  0
POLYLINE
  8
Group033
 62
0
 70
0
 66
1
 10
0.0
 20
0.0
 30
0.0
  0
VERTEX
  8
Group033
 10
58.92499993115233
 20
-60.761999999999986
 30
0.0
  0
VERTEX
  8
Group033
 10
72.92499993115231
 20
-60.762
 30
0.0
  0
SEQEND
  8
Group033
  0
ARC
  8
Group034
 62
0
 10
58.92499993115233
 20
-128.988
 30
0.0
 40
0.75
 50
-180.0
 51
-90.0
  0
ARC
  8
Group034
 62
0
 10
58.92499993115233
 20
-123.48799999999999
 30
0.0
 40
0.75
 50
90.0
 51
-180.0
  0
POLYLINE
  8
Group034
 62
0
 70
0
 66
1
 10
0.0
 20
0.0
 30
0.0
  0
VERTEX
  8
Group034
 10
58.92499993115233
 20
-129.738
 30
0.0
  0
VERTEX
  8
Group034
 10
72.92499993115231
 20
-129.73799999999997
 30
0.0
  0
SEQEND
  8
Group034
  0
POLYLINE
  8
Group034
 62
0
 70
0
 66
1
 10
0.0
 20
0.0
 30
0.0
  0
VERTEX
  8
Group034
 10
58.17499993115233
 20
-128.988
 30
0.0
  0
VERTEX
  8
Group034
 10
58.174999931152314
 20
-123.48799999999999
 30
0.0
  0
SEQEND
  8
Group034
  0
POLYLINE
  8
Group034
 62
0
 70
0
 66
1
 10
0.0
 20
0.0
 30
0.0
  0
VERTEX
  8
Group034
 10
73.67499993115231
 20
-123.488
 30
0.0
  0
VERTEX
  8
Group034
 10
73.67499993115233
 20
-128.988
 30
0.0
  0
SEQEND
  8
Group034
  0
ARC
  8
Group034
 62
0
 10
72.92499993115231
 20
-128.988
 30
0.0
 40
0.75
 50
-90.0
 51
-0.0
  0
ARC
  8
Group034
 62
0
 10
72.92499993115231
 20
-123.488
 30
0.0
 40
0.75
 50
-0.0
 51
90.0
  0
POLYLINE
  8
Group034
 62
0
 70
0
 66
1
 10
0.0
 20
0.0
 30
0.0
  0
VERTEX
  8
Group034
 10
58.92499993115233
 20
-122.73799999999999
 30
0.0
  0
VERTEX
  8
Group034
 10
72.92499993115231
 20
-122.738
 30
0.0
  0
SEQEND
  8
Group034
  0
ARC
  8
Group035
 62
0
 10
58.92499993115233
 20
-105.11199999999998
 30
0.0
 40
0.75
 50
-180.0
 51
-90.0
  0
ARC
  8
Group035
 62
0
 10
58.92499993115233
 20
-99.61199999999998
 30
0.0
 40
0.75
 50
90.0
 51
-180.0
  0
POLYLINE
  8
Group035
 62
0
 70
0
 66
1
 10
0.0
 20
0.0
 30
0.0
  0
VERTEX
  8
Group035
 10
58.92499993115233
 20
-105.86199999999998
 30
0.0
  0
VERTEX
  8
Group035
 10
72.92499993115234
 20
-105.86199999999998
 30
0.0
  0
SEQEND
  8
Group035
  0
POLYLINE
  8
Group035
 62
0
 70
0
 66
1
 10
0.0
 20
0.0
 30
0.0
  0
VERTEX
  8
Group035
 10
58.17499993115233
 20
-105.11199999999998
 30
0.0
  0
VERTEX
  8
Group035
 10
58.17499993115233
 20
-99.61199999999998
 30
0.0
  0
SEQEND
  8
Group035
  0
POLYLINE
  8
Group035
 62
0
 70
0
 66
1
 10
0.0
 20
0.0
 30
0.0
  0
VERTEX
  8
Group035
 10
73.67499993115231
 20
-99.612
 30
0.0
  0
VERTEX
  8
Group035
 10
73.67499993115231
 20
-105.112
 30
0.0
  0
SEQEND
  8
Group035
  0
ARC
  8
Group035
 62
0
 10
72.92499993115231
 20
-105.112
 30
0.0
 40
0.75
 50
-90.0
 51
-0.0
  0
ARC
  8
Group035
 62
0
 10
72.92499993115231
 20
-99.612
 30
0.0
 40
0.75
 50
-0.0
 51
90.0
  0
POLYLINE
  8
Group035
 62
0
 70
0
 66
1
 10
0.0
 20
0.0
 30
0.0
  0
VERTEX
  8
Group035
 10
58.92499993115233
 20
-98.86199999999998
 30
0.0
  0
VERTEX
  8
Group035
 10
72.92499993115231
 20
-98.862
 30
0.0
  0
SEQEND
  8
Group035
  0
POLYLINE
  8
enter
 62
0
 70
0
 66
1
 10
0.0
 20
0.0
 30
0.0
  0
VERTEX
  8
enter
 10
73.67499999999998
 20
-108.04999999999998
 30
0.0
  0
VERTEX
  8
enter
 10
73.675
 20
-120.54999999999998
 30
0.0
  0
SEQEND
  8
enter
  0
ARC
  8
enter
 62
0
 10
72.92499999999998
 20
-120.55
 30
0.0
 40
0.75
 50
-90.0
 51
-0.0
  0
ARC
  8
enter
 62
0
 10
60.42499999999997
 20
-108.04999999999998
 30
0.0
 40
0.75
 50
90.0
 51
-180.0
  0
POLYLINE
  8
enter
 62
0
 70
0
 66
1
 10
0.0
 20
0.0
 30
0.0
  0
VERTEX
  8
enter
 10
59.67499999999997
 20
-120.55
 30
0.0
  0
VERTEX
  8
enter
 10
59.67499999999993
 20
-108.04999999999998
 30
0.0
  0
SEQEND
  8
enter
  0
POLYLINE
  8
enter
 62
0
 70
0
 66
1
 10
0.0
 20
0.0
 30
0.0
  0
VERTEX
  8
enter
 10
60.42499999999997
 20
-107.29999999999998
 30
0.0
  0
VERTEX
  8
enter
 10
72.92499999999998
 20
-107.29999999999998
 30
0.0
  0
SEQEND
  8
enter
  0
ARC
  8
enter
 62
0
 10
60.42499999999997
 20
-120.55
 30
0.0
 40
0.75
 50
-180.0
 51
-90.0
  0
ARC
  8
enter
 62
0
 10
72.92499999999998
 20
-108.04999999999998
 30
0.0
 40
0.75
 50
-0.0
 51
90.0
  0
POLYLINE
  8
enter
 62
0
 70
0
 66
1
 10
0.0
 20
0.0
 30
0.0
  0
VERTEX
  8
enter
 10
72.92499999999998
 20
-121.3
 30
0.0
  0
VERTEX
  8
enter
 10
60.42500000000001
 20
-121.3
 30
0.0
  0
SEQEND
  8
enter
  0
ARC
  8
Group039
 62
0
 10
28.23799999999993
 20
-131.57500006884777
 30
0.0
 40
0.75
 50
-180.0
 51
-90.0
  0
ARC
  8
Group039
 62
0
 10
33.73799999999994
 20
-131.57500006884777
 30
0.0
 40
0.75
 50
-90.0
 51
-0.0
  0
POLYLINE
  8
Group039
 62
0
 70
0
 66
1
 10
0.0
 20
0.0
 30
0.0
  0
VERTEX
  8
Group039
 10
28.237999999999957
 20
-116.8250000688478
 30
0.0
  0
VERTEX
  8
Group039
 10
33.73799999999997
 20
-116.82500006884777
 30
0.0
  0
SEQEND
  8
Group039
  0
POLYLINE
  8
zero
 62
0
 70
0
 66
1
 10
0.0
 20
0.0
 30
0.0
  0
VERTEX
  8
zero
 10
12.79999999999994
 20
-116.82500000000013
 30
0.0
  0
VERTEX
  8
zero
 10
25.29999999999994
 20
-116.8250000000001
 30
0.0
  0
SEQEND
  8
zero
  0
ARC
  8
zero
 62
0
 10
12.79999999999994
 20
-117.57500000000013
 30
0.0
 40
0.75
 50
90.0
 51
-180.0
  0
ARC
  8
Group039
 62
0
 10
28.237999999999957
 20
-117.5750000688478
 30
0.0
 40
0.75
 50
90.0
 51
-180.0
  0
POLYLINE
  8
Group037
 62
0
 70
0
 66
1
 10
0.0
 20
0.0
 30
0.0
  0
VERTEX
  8
Group037
 10
10.611999999999924
 20
-131.57500006884777
 30
0.0
  0
VERTEX
  8
Group037
 10
10.611999999999929
 20
-117.57500006884774
 30
0.0
  0
SEQEND
  8
Group037
  0
ARC
  8
Group039
 62
0
 10
33.73799999999994
 20
-117.5750000688478
 30
0.0
 40
0.75
 50
-0.0
 51
90.0
  0
ARC
  8
zero
 62
0
 10
12.799999999999926
 20
-130.07500000000013
 30
0.0
 40
0.75
 50
-180.0
 51
-90.0
  0
ARC
  8
zero
 62
0
 10
25.299999999999955
 20
-117.57500000000013
 30
0.0
 40
0.75
 50
-0.0
 51
90.0
  0
POLYLINE
  8
zero
 62
0
 70
0
 66
1
 10
0.0
 20
0.0
 30
0.0
  0
VERTEX
  8
zero
 10
12.049999999999926
 20
-130.07500000000013
 30
0.0
  0
VERTEX
  8
zero
 10
12.049999999999924
 20
-117.5750000000001
 30
0.0
  0
SEQEND
  8
zero
  0
ARC
  8
zero
 62
0
 10
25.29999999999994
 20
-130.07500000000013
 30
0.0
 40
0.75
 50
-90.0
 51
-0.0
  0
POLYLINE
  8
zero
 62
0
 70
0
 66
1
 10
0.0
 20
0.0
 30
0.0
  0
VERTEX
  8
zero
 10
25.29999999999994
 20
-130.82500000000013
 30
0.0
  0
VERTEX
  8
zero
 10
12.799999999999928
 20
-130.8250000000002
 30
0.0
  0
SEQEND
  8
zero
  0
POLYLINE
  8
Group039
 62
0
 70
0
 66
1
 10
0.0
 20
0.0
 30
0.0
  0
VERTEX
  8
Group039
 10
34.48799999999994
 20
-131.57500006884777
 30
0.0
  0
VERTEX
  8
Group039
 10
34.48799999999984
 20
-117.57500006884779
 30
0.0
  0
SEQEND
  8
Group039
  0
POLYLINE
  8
Group039
 62
0
 70
0
 66
1
 10
0.0
 20
0.0
 30
0.0
  0
VERTEX
  8
Group039
 10
33.73799999999994
 20
-132.32500006884777
 30
0.0
  0
VERTEX
  8
Group039
 10
28.237999999999886
 20
-132.32500006884777
 30
0.0
  0
SEQEND
  8
Group039
  0
POLYLINE
  8
Group037
 62
0
 70
0
 66
1
 10
0.0
 20
0.0
 30
0.0
  0
VERTEX
  8
Group037
 10
9.861999999999924
 20
-132.32500006884777
 30
0.0
  0
VERTEX
  8
Group037
 10
4.361999999999924
 20
-132.32500006884777
 30
0.0
  0
SEQEND
  8
Group037
  0
ARC
  8
Group037
 62
0
 10
4.361999999999952
 20
-117.5750000688478
 30
0.0
 40
0.75
 50
90.0
 51
-180.0
  0
POLYLINE
  8
Group039
 62
0
 70
0
 66
1
 10
0.0
 20
0.0
 30
0.0
  0
VERTEX
  8
Group039
 10
27.48799999999993
 20
-131.57500006884777
 30
0.0
  0
VERTEX
  8
Group039
 10
27.487999999999946
 20
-117.57500006884779
 30
0.0
  0
SEQEND
  8
Group039
  0
POLYLINE
  8
zero
 62
0
 70
0
 66
1
 10
0.0
 20
0.0
 30
0.0
  0
VERTEX
  8
zero
 10
26.049999999999955
 20
-117.57500000000013
 30
0.0
  0
VERTEX
  8
zero
 10
26.04999999999995
 20
-130.0750000000001
 30
0.0
  0
SEQEND
  8
zero
  0
POLYLINE
  8
Group037
 62
0
 70
0
 66
1
 10
0.0
 20
0.0
 30
0.0
  0
VERTEX
  8
Group037
 10
3.6119999999999237
 20
-131.57500006884777
 30
0.0
  0
VERTEX
  8
Group037
 10
3.6119999999999495
 20
-117.57500006884777
 30
0.0
  0
SEQEND
  8
Group037
  0
POLYLINE
  8
Group037
 62
0
 70
0
 66
1
 10
0.0
 20
0.0
 30
0.0
  0
VERTEX
  8
Group037
 10
4.361999999999952
 20
-116.8250000688478
 30
0.0
  0
VERTEX
  8
Group037
 10
9.861999999999945
 20
-116.8250000688478
 30
0.0
  0
SEQEND
  8
Group037
  0
ARC
  8
Group037
 62
0
 10
9.861999999999952
 20
-117.5750000688478
 30
0.0
 40
0.75
 50
-0.0
 51
90.0
  0
ARC
  8
Group037
 62
0
 10
9.861999999999924
 20
-131.57500006884777
 30
0.0
 40
0.75
 50
-90.0
 51
-0.0
  0
ARC
  8
Group037
 62
0
 10
4.361999999999924
 20
-131.57500006884777
 30
0.0
 40
0.75
 50
-180.0
 51
-90.0
  0
POLYLINE
  8
dot
 62
0
 70
0
 66
1
 10
0.0
 20
0.0
 30
0.0
  0
VERTEX
  8
dot
 10
40.62499999999983
 20
-130.0750000000001
 30
0.0
  0
VERTEX
  8
dot
 10
40.62499999999983
 20
-117.5750000000001
 30
0.0
  0
SEQEND
  8
dot
  0
ARC
  8
dot
 62
0
 10
41.37499999999983
 20
-117.57500000000009
 30
0.0
 40
0.75
 50
90.0
 51
-180.0
  0
POLYLINE
  8
dot
 62
0
 70
0
 66
1
 10
0.0
 20
0.0
 30
0.0
  0
VERTEX
  8
dot
 10
41.37499999999983
 20
-116.82500000000009
 30
0.0
  0
VERTEX
  8
dot
 10
53.87499999999983
 20
-116.82500000000009
 30
0.0
  0
SEQEND
  8
dot
  0
ARC
  8
dot
 62
0
 10
53.87499999999983
 20
-117.57500000000009
 30
0.0
 40
0.75
 50
-0.0
 51
90.0
  0
POLYLINE
  8
dot
 62
0
 70
0
 66
1
 10
0.0
 20
0.0
 30
0.0
  0
VERTEX
  8
dot
 10
54.62499999999983
 20
-117.57500000000009
 30
0.0
  0
VERTEX
  8
dot
 10
54.62499999999983
 20
-130.0750000000001
 30
0.0
  0
SEQEND
  8
dot
  0
ARC
  8
dot
 62
0
 10
53.87499999999983
 20
-130.0750000000001
 30
0.0
 40
0.75
 50
-90.0
 51
-0.0
  0
POLYLINE
  8
dot
 62
0
 70
0
 66
1
 10
0.0
 20
0.0
 30
0.0
  0
VERTEX
  8
dot
 10
53.87499999999983
 20
-130.8250000000001
 30
0.0
  0
VERTEX
  8
dot
 10
41.37499999999983
 20
-130.8250000000001
 30
0.0
  0
SEQEND
  8
dot
  0
ARC
  8
dot
 62
0
 10
41.37499999999983
 20
-130.0750000000001
 30
0.0
 40
0.75
 50
-180.0
 51
-90.0
  0
ARC
  8
Border
 62
0
 10
38.099999999999994
 20
-28.575000000000003
 30
0.0
 40
3.499999999999999
 50
25.37693352515231
 51
154.6230664748477
  0
ARC
  8
Border
 62
0
 10
38.099999999999994
 20
-28.575000000000003
 30
0.0
 40
3.499999999999999
 50
-154.6230664748477
 51
-25.376933525152356
  0
ARC
  8
Border
 62
0
 10
1.4999999999998863
 20
-131.8500000000001
 30
0.0
 40
1.5
 50
-180.0
 51
-90.00000000000001
  0
ARC
  8
Border
 62
0
 10
74.69999999999999
 20
-131.84999999999997
 30
0.0
 40
1.5
 50
-90.0
 51
-0.0
  0
ARC
  8
Border
 62
0
 10
1.5
 20
-31.574999999999974
 30
0.0
 40
1.5
 50
89.99999999999999
 51
-180.0
  0
ARC
  8
Border
 62
0
 10
74.7000000000001
 20
-31.574999999999832
 30
0.0
 40
1.5
 50
-0.0
 51
90.0
  0
ARC
  8
Border
 62
0
 10
74.7000000000001
 20
-25.57499999999986
 30
0.0
 40
1.5
 50
-90.0
 51
-0.0
  0
ARC
  8
Border
 62
0
 10
1.5
 20
-25.575000000000003
 30
0.0
 40
1.5
 50
-180.0
 51
-90.00000000000001
  0
ARC
  8
Border
 62
0
 10
74.7000000000001
 20
-1.4999999999998295
 30
0.0
 40
1.5
 50
-0.0
 51
90.0
  0
ARC
  8
Border
 62
0
 10
1.5
 20
-1.4999999999999716
 30
0.0
 40
1.5
 50
90.0
 51
180.0
  0
POLYLINE
  8
Border
 62
0
 70
0
 66
1
 10
0.0
 20
0.0
 30
0.0
  0
VERTEX
  8
Border
 10
1.5000000000000002
 20
2.842170943040401e-14
 30
0.0
  0
VERTEX
  8
Border
 10
74.7000000000001
 20
1.7053025658242404e-13
 30
0.0
  0
SEQEND
  8
Border
  0
POLYLINE
  8
Border
 62
0
 70
0
 66
1
 10
0.0
 20
0.0
 30
0.0
  0
VERTEX
  8
Border
 10
76.2000000000001
 20
-1.4999999999998297
 30
0.0
  0
VERTEX
  8
Border
 10
76.2000000000001
 20
-25.57499999999986
 30
0.0
  0
SEQEND
  8
Border
  0
POLYLINE
  8
Border
 62
0
 70
0
 66
1
 10
0.0
 20
0.0
 30
0.0
  0
VERTEX
  8
Border
 10
0.0
 20
-25.575000000000003
 30
0.0
  0
VERTEX
  8
Border
 10
0.0
 20
-1.4999999999999716
 30
0.0
  0
SEQEND
  8
Border
  0
POLYLINE
  8
Border
 62
0
 70
0
 66
1
 10
0.0
 20
0.0
 30
0.0
  0
VERTEX
  8
Border
 10
0.0
 20
-31.574999999999974
 30
0.0
  0
VERTEX
  8
Border
 10
-1.1368683772161603e-13
 20
-131.8500000000001
 30
0.0
  0
SEQEND
  8
Border
  0
POLYLINE
  8
Border
 62
0
 70
0
 66
1
 10
0.0
 20
0.0
 30
0.0
  0
VERTEX
  8
Border
 10
1.499999999999886
 20
-133.3500000000001
 30
0.0
  0
VERTEX
  8
Border
 10
74.69999999999999
 20
-133.34999999999997
 30
0.0
  0
SEQEND
  8
Border
  0
POLYLINE
  8
Border
 62
0
 70
0
 66
1
 10
0.0
 20
0.0
 30
0.0
  0
VERTEX
  8
Border
 10
76.19999999999999
 20
-131.84999999999997
 30
0.0
  0
VERTEX
  8
Border
 10
76.2000000000001
 20
-31.574999999999832
 30
0.0
  0
SEQEND
  8
Border
  0
ARC
  8
Border
 62
0
 10
22.218861169915808
 20
-28.575000000000003
 30
0.0
 40
1.5
 50
90.0
 51
-90.0
  0
ARC
  8
Border
 62
0
 10
14.218861169915805
 20
-28.575
 30
0.0
 40
1.5
 50
-90.0
 51
90.0
  0
POLYLINE
  8
Border
 62
0
 70
0
 66
1
 10
0.0
 20
0.0
 30
0.0
  0
VERTEX
  8
Border
 10
1.4999999999999998
 20
-27.075000000000003
 30
0.0
  0
VERTEX
  8
Border
 10
14.218861169915805
 20
-27.075
 30
0.0
  0
SEQEND
  8
Border
  0
POLYLINE
  8
Border
 62
0
 70
0
 66
1
 10
0.0
 20
0.0
 30
0.0
  0
VERTEX
  8
Border
 10
14.218861169915805
 20
-30.075
 30
0.0
  0
VERTEX
  8
Border
 10
1.5
 20
-30.074999999999974
 30
0.0
  0
SEQEND
  8
Border
  0
POLYLINE
  8
Border
 62
0
 70
0
 66
1
 10
0.0
 20
0.0
 30
0.0
  0
VERTEX
  8
Border
 10
22.218861169915808
 20
-27.075000000000003
 30
0.0
  0
VERTEX
  8
Border
 10
34.937722339831616
 20
-27.075000000000003
 30
0.0
  0
SEQEND
  8
Border
  0
POLYLINE
  8
Border
 62
0
 70
0
 66
1
 10
0.0
 20
0.0
 30
0.0
  0
VERTEX
  8
Border
 10
34.937722339831616
 20
-30.075000000000003
 30
0.0
  0
VERTEX
  8
Border
 10
22.218861169915808
 20
-30.075000000000003
 30
0.0
  0
SEQEND
  8
Border
  0
POLYLINE
  8
Border
 62
0
 70
0
 66
1
 10
0.0
 20
0.0
 30
0.0
  0
VERTEX
  8
Border
 10
61.98113883008418
 20
-27.075000000000003
 30
0.0
  0
VERTEX
  8
Border
 10
74.69999999999999
 20
-27.075000000000003
 30
0.0
  0
SEQEND
  8
Border
  0
POLYLINE
  8
Border
 62
0
 70
0
 66
1
 10
0.0
 20
0.0
 30
0.0
  0
VERTEX
  8
Border
 10
74.69999999999999
 20
-30.075000000000003
 30
0.0
  0
VERTEX
  8
Border
 10
61.98113883008418
 20
-30.075000000000003
 30
0.0
  0
SEQEND
  8
Border
  0
ARC
  8
Border
 62
0
 10
61.98113883008418
 20
-28.575000000000003
 30
0.0
 40
1.5
 50
90.0
 51
-90.0
  0
ARC
  8
Border
 62
0
 10
53.98113883008418
 20
-28.575
 30
0.0
 40
1.5
 50
-90.0
 51
90.0
  0
POLYLINE
  8
Border
 62
0
 70
0
 66
1
 10
0.0
 20
0.0
 30
0.0
  0
VERTEX
  8
Border
 10
53.98113883008418
 20
-30.075
 30
0.0
  0
VERTEX
  8
Border
 10
41.26227766016837
 20
-30.074999999999974
 30
0.0
  0
SEQEND
  8
Border
  0
POLYLINE
  8
Border
 62
0
 70
0
 66
1
 10
0.0
 20
0.0
 30
0.0
  0
VERTEX
  8
Border
 10
41.26227766016837
 20
-27.075000000000003
 30
0.0
  0
VERTEX
  8
Border
 10
53.98113883008418
 20
-27.075
 30
0.0
  0
SEQEND
  8
Border
  0
ENDSEC
  0
EOF
