  0
SECTION
  2
HEADER
  9
$ACADVER
  1
AC1009
  9
$INSBASE
 10
0.0
 20
0.0
 30
0.0
  9
$EXTMIN
 10
0.0
 20
0.0
 30
0.0
  9
$EXTMAX
 10
0.0
 20
0.0
 30
0.0
  0
ENDSEC
  0
SECTION
  2
TABLES
  0
TABLE
  2
VPORT
 70
0
  0
ENDTAB
  0
TABLE
  2
LTYPE
 70
1
  0
LTYPE
  2
CONTINUOUS
 70
0
  3
Solid line
 72
65
 73
0
 40
0.0
  0
ENDTAB
  0
TABLE
  2
LAYER
 70
1
  0
LAYER
  2
0
 70
64
 62
7
  6
continuous
  0
ENDTAB
  0
TABLE
  2
STYLE
 70
1
  0
STYLE
  2
STANDARD
 70
0
 40
0
 41
1.0
 50
0.0
 71
0
 42
1
 3
ARIAL.TTF
 4

  0
ENDTAB
  0
TABLE
  2
VIEW
 70
0
  0
ENDTAB
  0
ENDSEC
  0
SECTION
  2
BLOCKS
  0
ENDSEC
  0
SECTION
  2
ENTITIES
  0
ARC
  8
Group158
 62
0
 10
2.825225
 20
-40.9248
 30
0.0
 40
0.3
 50
90.0
 51
-180.0
  0
ARC
  8
Group158
 62
0
 10
2.825225
 20
-54.3248
 30
0.0
 40
0.3
 50
-180.0
 51
-90.0
  0
ARC
  8
Group158
 62
0
 10
16.224775
 20
-54.3248
 30
0.0
 40
0.3
 50
-90.0
 51
-0.0
  0
ARC
  8
Group158
 62
0
 10
16.224775
 20
-40.9248
 30
0.0
 40
0.3
 50
-0.0
 51
90.0
  0
POLYLINE
  8
Group158
 62
0
 70
0
 66
1
 10
0.0
 20
0.0
 30
0.0
  0
VERTEX
  8
Group158
 10
2.525225
 20
-40.9248
 30
0.0
  0
VERTEX
  8
Group158
 10
2.525225
 20
-54.3248
 30
0.0
  0
SEQEND
  8
Group158
  0
POLYLINE
  8
Group158
 62
0
 70
0
 66
1
 10
0.0
 20
0.0
 30
0.0
  0
VERTEX
  8
Group158
 10
2.825225
 20
-54.6248
 30
0.0
  0
VERTEX
  8
Group158
 10
16.224775
 20
-54.6248
 30
0.0
  0
SEQEND
  8
Group158
  0
POLYLINE
  8
Group158
 62
0
 70
0
 66
1
 10
0.0
 20
0.0
 30
0.0
  0
VERTEX
  8
Group158
 10
16.524775
 20
-54.3248
 30
0.0
  0
VERTEX
  8
Group158
 10
16.524775
 20
-40.9248
 30
0.0
  0
SEQEND
  8
Group158
  0
POLYLINE
  8
Group158
 62
0
 70
0
 66
1
 10
0.0
 20
0.0
 30
0.0
  0
VERTEX
  8
Group158
 10
16.224775
 20
-40.6248
 30
0.0
  0
VERTEX
  8
Group158
 10
2.825225
 20
-40.6248
 30
0.0
  0
SEQEND
  8
Group158
  0
ARC
  8
Group159
 62
0
 10
21.875275
 20
-40.9248
 30
0.0
 40
0.3
 50
90.0
 51
-180.0
  0
ARC
  8
Group159
 62
0
 10
21.875275
 20
-54.3248
 30
0.0
 40
0.3
 50
-180.0
 51
-90.0
  0
ARC
  8
Group159
 62
0
 10
35.274825
 20
-54.3248
 30
0.0
 40
0.3
 50
-90.0
 51
-0.0
  0
ARC
  8
Group159
 62
0
 10
35.274825
 20
-40.9248
 30
0.0
 40
0.3
 50
-0.0
 51
90.0
  0
POLYLINE
  8
Group159
 62
0
 70
0
 66
1
 10
0.0
 20
0.0
 30
0.0
  0
VERTEX
  8
Group159
 10
21.575275
 20
-40.9248
 30
0.0
  0
VERTEX
  8
Group159
 10
21.575275
 20
-54.3248
 30
0.0
  0
SEQEND
  8
Group159
  0
POLYLINE
  8
Group159
 62
0
 70
0
 66
1
 10
0.0
 20
0.0
 30
0.0
  0
VERTEX
  8
Group159
 10
21.875275
 20
-54.6248
 30
0.0
  0
VERTEX
  8
Group159
 10
35.274825
 20
-54.6248
 30
0.0
  0
SEQEND
  8
Group159
  0
POLYLINE
  8
Group159
 62
0
 70
0
 66
1
 10
0.0
 20
0.0
 30
0.0
  0
VERTEX
  8
Group159
 10
35.574825
 20
-54.3248
 30
0.0
  0
VERTEX
  8
Group159
 10
35.574825
 20
-40.9248
 30
0.0
  0
SEQEND
  8
Group159
  0
POLYLINE
  8
Group159
 62
0
 70
0
 66
1
 10
0.0
 20
0.0
 30
0.0
  0
VERTEX
  8
Group159
 10
35.274825
 20
-40.6248
 30
0.0
  0
VERTEX
  8
Group159
 10
21.875275
 20
-40.6248
 30
0.0
  0
SEQEND
  8
Group159
  0
ARC
  8
Group160
 62
0
 10
40.925275
 20
-40.9248
 30
0.0
 40
0.3
 50
90.0
 51
-180.0
  0
ARC
  8
Group160
 62
0
 10
40.925275
 20
-54.3248
 30
0.0
 40
0.3
 50
-180.0
 51
-90.0
  0
ARC
  8
Group160
 62
0
 10
54.324825
 20
-54.3248
 30
0.0
 40
0.3
 50
-90.0
 51
-0.0
  0
ARC
  8
Group160
 62
0
 10
54.324825
 20
-40.9248
 30
0.0
 40
0.3
 50
-0.0
 51
90.0
  0
POLYLINE
  8
Group160
 62
0
 70
0
 66
1
 10
0.0
 20
0.0
 30
0.0
  0
VERTEX
  8
Group160
 10
40.625275
 20
-40.9248
 30
0.0
  0
VERTEX
  8
Group160
 10
40.625275
 20
-54.3248
 30
0.0
  0
SEQEND
  8
Group160
  0
POLYLINE
  8
Group160
 62
0
 70
0
 66
1
 10
0.0
 20
0.0
 30
0.0
  0
VERTEX
  8
Group160
 10
40.925275
 20
-54.6248
 30
0.0
  0
VERTEX
  8
Group160
 10
54.324825
 20
-54.6248
 30
0.0
  0
SEQEND
  8
Group160
  0
POLYLINE
  8
Group160
 62
0
 70
0
 66
1
 10
0.0
 20
0.0
 30
0.0
  0
VERTEX
  8
Group160
 10
54.624825
 20
-54.3248
 30
0.0
  0
VERTEX
  8
Group160
 10
54.624825
 20
-40.9248
 30
0.0
  0
SEQEND
  8
Group160
  0
POLYLINE
  8
Group160
 62
0
 70
0
 66
1
 10
0.0
 20
0.0
 30
0.0
  0
VERTEX
  8
Group160
 10
54.324825
 20
-40.6248
 30
0.0
  0
VERTEX
  8
Group160
 10
40.925275
 20
-40.6248
 30
0.0
  0
SEQEND
  8
Group160
  0
ARC
  8
Group161
 62
0
 10
59.975275
 20
-40.9248
 30
0.0
 40
0.3
 50
90.0
 51
-180.0
  0
ARC
  8
Group161
 62
0
 10
59.975275
 20
-54.3248
 30
0.0
 40
0.3
 50
-180.0
 51
-90.0
  0
ARC
  8
Group161
 62
0
 10
73.374825
 20
-54.3248
 30
0.0
 40
0.3
 50
-90.0
 51
-0.0
  0
ARC
  8
Group161
 62
0
 10
73.374825
 20
-40.9248
 30
0.0
 40
0.3
 50
-0.0
 51
90.0
  0
POLYLINE
  8
Group161
 62
0
 70
0
 66
1
 10
0.0
 20
0.0
 30
0.0
  0
VERTEX
  8
Group161
 10
59.675275
 20
-40.9248
 30
0.0
  0
VERTEX
  8
Group161
 10
59.675275
 20
-54.3248
 30
0.0
  0
SEQEND
  8
Group161
  0
POLYLINE
  8
Group161
 62
0
 70
0
 66
1
 10
0.0
 20
0.0
 30
0.0
  0
VERTEX
  8
Group161
 10
59.975275
 20
-54.6248
 30
0.0
  0
VERTEX
  8
Group161
 10
73.374825
 20
-54.6248
 30
0.0
  0
SEQEND
  8
Group161
  0
POLYLINE
  8
Group161
 62
0
 70
0
 66
1
 10
0.0
 20
0.0
 30
0.0
  0
VERTEX
  8
Group161
 10
73.674825
 20
-54.3248
 30
0.0
  0
VERTEX
  8
Group161
 10
73.674825
 20
-40.9248
 30
0.0
  0
SEQEND
  8
Group161
  0
POLYLINE
  8
Group161
 62
0
 70
0
 66
1
 10
0.0
 20
0.0
 30
0.0
  0
VERTEX
  8
Group161
 10
73.374825
 20
-40.6248
 30
0.0
  0
VERTEX
  8
Group161
 10
59.975275
 20
-40.6248
 30
0.0
  0
SEQEND
  8
Group161
  0
ARC
  8
Group162
 62
0
 10
79.025275
 20
-40.9248
 30
0.0
 40
0.3
 50
90.0
 51
-180.0
  0
ARC
  8
Group162
 62
0
 10
79.025275
 20
-54.3248
 30
0.0
 40
0.3
 50
-180.0
 51
-90.0
  0
ARC
  8
Group162
 62
0
 10
92.424825
 20
-54.3248
 30
0.0
 40
0.3
 50
-90.0
 51
-0.0
  0
ARC
  8
Group162
 62
0
 10
92.424825
 20
-40.9248
 30
0.0
 40
0.3
 50
-0.0
 51
90.0
  0
POLYLINE
  8
Group162
 62
0
 70
0
 66
1
 10
0.0
 20
0.0
 30
0.0
  0
VERTEX
  8
Group162
 10
78.725275
 20
-40.9248
 30
0.0
  0
VERTEX
  8
Group162
 10
78.725275
 20
-54.3248
 30
0.0
  0
SEQEND
  8
Group162
  0
POLYLINE
  8
Group162
 62
0
 70
0
 66
1
 10
0.0
 20
0.0
 30
0.0
  0
VERTEX
  8
Group162
 10
79.025275
 20
-54.6248
 30
0.0
  0
VERTEX
  8
Group162
 10
92.424825
 20
-54.6248
 30
0.0
  0
SEQEND
  8
Group162
  0
POLYLINE
  8
Group162
 62
0
 70
0
 66
1
 10
0.0
 20
0.0
 30
0.0
  0
VERTEX
  8
Group162
 10
92.724825
 20
-54.3248
 30
0.0
  0
VERTEX
  8
Group162
 10
92.724825
 20
-40.9248
 30
0.0
  0
SEQEND
  8
Group162
  0
POLYLINE
  8
Group162
 62
0
 70
0
 66
1
 10
0.0
 20
0.0
 30
0.0
  0
VERTEX
  8
Group162
 10
92.424825
 20
-40.6248
 30
0.0
  0
VERTEX
  8
Group162
 10
79.025275
 20
-40.6248
 30
0.0
  0
SEQEND
  8
Group162
  0
ARC
  8
Group163
 62
0
 10
98.073875
 20
-40.9248
 30
0.0
 40
0.3
 50
90.0
 51
-180.0
  0
ARC
  8
Group163
 62
0
 10
98.073875
 20
-54.3248
 30
0.0
 40
0.3
 50
-180.0
 51
-90.0
  0
ARC
  8
Group163
 62
0
 10
111.473425
 20
-54.3248
 30
0.0
 40
0.3
 50
-90.0
 51
-0.0
  0
ARC
  8
Group163
 62
0
 10
111.473425
 20
-40.9248
 30
0.0
 40
0.3
 50
-0.0
 51
90.0
  0
POLYLINE
  8
Group163
 62
0
 70
0
 66
1
 10
0.0
 20
0.0
 30
0.0
  0
VERTEX
  8
Group163
 10
97.773875
 20
-40.9248
 30
0.0
  0
VERTEX
  8
Group163
 10
97.773875
 20
-54.3248
 30
0.0
  0
SEQEND
  8
Group163
  0
POLYLINE
  8
Group163
 62
0
 70
0
 66
1
 10
0.0
 20
0.0
 30
0.0
  0
VERTEX
  8
Group163
 10
98.073875
 20
-54.6248
 30
0.0
  0
VERTEX
  8
Group163
 10
111.473425
 20
-54.6248
 30
0.0
  0
SEQEND
  8
Group163
  0
POLYLINE
  8
Group163
 62
0
 70
0
 66
1
 10
0.0
 20
0.0
 30
0.0
  0
VERTEX
  8
Group163
 10
111.773425
 20
-54.3248
 30
0.0
  0
VERTEX
  8
Group163
 10
111.773425
 20
-40.9248
 30
0.0
  0
SEQEND
  8
Group163
  0
POLYLINE
  8
Group163
 62
0
 70
0
 66
1
 10
0.0
 20
0.0
 30
0.0
  0
VERTEX
  8
Group163
 10
111.473425
 20
-40.6248
 30
0.0
  0
VERTEX
  8
Group163
 10
98.073875
 20
-40.6248
 30
0.0
  0
SEQEND
  8
Group163
  0
ARC
  8
Group164
 62
0
 10
117.123575
 20
-40.9248
 30
0.0
 40
0.3
 50
90.0
 51
-180.0
  0
ARC
  8
Group164
 62
0
 10
117.123575
 20
-54.3248
 30
0.0
 40
0.3
 50
-180.0
 51
-90.0
  0
ARC
  8
Group164
 62
0
 10
130.523125
 20
-54.3248
 30
0.0
 40
0.3
 50
-90.0
 51
-0.0
  0
ARC
  8
Group164
 62
0
 10
130.523125
 20
-40.9248
 30
0.0
 40
0.3
 50
-0.0
 51
90.0
  0
POLYLINE
  8
Group164
 62
0
 70
0
 66
1
 10
0.0
 20
0.0
 30
0.0
  0
VERTEX
  8
Group164
 10
116.823575
 20
-40.9248
 30
0.0
  0
VERTEX
  8
Group164
 10
116.823575
 20
-54.3248
 30
0.0
  0
SEQEND
  8
Group164
  0
POLYLINE
  8
Group164
 62
0
 70
0
 66
1
 10
0.0
 20
0.0
 30
0.0
  0
VERTEX
  8
Group164
 10
117.123575
 20
-54.6248
 30
0.0
  0
VERTEX
  8
Group164
 10
130.523125
 20
-54.6248
 30
0.0
  0
SEQEND
  8
Group164
  0
POLYLINE
  8
Group164
 62
0
 70
0
 66
1
 10
0.0
 20
0.0
 30
0.0
  0
VERTEX
  8
Group164
 10
130.823125
 20
-54.3248
 30
0.0
  0
VERTEX
  8
Group164
 10
130.823125
 20
-40.9248
 30
0.0
  0
SEQEND
  8
Group164
  0
POLYLINE
  8
Group164
 62
0
 70
0
 66
1
 10
0.0
 20
0.0
 30
0.0
  0
VERTEX
  8
Group164
 10
130.523125
 20
-40.6248
 30
0.0
  0
VERTEX
  8
Group164
 10
117.123575
 20
-40.6248
 30
0.0
  0
SEQEND
  8
Group164
  0
ARC
  8
Group165
 62
0
 10
136.175575
 20
-40.9248
 30
0.0
 40
0.3
 50
90.0
 51
-180.0
  0
ARC
  8
Group165
 62
0
 10
136.175575
 20
-54.3248
 30
0.0
 40
0.3
 50
-180.0
 51
-90.0
  0
ARC
  8
Group165
 62
0
 10
149.575125
 20
-54.3248
 30
0.0
 40
0.3
 50
-90.0
 51
-0.0
  0
ARC
  8
Group165
 62
0
 10
149.575125
 20
-40.9248
 30
0.0
 40
0.3
 50
-0.0
 51
90.0
  0
POLYLINE
  8
Group165
 62
0
 70
0
 66
1
 10
0.0
 20
0.0
 30
0.0
  0
VERTEX
  8
Group165
 10
135.875575
 20
-40.9248
 30
0.0
  0
VERTEX
  8
Group165
 10
135.875575
 20
-54.3248
 30
0.0
  0
SEQEND
  8
Group165
  0
POLYLINE
  8
Group165
 62
0
 70
0
 66
1
 10
0.0
 20
0.0
 30
0.0
  0
VERTEX
  8
Group165
 10
136.175575
 20
-54.6248
 30
0.0
  0
VERTEX
  8
Group165
 10
149.575125
 20
-54.6248
 30
0.0
  0
SEQEND
  8
Group165
  0
POLYLINE
  8
Group165
 62
0
 70
0
 66
1
 10
0.0
 20
0.0
 30
0.0
  0
VERTEX
  8
Group165
 10
149.875125
 20
-54.3248
 30
0.0
  0
VERTEX
  8
Group165
 10
149.875125
 20
-40.9248
 30
0.0
  0
SEQEND
  8
Group165
  0
POLYLINE
  8
Group165
 62
0
 70
0
 66
1
 10
0.0
 20
0.0
 30
0.0
  0
VERTEX
  8
Group165
 10
149.575125
 20
-40.6248
 30
0.0
  0
VERTEX
  8
Group165
 10
136.175575
 20
-40.6248
 30
0.0
  0
SEQEND
  8
Group165
  0
ARC
  8
Group166
 62
0
 10
212.373025
 20
-40.9248
 30
0.0
 40
0.3
 50
90.0
 51
-180.0
  0
ARC
  8
Group166
 62
0
 10
212.373025
 20
-54.3248
 30
0.0
 40
0.3
 50
-180.0
 51
-90.0
  0
ARC
  8
Group166
 62
0
 10
225.772575
 20
-54.3248
 30
0.0
 40
0.3
 50
-90.0
 51
-0.0
  0
ARC
  8
Group166
 62
0
 10
225.772575
 20
-40.9248
 30
0.0
 40
0.3
 50
-0.0
 51
90.0
  0
POLYLINE
  8
Group166
 62
0
 70
0
 66
1
 10
0.0
 20
0.0
 30
0.0
  0
VERTEX
  8
Group166
 10
212.073025
 20
-40.9248
 30
0.0
  0
VERTEX
  8
Group166
 10
212.073025
 20
-54.3248
 30
0.0
  0
SEQEND
  8
Group166
  0
POLYLINE
  8
Group166
 62
0
 70
0
 66
1
 10
0.0
 20
0.0
 30
0.0
  0
VERTEX
  8
Group166
 10
212.373025
 20
-54.6248
 30
0.0
  0
VERTEX
  8
Group166
 10
225.772575
 20
-54.6248
 30
0.0
  0
SEQEND
  8
Group166
  0
POLYLINE
  8
Group166
 62
0
 70
0
 66
1
 10
0.0
 20
0.0
 30
0.0
  0
VERTEX
  8
Group166
 10
226.072575
 20
-54.3248
 30
0.0
  0
VERTEX
  8
Group166
 10
226.072575
 20
-40.9248
 30
0.0
  0
SEQEND
  8
Group166
  0
POLYLINE
  8
Group166
 62
0
 70
0
 66
1
 10
0.0
 20
0.0
 30
0.0
  0
VERTEX
  8
Group166
 10
225.772575
 20
-40.6248
 30
0.0
  0
VERTEX
  8
Group166
 10
212.373025
 20
-40.6248
 30
0.0
  0
SEQEND
  8
Group166
  0
ARC
  8
Group168
 62
0
 10
193.323325
 20
-40.9248
 30
0.0
 40
0.3
 50
90.0
 51
-180.0
  0
ARC
  8
Group168
 62
0
 10
193.323325
 20
-54.3248
 30
0.0
 40
0.3
 50
-180.0
 51
-90.0
  0
ARC
  8
Group168
 62
0
 10
206.722875
 20
-54.3248
 30
0.0
 40
0.3
 50
-90.0
 51
-0.0
  0
ARC
  8
Group168
 62
0
 10
206.722875
 20
-40.9248
 30
0.0
 40
0.3
 50
-0.0
 51
90.0
  0
POLYLINE
  8
Group168
 62
0
 70
0
 66
1
 10
0.0
 20
0.0
 30
0.0
  0
VERTEX
  8
Group168
 10
193.023325
 20
-40.9248
 30
0.0
  0
VERTEX
  8
Group168
 10
193.023325
 20
-54.3248
 30
0.0
  0
SEQEND
  8
Group168
  0
POLYLINE
  8
Group168
 62
0
 70
0
 66
1
 10
0.0
 20
0.0
 30
0.0
  0
VERTEX
  8
Group168
 10
193.323325
 20
-54.6248
 30
0.0
  0
VERTEX
  8
Group168
 10
206.722875
 20
-54.6248
 30
0.0
  0
SEQEND
  8
Group168
  0
POLYLINE
  8
Group168
 62
0
 70
0
 66
1
 10
0.0
 20
0.0
 30
0.0
  0
VERTEX
  8
Group168
 10
207.022875
 20
-54.3248
 30
0.0
  0
VERTEX
  8
Group168
 10
207.022875
 20
-40.9248
 30
0.0
  0
SEQEND
  8
Group168
  0
POLYLINE
  8
Group168
 62
0
 70
0
 66
1
 10
0.0
 20
0.0
 30
0.0
  0
VERTEX
  8
Group168
 10
206.722875
 20
-40.6248
 30
0.0
  0
VERTEX
  8
Group168
 10
193.323325
 20
-40.6248
 30
0.0
  0
SEQEND
  8
Group168
  0
ARC
  8
Group169
 62
0
 10
231.425025
 20
-40.9248
 30
0.0
 40
0.3
 50
90.0
 51
-180.0
  0
ARC
  8
Group169
 62
0
 10
231.425025
 20
-54.3248
 30
0.0
 40
0.3
 50
-180.0
 51
-90.0
  0
ARC
  8
Group169
 62
0
 10
244.824575
 20
-54.3248
 30
0.0
 40
0.3
 50
-90.0
 51
-0.0
  0
ARC
  8
Group169
 62
0
 10
244.824575
 20
-40.9248
 30
0.0
 40
0.3
 50
-0.0
 51
90.0
  0
POLYLINE
  8
Group169
 62
0
 70
0
 66
1
 10
0.0
 20
0.0
 30
0.0
  0
VERTEX
  8
Group169
 10
231.125025
 20
-40.9248
 30
0.0
  0
VERTEX
  8
Group169
 10
231.125025
 20
-54.3248
 30
0.0
  0
SEQEND
  8
Group169
  0
POLYLINE
  8
Group169
 62
0
 70
0
 66
1
 10
0.0
 20
0.0
 30
0.0
  0
VERTEX
  8
Group169
 10
231.425025
 20
-54.6248
 30
0.0
  0
VERTEX
  8
Group169
 10
244.824575
 20
-54.6248
 30
0.0
  0
SEQEND
  8
Group169
  0
POLYLINE
  8
Group169
 62
0
 70
0
 66
1
 10
0.0
 20
0.0
 30
0.0
  0
VERTEX
  8
Group169
 10
245.124575
 20
-54.3248
 30
0.0
  0
VERTEX
  8
Group169
 10
245.124575
 20
-40.9248
 30
0.0
  0
SEQEND
  8
Group169
  0
POLYLINE
  8
Group169
 62
0
 70
0
 66
1
 10
0.0
 20
0.0
 30
0.0
  0
VERTEX
  8
Group169
 10
244.824575
 20
-40.6248
 30
0.0
  0
VERTEX
  8
Group169
 10
231.425025
 20
-40.6248
 30
0.0
  0
SEQEND
  8
Group169
  0
ARC
  8
Group170
 62
0
 10
174.274725
 20
-40.9248
 30
0.0
 40
0.3
 50
90.0
 51
-180.0
  0
ARC
  8
Group170
 62
0
 10
174.274725
 20
-54.3248
 30
0.0
 40
0.3
 50
-180.0
 51
-90.0
  0
ARC
  8
Group170
 62
0
 10
187.674275
 20
-54.3248
 30
0.0
 40
0.3
 50
-90.0
 51
-0.0
  0
ARC
  8
Group170
 62
0
 10
187.674275
 20
-40.9248
 30
0.0
 40
0.3
 50
-0.0
 51
90.0
  0
POLYLINE
  8
Group170
 62
0
 70
0
 66
1
 10
0.0
 20
0.0
 30
0.0
  0
VERTEX
  8
Group170
 10
173.974725
 20
-40.9248
 30
0.0
  0
VERTEX
  8
Group170
 10
173.974725
 20
-54.3248
 30
0.0
  0
SEQEND
  8
Group170
  0
POLYLINE
  8
Group170
 62
0
 70
0
 66
1
 10
0.0
 20
0.0
 30
0.0
  0
VERTEX
  8
Group170
 10
174.274725
 20
-54.6248
 30
0.0
  0
VERTEX
  8
Group170
 10
187.674275
 20
-54.6248
 30
0.0
  0
SEQEND
  8
Group170
  0
POLYLINE
  8
Group170
 62
0
 70
0
 66
1
 10
0.0
 20
0.0
 30
0.0
  0
VERTEX
  8
Group170
 10
187.974275
 20
-54.3248
 30
0.0
  0
VERTEX
  8
Group170
 10
187.974275
 20
-40.9248
 30
0.0
  0
SEQEND
  8
Group170
  0
POLYLINE
  8
Group170
 62
0
 70
0
 66
1
 10
0.0
 20
0.0
 30
0.0
  0
VERTEX
  8
Group170
 10
187.674275
 20
-40.6248
 30
0.0
  0
VERTEX
  8
Group170
 10
174.274725
 20
-40.6248
 30
0.0
  0
SEQEND
  8
Group170
  0
ARC
  8
Group167
 62
0
 10
155.224725
 20
-40.9248
 30
0.0
 40
0.3
 50
90.0
 51
-180.0
  0
ARC
  8
Group167
 62
0
 10
155.224725
 20
-54.3248
 30
0.0
 40
0.3
 50
-180.0
 51
-90.0
  0
ARC
  8
Group167
 62
0
 10
168.624275
 20
-54.3248
 30
0.0
 40
0.3
 50
-90.0
 51
-0.0
  0
ARC
  8
Group167
 62
0
 10
168.624275
 20
-40.9248
 30
0.0
 40
0.3
 50
-0.0
 51
90.0
  0
POLYLINE
  8
Group167
 62
0
 70
0
 66
1
 10
0.0
 20
0.0
 30
0.0
  0
VERTEX
  8
Group167
 10
154.924725
 20
-40.9248
 30
0.0
  0
VERTEX
  8
Group167
 10
154.924725
 20
-54.3248
 30
0.0
  0
SEQEND
  8
Group167
  0
POLYLINE
  8
Group167
 62
0
 70
0
 66
1
 10
0.0
 20
0.0
 30
0.0
  0
VERTEX
  8
Group167
 10
155.224725
 20
-54.6248
 30
0.0
  0
VERTEX
  8
Group167
 10
168.624275
 20
-54.6248
 30
0.0
  0
SEQEND
  8
Group167
  0
POLYLINE
  8
Group167
 62
0
 70
0
 66
1
 10
0.0
 20
0.0
 30
0.0
  0
VERTEX
  8
Group167
 10
168.924275
 20
-54.3248
 30
0.0
  0
VERTEX
  8
Group167
 10
168.924275
 20
-40.9248
 30
0.0
  0
SEQEND
  8
Group167
  0
POLYLINE
  8
Group167
 62
0
 70
0
 66
1
 10
0.0
 20
0.0
 30
0.0
  0
VERTEX
  8
Group167
 10
168.624275
 20
-40.6248
 30
0.0
  0
VERTEX
  8
Group167
 10
155.224725
 20
-40.6248
 30
0.0
  0
SEQEND
  8
Group167
  0
POLYLINE
  8
backspace001
 62
0
 70
0
 66
1
 10
0.0
 20
0.0
 30
0.0
  0
VERTEX
  8
backspace001
 10
283.224425
 20
-41.62285
 30
0.0
  0
VERTEX
  8
backspace001
 10
283.224425
 20
-53.62285
 30
0.0
  0
SEQEND
  8
backspace001
  0
POLYLINE
  8
backspace001
 62
0
 70
0
 66
1
 10
0.0
 20
0.0
 30
0.0
  0
VERTEX
  8
backspace001
 10
250.174975
 20
-53.62285
 30
0.0
  0
VERTEX
  8
backspace001
 10
250.174975
 20
-41.62285
 30
0.0
  0
SEQEND
  8
backspace001
  0
POLYLINE
  8
backspace001
 62
0
 70
0
 66
1
 10
0.0
 20
0.0
 30
0.0
  0
VERTEX
  8
backspace001
 10
281.975425
 20
-40.12445
 30
0.0
  0
VERTEX
  8
backspace001
 10
281.975425
 20
-40.62285
 30
0.0
  0
SEQEND
  8
backspace001
  0
POLYLINE
  8
backspace001
 62
0
 70
0
 66
1
 10
0.0
 20
0.0
 30
0.0
  0
VERTEX
  8
backspace001
 10
275.225725
 20
-40.12445
 30
0.0
  0
VERTEX
  8
backspace001
 10
275.225725
 20
-40.62445
 30
0.0
  0
SEQEND
  8
backspace001
  0
POLYLINE
  8
backspace001
 62
0
 70
0
 66
1
 10
0.0
 20
0.0
 30
0.0
  0
VERTEX
  8
backspace001
 10
258.174425
 20
-40.12445
 30
0.0
  0
VERTEX
  8
backspace001
 10
258.174425
 20
-40.62445
 30
0.0
  0
SEQEND
  8
backspace001
  0
POLYLINE
  8
backspace001
 62
0
 70
0
 66
1
 10
0.0
 20
0.0
 30
0.0
  0
VERTEX
  8
backspace001
 10
251.424725
 20
-40.12445
 30
0.0
  0
VERTEX
  8
backspace001
 10
251.424725
 20
-40.62285
 30
0.0
  0
SEQEND
  8
backspace001
  0
POLYLINE
  8
backspace001
 62
0
 70
0
 66
1
 10
0.0
 20
0.0
 30
0.0
  0
VERTEX
  8
backspace001
 10
275.225725
 20
-40.62445
 30
0.0
  0
VERTEX
  8
backspace001
 10
258.174425
 20
-40.62445
 30
0.0
  0
SEQEND
  8
backspace001
  0
POLYLINE
  8
backspace001
 62
0
 70
0
 66
1
 10
0.0
 20
0.0
 30
0.0
  0
VERTEX
  8
backspace001
 10
257.174425
 20
-39.12445
 30
0.0
  0
VERTEX
  8
backspace001
 10
252.424725
 20
-39.12445
 30
0.0
  0
SEQEND
  8
backspace001
  0
ARC
  8
backspace001
 62
0
 10
252.424725
 20
-40.12445
 30
0.0
 40
1.0
 50
90.0
 51
-180.0
  0
ARC
  8
backspace001
 62
0
 10
257.174425
 20
-40.12445
 30
0.0
 40
1.0
 50
-0.0
 51
90.0
  0
POLYLINE
  8
backspace001
 62
0
 70
0
 66
1
 10
0.0
 20
0.0
 30
0.0
  0
VERTEX
  8
backspace001
 10
280.975425
 20
-39.12445
 30
0.0
  0
VERTEX
  8
backspace001
 10
276.225725
 20
-39.12445
 30
0.0
  0
SEQEND
  8
backspace001
  0
ARC
  8
backspace001
 62
0
 10
280.975425
 20
-40.12445
 30
0.0
 40
1.0
 50
-0.0
 51
90.0
  0
ARC
  8
backspace001
 62
0
 10
276.225725
 20
-40.12445
 30
0.0
 40
1.0
 50
90.0
 51
-180.0
  0
ARC
  8
Group259
 62
0
 10
282.924575
 20
-54.32285
 30
0.0
 40
0.3
 50
-90.0
 51
-0.0
  0
ARC
  8
Group259
 62
0
 10
282.924575
 20
-40.92285
 30
0.0
 40
0.3
 50
-0.0
 51
90.0
  0
ARC
  8
Group259
 62
0
 10
250.475575
 20
-40.92355
 30
0.0
 40
0.3
 50
90.0
 51
-180.0
  0
ARC
  8
Group259
 62
0
 10
250.475575
 20
-54.32355
 30
0.0
 40
0.3
 50
-180.0
 51
-90.0
  0
POLYLINE
  8
Group259
 62
0
 70
0
 66
1
 10
0.0
 20
0.0
 30
0.0
  0
VERTEX
  8
Group259
 10
283.224575
 20
-54.32285
 30
0.0
  0
VERTEX
  8
Group259
 10
283.224575
 20
-40.92285
 30
0.0
  0
SEQEND
  8
Group259
  0
POLYLINE
  8
Group259
 62
0
 70
0
 66
1
 10
0.0
 20
0.0
 30
0.0
  0
VERTEX
  8
Group259
 10
250.175575
 20
-40.92355
 30
0.0
  0
VERTEX
  8
Group259
 10
250.175575
 20
-54.32355
 30
0.0
  0
SEQEND
  8
Group259
  0
POLYLINE
  8
backspace001
 62
0
 70
0
 66
1
 10
0.0
 20
0.0
 30
0.0
  0
VERTEX
  8
backspace001
 10
282.924575
 20
-40.62285
 30
0.0
  0
VERTEX
  8
backspace001
 10
281.975425
 20
-40.62285
 30
0.0
  0
SEQEND
  8
backspace001
  0
POLYLINE
  8
backspace001
 62
0
 70
0
 66
1
 10
0.0
 20
0.0
 30
0.0
  0
VERTEX
  8
backspace001
 10
250.475575
 20
-40.62355
 30
0.0
  0
VERTEX
  8
backspace001
 10
251.424725
 20
-40.62285
 30
0.0
  0
SEQEND
  8
backspace001
  0
POLYLINE
  8
backspace001
 62
0
 70
0
 66
1
 10
0.0
 20
0.0
 30
0.0
  0
VERTEX
  8
backspace001
 10
258.174425
 20
-54.62195
 30
0.0
  0
VERTEX
  8
backspace001
 10
275.225725
 20
-54.62195
 30
0.0
  0
SEQEND
  8
backspace001
  0
POLYLINE
  8
backspace001
 62
0
 70
0
 66
1
 10
0.0
 20
0.0
 30
0.0
  0
VERTEX
  8
backspace001
 10
276.225725
 20
-56.12195
 30
0.0
  0
VERTEX
  8
backspace001
 10
280.975425
 20
-56.12195
 30
0.0
  0
SEQEND
  8
backspace001
  0
POLYLINE
  8
backspace001
 62
0
 70
0
 66
1
 10
0.0
 20
0.0
 30
0.0
  0
VERTEX
  8
backspace001
 10
275.225725
 20
-55.12195
 30
0.0
  0
VERTEX
  8
backspace001
 10
275.225725
 20
-54.62195
 30
0.0
  0
SEQEND
  8
backspace001
  0
ARC
  8
backspace001
 62
0
 10
280.975425
 20
-55.12195
 30
0.0
 40
1.0
 50
-90.0
 51
-0.0
  0
POLYLINE
  8
backspace001
 62
0
 70
0
 66
1
 10
0.0
 20
0.0
 30
0.0
  0
VERTEX
  8
backspace001
 10
258.174425
 20
-55.12195
 30
0.0
  0
VERTEX
  8
backspace001
 10
258.174425
 20
-54.62195
 30
0.0
  0
SEQEND
  8
backspace001
  0
ARC
  8
backspace001
 62
0
 10
257.174425
 20
-55.12195
 30
0.0
 40
1.0
 50
-90.0
 51
-0.0
  0
POLYLINE
  8
backspace001
 62
0
 70
0
 66
1
 10
0.0
 20
0.0
 30
0.0
  0
VERTEX
  8
backspace001
 10
252.424725
 20
-56.12195
 30
0.0
  0
VERTEX
  8
backspace001
 10
257.174425
 20
-56.12195
 30
0.0
  0
SEQEND
  8
backspace001
  0
ARC
  8
backspace001
 62
0
 10
252.424725
 20
-55.12195
 30
0.0
 40
1.0
 50
-180.0
 51
-90.0
  0
POLYLINE
  8
backspace001
 62
0
 70
0
 66
1
 10
0.0
 20
0.0
 30
0.0
  0
VERTEX
  8
backspace001
 10
251.424725
 20
-55.12195
 30
0.0
  0
VERTEX
  8
backspace001
 10
251.424725
 20
-54.62355
 30
0.0
  0
SEQEND
  8
backspace001
  0
POLYLINE
  8
backspace001
 62
0
 70
0
 66
1
 10
0.0
 20
0.0
 30
0.0
  0
VERTEX
  8
backspace001
 10
281.975425
 20
-55.12195
 30
0.0
  0
VERTEX
  8
backspace001
 10
281.975425
 20
-54.62355
 30
0.0
  0
SEQEND
  8
backspace001
  0
ARC
  8
backspace001
 62
0
 10
276.225725
 20
-55.12195
 30
0.0
 40
1.0
 50
-180.0
 51
-90.0
  0
POLYLINE
  8
backspace001
 62
0
 70
0
 66
1
 10
0.0
 20
0.0
 30
0.0
  0
VERTEX
  8
backspace001
 10
281.975425
 20
-54.62355
 30
0.0
  0
VERTEX
  8
backspace001
 10
282.924575
 20
-54.62285
 30
0.0
  0
SEQEND
  8
backspace001
  0
POLYLINE
  8
backspace001
 62
0
 70
0
 66
1
 10
0.0
 20
0.0
 30
0.0
  0
VERTEX
  8
backspace001
 10
250.475575
 20
-54.62355
 30
0.0
  0
VERTEX
  8
backspace001
 10
251.424725
 20
-54.62355
 30
0.0
  0
SEQEND
  8
backspace001
  0
ARC
  8
Group180
 62
0
 10
145.700575
 20
-59.9748
 30
0.0
 40
0.3
 50
90.0
 51
-180.0
  0
ARC
  8
Group180
 62
0
 10
145.700575
 20
-73.3748
 30
0.0
 40
0.3
 50
-180.0
 51
-90.0
  0
ARC
  8
Group180
 62
0
 10
159.100125
 20
-73.3748
 30
0.0
 40
0.3
 50
-90.0
 51
-0.0
  0
ARC
  8
Group180
 62
0
 10
159.100125
 20
-59.9748
 30
0.0
 40
0.3
 50
-0.0
 51
90.0
  0
POLYLINE
  8
Group180
 62
0
 70
0
 66
1
 10
0.0
 20
0.0
 30
0.0
  0
VERTEX
  8
Group180
 10
145.400575
 20
-59.9748
 30
0.0
  0
VERTEX
  8
Group180
 10
145.400575
 20
-73.3748
 30
0.0
  0
SEQEND
  8
Group180
  0
POLYLINE
  8
Group180
 62
0
 70
0
 66
1
 10
0.0
 20
0.0
 30
0.0
  0
VERTEX
  8
Group180
 10
145.700575
 20
-73.6748
 30
0.0
  0
VERTEX
  8
Group180
 10
159.100125
 20
-73.6748
 30
0.0
  0
SEQEND
  8
Group180
  0
POLYLINE
  8
Group180
 62
0
 70
0
 66
1
 10
0.0
 20
0.0
 30
0.0
  0
VERTEX
  8
Group180
 10
159.400125
 20
-73.3748
 30
0.0
  0
VERTEX
  8
Group180
 10
159.400125
 20
-59.9748
 30
0.0
  0
SEQEND
  8
Group180
  0
POLYLINE
  8
Group180
 62
0
 70
0
 66
1
 10
0.0
 20
0.0
 30
0.0
  0
VERTEX
  8
Group180
 10
159.100125
 20
-59.6748
 30
0.0
  0
VERTEX
  8
Group180
 10
145.700575
 20
-59.6748
 30
0.0
  0
SEQEND
  8
Group180
  0
ARC
  8
Group184
 62
0
 10
183.799725
 20
-59.9748
 30
0.0
 40
0.3
 50
90.0
 51
-180.0
  0
ARC
  8
Group184
 62
0
 10
183.799725
 20
-73.3748
 30
0.0
 40
0.3
 50
-180.0
 51
-90.0
  0
ARC
  8
Group184
 62
0
 10
197.199275
 20
-73.3748
 30
0.0
 40
0.3
 50
-90.0
 51
-0.0
  0
ARC
  8
Group184
 62
0
 10
197.199275
 20
-59.9748
 30
0.0
 40
0.3
 50
-0.0
 51
90.0
  0
POLYLINE
  8
Group184
 62
0
 70
0
 66
1
 10
0.0
 20
0.0
 30
0.0
  0
VERTEX
  8
Group184
 10
183.499725
 20
-59.9748
 30
0.0
  0
VERTEX
  8
Group184
 10
183.499725
 20
-73.3748
 30
0.0
  0
SEQEND
  8
Group184
  0
POLYLINE
  8
Group184
 62
0
 70
0
 66
1
 10
0.0
 20
0.0
 30
0.0
  0
VERTEX
  8
Group184
 10
183.799725
 20
-73.6748
 30
0.0
  0
VERTEX
  8
Group184
 10
197.199275
 20
-73.6748
 30
0.0
  0
SEQEND
  8
Group184
  0
POLYLINE
  8
Group184
 62
0
 70
0
 66
1
 10
0.0
 20
0.0
 30
0.0
  0
VERTEX
  8
Group184
 10
197.499275
 20
-73.3748
 30
0.0
  0
VERTEX
  8
Group184
 10
197.499275
 20
-59.9748
 30
0.0
  0
SEQEND
  8
Group184
  0
POLYLINE
  8
Group184
 62
0
 70
0
 66
1
 10
0.0
 20
0.0
 30
0.0
  0
VERTEX
  8
Group184
 10
197.199275
 20
-59.6748
 30
0.0
  0
VERTEX
  8
Group184
 10
183.799725
 20
-59.6748
 30
0.0
  0
SEQEND
  8
Group184
  0
ARC
  8
Group181
 62
0
 10
88.550275
 20
-59.9748
 30
0.0
 40
0.3
 50
90.0
 51
-180.0
  0
ARC
  8
Group181
 62
0
 10
88.550275
 20
-73.3748
 30
0.0
 40
0.3
 50
-180.0
 51
-90.0
  0
ARC
  8
Group181
 62
0
 10
101.949825
 20
-73.3748
 30
0.0
 40
0.3
 50
-90.0
 51
-0.0
  0
ARC
  8
Group181
 62
0
 10
101.949825
 20
-59.9748
 30
0.0
 40
0.3
 50
-0.0
 51
90.0
  0
POLYLINE
  8
Group181
 62
0
 70
0
 66
1
 10
0.0
 20
0.0
 30
0.0
  0
VERTEX
  8
Group181
 10
88.250275
 20
-59.9748
 30
0.0
  0
VERTEX
  8
Group181
 10
88.250275
 20
-73.3748
 30
0.0
  0
SEQEND
  8
Group181
  0
POLYLINE
  8
Group181
 62
0
 70
0
 66
1
 10
0.0
 20
0.0
 30
0.0
  0
VERTEX
  8
Group181
 10
88.550275
 20
-73.6748
 30
0.0
  0
VERTEX
  8
Group181
 10
101.949825
 20
-73.6748
 30
0.0
  0
SEQEND
  8
Group181
  0
POLYLINE
  8
Group181
 62
0
 70
0
 66
1
 10
0.0
 20
0.0
 30
0.0
  0
VERTEX
  8
Group181
 10
102.249825
 20
-73.3748
 30
0.0
  0
VERTEX
  8
Group181
 10
102.249825
 20
-59.9748
 30
0.0
  0
SEQEND
  8
Group181
  0
POLYLINE
  8
Group181
 62
0
 70
0
 66
1
 10
0.0
 20
0.0
 30
0.0
  0
VERTEX
  8
Group181
 10
101.949825
 20
-59.6748
 30
0.0
  0
VERTEX
  8
Group181
 10
88.550275
 20
-59.6748
 30
0.0
  0
SEQEND
  8
Group181
  0
ARC
  8
Group185
 62
0
 10
164.749725
 20
-59.9748
 30
0.0
 40
0.3
 50
90.0
 51
-180.0
  0
ARC
  8
Group185
 62
0
 10
164.749725
 20
-73.3748
 30
0.0
 40
0.3
 50
-180.0
 51
-90.0
  0
ARC
  8
Group185
 62
0
 10
178.149275
 20
-73.3748
 30
0.0
 40
0.3
 50
-90.0
 51
-0.0
  0
ARC
  8
Group185
 62
0
 10
178.149275
 20
-59.9748
 30
0.0
 40
0.3
 50
-0.0
 51
90.0
  0
POLYLINE
  8
Group185
 62
0
 70
0
 66
1
 10
0.0
 20
0.0
 30
0.0
  0
VERTEX
  8
Group185
 10
164.449725
 20
-59.9748
 30
0.0
  0
VERTEX
  8
Group185
 10
164.449725
 20
-73.3748
 30
0.0
  0
SEQEND
  8
Group185
  0
POLYLINE
  8
Group185
 62
0
 70
0
 66
1
 10
0.0
 20
0.0
 30
0.0
  0
VERTEX
  8
Group185
 10
164.749725
 20
-73.6748
 30
0.0
  0
VERTEX
  8
Group185
 10
178.149275
 20
-73.6748
 30
0.0
  0
SEQEND
  8
Group185
  0
POLYLINE
  8
Group185
 62
0
 70
0
 66
1
 10
0.0
 20
0.0
 30
0.0
  0
VERTEX
  8
Group185
 10
178.449275
 20
-73.3748
 30
0.0
  0
VERTEX
  8
Group185
 10
178.449275
 20
-59.9748
 30
0.0
  0
SEQEND
  8
Group185
  0
POLYLINE
  8
Group185
 62
0
 70
0
 66
1
 10
0.0
 20
0.0
 30
0.0
  0
VERTEX
  8
Group185
 10
178.149275
 20
-59.6748
 30
0.0
  0
VERTEX
  8
Group185
 10
164.749725
 20
-59.6748
 30
0.0
  0
SEQEND
  8
Group185
  0
ARC
  8
Group182
 62
0
 10
202.848325
 20
-59.9748
 30
0.0
 40
0.3
 50
90.0
 51
-180.0
  0
ARC
  8
Group182
 62
0
 10
202.848325
 20
-73.3748
 30
0.0
 40
0.3
 50
-180.0
 51
-90.0
  0
ARC
  8
Group182
 62
0
 10
216.247875
 20
-73.3748
 30
0.0
 40
0.3
 50
-90.0
 51
-0.0
  0
ARC
  8
Group182
 62
0
 10
216.247875
 20
-59.9748
 30
0.0
 40
0.3
 50
-0.0
 51
90.0
  0
POLYLINE
  8
Group182
 62
0
 70
0
 66
1
 10
0.0
 20
0.0
 30
0.0
  0
VERTEX
  8
Group182
 10
202.548325
 20
-59.9748
 30
0.0
  0
VERTEX
  8
Group182
 10
202.548325
 20
-73.3748
 30
0.0
  0
SEQEND
  8
Group182
  0
POLYLINE
  8
Group182
 62
0
 70
0
 66
1
 10
0.0
 20
0.0
 30
0.0
  0
VERTEX
  8
Group182
 10
202.848325
 20
-73.6748
 30
0.0
  0
VERTEX
  8
Group182
 10
216.247875
 20
-73.6748
 30
0.0
  0
SEQEND
  8
Group182
  0
POLYLINE
  8
Group182
 62
0
 70
0
 66
1
 10
0.0
 20
0.0
 30
0.0
  0
VERTEX
  8
Group182
 10
216.547875
 20
-73.3748
 30
0.0
  0
VERTEX
  8
Group182
 10
216.547875
 20
-59.9748
 30
0.0
  0
SEQEND
  8
Group182
  0
POLYLINE
  8
Group182
 62
0
 70
0
 66
1
 10
0.0
 20
0.0
 30
0.0
  0
VERTEX
  8
Group182
 10
216.247875
 20
-59.6748
 30
0.0
  0
VERTEX
  8
Group182
 10
202.848325
 20
-59.6748
 30
0.0
  0
SEQEND
  8
Group182
  0
ARC
  8
Group183
 62
0
 10
240.950025
 20
-59.9748
 30
0.0
 40
0.3
 50
90.0
 51
-180.0
  0
ARC
  8
Group183
 62
0
 10
240.950025
 20
-73.3748
 30
0.0
 40
0.3
 50
-180.0
 51
-90.0
  0
ARC
  8
Group183
 62
0
 10
254.349575
 20
-73.3748
 30
0.0
 40
0.3
 50
-90.0
 51
-0.0
  0
ARC
  8
Group183
 62
0
 10
254.349575
 20
-59.9748
 30
0.0
 40
0.3
 50
-0.0
 51
90.0
  0
POLYLINE
  8
Group183
 62
0
 70
0
 66
1
 10
0.0
 20
0.0
 30
0.0
  0
VERTEX
  8
Group183
 10
240.650025
 20
-59.9748
 30
0.0
  0
VERTEX
  8
Group183
 10
240.650025
 20
-73.3748
 30
0.0
  0
SEQEND
  8
Group183
  0
POLYLINE
  8
Group183
 62
0
 70
0
 66
1
 10
0.0
 20
0.0
 30
0.0
  0
VERTEX
  8
Group183
 10
240.950025
 20
-73.6748
 30
0.0
  0
VERTEX
  8
Group183
 10
254.349575
 20
-73.6748
 30
0.0
  0
SEQEND
  8
Group183
  0
POLYLINE
  8
Group183
 62
0
 70
0
 66
1
 10
0.0
 20
0.0
 30
0.0
  0
VERTEX
  8
Group183
 10
254.649575
 20
-73.3748
 30
0.0
  0
VERTEX
  8
Group183
 10
254.649575
 20
-59.9748
 30
0.0
  0
SEQEND
  8
Group183
  0
POLYLINE
  8
Group183
 62
0
 70
0
 66
1
 10
0.0
 20
0.0
 30
0.0
  0
VERTEX
  8
Group183
 10
254.349575
 20
-59.6748
 30
0.0
  0
VERTEX
  8
Group183
 10
240.950025
 20
-59.6748
 30
0.0
  0
SEQEND
  8
Group183
  0
ARC
  8
Group177
 62
0
 10
31.400275
 20
-59.9748
 30
0.0
 40
0.3
 50
90.0
 51
-180.0
  0
ARC
  8
Group177
 62
0
 10
31.400275
 20
-73.3748
 30
0.0
 40
0.3
 50
-180.0
 51
-90.0
  0
ARC
  8
Group177
 62
0
 10
44.799825
 20
-73.3748
 30
0.0
 40
0.3
 50
-90.0
 51
-0.0
  0
ARC
  8
Group177
 62
0
 10
44.799825
 20
-59.9748
 30
0.0
 40
0.3
 50
-0.0
 51
90.0
  0
POLYLINE
  8
Group177
 62
0
 70
0
 66
1
 10
0.0
 20
0.0
 30
0.0
  0
VERTEX
  8
Group177
 10
31.100275
 20
-59.9748
 30
0.0
  0
VERTEX
  8
Group177
 10
31.100275
 20
-73.3748
 30
0.0
  0
SEQEND
  8
Group177
  0
POLYLINE
  8
Group177
 62
0
 70
0
 66
1
 10
0.0
 20
0.0
 30
0.0
  0
VERTEX
  8
Group177
 10
31.400275
 20
-73.6748
 30
0.0
  0
VERTEX
  8
Group177
 10
44.799825
 20
-73.6748
 30
0.0
  0
SEQEND
  8
Group177
  0
POLYLINE
  8
Group177
 62
0
 70
0
 66
1
 10
0.0
 20
0.0
 30
0.0
  0
VERTEX
  8
Group177
 10
45.099825
 20
-73.3748
 30
0.0
  0
VERTEX
  8
Group177
 10
45.099825
 20
-59.9748
 30
0.0
  0
SEQEND
  8
Group177
  0
POLYLINE
  8
Group177
 62
0
 70
0
 66
1
 10
0.0
 20
0.0
 30
0.0
  0
VERTEX
  8
Group177
 10
44.799825
 20
-59.6748
 30
0.0
  0
VERTEX
  8
Group177
 10
31.400275
 20
-59.6748
 30
0.0
  0
SEQEND
  8
Group177
  0
ARC
  8
Group174
 62
0
 10
126.648575
 20
-59.9748
 30
0.0
 40
0.3
 50
90.0
 51
-180.0
  0
ARC
  8
Group174
 62
0
 10
126.648575
 20
-73.3748
 30
0.0
 40
0.3
 50
-180.0
 51
-90.0
  0
ARC
  8
Group174
 62
0
 10
140.048125
 20
-73.3748
 30
0.0
 40
0.3
 50
-90.0
 51
-0.0
  0
ARC
  8
Group174
 62
0
 10
140.048125
 20
-59.9748
 30
0.0
 40
0.3
 50
-0.0
 51
90.0
  0
POLYLINE
  8
Group174
 62
0
 70
0
 66
1
 10
0.0
 20
0.0
 30
0.0
  0
VERTEX
  8
Group174
 10
126.348575
 20
-59.9748
 30
0.0
  0
VERTEX
  8
Group174
 10
126.348575
 20
-73.3748
 30
0.0
  0
SEQEND
  8
Group174
  0
POLYLINE
  8
Group174
 62
0
 70
0
 66
1
 10
0.0
 20
0.0
 30
0.0
  0
VERTEX
  8
Group174
 10
126.648575
 20
-73.6748
 30
0.0
  0
VERTEX
  8
Group174
 10
140.048125
 20
-73.6748
 30
0.0
  0
SEQEND
  8
Group174
  0
POLYLINE
  8
Group174
 62
0
 70
0
 66
1
 10
0.0
 20
0.0
 30
0.0
  0
VERTEX
  8
Group174
 10
140.348125
 20
-73.3748
 30
0.0
  0
VERTEX
  8
Group174
 10
140.348125
 20
-59.9748
 30
0.0
  0
SEQEND
  8
Group174
  0
POLYLINE
  8
Group174
 62
0
 70
0
 66
1
 10
0.0
 20
0.0
 30
0.0
  0
VERTEX
  8
Group174
 10
140.048125
 20
-59.6748
 30
0.0
  0
VERTEX
  8
Group174
 10
126.648575
 20
-59.6748
 30
0.0
  0
SEQEND
  8
Group174
  0
ARC
  8
Group176
 62
0
 10
221.898025
 20
-59.9748
 30
0.0
 40
0.3
 50
90.0
 51
-180.0
  0
ARC
  8
Group176
 62
0
 10
221.898025
 20
-73.3748
 30
0.0
 40
0.3
 50
-180.0
 51
-90.0
  0
ARC
  8
Group176
 62
0
 10
235.297575
 20
-73.3748
 30
0.0
 40
0.3
 50
-90.0
 51
-0.0
  0
ARC
  8
Group176
 62
0
 10
235.297575
 20
-59.9748
 30
0.0
 40
0.3
 50
-0.0
 51
90.0
  0
POLYLINE
  8
Group176
 62
0
 70
0
 66
1
 10
0.0
 20
0.0
 30
0.0
  0
VERTEX
  8
Group176
 10
221.598025
 20
-59.9748
 30
0.0
  0
VERTEX
  8
Group176
 10
221.598025
 20
-73.3748
 30
0.0
  0
SEQEND
  8
Group176
  0
POLYLINE
  8
Group176
 62
0
 70
0
 66
1
 10
0.0
 20
0.0
 30
0.0
  0
VERTEX
  8
Group176
 10
221.898025
 20
-73.6748
 30
0.0
  0
VERTEX
  8
Group176
 10
235.297575
 20
-73.6748
 30
0.0
  0
SEQEND
  8
Group176
  0
POLYLINE
  8
Group176
 62
0
 70
0
 66
1
 10
0.0
 20
0.0
 30
0.0
  0
VERTEX
  8
Group176
 10
235.597575
 20
-73.3748
 30
0.0
  0
VERTEX
  8
Group176
 10
235.597575
 20
-59.9748
 30
0.0
  0
SEQEND
  8
Group176
  0
POLYLINE
  8
Group176
 62
0
 70
0
 66
1
 10
0.0
 20
0.0
 30
0.0
  0
VERTEX
  8
Group176
 10
235.297575
 20
-59.6748
 30
0.0
  0
VERTEX
  8
Group176
 10
221.898025
 20
-59.6748
 30
0.0
  0
SEQEND
  8
Group176
  0
ARC
  8
Group173
 62
0
 10
7.587735
 20
-59.9748
 30
0.0
 40
0.3
 50
90.0
 51
-180.0
  0
ARC
  8
Group173
 62
0
 10
7.587735
 20
-73.3748
 30
0.0
 40
0.3
 50
-180.0
 51
-90.0
  0
ARC
  8
Group173
 62
0
 10
20.987285
 20
-73.3748
 30
0.0
 40
0.3
 50
-90.0
 51
-0.0
  0
ARC
  8
Group173
 62
0
 10
20.987285
 20
-59.9748
 30
0.0
 40
0.3
 50
-0.0
 51
90.0
  0
POLYLINE
  8
Group173
 62
0
 70
0
 66
1
 10
0.0
 20
0.0
 30
0.0
  0
VERTEX
  8
Group173
 10
7.287735
 20
-59.9748
 30
0.0
  0
VERTEX
  8
Group173
 10
7.287735
 20
-73.3748
 30
0.0
  0
SEQEND
  8
Group173
  0
POLYLINE
  8
Group173
 62
0
 70
0
 66
1
 10
0.0
 20
0.0
 30
0.0
  0
VERTEX
  8
Group173
 10
7.587735
 20
-73.6748
 30
0.0
  0
VERTEX
  8
Group173
 10
20.987285
 20
-73.6748
 30
0.0
  0
SEQEND
  8
Group173
  0
POLYLINE
  8
Group173
 62
0
 70
0
 66
1
 10
0.0
 20
0.0
 30
0.0
  0
VERTEX
  8
Group173
 10
21.287285
 20
-73.3748
 30
0.0
  0
VERTEX
  8
Group173
 10
21.287285
 20
-59.9748
 30
0.0
  0
SEQEND
  8
Group173
  0
POLYLINE
  8
Group173
 62
0
 70
0
 66
1
 10
0.0
 20
0.0
 30
0.0
  0
VERTEX
  8
Group173
 10
20.987285
 20
-59.6748
 30
0.0
  0
VERTEX
  8
Group173
 10
7.587735
 20
-59.6748
 30
0.0
  0
SEQEND
  8
Group173
  0
ARC
  8
Group172
 62
0
 10
50.450275
 20
-59.9748
 30
0.0
 40
0.3
 50
90.0
 51
-180.0
  0
ARC
  8
Group172
 62
0
 10
50.450275
 20
-73.3748
 30
0.0
 40
0.3
 50
-180.0
 51
-90.0
  0
ARC
  8
Group172
 62
0
 10
63.849825
 20
-73.3748
 30
0.0
 40
0.3
 50
-90.0
 51
-0.0
  0
ARC
  8
Group172
 62
0
 10
63.849825
 20
-59.9748
 30
0.0
 40
0.3
 50
-0.0
 51
90.0
  0
POLYLINE
  8
Group172
 62
0
 70
0
 66
1
 10
0.0
 20
0.0
 30
0.0
  0
VERTEX
  8
Group172
 10
50.150275
 20
-59.9748
 30
0.0
  0
VERTEX
  8
Group172
 10
50.150275
 20
-73.3748
 30
0.0
  0
SEQEND
  8
Group172
  0
POLYLINE
  8
Group172
 62
0
 70
0
 66
1
 10
0.0
 20
0.0
 30
0.0
  0
VERTEX
  8
Group172
 10
50.450275
 20
-73.6748
 30
0.0
  0
VERTEX
  8
Group172
 10
63.849825
 20
-73.6748
 30
0.0
  0
SEQEND
  8
Group172
  0
POLYLINE
  8
Group172
 62
0
 70
0
 66
1
 10
0.0
 20
0.0
 30
0.0
  0
VERTEX
  8
Group172
 10
64.149825
 20
-73.3748
 30
0.0
  0
VERTEX
  8
Group172
 10
64.149825
 20
-59.9748
 30
0.0
  0
SEQEND
  8
Group172
  0
POLYLINE
  8
Group172
 62
0
 70
0
 66
1
 10
0.0
 20
0.0
 30
0.0
  0
VERTEX
  8
Group172
 10
63.849825
 20
-59.6748
 30
0.0
  0
VERTEX
  8
Group172
 10
50.450275
 20
-59.6748
 30
0.0
  0
SEQEND
  8
Group172
  0
ARC
  8
Group178
 62
0
 10
69.500275
 20
-59.9748
 30
0.0
 40
0.3
 50
90.0
 51
-180.0
  0
ARC
  8
Group178
 62
0
 10
69.500275
 20
-73.3748
 30
0.0
 40
0.3
 50
-180.0
 51
-90.0
  0
ARC
  8
Group178
 62
0
 10
82.899825
 20
-73.3748
 30
0.0
 40
0.3
 50
-90.0
 51
-0.0
  0
ARC
  8
Group178
 62
0
 10
82.899825
 20
-59.9748
 30
0.0
 40
0.3
 50
-0.0
 51
90.0
  0
POLYLINE
  8
Group178
 62
0
 70
0
 66
1
 10
0.0
 20
0.0
 30
0.0
  0
VERTEX
  8
Group178
 10
69.200275
 20
-59.9748
 30
0.0
  0
VERTEX
  8
Group178
 10
69.200275
 20
-73.3748
 30
0.0
  0
SEQEND
  8
Group178
  0
POLYLINE
  8
Group178
 62
0
 70
0
 66
1
 10
0.0
 20
0.0
 30
0.0
  0
VERTEX
  8
Group178
 10
69.500275
 20
-73.6748
 30
0.0
  0
VERTEX
  8
Group178
 10
82.899825
 20
-73.6748
 30
0.0
  0
SEQEND
  8
Group178
  0
POLYLINE
  8
Group178
 62
0
 70
0
 66
1
 10
0.0
 20
0.0
 30
0.0
  0
VERTEX
  8
Group178
 10
83.199825
 20
-73.3748
 30
0.0
  0
VERTEX
  8
Group178
 10
83.199825
 20
-59.9748
 30
0.0
  0
SEQEND
  8
Group178
  0
POLYLINE
  8
Group178
 62
0
 70
0
 66
1
 10
0.0
 20
0.0
 30
0.0
  0
VERTEX
  8
Group178
 10
82.899825
 20
-59.6748
 30
0.0
  0
VERTEX
  8
Group178
 10
69.500275
 20
-59.6748
 30
0.0
  0
SEQEND
  8
Group178
  0
ARC
  8
Group179
 62
0
 10
107.598875
 20
-59.9748
 30
0.0
 40
0.3
 50
90.0
 51
-180.0
  0
ARC
  8
Group179
 62
0
 10
107.598875
 20
-73.3748
 30
0.0
 40
0.3
 50
-180.0
 51
-90.0
  0
ARC
  8
Group179
 62
0
 10
120.998425
 20
-73.3748
 30
0.0
 40
0.3
 50
-90.0
 51
-0.0
  0
ARC
  8
Group179
 62
0
 10
120.998425
 20
-59.9748
 30
0.0
 40
0.3
 50
-0.0
 51
90.0
  0
POLYLINE
  8
Group179
 62
0
 70
0
 66
1
 10
0.0
 20
0.0
 30
0.0
  0
VERTEX
  8
Group179
 10
107.298875
 20
-59.9748
 30
0.0
  0
VERTEX
  8
Group179
 10
107.298875
 20
-73.3748
 30
0.0
  0
SEQEND
  8
Group179
  0
POLYLINE
  8
Group179
 62
0
 70
0
 66
1
 10
0.0
 20
0.0
 30
0.0
  0
VERTEX
  8
Group179
 10
107.598875
 20
-73.6748
 30
0.0
  0
VERTEX
  8
Group179
 10
120.998425
 20
-73.6748
 30
0.0
  0
SEQEND
  8
Group179
  0
POLYLINE
  8
Group179
 62
0
 70
0
 66
1
 10
0.0
 20
0.0
 30
0.0
  0
VERTEX
  8
Group179
 10
121.298425
 20
-73.3748
 30
0.0
  0
VERTEX
  8
Group179
 10
121.298425
 20
-59.9748
 30
0.0
  0
SEQEND
  8
Group179
  0
POLYLINE
  8
Group179
 62
0
 70
0
 66
1
 10
0.0
 20
0.0
 30
0.0
  0
VERTEX
  8
Group179
 10
120.998425
 20
-59.6748
 30
0.0
  0
VERTEX
  8
Group179
 10
107.598875
 20
-59.6748
 30
0.0
  0
SEQEND
  8
Group179
  0
ARC
  8
Group186
 62
0
 10
264.761025
 20
-59.9748
 30
0.0
 40
0.3
 50
90.0
 51
-180.0
  0
ARC
  8
Group186
 62
0
 10
264.761025
 20
-73.3748
 30
0.0
 40
0.3
 50
-180.0
 51
-90.0
  0
ARC
  8
Group186
 62
0
 10
278.160575
 20
-73.3748
 30
0.0
 40
0.3
 50
-90.0
 51
-0.0
  0
ARC
  8
Group186
 62
0
 10
278.160575
 20
-59.9748
 30
0.0
 40
0.3
 50
-0.0
 51
90.0
  0
POLYLINE
  8
Group186
 62
0
 70
0
 66
1
 10
0.0
 20
0.0
 30
0.0
  0
VERTEX
  8
Group186
 10
264.461025
 20
-59.9748
 30
0.0
  0
VERTEX
  8
Group186
 10
264.461025
 20
-73.3748
 30
0.0
  0
SEQEND
  8
Group186
  0
POLYLINE
  8
Group186
 62
0
 70
0
 66
1
 10
0.0
 20
0.0
 30
0.0
  0
VERTEX
  8
Group186
 10
264.761025
 20
-73.6748
 30
0.0
  0
VERTEX
  8
Group186
 10
278.160575
 20
-73.6748
 30
0.0
  0
SEQEND
  8
Group186
  0
POLYLINE
  8
Group186
 62
0
 70
0
 66
1
 10
0.0
 20
0.0
 30
0.0
  0
VERTEX
  8
Group186
 10
278.460575
 20
-73.3748
 30
0.0
  0
VERTEX
  8
Group186
 10
278.460575
 20
-59.9748
 30
0.0
  0
SEQEND
  8
Group186
  0
POLYLINE
  8
Group186
 62
0
 70
0
 66
1
 10
0.0
 20
0.0
 30
0.0
  0
VERTEX
  8
Group186
 10
278.160575
 20
-59.6748
 30
0.0
  0
VERTEX
  8
Group186
 10
264.761025
 20
-59.6748
 30
0.0
  0
SEQEND
  8
Group186
  0
ARC
  8
Group005
 62
0
 10
273.843225
 20
-93.2232
 30
0.0
 40
1.0
 50
-180.0
 51
-90.0
  0
ARC
  8
Group005
 62
0
 10
278.592925
 20
-93.2232
 30
0.0
 40
1.0
 50
-90.0
 51
-0.0
  0
POLYLINE
  8
Group005
 62
0
 70
0
 66
1
 10
0.0
 20
0.0
 30
0.0
  0
VERTEX
  8
Group005
 10
273.843225
 20
-94.2232
 30
0.0
  0
VERTEX
  8
Group005
 10
278.592925
 20
-94.2232
 30
0.0
  0
SEQEND
  8
Group005
  0
ARC
  8
Group004
 62
0
 10
250.042225
 20
-93.2232
 30
0.0
 40
1.0
 50
-180.0
 51
-90.0
  0
ARC
  8
Group004
 62
0
 10
254.791925
 20
-93.2232
 30
0.0
 40
1.0
 50
-90.0
 51
-0.0
  0
POLYLINE
  8
Group004
 62
0
 70
0
 66
1
 10
0.0
 20
0.0
 30
0.0
  0
VERTEX
  8
Group004
 10
250.042225
 20
-94.2232
 30
0.0
  0
VERTEX
  8
Group004
 10
254.791925
 20
-94.2232
 30
0.0
  0
SEQEND
  8
Group004
  0
ARC
  8
Group193
 62
0
 10
257.619175
 20
-79.0241
 30
0.0
 40
0.3
 50
90.0
 51
-180.0
  0
ARC
  8
Group193
 62
0
 10
257.619175
 20
-92.4241
 30
0.0
 40
0.3
 50
-180.0
 51
-90.0
  0
ARC
  8
Group193
 62
0
 10
271.018725
 20
-92.4241
 30
0.0
 40
0.3
 50
-90.0
 51
-0.0
  0
ARC
  8
Group193
 62
0
 10
271.018725
 20
-79.0241
 30
0.0
 40
0.3
 50
-0.0
 51
90.0
  0
POLYLINE
  8
Group193
 62
0
 70
0
 66
1
 10
0.0
 20
0.0
 30
0.0
  0
VERTEX
  8
Group193
 10
257.319175
 20
-79.0241
 30
0.0
  0
VERTEX
  8
Group193
 10
257.319175
 20
-92.4241
 30
0.0
  0
SEQEND
  8
Group193
  0
POLYLINE
  8
Group193
 62
0
 70
0
 66
1
 10
0.0
 20
0.0
 30
0.0
  0
VERTEX
  8
Group193
 10
257.619175
 20
-92.7241
 30
0.0
  0
VERTEX
  8
Group193
 10
271.018725
 20
-92.7241
 30
0.0
  0
SEQEND
  8
Group193
  0
POLYLINE
  8
Group193
 62
0
 70
0
 66
1
 10
0.0
 20
0.0
 30
0.0
  0
VERTEX
  8
Group193
 10
271.318725
 20
-92.4241
 30
0.0
  0
VERTEX
  8
Group193
 10
271.318725
 20
-79.0241
 30
0.0
  0
SEQEND
  8
Group193
  0
POLYLINE
  8
Group193
 62
0
 70
0
 66
1
 10
0.0
 20
0.0
 30
0.0
  0
VERTEX
  8
Group193
 10
271.018725
 20
-78.7241
 30
0.0
  0
VERTEX
  8
Group193
 10
257.619175
 20
-78.7241
 30
0.0
  0
SEQEND
  8
Group193
  0
ARC
  8
Enter
 62
0
 10
273.845975
 20
-78.225
 30
0.0
 40
1.0
 50
90.0
 51
-180.0
  0
ARC
  8
Enter
 62
0
 10
278.595675
 20
-78.225
 30
0.0
 40
1.0
 50
-0.0
 51
90.0
  0
ARC
  8
Enter
 62
0
 10
250.044975
 20
-78.225
 30
0.0
 40
1.0
 50
90.0
 51
-180.0
  0
ARC
  8
Enter
 62
0
 10
254.794675
 20
-78.225
 30
0.0
 40
1.0
 50
-0.0
 51
90.0
  0
POLYLINE
  8
Enter
 62
0
 70
0
 66
1
 10
0.0
 20
0.0
 30
0.0
  0
VERTEX
  8
Enter
 10
278.595675
 20
-77.225
 30
0.0
  0
VERTEX
  8
Enter
 10
273.845975
 20
-77.225
 30
0.0
  0
SEQEND
  8
Enter
  0
POLYLINE
  8
Enter
 62
0
 70
0
 66
1
 10
0.0
 20
0.0
 30
0.0
  0
VERTEX
  8
Enter
 10
254.794675
 20
-77.225
 30
0.0
  0
VERTEX
  8
Enter
 10
250.044975
 20
-77.225
 30
0.0
  0
SEQEND
  8
Enter
  0
POLYLINE
  8
Enter
 62
0
 70
0
 66
1
 10
0.0
 20
0.0
 30
0.0
  0
VERTEX
  8
Enter
 10
249.044975
 20
-78.225
 30
0.0
  0
VERTEX
  8
Enter
 10
249.042225
 20
-93.2232
 30
0.0
  0
SEQEND
  8
Enter
  0
POLYLINE
  8
Enter
 62
0
 70
0
 66
1
 10
0.0
 20
0.0
 30
0.0
  0
VERTEX
  8
Enter
 10
255.791925
 20
-93.2232
 30
0.0
  0
VERTEX
  8
Enter
 10
255.794675
 20
-78.225
 30
0.0
  0
SEQEND
  8
Enter
  0
POLYLINE
  8
Enter
 62
0
 70
0
 66
1
 10
0.0
 20
0.0
 30
0.0
  0
VERTEX
  8
Enter
 10
272.843225
 20
-93.2232
 30
0.0
  0
VERTEX
  8
Enter
 10
272.845975
 20
-78.225
 30
0.0
  0
SEQEND
  8
Enter
  0
POLYLINE
  8
Enter
 62
0
 70
0
 66
1
 10
0.0
 20
0.0
 30
0.0
  0
VERTEX
  8
Enter
 10
279.592925
 20
-93.2232
 30
0.0
  0
VERTEX
  8
Enter
 10
279.595675
 20
-78.225
 30
0.0
  0
SEQEND
  8
Enter
  0
ARC
  8
Group191
 62
0
 10
169.512225
 20
-79.0248
 30
0.0
 40
0.3
 50
90.0
 51
-180.0
  0
ARC
  8
Group191
 62
0
 10
169.512225
 20
-92.4248
 30
0.0
 40
0.3
 50
-180.0
 51
-90.0
  0
ARC
  8
Group191
 62
0
 10
182.911775
 20
-92.4248
 30
0.0
 40
0.3
 50
-90.0
 51
-0.0
  0
ARC
  8
Group191
 62
0
 10
182.911775
 20
-79.0248
 30
0.0
 40
0.3
 50
-0.0
 51
90.0
  0
POLYLINE
  8
Group191
 62
0
 70
0
 66
1
 10
0.0
 20
0.0
 30
0.0
  0
VERTEX
  8
Group191
 10
169.212225
 20
-79.0248
 30
0.0
  0
VERTEX
  8
Group191
 10
169.212225
 20
-92.4248
 30
0.0
  0
SEQEND
  8
Group191
  0
POLYLINE
  8
Group191
 62
0
 70
0
 66
1
 10
0.0
 20
0.0
 30
0.0
  0
VERTEX
  8
Group191
 10
169.512225
 20
-92.7248
 30
0.0
  0
VERTEX
  8
Group191
 10
182.911775
 20
-92.7248
 30
0.0
  0
SEQEND
  8
Group191
  0
POLYLINE
  8
Group191
 62
0
 70
0
 66
1
 10
0.0
 20
0.0
 30
0.0
  0
VERTEX
  8
Group191
 10
183.211775
 20
-92.4248
 30
0.0
  0
VERTEX
  8
Group191
 10
183.211775
 20
-79.0248
 30
0.0
  0
SEQEND
  8
Group191
  0
POLYLINE
  8
Group191
 62
0
 70
0
 66
1
 10
0.0
 20
0.0
 30
0.0
  0
VERTEX
  8
Group191
 10
182.911775
 20
-78.7248
 30
0.0
  0
VERTEX
  8
Group191
 10
169.512225
 20
-78.7248
 30
0.0
  0
SEQEND
  8
Group191
  0
ARC
  8
Group192
 62
0
 10
207.610825
 20
-79.0248
 30
0.0
 40
0.3
 50
90.0
 51
-180.0
  0
ARC
  8
Group192
 62
0
 10
207.610825
 20
-92.4248
 30
0.0
 40
0.3
 50
-180.0
 51
-90.0
  0
ARC
  8
Group192
 62
0
 10
221.010375
 20
-92.4248
 30
0.0
 40
0.3
 50
-90.0
 51
-0.0
  0
ARC
  8
Group192
 62
0
 10
221.010375
 20
-79.0248
 30
0.0
 40
0.3
 50
-0.0
 51
90.0
  0
POLYLINE
  8
Group192
 62
0
 70
0
 66
1
 10
0.0
 20
0.0
 30
0.0
  0
VERTEX
  8
Group192
 10
207.310825
 20
-79.0248
 30
0.0
  0
VERTEX
  8
Group192
 10
207.310825
 20
-92.4248
 30
0.0
  0
SEQEND
  8
Group192
  0
POLYLINE
  8
Group192
 62
0
 70
0
 66
1
 10
0.0
 20
0.0
 30
0.0
  0
VERTEX
  8
Group192
 10
207.610825
 20
-92.7248
 30
0.0
  0
VERTEX
  8
Group192
 10
221.010375
 20
-92.7248
 30
0.0
  0
SEQEND
  8
Group192
  0
POLYLINE
  8
Group192
 62
0
 70
0
 66
1
 10
0.0
 20
0.0
 30
0.0
  0
VERTEX
  8
Group192
 10
221.310375
 20
-92.4248
 30
0.0
  0
VERTEX
  8
Group192
 10
221.310375
 20
-79.0248
 30
0.0
  0
SEQEND
  8
Group192
  0
POLYLINE
  8
Group192
 62
0
 70
0
 66
1
 10
0.0
 20
0.0
 30
0.0
  0
VERTEX
  8
Group192
 10
221.010375
 20
-78.7248
 30
0.0
  0
VERTEX
  8
Group192
 10
207.610825
 20
-78.7248
 30
0.0
  0
SEQEND
  8
Group192
  0
ARC
  8
Group188
 62
0
 10
150.463075
 20
-79.0248
 30
0.0
 40
0.3
 50
90.0
 51
-180.0
  0
ARC
  8
Group188
 62
0
 10
150.463075
 20
-92.4248
 30
0.0
 40
0.3
 50
-180.0
 51
-90.0
  0
ARC
  8
Group188
 62
0
 10
163.862625
 20
-92.4248
 30
0.0
 40
0.3
 50
-90.0
 51
-0.0
  0
ARC
  8
Group188
 62
0
 10
163.862625
 20
-79.0248
 30
0.0
 40
0.3
 50
-0.0
 51
90.0
  0
POLYLINE
  8
Group188
 62
0
 70
0
 66
1
 10
0.0
 20
0.0
 30
0.0
  0
VERTEX
  8
Group188
 10
150.163075
 20
-79.0248
 30
0.0
  0
VERTEX
  8
Group188
 10
150.163075
 20
-92.4248
 30
0.0
  0
SEQEND
  8
Group188
  0
POLYLINE
  8
Group188
 62
0
 70
0
 66
1
 10
0.0
 20
0.0
 30
0.0
  0
VERTEX
  8
Group188
 10
150.463075
 20
-92.7248
 30
0.0
  0
VERTEX
  8
Group188
 10
163.862625
 20
-92.7248
 30
0.0
  0
SEQEND
  8
Group188
  0
POLYLINE
  8
Group188
 62
0
 70
0
 66
1
 10
0.0
 20
0.0
 30
0.0
  0
VERTEX
  8
Group188
 10
164.162625
 20
-92.4248
 30
0.0
  0
VERTEX
  8
Group188
 10
164.162625
 20
-79.0248
 30
0.0
  0
SEQEND
  8
Group188
  0
POLYLINE
  8
Group188
 62
0
 70
0
 66
1
 10
0.0
 20
0.0
 30
0.0
  0
VERTEX
  8
Group188
 10
163.862625
 20
-78.7248
 30
0.0
  0
VERTEX
  8
Group188
 10
150.463075
 20
-78.7248
 30
0.0
  0
SEQEND
  8
Group188
  0
ARC
  8
Group189
 62
0
 10
188.562225
 20
-79.0248
 30
0.0
 40
0.3
 50
90.0
 51
-180.0
  0
ARC
  8
Group189
 62
0
 10
188.562225
 20
-92.4248
 30
0.0
 40
0.3
 50
-180.0
 51
-90.0
  0
ARC
  8
Group189
 62
0
 10
201.961775
 20
-92.4248
 30
0.0
 40
0.3
 50
-90.0
 51
-0.0
  0
ARC
  8
Group189
 62
0
 10
201.961775
 20
-79.0248
 30
0.0
 40
0.3
 50
-0.0
 51
90.0
  0
POLYLINE
  8
Group189
 62
0
 70
0
 66
1
 10
0.0
 20
0.0
 30
0.0
  0
VERTEX
  8
Group189
 10
188.262225
 20
-79.0248
 30
0.0
  0
VERTEX
  8
Group189
 10
188.262225
 20
-92.4248
 30
0.0
  0
SEQEND
  8
Group189
  0
POLYLINE
  8
Group189
 62
0
 70
0
 66
1
 10
0.0
 20
0.0
 30
0.0
  0
VERTEX
  8
Group189
 10
188.562225
 20
-92.7248
 30
0.0
  0
VERTEX
  8
Group189
 10
201.961775
 20
-92.7248
 30
0.0
  0
SEQEND
  8
Group189
  0
POLYLINE
  8
Group189
 62
0
 70
0
 66
1
 10
0.0
 20
0.0
 30
0.0
  0
VERTEX
  8
Group189
 10
202.261775
 20
-92.4248
 30
0.0
  0
VERTEX
  8
Group189
 10
202.261775
 20
-79.0248
 30
0.0
  0
SEQEND
  8
Group189
  0
POLYLINE
  8
Group189
 62
0
 70
0
 66
1
 10
0.0
 20
0.0
 30
0.0
  0
VERTEX
  8
Group189
 10
201.961775
 20
-78.7248
 30
0.0
  0
VERTEX
  8
Group189
 10
188.562225
 20
-78.7248
 30
0.0
  0
SEQEND
  8
Group189
  0
ARC
  8
Group190
 62
0
 10
93.312775
 20
-79.0248
 30
0.0
 40
0.3
 50
90.0
 51
-180.0
  0
ARC
  8
Group190
 62
0
 10
93.312775
 20
-92.4248
 30
0.0
 40
0.3
 50
-180.0
 51
-90.0
  0
ARC
  8
Group190
 62
0
 10
106.712325
 20
-92.4248
 30
0.0
 40
0.3
 50
-90.0
 51
-0.0
  0
ARC
  8
Group190
 62
0
 10
106.712325
 20
-79.0248
 30
0.0
 40
0.3
 50
-0.0
 51
90.0
  0
POLYLINE
  8
Group190
 62
0
 70
0
 66
1
 10
0.0
 20
0.0
 30
0.0
  0
VERTEX
  8
Group190
 10
93.012775
 20
-79.0248
 30
0.0
  0
VERTEX
  8
Group190
 10
93.012775
 20
-92.4248
 30
0.0
  0
SEQEND
  8
Group190
  0
POLYLINE
  8
Group190
 62
0
 70
0
 66
1
 10
0.0
 20
0.0
 30
0.0
  0
VERTEX
  8
Group190
 10
93.312775
 20
-92.7248
 30
0.0
  0
VERTEX
  8
Group190
 10
106.712325
 20
-92.7248
 30
0.0
  0
SEQEND
  8
Group190
  0
POLYLINE
  8
Group190
 62
0
 70
0
 66
1
 10
0.0
 20
0.0
 30
0.0
  0
VERTEX
  8
Group190
 10
107.012325
 20
-92.4248
 30
0.0
  0
VERTEX
  8
Group190
 10
107.012325
 20
-79.0248
 30
0.0
  0
SEQEND
  8
Group190
  0
POLYLINE
  8
Group190
 62
0
 70
0
 66
1
 10
0.0
 20
0.0
 30
0.0
  0
VERTEX
  8
Group190
 10
106.712325
 20
-78.7248
 30
0.0
  0
VERTEX
  8
Group190
 10
93.312775
 20
-78.7248
 30
0.0
  0
SEQEND
  8
Group190
  0
ARC
  8
Group194
 62
0
 10
36.162775
 20
-79.0248
 30
0.0
 40
0.3
 50
90.0
 51
-180.0
  0
ARC
  8
Group194
 62
0
 10
36.162775
 20
-92.4248
 30
0.0
 40
0.3
 50
-180.0
 51
-90.0
  0
ARC
  8
Group194
 62
0
 10
49.562325
 20
-92.4248
 30
0.0
 40
0.3
 50
-90.0
 51
-0.0
  0
ARC
  8
Group194
 62
0
 10
49.562325
 20
-79.0248
 30
0.0
 40
0.3
 50
-0.0
 51
90.0
  0
POLYLINE
  8
Group194
 62
0
 70
0
 66
1
 10
0.0
 20
0.0
 30
0.0
  0
VERTEX
  8
Group194
 10
35.862775
 20
-79.0248
 30
0.0
  0
VERTEX
  8
Group194
 10
35.862775
 20
-92.4248
 30
0.0
  0
SEQEND
  8
Group194
  0
POLYLINE
  8
Group194
 62
0
 70
0
 66
1
 10
0.0
 20
0.0
 30
0.0
  0
VERTEX
  8
Group194
 10
36.162775
 20
-92.7248
 30
0.0
  0
VERTEX
  8
Group194
 10
49.562325
 20
-92.7248
 30
0.0
  0
SEQEND
  8
Group194
  0
POLYLINE
  8
Group194
 62
0
 70
0
 66
1
 10
0.0
 20
0.0
 30
0.0
  0
VERTEX
  8
Group194
 10
49.862325
 20
-92.4248
 30
0.0
  0
VERTEX
  8
Group194
 10
49.862325
 20
-79.0248
 30
0.0
  0
SEQEND
  8
Group194
  0
POLYLINE
  8
Group194
 62
0
 70
0
 66
1
 10
0.0
 20
0.0
 30
0.0
  0
VERTEX
  8
Group194
 10
49.562325
 20
-78.7248
 30
0.0
  0
VERTEX
  8
Group194
 10
36.162775
 20
-78.7248
 30
0.0
  0
SEQEND
  8
Group194
  0
ARC
  8
Group196
 62
0
 10
226.660525
 20
-79.0248
 30
0.0
 40
0.3
 50
90.0
 51
-180.0
  0
ARC
  8
Group196
 62
0
 10
226.660525
 20
-92.4248
 30
0.0
 40
0.3
 50
-180.0
 51
-90.0
  0
ARC
  8
Group196
 62
0
 10
240.060075
 20
-92.4248
 30
0.0
 40
0.3
 50
-90.0
 51
-0.0
  0
ARC
  8
Group196
 62
0
 10
240.060075
 20
-79.0248
 30
0.0
 40
0.3
 50
-0.0
 51
90.0
  0
POLYLINE
  8
Group196
 62
0
 70
0
 66
1
 10
0.0
 20
0.0
 30
0.0
  0
VERTEX
  8
Group196
 10
226.360525
 20
-79.0248
 30
0.0
  0
VERTEX
  8
Group196
 10
226.360525
 20
-92.4248
 30
0.0
  0
SEQEND
  8
Group196
  0
POLYLINE
  8
Group196
 62
0
 70
0
 66
1
 10
0.0
 20
0.0
 30
0.0
  0
VERTEX
  8
Group196
 10
226.660525
 20
-92.7248
 30
0.0
  0
VERTEX
  8
Group196
 10
240.060075
 20
-92.7248
 30
0.0
  0
SEQEND
  8
Group196
  0
POLYLINE
  8
Group196
 62
0
 70
0
 66
1
 10
0.0
 20
0.0
 30
0.0
  0
VERTEX
  8
Group196
 10
240.360075
 20
-92.4248
 30
0.0
  0
VERTEX
  8
Group196
 10
240.360075
 20
-79.0248
 30
0.0
  0
SEQEND
  8
Group196
  0
POLYLINE
  8
Group196
 62
0
 70
0
 66
1
 10
0.0
 20
0.0
 30
0.0
  0
VERTEX
  8
Group196
 10
240.060075
 20
-78.7248
 30
0.0
  0
VERTEX
  8
Group196
 10
226.660525
 20
-78.7248
 30
0.0
  0
SEQEND
  8
Group196
  0
ARC
  8
Group198
 62
0
 10
55.212775
 20
-79.0248
 30
0.0
 40
0.3
 50
90.0
 51
-180.0
  0
ARC
  8
Group198
 62
0
 10
55.212775
 20
-92.4248
 30
0.0
 40
0.3
 50
-180.0
 51
-90.0
  0
ARC
  8
Group198
 62
0
 10
68.612325
 20
-92.4248
 30
0.0
 40
0.3
 50
-90.0
 51
-0.0
  0
ARC
  8
Group198
 62
0
 10
68.612325
 20
-79.0248
 30
0.0
 40
0.3
 50
-0.0
 51
90.0
  0
POLYLINE
  8
Group198
 62
0
 70
0
 66
1
 10
0.0
 20
0.0
 30
0.0
  0
VERTEX
  8
Group198
 10
54.912775
 20
-79.0248
 30
0.0
  0
VERTEX
  8
Group198
 10
54.912775
 20
-92.4248
 30
0.0
  0
SEQEND
  8
Group198
  0
POLYLINE
  8
Group198
 62
0
 70
0
 66
1
 10
0.0
 20
0.0
 30
0.0
  0
VERTEX
  8
Group198
 10
55.212775
 20
-92.7248
 30
0.0
  0
VERTEX
  8
Group198
 10
68.612325
 20
-92.7248
 30
0.0
  0
SEQEND
  8
Group198
  0
POLYLINE
  8
Group198
 62
0
 70
0
 66
1
 10
0.0
 20
0.0
 30
0.0
  0
VERTEX
  8
Group198
 10
68.912325
 20
-92.4248
 30
0.0
  0
VERTEX
  8
Group198
 10
68.912325
 20
-79.0248
 30
0.0
  0
SEQEND
  8
Group198
  0
POLYLINE
  8
Group198
 62
0
 70
0
 66
1
 10
0.0
 20
0.0
 30
0.0
  0
VERTEX
  8
Group198
 10
68.612325
 20
-78.7248
 30
0.0
  0
VERTEX
  8
Group198
 10
55.212775
 20
-78.7248
 30
0.0
  0
SEQEND
  8
Group198
  0
ARC
  8
Group195
 62
0
 10
131.411075
 20
-79.0248
 30
0.0
 40
0.3
 50
90.0
 51
-180.0
  0
ARC
  8
Group195
 62
0
 10
131.411075
 20
-92.4248
 30
0.0
 40
0.3
 50
-180.0
 51
-90.0
  0
ARC
  8
Group195
 62
0
 10
144.810625
 20
-92.4248
 30
0.0
 40
0.3
 50
-90.0
 51
-0.0
  0
ARC
  8
Group195
 62
0
 10
144.810625
 20
-79.0248
 30
0.0
 40
0.3
 50
-0.0
 51
90.0
  0
POLYLINE
  8
Group195
 62
0
 70
0
 66
1
 10
0.0
 20
0.0
 30
0.0
  0
VERTEX
  8
Group195
 10
131.111075
 20
-79.0248
 30
0.0
  0
VERTEX
  8
Group195
 10
131.111075
 20
-92.4248
 30
0.0
  0
SEQEND
  8
Group195
  0
POLYLINE
  8
Group195
 62
0
 70
0
 66
1
 10
0.0
 20
0.0
 30
0.0
  0
VERTEX
  8
Group195
 10
131.411075
 20
-92.7248
 30
0.0
  0
VERTEX
  8
Group195
 10
144.810625
 20
-92.7248
 30
0.0
  0
SEQEND
  8
Group195
  0
POLYLINE
  8
Group195
 62
0
 70
0
 66
1
 10
0.0
 20
0.0
 30
0.0
  0
VERTEX
  8
Group195
 10
145.110625
 20
-92.4248
 30
0.0
  0
VERTEX
  8
Group195
 10
145.110625
 20
-79.0248
 30
0.0
  0
SEQEND
  8
Group195
  0
POLYLINE
  8
Group195
 62
0
 70
0
 66
1
 10
0.0
 20
0.0
 30
0.0
  0
VERTEX
  8
Group195
 10
144.810625
 20
-78.7248
 30
0.0
  0
VERTEX
  8
Group195
 10
131.411075
 20
-78.7248
 30
0.0
  0
SEQEND
  8
Group195
  0
ARC
  8
Group199
 62
0
 10
74.262775
 20
-79.0248
 30
0.0
 40
0.3
 50
90.0
 51
-180.0
  0
ARC
  8
Group199
 62
0
 10
74.262775
 20
-92.4248
 30
0.0
 40
0.3
 50
-180.0
 51
-90.0
  0
ARC
  8
Group199
 62
0
 10
87.662325
 20
-92.4248
 30
0.0
 40
0.3
 50
-90.0
 51
-0.0
  0
ARC
  8
Group199
 62
0
 10
87.662325
 20
-79.0248
 30
0.0
 40
0.3
 50
-0.0
 51
90.0
  0
POLYLINE
  8
Group199
 62
0
 70
0
 66
1
 10
0.0
 20
0.0
 30
0.0
  0
VERTEX
  8
Group199
 10
73.962775
 20
-79.0248
 30
0.0
  0
VERTEX
  8
Group199
 10
73.962775
 20
-92.4248
 30
0.0
  0
SEQEND
  8
Group199
  0
POLYLINE
  8
Group199
 62
0
 70
0
 66
1
 10
0.0
 20
0.0
 30
0.0
  0
VERTEX
  8
Group199
 10
74.262775
 20
-92.7248
 30
0.0
  0
VERTEX
  8
Group199
 10
87.662325
 20
-92.7248
 30
0.0
  0
SEQEND
  8
Group199
  0
POLYLINE
  8
Group199
 62
0
 70
0
 66
1
 10
0.0
 20
0.0
 30
0.0
  0
VERTEX
  8
Group199
 10
87.962325
 20
-92.4248
 30
0.0
  0
VERTEX
  8
Group199
 10
87.962325
 20
-79.0248
 30
0.0
  0
SEQEND
  8
Group199
  0
POLYLINE
  8
Group199
 62
0
 70
0
 66
1
 10
0.0
 20
0.0
 30
0.0
  0
VERTEX
  8
Group199
 10
87.662325
 20
-78.7248
 30
0.0
  0
VERTEX
  8
Group199
 10
74.262775
 20
-78.7248
 30
0.0
  0
SEQEND
  8
Group199
  0
ARC
  8
Group197
 62
0
 10
112.361375
 20
-79.0248
 30
0.0
 40
0.3
 50
90.0
 51
-180.0
  0
ARC
  8
Group197
 62
0
 10
112.361375
 20
-92.4248
 30
0.0
 40
0.3
 50
-180.0
 51
-90.0
  0
ARC
  8
Group197
 62
0
 10
125.760925
 20
-92.4248
 30
0.0
 40
0.3
 50
-90.0
 51
-0.0
  0
ARC
  8
Group197
 62
0
 10
125.760925
 20
-79.0248
 30
0.0
 40
0.3
 50
-0.0
 51
90.0
  0
POLYLINE
  8
Group197
 62
0
 70
0
 66
1
 10
0.0
 20
0.0
 30
0.0
  0
VERTEX
  8
Group197
 10
112.061375
 20
-79.0248
 30
0.0
  0
VERTEX
  8
Group197
 10
112.061375
 20
-92.4248
 30
0.0
  0
SEQEND
  8
Group197
  0
POLYLINE
  8
Group197
 62
0
 70
0
 66
1
 10
0.0
 20
0.0
 30
0.0
  0
VERTEX
  8
Group197
 10
112.361375
 20
-92.7248
 30
0.0
  0
VERTEX
  8
Group197
 10
125.760925
 20
-92.7248
 30
0.0
  0
SEQEND
  8
Group197
  0
POLYLINE
  8
Group197
 62
0
 70
0
 66
1
 10
0.0
 20
0.0
 30
0.0
  0
VERTEX
  8
Group197
 10
126.060925
 20
-92.4248
 30
0.0
  0
VERTEX
  8
Group197
 10
126.060925
 20
-79.0248
 30
0.0
  0
SEQEND
  8
Group197
  0
POLYLINE
  8
Group197
 62
0
 70
0
 66
1
 10
0.0
 20
0.0
 30
0.0
  0
VERTEX
  8
Group197
 10
125.760925
 20
-78.7248
 30
0.0
  0
VERTEX
  8
Group197
 10
112.361375
 20
-78.7248
 30
0.0
  0
SEQEND
  8
Group197
  0
POLYLINE
  8
Group204
 62
0
 70
0
 66
1
 10
0.0
 20
0.0
 30
0.0
  0
VERTEX
  8
Group204
 10
5.206485
 20
-78.7248
 30
0.0
  0
VERTEX
  8
Group204
 10
23.368475
 20
-78.7248
 30
0.0
  0
SEQEND
  8
Group204
  0
POLYLINE
  8
Group204
 62
0
 70
0
 66
1
 10
0.0
 20
0.0
 30
0.0
  0
VERTEX
  8
Group204
 10
5.206485
 20
-92.7248
 30
0.0
  0
VERTEX
  8
Group204
 10
23.368475
 20
-92.7248
 30
0.0
  0
SEQEND
  8
Group204
  0
POLYLINE
  8
Group204
 62
0
 70
0
 66
1
 10
0.0
 20
0.0
 30
0.0
  0
VERTEX
  8
Group204
 10
4.906485
 20
-79.0248
 30
0.0
  0
VERTEX
  8
Group204
 10
4.906485
 20
-92.4248
 30
0.0
  0
SEQEND
  8
Group204
  0
POLYLINE
  8
Group204
 62
0
 70
0
 66
1
 10
0.0
 20
0.0
 30
0.0
  0
VERTEX
  8
Group204
 10
23.668475
 20
-92.4248
 30
0.0
  0
VERTEX
  8
Group204
 10
23.668475
 20
-79.0248
 30
0.0
  0
SEQEND
  8
Group204
  0
ARC
  8
Group204
 62
0
 10
23.368475
 20
-79.0248
 30
0.0
 40
0.3
 50
-0.0
 51
90.0
  0
ARC
  8
Group204
 62
0
 10
23.368475
 20
-92.4248
 30
0.0
 40
0.3
 50
-90.0
 51
-0.0
  0
ARC
  8
Group204
 62
0
 10
5.206485
 20
-92.4248
 30
0.0
 40
0.3
 50
-180.0
 51
-90.0
  0
ARC
  8
Group204
 62
0
 10
5.206485
 20
-79.0248
 30
0.0
 40
0.3
 50
90.0
 51
-180.0
  0
ARC
  8
Group212
 62
0
 10
64.737775
 20
-98.074
 30
0.0
 40
0.3
 50
90.0
 51
-180.0
  0
ARC
  8
Group212
 62
0
 10
64.737775
 20
-111.474
 30
0.0
 40
0.3
 50
-180.0
 51
-90.0
  0
ARC
  8
Group212
 62
0
 10
78.137325
 20
-111.474
 30
0.0
 40
0.3
 50
-90.0
 51
-0.0
  0
ARC
  8
Group212
 62
0
 10
78.137325
 20
-98.074
 30
0.0
 40
0.3
 50
-0.0
 51
90.0
  0
POLYLINE
  8
Group212
 62
0
 70
0
 66
1
 10
0.0
 20
0.0
 30
0.0
  0
VERTEX
  8
Group212
 10
64.437775
 20
-98.074
 30
0.0
  0
VERTEX
  8
Group212
 10
64.437775
 20
-111.474
 30
0.0
  0
SEQEND
  8
Group212
  0
POLYLINE
  8
Group212
 62
0
 70
0
 66
1
 10
0.0
 20
0.0
 30
0.0
  0
VERTEX
  8
Group212
 10
64.737775
 20
-111.774
 30
0.0
  0
VERTEX
  8
Group212
 10
78.137325
 20
-111.774
 30
0.0
  0
SEQEND
  8
Group212
  0
POLYLINE
  8
Group212
 62
0
 70
0
 66
1
 10
0.0
 20
0.0
 30
0.0
  0
VERTEX
  8
Group212
 10
78.437325
 20
-111.474
 30
0.0
  0
VERTEX
  8
Group212
 10
78.437325
 20
-98.074
 30
0.0
  0
SEQEND
  8
Group212
  0
POLYLINE
  8
Group212
 62
0
 70
0
 66
1
 10
0.0
 20
0.0
 30
0.0
  0
VERTEX
  8
Group212
 10
78.137325
 20
-97.774
 30
0.0
  0
VERTEX
  8
Group212
 10
64.737775
 20
-97.774
 30
0.0
  0
SEQEND
  8
Group212
  0
ARC
  8
Group210
 62
0
 10
45.687775
 20
-98.074
 30
0.0
 40
0.3
 50
90.0
 51
-180.0
  0
ARC
  8
Group210
 62
0
 10
45.687775
 20
-111.474
 30
0.0
 40
0.3
 50
-180.0
 51
-90.0
  0
ARC
  8
Group210
 62
0
 10
59.087325
 20
-111.474
 30
0.0
 40
0.3
 50
-90.0
 51
-0.0
  0
ARC
  8
Group210
 62
0
 10
59.087325
 20
-98.074
 30
0.0
 40
0.3
 50
-0.0
 51
90.0
  0
POLYLINE
  8
Group210
 62
0
 70
0
 66
1
 10
0.0
 20
0.0
 30
0.0
  0
VERTEX
  8
Group210
 10
45.387775
 20
-98.074
 30
0.0
  0
VERTEX
  8
Group210
 10
45.387775
 20
-111.474
 30
0.0
  0
SEQEND
  8
Group210
  0
POLYLINE
  8
Group210
 62
0
 70
0
 66
1
 10
0.0
 20
0.0
 30
0.0
  0
VERTEX
  8
Group210
 10
45.687775
 20
-111.774
 30
0.0
  0
VERTEX
  8
Group210
 10
59.087325
 20
-111.774
 30
0.0
  0
SEQEND
  8
Group210
  0
POLYLINE
  8
Group210
 62
0
 70
0
 66
1
 10
0.0
 20
0.0
 30
0.0
  0
VERTEX
  8
Group210
 10
59.387325
 20
-111.474
 30
0.0
  0
VERTEX
  8
Group210
 10
59.387325
 20
-98.074
 30
0.0
  0
SEQEND
  8
Group210
  0
POLYLINE
  8
Group210
 62
0
 70
0
 66
1
 10
0.0
 20
0.0
 30
0.0
  0
VERTEX
  8
Group210
 10
59.087325
 20
-97.774
 30
0.0
  0
VERTEX
  8
Group210
 10
45.687775
 20
-97.774
 30
0.0
  0
SEQEND
  8
Group210
  0
ARC
  8
Group211
 62
0
 10
243.331575
 20
-98.074
 30
0.0
 40
0.3
 50
90.0
 51
-180.0
  0
ARC
  8
Group211
 62
0
 10
243.331575
 20
-111.474
 30
0.0
 40
0.3
 50
-180.0
 51
-90.0
  0
ARC
  8
Group211
 62
0
 10
256.731125
 20
-111.474
 30
0.0
 40
0.3
 50
-90.0
 51
-0.0
  0
ARC
  8
Group211
 62
0
 10
256.731125
 20
-98.074
 30
0.0
 40
0.3
 50
-0.0
 51
90.0
  0
POLYLINE
  8
Group211
 62
0
 70
0
 66
1
 10
0.0
 20
0.0
 30
0.0
  0
VERTEX
  8
Group211
 10
243.031575
 20
-98.074
 30
0.0
  0
VERTEX
  8
Group211
 10
243.031575
 20
-111.474
 30
0.0
  0
SEQEND
  8
Group211
  0
POLYLINE
  8
Group211
 62
0
 70
0
 66
1
 10
0.0
 20
0.0
 30
0.0
  0
VERTEX
  8
Group211
 10
243.331575
 20
-111.774
 30
0.0
  0
VERTEX
  8
Group211
 10
256.731125
 20
-111.774
 30
0.0
  0
SEQEND
  8
Group211
  0
POLYLINE
  8
Group211
 62
0
 70
0
 66
1
 10
0.0
 20
0.0
 30
0.0
  0
VERTEX
  8
Group211
 10
257.031125
 20
-111.474
 30
0.0
  0
VERTEX
  8
Group211
 10
257.031125
 20
-98.074
 30
0.0
  0
SEQEND
  8
Group211
  0
POLYLINE
  8
Group211
 62
0
 70
0
 66
1
 10
0.0
 20
0.0
 30
0.0
  0
VERTEX
  8
Group211
 10
256.731125
 20
-97.774
 30
0.0
  0
VERTEX
  8
Group211
 10
243.331575
 20
-97.774
 30
0.0
  0
SEQEND
  8
Group211
  0
ARC
  8
Group209
 62
0
 10
102.837775
 20
-98.074
 30
0.0
 40
0.3
 50
90.0
 51
-180.0
  0
ARC
  8
Group209
 62
0
 10
102.837775
 20
-111.474
 30
0.0
 40
0.3
 50
-180.0
 51
-90.0
  0
ARC
  8
Group209
 62
0
 10
116.237325
 20
-111.474
 30
0.0
 40
0.3
 50
-90.0
 51
-0.0
  0
ARC
  8
Group209
 62
0
 10
116.237325
 20
-98.074
 30
0.0
 40
0.3
 50
-0.0
 51
90.0
  0
POLYLINE
  8
Group209
 62
0
 70
0
 66
1
 10
0.0
 20
0.0
 30
0.0
  0
VERTEX
  8
Group209
 10
102.537775
 20
-98.074
 30
0.0
  0
VERTEX
  8
Group209
 10
102.537775
 20
-111.474
 30
0.0
  0
SEQEND
  8
Group209
  0
POLYLINE
  8
Group209
 62
0
 70
0
 66
1
 10
0.0
 20
0.0
 30
0.0
  0
VERTEX
  8
Group209
 10
102.837775
 20
-111.774
 30
0.0
  0
VERTEX
  8
Group209
 10
116.237325
 20
-111.774
 30
0.0
  0
SEQEND
  8
Group209
  0
POLYLINE
  8
Group209
 62
0
 70
0
 66
1
 10
0.0
 20
0.0
 30
0.0
  0
VERTEX
  8
Group209
 10
116.537325
 20
-111.474
 30
0.0
  0
VERTEX
  8
Group209
 10
116.537325
 20
-98.074
 30
0.0
  0
SEQEND
  8
Group209
  0
POLYLINE
  8
Group209
 62
0
 70
0
 66
1
 10
0.0
 20
0.0
 30
0.0
  0
VERTEX
  8
Group209
 10
116.237325
 20
-97.774
 30
0.0
  0
VERTEX
  8
Group209
 10
102.837775
 20
-97.774
 30
0.0
  0
SEQEND
  8
Group209
  0
ARC
  8
Group213
 62
0
 10
140.936075
 20
-98.074
 30
0.0
 40
0.3
 50
90.0
 51
-180.0
  0
ARC
  8
Group213
 62
0
 10
140.936075
 20
-111.474
 30
0.0
 40
0.3
 50
-180.0
 51
-90.0
  0
ARC
  8
Group213
 62
0
 10
154.335625
 20
-111.474
 30
0.0
 40
0.3
 50
-90.0
 51
-0.0
  0
ARC
  8
Group213
 62
0
 10
154.335625
 20
-98.074
 30
0.0
 40
0.3
 50
-0.0
 51
90.0
  0
POLYLINE
  8
Group213
 62
0
 70
0
 66
1
 10
0.0
 20
0.0
 30
0.0
  0
VERTEX
  8
Group213
 10
140.636075
 20
-98.074
 30
0.0
  0
VERTEX
  8
Group213
 10
140.636075
 20
-111.474
 30
0.0
  0
SEQEND
  8
Group213
  0
POLYLINE
  8
Group213
 62
0
 70
0
 66
1
 10
0.0
 20
0.0
 30
0.0
  0
VERTEX
  8
Group213
 10
140.936075
 20
-111.774
 30
0.0
  0
VERTEX
  8
Group213
 10
154.335625
 20
-111.774
 30
0.0
  0
SEQEND
  8
Group213
  0
POLYLINE
  8
Group213
 62
0
 70
0
 66
1
 10
0.0
 20
0.0
 30
0.0
  0
VERTEX
  8
Group213
 10
154.635625
 20
-111.474
 30
0.0
  0
VERTEX
  8
Group213
 10
154.635625
 20
-98.074
 30
0.0
  0
SEQEND
  8
Group213
  0
POLYLINE
  8
Group213
 62
0
 70
0
 66
1
 10
0.0
 20
0.0
 30
0.0
  0
VERTEX
  8
Group213
 10
154.335625
 20
-97.774
 30
0.0
  0
VERTEX
  8
Group213
 10
140.936075
 20
-97.774
 30
0.0
  0
SEQEND
  8
Group213
  0
ARC
  8
Group214
 62
0
 10
83.787775
 20
-98.074
 30
0.0
 40
0.3
 50
90.0
 51
-180.0
  0
ARC
  8
Group214
 62
0
 10
83.787775
 20
-111.474
 30
0.0
 40
0.3
 50
-180.0
 51
-90.0
  0
ARC
  8
Group214
 62
0
 10
97.187325
 20
-111.474
 30
0.0
 40
0.3
 50
-90.0
 51
-0.0
  0
ARC
  8
Group214
 62
0
 10
97.187325
 20
-98.074
 30
0.0
 40
0.3
 50
-0.0
 51
90.0
  0
POLYLINE
  8
Group214
 62
0
 70
0
 66
1
 10
0.0
 20
0.0
 30
0.0
  0
VERTEX
  8
Group214
 10
83.487775
 20
-98.074
 30
0.0
  0
VERTEX
  8
Group214
 10
83.487775
 20
-111.474
 30
0.0
  0
SEQEND
  8
Group214
  0
POLYLINE
  8
Group214
 62
0
 70
0
 66
1
 10
0.0
 20
0.0
 30
0.0
  0
VERTEX
  8
Group214
 10
83.787775
 20
-111.774
 30
0.0
  0
VERTEX
  8
Group214
 10
97.187325
 20
-111.774
 30
0.0
  0
SEQEND
  8
Group214
  0
POLYLINE
  8
Group214
 62
0
 70
0
 66
1
 10
0.0
 20
0.0
 30
0.0
  0
VERTEX
  8
Group214
 10
97.487325
 20
-111.474
 30
0.0
  0
VERTEX
  8
Group214
 10
97.487325
 20
-98.074
 30
0.0
  0
SEQEND
  8
Group214
  0
POLYLINE
  8
Group214
 62
0
 70
0
 66
1
 10
0.0
 20
0.0
 30
0.0
  0
VERTEX
  8
Group214
 10
97.187325
 20
-97.774
 30
0.0
  0
VERTEX
  8
Group214
 10
83.787775
 20
-97.774
 30
0.0
  0
SEQEND
  8
Group214
  0
ARC
  8
Group215
 62
0
 10
121.886375
 20
-98.074
 30
0.0
 40
0.3
 50
90.0
 51
-180.0
  0
ARC
  8
Group215
 62
0
 10
121.886375
 20
-111.474
 30
0.0
 40
0.3
 50
-180.0
 51
-90.0
  0
ARC
  8
Group215
 62
0
 10
135.285925
 20
-111.474
 30
0.0
 40
0.3
 50
-90.0
 51
-0.0
  0
ARC
  8
Group215
 62
0
 10
135.285925
 20
-98.074
 30
0.0
 40
0.3
 50
-0.0
 51
90.0
  0
POLYLINE
  8
Group215
 62
0
 70
0
 66
1
 10
0.0
 20
0.0
 30
0.0
  0
VERTEX
  8
Group215
 10
121.586375
 20
-98.074
 30
0.0
  0
VERTEX
  8
Group215
 10
121.586375
 20
-111.474
 30
0.0
  0
SEQEND
  8
Group215
  0
POLYLINE
  8
Group215
 62
0
 70
0
 66
1
 10
0.0
 20
0.0
 30
0.0
  0
VERTEX
  8
Group215
 10
121.886375
 20
-111.774
 30
0.0
  0
VERTEX
  8
Group215
 10
135.285925
 20
-111.774
 30
0.0
  0
SEQEND
  8
Group215
  0
POLYLINE
  8
Group215
 62
0
 70
0
 66
1
 10
0.0
 20
0.0
 30
0.0
  0
VERTEX
  8
Group215
 10
135.585925
 20
-111.474
 30
0.0
  0
VERTEX
  8
Group215
 10
135.585925
 20
-98.074
 30
0.0
  0
SEQEND
  8
Group215
  0
POLYLINE
  8
Group215
 62
0
 70
0
 66
1
 10
0.0
 20
0.0
 30
0.0
  0
VERTEX
  8
Group215
 10
135.285925
 20
-97.774
 30
0.0
  0
VERTEX
  8
Group215
 10
121.886375
 20
-97.774
 30
0.0
  0
SEQEND
  8
Group215
  0
ARC
  8
Group207
 62
0
 10
159.988075
 20
-98.074
 30
0.0
 40
0.3
 50
90.0
 51
-180.0
  0
ARC
  8
Group207
 62
0
 10
159.988075
 20
-111.474
 30
0.0
 40
0.3
 50
-180.0
 51
-90.0
  0
ARC
  8
Group207
 62
0
 10
173.387625
 20
-111.474
 30
0.0
 40
0.3
 50
-90.0
 51
-0.0
  0
ARC
  8
Group207
 62
0
 10
173.387625
 20
-98.074
 30
0.0
 40
0.3
 50
-0.0
 51
90.0
  0
POLYLINE
  8
Group207
 62
0
 70
0
 66
1
 10
0.0
 20
0.0
 30
0.0
  0
VERTEX
  8
Group207
 10
159.688075
 20
-98.074
 30
0.0
  0
VERTEX
  8
Group207
 10
159.688075
 20
-111.474
 30
0.0
  0
SEQEND
  8
Group207
  0
POLYLINE
  8
Group207
 62
0
 70
0
 66
1
 10
0.0
 20
0.0
 30
0.0
  0
VERTEX
  8
Group207
 10
159.988075
 20
-111.774
 30
0.0
  0
VERTEX
  8
Group207
 10
173.387625
 20
-111.774
 30
0.0
  0
SEQEND
  8
Group207
  0
POLYLINE
  8
Group207
 62
0
 70
0
 66
1
 10
0.0
 20
0.0
 30
0.0
  0
VERTEX
  8
Group207
 10
173.687625
 20
-111.474
 30
0.0
  0
VERTEX
  8
Group207
 10
173.687625
 20
-98.074
 30
0.0
  0
SEQEND
  8
Group207
  0
POLYLINE
  8
Group207
 62
0
 70
0
 66
1
 10
0.0
 20
0.0
 30
0.0
  0
VERTEX
  8
Group207
 10
173.387625
 20
-97.774
 30
0.0
  0
VERTEX
  8
Group207
 10
159.988075
 20
-97.774
 30
0.0
  0
SEQEND
  8
Group207
  0
ARC
  8
Group208
 62
0
 10
198.087225
 20
-98.074
 30
0.0
 40
0.3
 50
90.0
 51
-180.0
  0
ARC
  8
Group208
 62
0
 10
198.087225
 20
-111.474
 30
0.0
 40
0.3
 50
-180.0
 51
-90.0
  0
ARC
  8
Group208
 62
0
 10
211.486775
 20
-111.474
 30
0.0
 40
0.3
 50
-90.0
 51
-0.0
  0
ARC
  8
Group208
 62
0
 10
211.486775
 20
-98.074
 30
0.0
 40
0.3
 50
-0.0
 51
90.0
  0
POLYLINE
  8
Group208
 62
0
 70
0
 66
1
 10
0.0
 20
0.0
 30
0.0
  0
VERTEX
  8
Group208
 10
197.787225
 20
-98.074
 30
0.0
  0
VERTEX
  8
Group208
 10
197.787225
 20
-111.474
 30
0.0
  0
SEQEND
  8
Group208
  0
POLYLINE
  8
Group208
 62
0
 70
0
 66
1
 10
0.0
 20
0.0
 30
0.0
  0
VERTEX
  8
Group208
 10
198.087225
 20
-111.774
 30
0.0
  0
VERTEX
  8
Group208
 10
211.486775
 20
-111.774
 30
0.0
  0
SEQEND
  8
Group208
  0
POLYLINE
  8
Group208
 62
0
 70
0
 66
1
 10
0.0
 20
0.0
 30
0.0
  0
VERTEX
  8
Group208
 10
211.786775
 20
-111.474
 30
0.0
  0
VERTEX
  8
Group208
 10
211.786775
 20
-98.074
 30
0.0
  0
SEQEND
  8
Group208
  0
POLYLINE
  8
Group208
 62
0
 70
0
 66
1
 10
0.0
 20
0.0
 30
0.0
  0
VERTEX
  8
Group208
 10
211.486775
 20
-97.774
 30
0.0
  0
VERTEX
  8
Group208
 10
198.087225
 20
-97.774
 30
0.0
  0
SEQEND
  8
Group208
  0
ARC
  8
Group205
 62
0
 10
179.037225
 20
-98.074
 30
0.0
 40
0.3
 50
90.0
 51
-180.0
  0
ARC
  8
Group205
 62
0
 10
179.037225
 20
-111.474
 30
0.0
 40
0.3
 50
-180.0
 51
-90.0
  0
ARC
  8
Group205
 62
0
 10
192.436775
 20
-111.474
 30
0.0
 40
0.3
 50
-90.0
 51
-0.0
  0
ARC
  8
Group205
 62
0
 10
192.436775
 20
-98.074
 30
0.0
 40
0.3
 50
-0.0
 51
90.0
  0
POLYLINE
  8
Group205
 62
0
 70
0
 66
1
 10
0.0
 20
0.0
 30
0.0
  0
VERTEX
  8
Group205
 10
178.737225
 20
-98.074
 30
0.0
  0
VERTEX
  8
Group205
 10
178.737225
 20
-111.474
 30
0.0
  0
SEQEND
  8
Group205
  0
POLYLINE
  8
Group205
 62
0
 70
0
 66
1
 10
0.0
 20
0.0
 30
0.0
  0
VERTEX
  8
Group205
 10
179.037225
 20
-111.774
 30
0.0
  0
VERTEX
  8
Group205
 10
192.436775
 20
-111.774
 30
0.0
  0
SEQEND
  8
Group205
  0
POLYLINE
  8
Group205
 62
0
 70
0
 66
1
 10
0.0
 20
0.0
 30
0.0
  0
VERTEX
  8
Group205
 10
192.736775
 20
-111.474
 30
0.0
  0
VERTEX
  8
Group205
 10
192.736775
 20
-98.074
 30
0.0
  0
SEQEND
  8
Group205
  0
POLYLINE
  8
Group205
 62
0
 70
0
 66
1
 10
0.0
 20
0.0
 30
0.0
  0
VERTEX
  8
Group205
 10
192.436775
 20
-97.774
 30
0.0
  0
VERTEX
  8
Group205
 10
179.037225
 20
-97.774
 30
0.0
  0
SEQEND
  8
Group205
  0
ARC
  8
Group206
 62
0
 10
217.135825
 20
-98.074
 30
0.0
 40
0.3
 50
90.0
 51
-180.0
  0
ARC
  8
Group206
 62
0
 10
217.135825
 20
-111.474
 30
0.0
 40
0.3
 50
-180.0
 51
-90.0
  0
ARC
  8
Group206
 62
0
 10
230.535375
 20
-111.474
 30
0.0
 40
0.3
 50
-90.0
 51
-0.0
  0
ARC
  8
Group206
 62
0
 10
230.535375
 20
-98.074
 30
0.0
 40
0.3
 50
-0.0
 51
90.0
  0
POLYLINE
  8
Group206
 62
0
 70
0
 66
1
 10
0.0
 20
0.0
 30
0.0
  0
VERTEX
  8
Group206
 10
216.835825
 20
-98.074
 30
0.0
  0
VERTEX
  8
Group206
 10
216.835825
 20
-111.474
 30
0.0
  0
SEQEND
  8
Group206
  0
POLYLINE
  8
Group206
 62
0
 70
0
 66
1
 10
0.0
 20
0.0
 30
0.0
  0
VERTEX
  8
Group206
 10
217.135825
 20
-111.774
 30
0.0
  0
VERTEX
  8
Group206
 10
230.535375
 20
-111.774
 30
0.0
  0
SEQEND
  8
Group206
  0
POLYLINE
  8
Group206
 62
0
 70
0
 66
1
 10
0.0
 20
0.0
 30
0.0
  0
VERTEX
  8
Group206
 10
230.835375
 20
-111.474
 30
0.0
  0
VERTEX
  8
Group206
 10
230.835375
 20
-98.074
 30
0.0
  0
SEQEND
  8
Group206
  0
POLYLINE
  8
Group206
 62
0
 70
0
 66
1
 10
0.0
 20
0.0
 30
0.0
  0
VERTEX
  8
Group206
 10
230.535375
 20
-97.774
 30
0.0
  0
VERTEX
  8
Group206
 10
217.135825
 20
-97.774
 30
0.0
  0
SEQEND
  8
Group206
  0
ARC
  8
Group252
 62
0
 10
30.9555
 20
-112.2722
 30
0.0
 40
1.0
 50
-180.0
 51
-90.0
  0
ARC
  8
Group252
 62
0
 10
35.7052
 20
-112.2722
 30
0.0
 40
1.0
 50
-90.0
 51
-0.0
  0
POLYLINE
  8
Group252
 62
0
 70
0
 66
1
 10
0.0
 20
0.0
 30
0.0
  0
VERTEX
  8
Group252
 10
30.9555
 20
-113.2722
 30
0.0
  0
VERTEX
  8
Group252
 10
35.7052
 20
-113.2722
 30
0.0
  0
SEQEND
  8
Group252
  0
ARC
  8
Group251
 62
0
 10
7.1545
 20
-112.2722
 30
0.0
 40
1.0
 50
-180.0
 51
-90.0
  0
ARC
  8
Group251
 62
0
 10
11.9042
 20
-112.2722
 30
0.0
 40
1.0
 50
-90.0
 51
-0.0
  0
POLYLINE
  8
Group251
 62
0
 70
0
 66
1
 10
0.0
 20
0.0
 30
0.0
  0
VERTEX
  8
Group251
 10
7.1545
 20
-113.2722
 30
0.0
  0
VERTEX
  8
Group251
 10
11.9042
 20
-113.2722
 30
0.0
  0
SEQEND
  8
Group251
  0
ARC
  8
Group250
 62
0
 10
14.73145
 20
-98.0731
 30
0.0
 40
0.3
 50
90.0
 51
-180.0
  0
ARC
  8
Group250
 62
0
 10
14.73145
 20
-111.4731
 30
0.0
 40
0.3
 50
-180.0
 51
-90.0
  0
ARC
  8
Group250
 62
0
 10
28.131
 20
-111.4731
 30
0.0
 40
0.3
 50
-90.0
 51
-0.0
  0
ARC
  8
Group250
 62
0
 10
28.131
 20
-98.0731
 30
0.0
 40
0.3
 50
-0.0
 51
90.0
  0
POLYLINE
  8
Group250
 62
0
 70
0
 66
1
 10
0.0
 20
0.0
 30
0.0
  0
VERTEX
  8
Group250
 10
14.43145
 20
-98.0731
 30
0.0
  0
VERTEX
  8
Group250
 10
14.43145
 20
-111.4731
 30
0.0
  0
SEQEND
  8
Group250
  0
POLYLINE
  8
Group250
 62
0
 70
0
 66
1
 10
0.0
 20
0.0
 30
0.0
  0
VERTEX
  8
Group250
 10
14.73145
 20
-111.7731
 30
0.0
  0
VERTEX
  8
Group250
 10
28.131
 20
-111.7731
 30
0.0
  0
SEQEND
  8
Group250
  0
POLYLINE
  8
Group250
 62
0
 70
0
 66
1
 10
0.0
 20
0.0
 30
0.0
  0
VERTEX
  8
Group250
 10
28.431
 20
-111.4731
 30
0.0
  0
VERTEX
  8
Group250
 10
28.431
 20
-98.0731
 30
0.0
  0
SEQEND
  8
Group250
  0
POLYLINE
  8
Group250
 62
0
 70
0
 66
1
 10
0.0
 20
0.0
 30
0.0
  0
VERTEX
  8
Group250
 10
28.131
 20
-97.7731
 30
0.0
  0
VERTEX
  8
Group250
 10
14.73145
 20
-97.7731
 30
0.0
  0
SEQEND
  8
Group250
  0
ARC
  8
Enter002
 62
0
 10
30.95825
 20
-97.274
 30
0.0
 40
1.0
 50
90.0
 51
-180.0
  0
ARC
  8
Enter002
 62
0
 10
35.70795
 20
-97.274
 30
0.0
 40
1.0
 50
-0.0
 51
90.0
  0
ARC
  8
Enter002
 62
0
 10
7.15725
 20
-97.274
 30
0.0
 40
1.0
 50
90.0
 51
-180.0
  0
ARC
  8
Enter002
 62
0
 10
11.90695
 20
-97.274
 30
0.0
 40
1.0
 50
-0.0
 51
90.0
  0
POLYLINE
  8
Enter002
 62
0
 70
0
 66
1
 10
0.0
 20
0.0
 30
0.0
  0
VERTEX
  8
Enter002
 10
35.70795
 20
-96.274
 30
0.0
  0
VERTEX
  8
Enter002
 10
30.95825
 20
-96.274
 30
0.0
  0
SEQEND
  8
Enter002
  0
POLYLINE
  8
Enter002
 62
0
 70
0
 66
1
 10
0.0
 20
0.0
 30
0.0
  0
VERTEX
  8
Enter002
 10
11.90695
 20
-96.274
 30
0.0
  0
VERTEX
  8
Enter002
 10
7.15725
 20
-96.274
 30
0.0
  0
SEQEND
  8
Enter002
  0
POLYLINE
  8
Enter002
 62
0
 70
0
 66
1
 10
0.0
 20
0.0
 30
0.0
  0
VERTEX
  8
Enter002
 10
6.15725
 20
-97.274
 30
0.0
  0
VERTEX
  8
Enter002
 10
6.1545
 20
-112.2722
 30
0.0
  0
SEQEND
  8
Enter002
  0
POLYLINE
  8
Enter002
 62
0
 70
0
 66
1
 10
0.0
 20
0.0
 30
0.0
  0
VERTEX
  8
Enter002
 10
12.9042
 20
-112.2722
 30
0.0
  0
VERTEX
  8
Enter002
 10
12.90695
 20
-97.274
 30
0.0
  0
SEQEND
  8
Enter002
  0
POLYLINE
  8
Enter002
 62
0
 70
0
 66
1
 10
0.0
 20
0.0
 30
0.0
  0
VERTEX
  8
Enter002
 10
29.9555
 20
-112.2722
 30
0.0
  0
VERTEX
  8
Enter002
 10
29.95825
 20
-97.274
 30
0.0
  0
SEQEND
  8
Enter002
  0
POLYLINE
  8
Enter002
 62
0
 70
0
 66
1
 10
0.0
 20
0.0
 30
0.0
  0
VERTEX
  8
Enter002
 10
36.7052
 20
-112.2722
 30
0.0
  0
VERTEX
  8
Enter002
 10
36.70795
 20
-97.274
 30
0.0
  0
SEQEND
  8
Enter002
  0
ARC
  8
Group137
 62
0
 10
78.593975
 20
-131.3227
 30
0.0
 40
1.0
 50
-180.0
 51
-90.0
  0
ARC
  8
Group137
 62
0
 10
83.343675
 20
-131.3227
 30
0.0
 40
1.0
 50
-90.0
 51
-0.0
  0
POLYLINE
  8
Group137
 62
0
 70
0
 66
1
 10
0.0
 20
0.0
 30
0.0
  0
VERTEX
  8
Group137
 10
78.593975
 20
-132.3227
 30
0.0
  0
VERTEX
  8
Group137
 10
83.343675
 20
-132.3227
 30
0.0
  0
SEQEND
  8
Group137
  0
ARC
  8
Group137
 62
0
 10
78.593975
 20
-116.32542
 30
0.0
 40
1.0
 50
90.0
 51
-180.0
  0
POLYLINE
  8
Group137
 62
0
 70
0
 66
1
 10
0.0
 20
0.0
 30
0.0
  0
VERTEX
  8
Group137
 10
83.343675
 20
-115.32542
 30
0.0
  0
VERTEX
  8
Group137
 10
78.593975
 20
-115.32542
 30
0.0
  0
SEQEND
  8
Group137
  0
ARC
  8
Group137
 62
0
 10
83.343675
 20
-116.32542
 30
0.0
 40
1.0
 50
-0.0
 51
90.0
  0
POLYLINE
  8
Group137
 62
0
 70
0
 66
1
 10
0.0
 20
0.0
 30
0.0
  0
VERTEX
  8
Group137
 10
77.593975
 20
-131.3227
 30
0.0
  0
VERTEX
  8
Group137
 10
77.593975
 20
-116.32542
 30
0.0
  0
SEQEND
  8
Group137
  0
POLYLINE
  8
Group137
 62
0
 70
0
 66
1
 10
0.0
 20
0.0
 30
0.0
  0
VERTEX
  8
Group137
 10
84.343675
 20
-116.32542
 30
0.0
  0
VERTEX
  8
Group137
 10
84.343675
 20
-131.3227
 30
0.0
  0
SEQEND
  8
Group137
  0
ARC
  8
Group141
 62
0
 10
178.596225
 20
-131.3227
 30
0.0
 40
1.0
 50
-180.0
 51
-90.0
  0
ARC
  8
Group141
 62
0
 10
183.345925
 20
-131.3227
 30
0.0
 40
1.0
 50
-90.0
 51
-0.0
  0
POLYLINE
  8
Group141
 62
0
 70
0
 66
1
 10
0.0
 20
0.0
 30
0.0
  0
VERTEX
  8
Group141
 10
178.596225
 20
-132.3227
 30
0.0
  0
VERTEX
  8
Group141
 10
183.345925
 20
-132.3227
 30
0.0
  0
SEQEND
  8
Group141
  0
ARC
  8
Group141
 62
0
 10
174.275575
 20
-117.12337
 30
0.0
 40
0.3
 50
90.0
 51
-180.0
  0
ARC
  8
Group141
 62
0
 10
174.275575
 20
-130.52337
 30
0.0
 40
0.3
 50
-180.0
 51
-90.0
  0
ARC
  8
Group141
 62
0
 10
187.675125
 20
-130.52337
 30
0.0
 40
0.3
 50
-90.0
 51
-0.0
  0
ARC
  8
Group141
 62
0
 10
187.675125
 20
-117.12337
 30
0.0
 40
0.3
 50
-0.0
 51
90.0
  0
POLYLINE
  8
Group141
 62
0
 70
0
 66
1
 10
0.0
 20
0.0
 30
0.0
  0
VERTEX
  8
Group141
 10
173.975575
 20
-117.12337
 30
0.0
  0
VERTEX
  8
Group141
 10
173.975575
 20
-130.52337
 30
0.0
  0
SEQEND
  8
Group141
  0
POLYLINE
  8
Group141
 62
0
 70
0
 66
1
 10
0.0
 20
0.0
 30
0.0
  0
VERTEX
  8
Group141
 10
187.975125
 20
-130.52337
 30
0.0
  0
VERTEX
  8
Group141
 10
187.975125
 20
-117.12337
 30
0.0
  0
SEQEND
  8
Group141
  0
POLYLINE
  8
Group141
 62
0
 70
0
 66
1
 10
0.0
 20
0.0
 30
0.0
  0
VERTEX
  8
Group141
 10
174.275575
 20
-130.82337
 30
0.0
  0
VERTEX
  8
Group141
 10
177.596225
 20
-130.82337
 30
0.0
  0
SEQEND
  8
Group141
  0
POLYLINE
  8
Group141
 62
0
 70
0
 66
1
 10
0.0
 20
0.0
 30
0.0
  0
VERTEX
  8
Group141
 10
187.675125
 20
-130.82337
 30
0.0
  0
VERTEX
  8
Group141
 10
184.345925
 20
-130.82337
 30
0.0
  0
SEQEND
  8
Group141
  0
POLYLINE
  8
Group141
 62
0
 70
0
 66
1
 10
0.0
 20
0.0
 30
0.0
  0
VERTEX
  8
Group141
 10
177.596225
 20
-130.82337
 30
0.0
  0
VERTEX
  8
Group141
 10
177.596225
 20
-131.3227
 30
0.0
  0
SEQEND
  8
Group141
  0
POLYLINE
  8
Group141
 62
0
 70
0
 66
1
 10
0.0
 20
0.0
 30
0.0
  0
VERTEX
  8
Group141
 10
184.345925
 20
-131.3227
 30
0.0
  0
VERTEX
  8
Group141
 10
184.345925
 20
-130.82337
 30
0.0
  0
SEQEND
  8
Group141
  0
ARC
  8
Group141
 62
0
 10
178.604775
 20
-116.32404
 30
0.0
 40
1.0
 50
90.0
 51
-180.0
  0
POLYLINE
  8
Group141
 62
0
 70
0
 66
1
 10
0.0
 20
0.0
 30
0.0
  0
VERTEX
  8
Group141
 10
183.354475
 20
-115.32404
 30
0.0
  0
VERTEX
  8
Group141
 10
178.604775
 20
-115.32404
 30
0.0
  0
SEQEND
  8
Group141
  0
ARC
  8
Group141
 62
0
 10
183.354475
 20
-116.32404
 30
0.0
 40
1.0
 50
-0.0
 51
90.0
  0
POLYLINE
  8
Group141
 62
0
 70
0
 66
1
 10
0.0
 20
0.0
 30
0.0
  0
VERTEX
  8
Group141
 10
174.275575
 20
-116.82337
 30
0.0
  0
VERTEX
  8
Group141
 10
177.604775
 20
-116.82337
 30
0.0
  0
SEQEND
  8
Group141
  0
POLYLINE
  8
Group141
 62
0
 70
0
 66
1
 10
0.0
 20
0.0
 30
0.0
  0
VERTEX
  8
Group141
 10
187.675125
 20
-116.82337
 30
0.0
  0
VERTEX
  8
Group141
 10
184.354475
 20
-116.82337
 30
0.0
  0
SEQEND
  8
Group141
  0
POLYLINE
  8
Group141
 62
0
 70
0
 66
1
 10
0.0
 20
0.0
 30
0.0
  0
VERTEX
  8
Group141
 10
177.604775
 20
-116.82337
 30
0.0
  0
VERTEX
  8
Group141
 10
177.604775
 20
-116.32404
 30
0.0
  0
SEQEND
  8
Group141
  0
POLYLINE
  8
Group141
 62
0
 70
0
 66
1
 10
0.0
 20
0.0
 30
0.0
  0
VERTEX
  8
Group141
 10
184.354475
 20
-116.82337
 30
0.0
  0
VERTEX
  8
Group141
 10
184.354475
 20
-116.32404
 30
0.0
  0
SEQEND
  8
Group141
  0
ARC
  8
Group220
 62
0
 10
2.825225
 20
-117.12406
 30
0.0
 40
0.3
 50
90.0
 51
-180.0
  0
ARC
  8
Group220
 62
0
 10
2.825225
 20
-130.52406
 30
0.0
 40
0.3
 50
-180.0
 51
-90.0
  0
POLYLINE
  8
Group220
 62
0
 70
0
 66
1
 10
0.0
 20
0.0
 30
0.0
  0
VERTEX
  8
Group220
 10
2.525225
 20
-117.12406
 30
0.0
  0
VERTEX
  8
Group220
 10
2.525225
 20
-130.52406
 30
0.0
  0
SEQEND
  8
Group220
  0
ARC
  8
Group220
 62
0
 10
64.426075
 20
-131.3227
 30
0.0
 40
1.0
 50
-180.0
 51
-90.0
  0
ARC
  8
Group220
 62
0
 10
69.175775
 20
-131.3227
 30
0.0
 40
1.0
 50
-90.0
 51
-0.0
  0
POLYLINE
  8
Group220
 62
0
 70
0
 66
1
 10
0.0
 20
0.0
 30
0.0
  0
VERTEX
  8
Group220
 10
64.426075
 20
-132.3227
 30
0.0
  0
VERTEX
  8
Group220
 10
69.175775
 20
-132.3227
 30
0.0
  0
SEQEND
  8
Group220
  0
POLYLINE
  8
Group220
 62
0
 70
0
 66
1
 10
0.0
 20
0.0
 30
0.0
  0
VERTEX
  8
Group220
 10
2.825225
 20
-130.82406
 30
0.0
  0
VERTEX
  8
Group220
 10
63.426075
 20
-130.82406
 30
0.0
  0
SEQEND
  8
Group220
  0
POLYLINE
  8
Group220
 62
0
 70
0
 66
1
 10
0.0
 20
0.0
 30
0.0
  0
VERTEX
  8
Group220
 10
63.426075
 20
-130.82406
 30
0.0
  0
VERTEX
  8
Group220
 10
63.426075
 20
-131.3227
 30
0.0
  0
SEQEND
  8
Group220
  0
POLYLINE
  8
Group220
 62
0
 70
0
 66
1
 10
0.0
 20
0.0
 30
0.0
  0
VERTEX
  8
Group220
 10
69.175775
 20
-115.32542
 30
0.0
  0
VERTEX
  8
Group220
 10
64.426075
 20
-115.32542
 30
0.0
  0
SEQEND
  8
Group220
  0
ARC
  8
Group220
 62
0
 10
64.426075
 20
-116.32542
 30
0.0
 40
1.0
 50
90.0
 51
-180.0
  0
ARC
  8
Group220
 62
0
 10
69.175775
 20
-116.32542
 30
0.0
 40
1.0
 50
-0.0
 51
90.0
  0
POLYLINE
  8
Group220
 62
0
 70
0
 66
1
 10
0.0
 20
0.0
 30
0.0
  0
VERTEX
  8
Group220
 10
2.825225
 20
-116.82406
 30
0.0
  0
VERTEX
  8
Group220
 10
63.426075
 20
-116.82406
 30
0.0
  0
SEQEND
  8
Group220
  0
POLYLINE
  8
Group220
 62
0
 70
0
 66
1
 10
0.0
 20
0.0
 30
0.0
  0
VERTEX
  8
Group220
 10
70.175775
 20
-116.32542
 30
0.0
  0
VERTEX
  8
Group220
 10
70.175775
 20
-131.3227
 30
0.0
  0
SEQEND
  8
Group220
  0
POLYLINE
  8
Group220
 62
0
 70
0
 66
1
 10
0.0
 20
0.0
 30
0.0
  0
VERTEX
  8
Group220
 10
63.426075
 20
-116.82406
 30
0.0
  0
VERTEX
  8
Group220
 10
63.426075
 20
-116.32542
 30
0.0
  0
SEQEND
  8
Group220
  0
ARC
  8
Group221
 62
0
 10
117.123575
 20
-117.12337
 30
0.0
 40
0.3
 50
90.0
 51
-180.0
  0
ARC
  8
Group221
 62
0
 10
117.123575
 20
-130.52337
 30
0.0
 40
0.3
 50
-180.0
 51
-90.0
  0
ARC
  8
Group221
 62
0
 10
137.668575
 20
-130.52337
 30
0.0
 40
0.3
 50
-90.0
 51
-0.0
  0
ARC
  8
Group221
 62
0
 10
137.668575
 20
-117.12337
 30
0.0
 40
0.3
 50
-0.0
 51
90.0
  0
POLYLINE
  8
Group221
 62
0
 70
0
 66
1
 10
0.0
 20
0.0
 30
0.0
  0
VERTEX
  8
Group221
 10
116.823575
 20
-117.12337
 30
0.0
  0
VERTEX
  8
Group221
 10
116.823575
 20
-130.52337
 30
0.0
  0
SEQEND
  8
Group221
  0
POLYLINE
  8
Group221
 62
0
 70
0
 66
1
 10
0.0
 20
0.0
 30
0.0
  0
VERTEX
  8
Group221
 10
137.968575
 20
-130.52337
 30
0.0
  0
VERTEX
  8
Group221
 10
137.968575
 20
-117.12337
 30
0.0
  0
SEQEND
  8
Group221
  0
POLYLINE
  8
Group221
 62
0
 70
0
 66
1
 10
0.0
 20
0.0
 30
0.0
  0
VERTEX
  8
Group221
 10
117.123575
 20
-116.82337
 30
0.0
  0
VERTEX
  8
Group221
 10
137.668575
 20
-116.82337
 30
0.0
  0
SEQEND
  8
Group221
  0
POLYLINE
  8
Group221
 62
0
 70
0
 66
1
 10
0.0
 20
0.0
 30
0.0
  0
VERTEX
  8
Group221
 10
117.123575
 20
-130.82337
 30
0.0
  0
VERTEX
  8
Group221
 10
137.668575
 20
-130.82337
 30
0.0
  0
SEQEND
  8
Group221
  0
ARC
  8
Group224
 62
0
 10
193.325575
 20
-117.12406
 30
0.0
 40
0.3
 50
90.0
 51
-180.0
  0
ARC
  8
Group224
 62
0
 10
193.325575
 20
-130.52406
 30
0.0
 40
0.3
 50
-180.0
 51
-90.0
  0
ARC
  8
Group224
 62
0
 10
244.824575
 20
-130.52406
 30
0.0
 40
0.3
 50
-90.0
 51
-0.0
  0
ARC
  8
Group224
 62
0
 10
244.824575
 20
-117.12406
 30
0.0
 40
0.3
 50
-0.0
 51
90.0
  0
POLYLINE
  8
Group224
 62
0
 70
0
 66
1
 10
0.0
 20
0.0
 30
0.0
  0
VERTEX
  8
Group224
 10
193.025575
 20
-117.12406
 30
0.0
  0
VERTEX
  8
Group224
 10
193.025575
 20
-130.52406
 30
0.0
  0
SEQEND
  8
Group224
  0
POLYLINE
  8
Group224
 62
0
 70
0
 66
1
 10
0.0
 20
0.0
 30
0.0
  0
VERTEX
  8
Group224
 10
245.124575
 20
-130.52406
 30
0.0
  0
VERTEX
  8
Group224
 10
245.124575
 20
-117.12406
 30
0.0
  0
SEQEND
  8
Group224
  0
POLYLINE
  8
Group224
 62
0
 70
0
 66
1
 10
0.0
 20
0.0
 30
0.0
  0
VERTEX
  8
Group224
 10
244.824575
 20
-130.82406
 30
0.0
  0
VERTEX
  8
Group224
 10
193.325575
 20
-130.82406
 30
0.0
  0
SEQEND
  8
Group224
  0
POLYLINE
  8
Group224
 62
0
 70
0
 66
1
 10
0.0
 20
0.0
 30
0.0
  0
VERTEX
  8
Group224
 10
193.325575
 20
-116.82406
 30
0.0
  0
VERTEX
  8
Group224
 10
244.824575
 20
-116.82406
 30
0.0
  0
SEQEND
  8
Group224
  0
ARC
  8
Group258
 62
0
 10
159.424875
 20
-131.3227
 30
0.0
 40
1.0
 50
-180.0
 51
-90.0
  0
ARC
  8
Group258
 62
0
 10
164.174575
 20
-131.3227
 30
0.0
 40
1.0
 50
-90.0
 51
-0.0
  0
POLYLINE
  8
Group258
 62
0
 70
0
 66
1
 10
0.0
 20
0.0
 30
0.0
  0
VERTEX
  8
Group258
 10
159.424875
 20
-132.3227
 30
0.0
  0
VERTEX
  8
Group258
 10
164.174575
 20
-132.3227
 30
0.0
  0
SEQEND
  8
Group258
  0
ARC
  8
Group258
 62
0
 10
159.424875
 20
-116.32542
 30
0.0
 40
1.0
 50
90.0
 51
-180.0
  0
POLYLINE
  8
Group258
 62
0
 70
0
 66
1
 10
0.0
 20
0.0
 30
0.0
  0
VERTEX
  8
Group258
 10
164.174575
 20
-115.32542
 30
0.0
  0
VERTEX
  8
Group258
 10
159.424875
 20
-115.32542
 30
0.0
  0
SEQEND
  8
Group258
  0
ARC
  8
Group258
 62
0
 10
164.174575
 20
-116.32542
 30
0.0
 40
1.0
 50
-0.0
 51
90.0
  0
POLYLINE
  8
Group258
 62
0
 70
0
 66
1
 10
0.0
 20
0.0
 30
0.0
  0
VERTEX
  8
Group258
 10
158.424875
 20
-131.3227
 30
0.0
  0
VERTEX
  8
Group258
 10
158.424875
 20
-116.32542
 30
0.0
  0
SEQEND
  8
Group258
  0
POLYLINE
  8
Group258
 62
0
 70
0
 66
1
 10
0.0
 20
0.0
 30
0.0
  0
VERTEX
  8
Group258
 10
165.174575
 20
-116.32542
 30
0.0
  0
VERTEX
  8
Group258
 10
165.174575
 20
-131.3227
 30
0.0
  0
SEQEND
  8
Group258
  0
ARC
  8
Group
 62
0
 10
2.825225
 20
-2.825
 30
0.0
 40
0.3
 50
90.0
 51
-180.0
  0
ARC
  8
Group
 62
0
 10
2.825225
 20
-16.225
 30
0.0
 40
0.3
 50
-180.0
 51
-90.0
  0
ARC
  8
Group
 62
0
 10
16.224775
 20
-16.225
 30
0.0
 40
0.3
 50
-90.0
 51
-0.0
  0
ARC
  8
Group
 62
0
 10
16.224775
 20
-2.825
 30
0.0
 40
0.3
 50
-0.0
 51
90.0
  0
POLYLINE
  8
Group
 62
0
 70
0
 66
1
 10
0.0
 20
0.0
 30
0.0
  0
VERTEX
  8
Group
 10
2.525225
 20
-2.825
 30
0.0
  0
VERTEX
  8
Group
 10
2.525225
 20
-16.225
 30
0.0
  0
SEQEND
  8
Group
  0
POLYLINE
  8
Group
 62
0
 70
0
 66
1
 10
0.0
 20
0.0
 30
0.0
  0
VERTEX
  8
Group
 10
2.825225
 20
-16.525
 30
0.0
  0
VERTEX
  8
Group
 10
16.224775
 20
-16.525
 30
0.0
  0
SEQEND
  8
Group
  0
POLYLINE
  8
Group
 62
0
 70
0
 66
1
 10
0.0
 20
0.0
 30
0.0
  0
VERTEX
  8
Group
 10
16.524775
 20
-16.225
 30
0.0
  0
VERTEX
  8
Group
 10
16.524775
 20
-2.825
 30
0.0
  0
SEQEND
  8
Group
  0
POLYLINE
  8
Group
 62
0
 70
0
 66
1
 10
0.0
 20
0.0
 30
0.0
  0
VERTEX
  8
Group
 10
16.224775
 20
-2.525
 30
0.0
  0
VERTEX
  8
Group
 10
2.825225
 20
-2.525
 30
0.0
  0
SEQEND
  8
Group
  0
ARC
  8
Group146
 62
0
 10
27.237775
 20
-2.825
 30
0.0
 40
0.3
 50
90.0
 51
-180.0
  0
ARC
  8
Group146
 62
0
 10
27.237775
 20
-16.225
 30
0.0
 40
0.3
 50
-180.0
 51
-90.0
  0
ARC
  8
Group146
 62
0
 10
40.637325
 20
-16.225
 30
0.0
 40
0.3
 50
-90.0
 51
-0.0
  0
ARC
  8
Group146
 62
0
 10
40.637325
 20
-2.825
 30
0.0
 40
0.3
 50
-0.0
 51
90.0
  0
POLYLINE
  8
Group146
 62
0
 70
0
 66
1
 10
0.0
 20
0.0
 30
0.0
  0
VERTEX
  8
Group146
 10
26.937775
 20
-2.825
 30
0.0
  0
VERTEX
  8
Group146
 10
26.937775
 20
-16.225
 30
0.0
  0
SEQEND
  8
Group146
  0
POLYLINE
  8
Group146
 62
0
 70
0
 66
1
 10
0.0
 20
0.0
 30
0.0
  0
VERTEX
  8
Group146
 10
27.237775
 20
-16.525
 30
0.0
  0
VERTEX
  8
Group146
 10
40.637325
 20
-16.525
 30
0.0
  0
SEQEND
  8
Group146
  0
POLYLINE
  8
Group146
 62
0
 70
0
 66
1
 10
0.0
 20
0.0
 30
0.0
  0
VERTEX
  8
Group146
 10
40.937325
 20
-16.225
 30
0.0
  0
VERTEX
  8
Group146
 10
40.937325
 20
-2.825
 30
0.0
  0
SEQEND
  8
Group146
  0
POLYLINE
  8
Group146
 62
0
 70
0
 66
1
 10
0.0
 20
0.0
 30
0.0
  0
VERTEX
  8
Group146
 10
40.637325
 20
-2.525
 30
0.0
  0
VERTEX
  8
Group146
 10
27.237775
 20
-2.525
 30
0.0
  0
SEQEND
  8
Group146
  0
ARC
  8
Group147
 62
0
 10
46.287775
 20
-2.825
 30
0.0
 40
0.3
 50
90.0
 51
-180.0
  0
ARC
  8
Group147
 62
0
 10
46.287775
 20
-16.225
 30
0.0
 40
0.3
 50
-180.0
 51
-90.0
  0
ARC
  8
Group147
 62
0
 10
59.687325
 20
-16.225
 30
0.0
 40
0.3
 50
-90.0
 51
-0.0
  0
ARC
  8
Group147
 62
0
 10
59.687325
 20
-2.825
 30
0.0
 40
0.3
 50
-0.0
 51
90.0
  0
POLYLINE
  8
Group147
 62
0
 70
0
 66
1
 10
0.0
 20
0.0
 30
0.0
  0
VERTEX
  8
Group147
 10
45.987775
 20
-2.825
 30
0.0
  0
VERTEX
  8
Group147
 10
45.987775
 20
-16.225
 30
0.0
  0
SEQEND
  8
Group147
  0
POLYLINE
  8
Group147
 62
0
 70
0
 66
1
 10
0.0
 20
0.0
 30
0.0
  0
VERTEX
  8
Group147
 10
46.287775
 20
-16.525
 30
0.0
  0
VERTEX
  8
Group147
 10
59.687325
 20
-16.525
 30
0.0
  0
SEQEND
  8
Group147
  0
POLYLINE
  8
Group147
 62
0
 70
0
 66
1
 10
0.0
 20
0.0
 30
0.0
  0
VERTEX
  8
Group147
 10
59.987325
 20
-16.225
 30
0.0
  0
VERTEX
  8
Group147
 10
59.987325
 20
-2.825
 30
0.0
  0
SEQEND
  8
Group147
  0
POLYLINE
  8
Group147
 62
0
 70
0
 66
1
 10
0.0
 20
0.0
 30
0.0
  0
VERTEX
  8
Group147
 10
59.687325
 20
-2.525
 30
0.0
  0
VERTEX
  8
Group147
 10
46.287775
 20
-2.525
 30
0.0
  0
SEQEND
  8
Group147
  0
ARC
  8
Group148
 62
0
 10
65.337775
 20
-2.825
 30
0.0
 40
0.3
 50
90.0
 51
-180.0
  0
ARC
  8
Group148
 62
0
 10
65.337775
 20
-16.225
 30
0.0
 40
0.3
 50
-180.0
 51
-90.0
  0
ARC
  8
Group148
 62
0
 10
78.737325
 20
-16.225
 30
0.0
 40
0.3
 50
-90.0
 51
-0.0
  0
ARC
  8
Group148
 62
0
 10
78.737325
 20
-2.825
 30
0.0
 40
0.3
 50
-0.0
 51
90.0
  0
POLYLINE
  8
Group148
 62
0
 70
0
 66
1
 10
0.0
 20
0.0
 30
0.0
  0
VERTEX
  8
Group148
 10
65.037775
 20
-2.825
 30
0.0
  0
VERTEX
  8
Group148
 10
65.037775
 20
-16.225
 30
0.0
  0
SEQEND
  8
Group148
  0
POLYLINE
  8
Group148
 62
0
 70
0
 66
1
 10
0.0
 20
0.0
 30
0.0
  0
VERTEX
  8
Group148
 10
65.337775
 20
-16.525
 30
0.0
  0
VERTEX
  8
Group148
 10
78.737325
 20
-16.525
 30
0.0
  0
SEQEND
  8
Group148
  0
POLYLINE
  8
Group148
 62
0
 70
0
 66
1
 10
0.0
 20
0.0
 30
0.0
  0
VERTEX
  8
Group148
 10
79.037325
 20
-16.225
 30
0.0
  0
VERTEX
  8
Group148
 10
79.037325
 20
-2.825
 30
0.0
  0
SEQEND
  8
Group148
  0
POLYLINE
  8
Group148
 62
0
 70
0
 66
1
 10
0.0
 20
0.0
 30
0.0
  0
VERTEX
  8
Group148
 10
78.737325
 20
-2.525
 30
0.0
  0
VERTEX
  8
Group148
 10
65.337775
 20
-2.525
 30
0.0
  0
SEQEND
  8
Group148
  0
ARC
  8
Group149
 62
0
 10
84.387775
 20
-2.825
 30
0.0
 40
0.3
 50
90.0
 51
-180.0
  0
ARC
  8
Group149
 62
0
 10
84.387775
 20
-16.225
 30
0.0
 40
0.3
 50
-180.0
 51
-90.0
  0
ARC
  8
Group149
 62
0
 10
97.787325
 20
-16.225
 30
0.0
 40
0.3
 50
-90.0
 51
-0.0
  0
ARC
  8
Group149
 62
0
 10
97.787325
 20
-2.825
 30
0.0
 40
0.3
 50
-0.0
 51
90.0
  0
POLYLINE
  8
Group149
 62
0
 70
0
 66
1
 10
0.0
 20
0.0
 30
0.0
  0
VERTEX
  8
Group149
 10
84.087775
 20
-2.825
 30
0.0
  0
VERTEX
  8
Group149
 10
84.087775
 20
-16.225
 30
0.0
  0
SEQEND
  8
Group149
  0
POLYLINE
  8
Group149
 62
0
 70
0
 66
1
 10
0.0
 20
0.0
 30
0.0
  0
VERTEX
  8
Group149
 10
84.387775
 20
-16.525
 30
0.0
  0
VERTEX
  8
Group149
 10
97.787325
 20
-16.525
 30
0.0
  0
SEQEND
  8
Group149
  0
POLYLINE
  8
Group149
 62
0
 70
0
 66
1
 10
0.0
 20
0.0
 30
0.0
  0
VERTEX
  8
Group149
 10
98.087325
 20
-16.225
 30
0.0
  0
VERTEX
  8
Group149
 10
98.087325
 20
-2.825
 30
0.0
  0
SEQEND
  8
Group149
  0
POLYLINE
  8
Group149
 62
0
 70
0
 66
1
 10
0.0
 20
0.0
 30
0.0
  0
VERTEX
  8
Group149
 10
97.787325
 20
-2.525
 30
0.0
  0
VERTEX
  8
Group149
 10
84.387775
 20
-2.525
 30
0.0
  0
SEQEND
  8
Group149
  0
ARC
  8
Group153
 62
0
 10
108.800575
 20
-2.825
 30
0.0
 40
0.3
 50
90.0
 51
-180.0
  0
ARC
  8
Group153
 62
0
 10
108.800575
 20
-16.225
 30
0.0
 40
0.3
 50
-180.0
 51
-90.0
  0
ARC
  8
Group153
 62
0
 10
122.200125
 20
-16.225
 30
0.0
 40
0.3
 50
-90.0
 51
-0.0
  0
ARC
  8
Group153
 62
0
 10
122.200125
 20
-2.825
 30
0.0
 40
0.3
 50
-0.0
 51
90.0
  0
POLYLINE
  8
Group153
 62
0
 70
0
 66
1
 10
0.0
 20
0.0
 30
0.0
  0
VERTEX
  8
Group153
 10
108.500575
 20
-2.825
 30
0.0
  0
VERTEX
  8
Group153
 10
108.500575
 20
-16.225
 30
0.0
  0
SEQEND
  8
Group153
  0
POLYLINE
  8
Group153
 62
0
 70
0
 66
1
 10
0.0
 20
0.0
 30
0.0
  0
VERTEX
  8
Group153
 10
108.800575
 20
-16.525
 30
0.0
  0
VERTEX
  8
Group153
 10
122.200125
 20
-16.525
 30
0.0
  0
SEQEND
  8
Group153
  0
POLYLINE
  8
Group153
 62
0
 70
0
 66
1
 10
0.0
 20
0.0
 30
0.0
  0
VERTEX
  8
Group153
 10
122.500125
 20
-16.225
 30
0.0
  0
VERTEX
  8
Group153
 10
122.500125
 20
-2.825
 30
0.0
  0
SEQEND
  8
Group153
  0
POLYLINE
  8
Group153
 62
0
 70
0
 66
1
 10
0.0
 20
0.0
 30
0.0
  0
VERTEX
  8
Group153
 10
122.200125
 20
-2.525
 30
0.0
  0
VERTEX
  8
Group153
 10
108.800575
 20
-2.525
 30
0.0
  0
SEQEND
  8
Group153
  0
ARC
  8
Group152
 62
0
 10
146.900575
 20
-2.825
 30
0.0
 40
0.3
 50
90.0
 51
-180.0
  0
ARC
  8
Group152
 62
0
 10
146.900575
 20
-16.225
 30
0.0
 40
0.3
 50
-180.0
 51
-90.0
  0
ARC
  8
Group152
 62
0
 10
160.300125
 20
-16.225
 30
0.0
 40
0.3
 50
-90.0
 51
-0.0
  0
ARC
  8
Group152
 62
0
 10
160.300125
 20
-2.825
 30
0.0
 40
0.3
 50
-0.0
 51
90.0
  0
POLYLINE
  8
Group152
 62
0
 70
0
 66
1
 10
0.0
 20
0.0
 30
0.0
  0
VERTEX
  8
Group152
 10
146.600575
 20
-2.825
 30
0.0
  0
VERTEX
  8
Group152
 10
146.600575
 20
-16.225
 30
0.0
  0
SEQEND
  8
Group152
  0
POLYLINE
  8
Group152
 62
0
 70
0
 66
1
 10
0.0
 20
0.0
 30
0.0
  0
VERTEX
  8
Group152
 10
146.900575
 20
-16.525
 30
0.0
  0
VERTEX
  8
Group152
 10
160.300125
 20
-16.525
 30
0.0
  0
SEQEND
  8
Group152
  0
POLYLINE
  8
Group152
 62
0
 70
0
 66
1
 10
0.0
 20
0.0
 30
0.0
  0
VERTEX
  8
Group152
 10
160.600125
 20
-16.225
 30
0.0
  0
VERTEX
  8
Group152
 10
160.600125
 20
-2.825
 30
0.0
  0
SEQEND
  8
Group152
  0
POLYLINE
  8
Group152
 62
0
 70
0
 66
1
 10
0.0
 20
0.0
 30
0.0
  0
VERTEX
  8
Group152
 10
160.300125
 20
-2.525
 30
0.0
  0
VERTEX
  8
Group152
 10
146.900575
 20
-2.525
 30
0.0
  0
SEQEND
  8
Group152
  0
ARC
  8
Group150
 62
0
 10
127.850575
 20
-2.825
 30
0.0
 40
0.3
 50
90.0
 51
-180.0
  0
ARC
  8
Group150
 62
0
 10
127.850575
 20
-16.225
 30
0.0
 40
0.3
 50
-180.0
 51
-90.0
  0
ARC
  8
Group150
 62
0
 10
141.250125
 20
-16.225
 30
0.0
 40
0.3
 50
-90.0
 51
-0.0
  0
ARC
  8
Group150
 62
0
 10
141.250125
 20
-2.825
 30
0.0
 40
0.3
 50
-0.0
 51
90.0
  0
POLYLINE
  8
Group150
 62
0
 70
0
 66
1
 10
0.0
 20
0.0
 30
0.0
  0
VERTEX
  8
Group150
 10
127.550575
 20
-2.825
 30
0.0
  0
VERTEX
  8
Group150
 10
127.550575
 20
-16.225
 30
0.0
  0
SEQEND
  8
Group150
  0
POLYLINE
  8
Group150
 62
0
 70
0
 66
1
 10
0.0
 20
0.0
 30
0.0
  0
VERTEX
  8
Group150
 10
127.850575
 20
-16.525
 30
0.0
  0
VERTEX
  8
Group150
 10
141.250125
 20
-16.525
 30
0.0
  0
SEQEND
  8
Group150
  0
POLYLINE
  8
Group150
 62
0
 70
0
 66
1
 10
0.0
 20
0.0
 30
0.0
  0
VERTEX
  8
Group150
 10
141.550125
 20
-16.225
 30
0.0
  0
VERTEX
  8
Group150
 10
141.550125
 20
-2.825
 30
0.0
  0
SEQEND
  8
Group150
  0
POLYLINE
  8
Group150
 62
0
 70
0
 66
1
 10
0.0
 20
0.0
 30
0.0
  0
VERTEX
  8
Group150
 10
141.250125
 20
-2.525
 30
0.0
  0
VERTEX
  8
Group150
 10
127.850575
 20
-2.525
 30
0.0
  0
SEQEND
  8
Group150
  0
ARC
  8
Group151
 62
0
 10
165.950575
 20
-2.825
 30
0.0
 40
0.3
 50
90.0
 51
-180.0
  0
ARC
  8
Group151
 62
0
 10
165.950575
 20
-16.225
 30
0.0
 40
0.3
 50
-180.0
 51
-90.0
  0
ARC
  8
Group151
 62
0
 10
179.350125
 20
-16.225
 30
0.0
 40
0.3
 50
-90.0
 51
-0.0
  0
ARC
  8
Group151
 62
0
 10
179.350125
 20
-2.825
 30
0.0
 40
0.3
 50
-0.0
 51
90.0
  0
POLYLINE
  8
Group151
 62
0
 70
0
 66
1
 10
0.0
 20
0.0
 30
0.0
  0
VERTEX
  8
Group151
 10
165.650575
 20
-2.825
 30
0.0
  0
VERTEX
  8
Group151
 10
165.650575
 20
-16.225
 30
0.0
  0
SEQEND
  8
Group151
  0
POLYLINE
  8
Group151
 62
0
 70
0
 66
1
 10
0.0
 20
0.0
 30
0.0
  0
VERTEX
  8
Group151
 10
165.950575
 20
-16.525
 30
0.0
  0
VERTEX
  8
Group151
 10
179.350125
 20
-16.525
 30
0.0
  0
SEQEND
  8
Group151
  0
POLYLINE
  8
Group151
 62
0
 70
0
 66
1
 10
0.0
 20
0.0
 30
0.0
  0
VERTEX
  8
Group151
 10
179.650125
 20
-16.225
 30
0.0
  0
VERTEX
  8
Group151
 10
179.650125
 20
-2.825
 30
0.0
  0
SEQEND
  8
Group151
  0
POLYLINE
  8
Group151
 62
0
 70
0
 66
1
 10
0.0
 20
0.0
 30
0.0
  0
VERTEX
  8
Group151
 10
179.350125
 20
-2.525
 30
0.0
  0
VERTEX
  8
Group151
 10
165.950575
 20
-2.525
 30
0.0
  0
SEQEND
  8
Group151
  0
ARC
  8
Group156
 62
0
 10
209.412575
 20
-2.825
 30
0.0
 40
0.3
 50
90.0
 51
-180.0
  0
ARC
  8
Group156
 62
0
 10
209.412575
 20
-16.225
 30
0.0
 40
0.3
 50
-180.0
 51
-90.0
  0
ARC
  8
Group156
 62
0
 10
222.812125
 20
-16.225
 30
0.0
 40
0.3
 50
-90.0
 51
-0.0
  0
ARC
  8
Group156
 62
0
 10
222.812125
 20
-2.825
 30
0.0
 40
0.3
 50
-0.0
 51
90.0
  0
POLYLINE
  8
Group156
 62
0
 70
0
 66
1
 10
0.0
 20
0.0
 30
0.0
  0
VERTEX
  8
Group156
 10
209.112575
 20
-2.825
 30
0.0
  0
VERTEX
  8
Group156
 10
209.112575
 20
-16.225
 30
0.0
  0
SEQEND
  8
Group156
  0
POLYLINE
  8
Group156
 62
0
 70
0
 66
1
 10
0.0
 20
0.0
 30
0.0
  0
VERTEX
  8
Group156
 10
209.412575
 20
-16.525
 30
0.0
  0
VERTEX
  8
Group156
 10
222.812125
 20
-16.525
 30
0.0
  0
SEQEND
  8
Group156
  0
POLYLINE
  8
Group156
 62
0
 70
0
 66
1
 10
0.0
 20
0.0
 30
0.0
  0
VERTEX
  8
Group156
 10
223.112125
 20
-16.225
 30
0.0
  0
VERTEX
  8
Group156
 10
223.112125
 20
-2.825
 30
0.0
  0
SEQEND
  8
Group156
  0
POLYLINE
  8
Group156
 62
0
 70
0
 66
1
 10
0.0
 20
0.0
 30
0.0
  0
VERTEX
  8
Group156
 10
222.812125
 20
-2.525
 30
0.0
  0
VERTEX
  8
Group156
 10
209.412575
 20
-2.525
 30
0.0
  0
SEQEND
  8
Group156
  0
ARC
  8
Group154
 62
0
 10
190.362575
 20
-2.825
 30
0.0
 40
0.3
 50
90.0
 51
-180.0
  0
ARC
  8
Group154
 62
0
 10
190.362575
 20
-16.225
 30
0.0
 40
0.3
 50
-180.0
 51
-90.0
  0
ARC
  8
Group154
 62
0
 10
203.762125
 20
-16.225
 30
0.0
 40
0.3
 50
-90.0
 51
-0.0
  0
ARC
  8
Group154
 62
0
 10
203.762125
 20
-2.825
 30
0.0
 40
0.3
 50
-0.0
 51
90.0
  0
POLYLINE
  8
Group154
 62
0
 70
0
 66
1
 10
0.0
 20
0.0
 30
0.0
  0
VERTEX
  8
Group154
 10
190.062575
 20
-2.825
 30
0.0
  0
VERTEX
  8
Group154
 10
190.062575
 20
-16.225
 30
0.0
  0
SEQEND
  8
Group154
  0
POLYLINE
  8
Group154
 62
0
 70
0
 66
1
 10
0.0
 20
0.0
 30
0.0
  0
VERTEX
  8
Group154
 10
190.362575
 20
-16.525
 30
0.0
  0
VERTEX
  8
Group154
 10
203.762125
 20
-16.525
 30
0.0
  0
SEQEND
  8
Group154
  0
POLYLINE
  8
Group154
 62
0
 70
0
 66
1
 10
0.0
 20
0.0
 30
0.0
  0
VERTEX
  8
Group154
 10
204.062125
 20
-16.225
 30
0.0
  0
VERTEX
  8
Group154
 10
204.062125
 20
-2.825
 30
0.0
  0
SEQEND
  8
Group154
  0
POLYLINE
  8
Group154
 62
0
 70
0
 66
1
 10
0.0
 20
0.0
 30
0.0
  0
VERTEX
  8
Group154
 10
203.762125
 20
-2.525
 30
0.0
  0
VERTEX
  8
Group154
 10
190.362575
 20
-2.525
 30
0.0
  0
SEQEND
  8
Group154
  0
ARC
  8
Group157
 62
0
 10
247.512575
 20
-2.825
 30
0.0
 40
0.3
 50
90.0
 51
-180.0
  0
ARC
  8
Group157
 62
0
 10
247.512575
 20
-16.225
 30
0.0
 40
0.3
 50
-180.0
 51
-90.0
  0
ARC
  8
Group157
 62
0
 10
260.912125
 20
-16.225
 30
0.0
 40
0.3
 50
-90.0
 51
-0.0
  0
ARC
  8
Group157
 62
0
 10
260.912125
 20
-2.825
 30
0.0
 40
0.3
 50
-0.0
 51
90.0
  0
POLYLINE
  8
Group157
 62
0
 70
0
 66
1
 10
0.0
 20
0.0
 30
0.0
  0
VERTEX
  8
Group157
 10
247.212575
 20
-2.825
 30
0.0
  0
VERTEX
  8
Group157
 10
247.212575
 20
-16.225
 30
0.0
  0
SEQEND
  8
Group157
  0
POLYLINE
  8
Group157
 62
0
 70
0
 66
1
 10
0.0
 20
0.0
 30
0.0
  0
VERTEX
  8
Group157
 10
247.512575
 20
-16.525
 30
0.0
  0
VERTEX
  8
Group157
 10
260.912125
 20
-16.525
 30
0.0
  0
SEQEND
  8
Group157
  0
POLYLINE
  8
Group157
 62
0
 70
0
 66
1
 10
0.0
 20
0.0
 30
0.0
  0
VERTEX
  8
Group157
 10
261.212125
 20
-16.225
 30
0.0
  0
VERTEX
  8
Group157
 10
261.212125
 20
-2.825
 30
0.0
  0
SEQEND
  8
Group157
  0
POLYLINE
  8
Group157
 62
0
 70
0
 66
1
 10
0.0
 20
0.0
 30
0.0
  0
VERTEX
  8
Group157
 10
260.912125
 20
-2.525
 30
0.0
  0
VERTEX
  8
Group157
 10
247.512575
 20
-2.525
 30
0.0
  0
SEQEND
  8
Group157
  0
ARC
  8
Group155
 62
0
 10
228.462575
 20
-2.825
 30
0.0
 40
0.3
 50
90.0
 51
-180.0
  0
ARC
  8
Group155
 62
0
 10
228.462575
 20
-16.225
 30
0.0
 40
0.3
 50
-180.0
 51
-90.0
  0
ARC
  8
Group155
 62
0
 10
241.862125
 20
-16.225
 30
0.0
 40
0.3
 50
-90.0
 51
-0.0
  0
ARC
  8
Group155
 62
0
 10
241.862125
 20
-2.825
 30
0.0
 40
0.3
 50
-0.0
 51
90.0
  0
POLYLINE
  8
Group155
 62
0
 70
0
 66
1
 10
0.0
 20
0.0
 30
0.0
  0
VERTEX
  8
Group155
 10
228.162575
 20
-2.825
 30
0.0
  0
VERTEX
  8
Group155
 10
228.162575
 20
-16.225
 30
0.0
  0
SEQEND
  8
Group155
  0
POLYLINE
  8
Group155
 62
0
 70
0
 66
1
 10
0.0
 20
0.0
 30
0.0
  0
VERTEX
  8
Group155
 10
228.462575
 20
-16.525
 30
0.0
  0
VERTEX
  8
Group155
 10
241.862125
 20
-16.525
 30
0.0
  0
SEQEND
  8
Group155
  0
POLYLINE
  8
Group155
 62
0
 70
0
 66
1
 10
0.0
 20
0.0
 30
0.0
  0
VERTEX
  8
Group155
 10
242.162125
 20
-16.225
 30
0.0
  0
VERTEX
  8
Group155
 10
242.162125
 20
-2.825
 30
0.0
  0
SEQEND
  8
Group155
  0
POLYLINE
  8
Group155
 62
0
 70
0
 66
1
 10
0.0
 20
0.0
 30
0.0
  0
VERTEX
  8
Group155
 10
241.862125
 20
-2.525
 30
0.0
  0
VERTEX
  8
Group155
 10
228.462575
 20
-2.525
 30
0.0
  0
SEQEND
  8
Group155
  0
ARC
  8
Group225
 62
0
 10
299.300575
 20
-2.825
 30
0.0
 40
0.3
 50
90.0
 51
-180.0
  0
ARC
  8
Group225
 62
0
 10
299.300575
 20
-16.225
 30
0.0
 40
0.3
 50
-180.0
 51
-90.0
  0
ARC
  8
Group225
 62
0
 10
312.700125
 20
-16.225
 30
0.0
 40
0.3
 50
-90.0
 51
-0.0
  0
ARC
  8
Group225
 62
0
 10
312.700125
 20
-2.825
 30
0.0
 40
0.3
 50
-0.0
 51
90.0
  0
POLYLINE
  8
Group225
 62
0
 70
0
 66
1
 10
0.0
 20
0.0
 30
0.0
  0
VERTEX
  8
Group225
 10
299.000575
 20
-2.825
 30
0.0
  0
VERTEX
  8
Group225
 10
299.000575
 20
-16.225
 30
0.0
  0
SEQEND
  8
Group225
  0
POLYLINE
  8
Group225
 62
0
 70
0
 66
1
 10
0.0
 20
0.0
 30
0.0
  0
VERTEX
  8
Group225
 10
299.300575
 20
-16.525
 30
0.0
  0
VERTEX
  8
Group225
 10
312.700125
 20
-16.525
 30
0.0
  0
SEQEND
  8
Group225
  0
POLYLINE
  8
Group225
 62
0
 70
0
 66
1
 10
0.0
 20
0.0
 30
0.0
  0
VERTEX
  8
Group225
 10
313.000125
 20
-16.225
 30
0.0
  0
VERTEX
  8
Group225
 10
313.000125
 20
-2.825
 30
0.0
  0
SEQEND
  8
Group225
  0
POLYLINE
  8
Group225
 62
0
 70
0
 66
1
 10
0.0
 20
0.0
 30
0.0
  0
VERTEX
  8
Group225
 10
312.700125
 20
-2.525
 30
0.0
  0
VERTEX
  8
Group225
 10
299.300575
 20
-2.525
 30
0.0
  0
SEQEND
  8
Group225
  0
ARC
  8
Group226
 62
0
 10
318.350575
 20
-2.825
 30
0.0
 40
0.3
 50
90.0
 51
-180.0
  0
ARC
  8
Group226
 62
0
 10
318.350575
 20
-16.225
 30
0.0
 40
0.3
 50
-180.0
 51
-90.0
  0
ARC
  8
Group226
 62
0
 10
331.750125
 20
-16.225
 30
0.0
 40
0.3
 50
-90.0
 51
-0.0
  0
ARC
  8
Group226
 62
0
 10
331.750125
 20
-2.825
 30
0.0
 40
0.3
 50
-0.0
 51
90.0
  0
POLYLINE
  8
Group226
 62
0
 70
0
 66
1
 10
0.0
 20
0.0
 30
0.0
  0
VERTEX
  8
Group226
 10
318.050575
 20
-2.825
 30
0.0
  0
VERTEX
  8
Group226
 10
318.050575
 20
-16.225
 30
0.0
  0
SEQEND
  8
Group226
  0
POLYLINE
  8
Group226
 62
0
 70
0
 66
1
 10
0.0
 20
0.0
 30
0.0
  0
VERTEX
  8
Group226
 10
318.350575
 20
-16.525
 30
0.0
  0
VERTEX
  8
Group226
 10
331.750125
 20
-16.525
 30
0.0
  0
SEQEND
  8
Group226
  0
POLYLINE
  8
Group226
 62
0
 70
0
 66
1
 10
0.0
 20
0.0
 30
0.0
  0
VERTEX
  8
Group226
 10
332.050125
 20
-16.225
 30
0.0
  0
VERTEX
  8
Group226
 10
332.050125
 20
-2.825
 30
0.0
  0
SEQEND
  8
Group226
  0
POLYLINE
  8
Group226
 62
0
 70
0
 66
1
 10
0.0
 20
0.0
 30
0.0
  0
VERTEX
  8
Group226
 10
331.750125
 20
-2.525
 30
0.0
  0
VERTEX
  8
Group226
 10
318.350575
 20
-2.525
 30
0.0
  0
SEQEND
  8
Group226
  0
ARC
  8
Group227
 62
0
 10
337.400575
 20
-2.825
 30
0.0
 40
0.3
 50
90.0
 51
-180.0
  0
ARC
  8
Group227
 62
0
 10
337.400575
 20
-16.225
 30
0.0
 40
0.3
 50
-180.0
 51
-90.0
  0
ARC
  8
Group227
 62
0
 10
350.800125
 20
-16.225
 30
0.0
 40
0.3
 50
-90.0
 51
-0.0
  0
ARC
  8
Group227
 62
0
 10
350.800125
 20
-2.825
 30
0.0
 40
0.3
 50
-0.0
 51
90.0
  0
POLYLINE
  8
Group227
 62
0
 70
0
 66
1
 10
0.0
 20
0.0
 30
0.0
  0
VERTEX
  8
Group227
 10
337.100575
 20
-2.825
 30
0.0
  0
VERTEX
  8
Group227
 10
337.100575
 20
-16.225
 30
0.0
  0
SEQEND
  8
Group227
  0
POLYLINE
  8
Group227
 62
0
 70
0
 66
1
 10
0.0
 20
0.0
 30
0.0
  0
VERTEX
  8
Group227
 10
337.400575
 20
-16.525
 30
0.0
  0
VERTEX
  8
Group227
 10
350.800125
 20
-16.525
 30
0.0
  0
SEQEND
  8
Group227
  0
POLYLINE
  8
Group227
 62
0
 70
0
 66
1
 10
0.0
 20
0.0
 30
0.0
  0
VERTEX
  8
Group227
 10
351.100125
 20
-16.225
 30
0.0
  0
VERTEX
  8
Group227
 10
351.100125
 20
-2.825
 30
0.0
  0
SEQEND
  8
Group227
  0
POLYLINE
  8
Group227
 62
0
 70
0
 66
1
 10
0.0
 20
0.0
 30
0.0
  0
VERTEX
  8
Group227
 10
350.800125
 20
-2.525
 30
0.0
  0
VERTEX
  8
Group227
 10
337.400575
 20
-2.525
 30
0.0
  0
SEQEND
  8
Group227
  0
ARC
  8
Group228
 62
0
 10
356.451575
 20
-2.825
 30
0.0
 40
0.3
 50
90.0
 51
-180.0
  0
ARC
  8
Group228
 62
0
 10
356.451575
 20
-16.225
 30
0.0
 40
0.3
 50
-180.0
 51
-90.0
  0
ARC
  8
Group228
 62
0
 10
369.851125
 20
-16.225
 30
0.0
 40
0.3
 50
-90.0
 51
-0.0
  0
ARC
  8
Group228
 62
0
 10
369.851125
 20
-2.825
 30
0.0
 40
0.3
 50
-0.0
 51
90.0
  0
POLYLINE
  8
Group228
 62
0
 70
0
 66
1
 10
0.0
 20
0.0
 30
0.0
  0
VERTEX
  8
Group228
 10
356.151575
 20
-2.825
 30
0.0
  0
VERTEX
  8
Group228
 10
356.151575
 20
-16.225
 30
0.0
  0
SEQEND
  8
Group228
  0
POLYLINE
  8
Group228
 62
0
 70
0
 66
1
 10
0.0
 20
0.0
 30
0.0
  0
VERTEX
  8
Group228
 10
356.451575
 20
-16.525
 30
0.0
  0
VERTEX
  8
Group228
 10
369.851125
 20
-16.525
 30
0.0
  0
SEQEND
  8
Group228
  0
POLYLINE
  8
Group228
 62
0
 70
0
 66
1
 10
0.0
 20
0.0
 30
0.0
  0
VERTEX
  8
Group228
 10
370.151125
 20
-16.225
 30
0.0
  0
VERTEX
  8
Group228
 10
370.151125
 20
-2.825
 30
0.0
  0
SEQEND
  8
Group228
  0
POLYLINE
  8
Group228
 62
0
 70
0
 66
1
 10
0.0
 20
0.0
 30
0.0
  0
VERTEX
  8
Group228
 10
369.851125
 20
-2.525
 30
0.0
  0
VERTEX
  8
Group228
 10
356.451575
 20
-2.525
 30
0.0
  0
SEQEND
  8
Group228
  0
ARC
  8
Group229
 62
0
 10
337.400575
 20
-21.875
 30
0.0
 40
0.3
 50
90.0
 51
-180.0
  0
ARC
  8
Group229
 62
0
 10
337.400575
 20
-35.275
 30
0.0
 40
0.3
 50
-180.0
 51
-90.0
  0
ARC
  8
Group229
 62
0
 10
350.800125
 20
-35.275
 30
0.0
 40
0.3
 50
-90.0
 51
-0.0
  0
ARC
  8
Group229
 62
0
 10
350.800125
 20
-21.875
 30
0.0
 40
0.3
 50
-0.0
 51
90.0
  0
POLYLINE
  8
Group229
 62
0
 70
0
 66
1
 10
0.0
 20
0.0
 30
0.0
  0
VERTEX
  8
Group229
 10
337.100575
 20
-21.875
 30
0.0
  0
VERTEX
  8
Group229
 10
337.100575
 20
-35.275
 30
0.0
  0
SEQEND
  8
Group229
  0
POLYLINE
  8
Group229
 62
0
 70
0
 66
1
 10
0.0
 20
0.0
 30
0.0
  0
VERTEX
  8
Group229
 10
337.400575
 20
-35.575
 30
0.0
  0
VERTEX
  8
Group229
 10
350.800125
 20
-35.575
 30
0.0
  0
SEQEND
  8
Group229
  0
POLYLINE
  8
Group229
 62
0
 70
0
 66
1
 10
0.0
 20
0.0
 30
0.0
  0
VERTEX
  8
Group229
 10
351.100125
 20
-35.275
 30
0.0
  0
VERTEX
  8
Group229
 10
351.100125
 20
-21.875
 30
0.0
  0
SEQEND
  8
Group229
  0
POLYLINE
  8
Group229
 62
0
 70
0
 66
1
 10
0.0
 20
0.0
 30
0.0
  0
VERTEX
  8
Group229
 10
350.800125
 20
-21.575
 30
0.0
  0
VERTEX
  8
Group229
 10
337.400575
 20
-21.575
 30
0.0
  0
SEQEND
  8
Group229
  0
ARC
  8
Group230
 62
0
 10
299.300575
 20
-21.875
 30
0.0
 40
0.3
 50
90.0
 51
-180.0
  0
ARC
  8
Group230
 62
0
 10
299.300575
 20
-35.275
 30
0.0
 40
0.3
 50
-180.0
 51
-90.0
  0
ARC
  8
Group230
 62
0
 10
312.700125
 20
-35.275
 30
0.0
 40
0.3
 50
-90.0
 51
-0.0
  0
ARC
  8
Group230
 62
0
 10
312.700125
 20
-21.875
 30
0.0
 40
0.3
 50
-0.0
 51
90.0
  0
POLYLINE
  8
Group230
 62
0
 70
0
 66
1
 10
0.0
 20
0.0
 30
0.0
  0
VERTEX
  8
Group230
 10
299.000575
 20
-21.875
 30
0.0
  0
VERTEX
  8
Group230
 10
299.000575
 20
-35.275
 30
0.0
  0
SEQEND
  8
Group230
  0
POLYLINE
  8
Group230
 62
0
 70
0
 66
1
 10
0.0
 20
0.0
 30
0.0
  0
VERTEX
  8
Group230
 10
299.300575
 20
-35.575
 30
0.0
  0
VERTEX
  8
Group230
 10
312.700125
 20
-35.575
 30
0.0
  0
SEQEND
  8
Group230
  0
POLYLINE
  8
Group230
 62
0
 70
0
 66
1
 10
0.0
 20
0.0
 30
0.0
  0
VERTEX
  8
Group230
 10
313.000125
 20
-35.275
 30
0.0
  0
VERTEX
  8
Group230
 10
313.000125
 20
-21.875
 30
0.0
  0
SEQEND
  8
Group230
  0
POLYLINE
  8
Group230
 62
0
 70
0
 66
1
 10
0.0
 20
0.0
 30
0.0
  0
VERTEX
  8
Group230
 10
312.700125
 20
-21.575
 30
0.0
  0
VERTEX
  8
Group230
 10
299.300575
 20
-21.575
 30
0.0
  0
SEQEND
  8
Group230
  0
ARC
  8
Group232
 62
0
 10
318.350575
 20
-21.875
 30
0.0
 40
0.3
 50
90.0
 51
-180.0
  0
ARC
  8
Group232
 62
0
 10
318.350575
 20
-35.275
 30
0.0
 40
0.3
 50
-180.0
 51
-90.0
  0
ARC
  8
Group232
 62
0
 10
331.750125
 20
-35.275
 30
0.0
 40
0.3
 50
-90.0
 51
-0.0
  0
ARC
  8
Group232
 62
0
 10
331.750125
 20
-21.875
 30
0.0
 40
0.3
 50
-0.0
 51
90.0
  0
POLYLINE
  8
Group232
 62
0
 70
0
 66
1
 10
0.0
 20
0.0
 30
0.0
  0
VERTEX
  8
Group232
 10
318.050575
 20
-21.875
 30
0.0
  0
VERTEX
  8
Group232
 10
318.050575
 20
-35.275
 30
0.0
  0
SEQEND
  8
Group232
  0
POLYLINE
  8
Group232
 62
0
 70
0
 66
1
 10
0.0
 20
0.0
 30
0.0
  0
VERTEX
  8
Group232
 10
318.350575
 20
-35.575
 30
0.0
  0
VERTEX
  8
Group232
 10
331.750125
 20
-35.575
 30
0.0
  0
SEQEND
  8
Group232
  0
POLYLINE
  8
Group232
 62
0
 70
0
 66
1
 10
0.0
 20
0.0
 30
0.0
  0
VERTEX
  8
Group232
 10
332.050125
 20
-35.275
 30
0.0
  0
VERTEX
  8
Group232
 10
332.050125
 20
-21.875
 30
0.0
  0
SEQEND
  8
Group232
  0
POLYLINE
  8
Group232
 62
0
 70
0
 66
1
 10
0.0
 20
0.0
 30
0.0
  0
VERTEX
  8
Group232
 10
331.750125
 20
-21.575
 30
0.0
  0
VERTEX
  8
Group232
 10
318.350575
 20
-21.575
 30
0.0
  0
SEQEND
  8
Group232
  0
ARC
  8
Group231
 62
0
 10
356.451575
 20
-21.875
 30
0.0
 40
0.3
 50
90.0
 51
-180.0
  0
ARC
  8
Group231
 62
0
 10
356.451575
 20
-35.275
 30
0.0
 40
0.3
 50
-180.0
 51
-90.0
  0
ARC
  8
Group231
 62
0
 10
369.851125
 20
-35.275
 30
0.0
 40
0.3
 50
-90.0
 51
-0.0
  0
ARC
  8
Group231
 62
0
 10
369.851125
 20
-21.875
 30
0.0
 40
0.3
 50
-0.0
 51
90.0
  0
POLYLINE
  8
Group231
 62
0
 70
0
 66
1
 10
0.0
 20
0.0
 30
0.0
  0
VERTEX
  8
Group231
 10
356.151575
 20
-21.875
 30
0.0
  0
VERTEX
  8
Group231
 10
356.151575
 20
-35.275
 30
0.0
  0
SEQEND
  8
Group231
  0
POLYLINE
  8
Group231
 62
0
 70
0
 66
1
 10
0.0
 20
0.0
 30
0.0
  0
VERTEX
  8
Group231
 10
356.451575
 20
-35.575
 30
0.0
  0
VERTEX
  8
Group231
 10
369.851125
 20
-35.575
 30
0.0
  0
SEQEND
  8
Group231
  0
POLYLINE
  8
Group231
 62
0
 70
0
 66
1
 10
0.0
 20
0.0
 30
0.0
  0
VERTEX
  8
Group231
 10
370.151125
 20
-35.275
 30
0.0
  0
VERTEX
  8
Group231
 10
370.151125
 20
-21.875
 30
0.0
  0
SEQEND
  8
Group231
  0
POLYLINE
  8
Group231
 62
0
 70
0
 66
1
 10
0.0
 20
0.0
 30
0.0
  0
VERTEX
  8
Group231
 10
369.851125
 20
-21.575
 30
0.0
  0
VERTEX
  8
Group231
 10
356.451575
 20
-21.575
 30
0.0
  0
SEQEND
  8
Group231
  0
ARC
  8
Group235
 62
0
 10
356.451575
 20
-40.9248
 30
0.0
 40
0.3
 50
90.0
 51
-180.0
  0
ARC
  8
Group235
 62
0
 10
356.451575
 20
-54.3248
 30
0.0
 40
0.3
 50
-180.0
 51
-90.0
  0
ARC
  8
Group235
 62
0
 10
369.851125
 20
-54.3248
 30
0.0
 40
0.3
 50
-90.0
 51
-0.0
  0
ARC
  8
Group235
 62
0
 10
369.851125
 20
-40.9248
 30
0.0
 40
0.3
 50
-0.0
 51
90.0
  0
POLYLINE
  8
Group235
 62
0
 70
0
 66
1
 10
0.0
 20
0.0
 30
0.0
  0
VERTEX
  8
Group235
 10
356.151575
 20
-40.9248
 30
0.0
  0
VERTEX
  8
Group235
 10
356.151575
 20
-54.3248
 30
0.0
  0
SEQEND
  8
Group235
  0
POLYLINE
  8
Group235
 62
0
 70
0
 66
1
 10
0.0
 20
0.0
 30
0.0
  0
VERTEX
  8
Group235
 10
356.451575
 20
-54.6248
 30
0.0
  0
VERTEX
  8
Group235
 10
369.851125
 20
-54.6248
 30
0.0
  0
SEQEND
  8
Group235
  0
POLYLINE
  8
Group235
 62
0
 70
0
 66
1
 10
0.0
 20
0.0
 30
0.0
  0
VERTEX
  8
Group235
 10
370.151125
 20
-54.3248
 30
0.0
  0
VERTEX
  8
Group235
 10
370.151125
 20
-40.9248
 30
0.0
  0
SEQEND
  8
Group235
  0
POLYLINE
  8
Group235
 62
0
 70
0
 66
1
 10
0.0
 20
0.0
 30
0.0
  0
VERTEX
  8
Group235
 10
369.851125
 20
-40.6248
 30
0.0
  0
VERTEX
  8
Group235
 10
356.451575
 20
-40.6248
 30
0.0
  0
SEQEND
  8
Group235
  0
ARC
  8
Group233
 62
0
 10
337.400575
 20
-40.9248
 30
0.0
 40
0.3
 50
90.0
 51
-180.0
  0
ARC
  8
Group233
 62
0
 10
337.400575
 20
-54.3248
 30
0.0
 40
0.3
 50
-180.0
 51
-90.0
  0
ARC
  8
Group233
 62
0
 10
350.800125
 20
-54.3248
 30
0.0
 40
0.3
 50
-90.0
 51
-0.0
  0
ARC
  8
Group233
 62
0
 10
350.800125
 20
-40.9248
 30
0.0
 40
0.3
 50
-0.0
 51
90.0
  0
POLYLINE
  8
Group233
 62
0
 70
0
 66
1
 10
0.0
 20
0.0
 30
0.0
  0
VERTEX
  8
Group233
 10
337.100575
 20
-40.9248
 30
0.0
  0
VERTEX
  8
Group233
 10
337.100575
 20
-54.3248
 30
0.0
  0
SEQEND
  8
Group233
  0
POLYLINE
  8
Group233
 62
0
 70
0
 66
1
 10
0.0
 20
0.0
 30
0.0
  0
VERTEX
  8
Group233
 10
337.400575
 20
-54.6248
 30
0.0
  0
VERTEX
  8
Group233
 10
350.800125
 20
-54.6248
 30
0.0
  0
SEQEND
  8
Group233
  0
POLYLINE
  8
Group233
 62
0
 70
0
 66
1
 10
0.0
 20
0.0
 30
0.0
  0
VERTEX
  8
Group233
 10
351.100125
 20
-54.3248
 30
0.0
  0
VERTEX
  8
Group233
 10
351.100125
 20
-40.9248
 30
0.0
  0
SEQEND
  8
Group233
  0
POLYLINE
  8
Group233
 62
0
 70
0
 66
1
 10
0.0
 20
0.0
 30
0.0
  0
VERTEX
  8
Group233
 10
350.800125
 20
-40.6248
 30
0.0
  0
VERTEX
  8
Group233
 10
337.400575
 20
-40.6248
 30
0.0
  0
SEQEND
  8
Group233
  0
ARC
  8
Group234
 62
0
 10
299.300575
 20
-40.9248
 30
0.0
 40
0.3
 50
90.0
 51
-180.0
  0
ARC
  8
Group234
 62
0
 10
299.300575
 20
-54.3248
 30
0.0
 40
0.3
 50
-180.0
 51
-90.0
  0
ARC
  8
Group234
 62
0
 10
312.700125
 20
-54.3248
 30
0.0
 40
0.3
 50
-90.0
 51
-0.0
  0
ARC
  8
Group234
 62
0
 10
312.700125
 20
-40.9248
 30
0.0
 40
0.3
 50
-0.0
 51
90.0
  0
POLYLINE
  8
Group234
 62
0
 70
0
 66
1
 10
0.0
 20
0.0
 30
0.0
  0
VERTEX
  8
Group234
 10
299.000575
 20
-40.9248
 30
0.0
  0
VERTEX
  8
Group234
 10
299.000575
 20
-54.3248
 30
0.0
  0
SEQEND
  8
Group234
  0
POLYLINE
  8
Group234
 62
0
 70
0
 66
1
 10
0.0
 20
0.0
 30
0.0
  0
VERTEX
  8
Group234
 10
299.300575
 20
-54.6248
 30
0.0
  0
VERTEX
  8
Group234
 10
312.700125
 20
-54.6248
 30
0.0
  0
SEQEND
  8
Group234
  0
POLYLINE
  8
Group234
 62
0
 70
0
 66
1
 10
0.0
 20
0.0
 30
0.0
  0
VERTEX
  8
Group234
 10
313.000125
 20
-54.3248
 30
0.0
  0
VERTEX
  8
Group234
 10
313.000125
 20
-40.9248
 30
0.0
  0
SEQEND
  8
Group234
  0
POLYLINE
  8
Group234
 62
0
 70
0
 66
1
 10
0.0
 20
0.0
 30
0.0
  0
VERTEX
  8
Group234
 10
312.700125
 20
-40.6248
 30
0.0
  0
VERTEX
  8
Group234
 10
299.300575
 20
-40.6248
 30
0.0
  0
SEQEND
  8
Group234
  0
ARC
  8
Group236
 62
0
 10
318.350575
 20
-40.9248
 30
0.0
 40
0.3
 50
90.0
 51
-180.0
  0
ARC
  8
Group236
 62
0
 10
318.350575
 20
-54.3248
 30
0.0
 40
0.3
 50
-180.0
 51
-90.0
  0
ARC
  8
Group236
 62
0
 10
331.750125
 20
-54.3248
 30
0.0
 40
0.3
 50
-90.0
 51
-0.0
  0
ARC
  8
Group236
 62
0
 10
331.750125
 20
-40.9248
 30
0.0
 40
0.3
 50
-0.0
 51
90.0
  0
POLYLINE
  8
Group236
 62
0
 70
0
 66
1
 10
0.0
 20
0.0
 30
0.0
  0
VERTEX
  8
Group236
 10
318.050575
 20
-40.9248
 30
0.0
  0
VERTEX
  8
Group236
 10
318.050575
 20
-54.3248
 30
0.0
  0
SEQEND
  8
Group236
  0
POLYLINE
  8
Group236
 62
0
 70
0
 66
1
 10
0.0
 20
0.0
 30
0.0
  0
VERTEX
  8
Group236
 10
318.350575
 20
-54.6248
 30
0.0
  0
VERTEX
  8
Group236
 10
331.750125
 20
-54.6248
 30
0.0
  0
SEQEND
  8
Group236
  0
POLYLINE
  8
Group236
 62
0
 70
0
 66
1
 10
0.0
 20
0.0
 30
0.0
  0
VERTEX
  8
Group236
 10
332.050125
 20
-54.3248
 30
0.0
  0
VERTEX
  8
Group236
 10
332.050125
 20
-40.9248
 30
0.0
  0
SEQEND
  8
Group236
  0
POLYLINE
  8
Group236
 62
0
 70
0
 66
1
 10
0.0
 20
0.0
 30
0.0
  0
VERTEX
  8
Group236
 10
331.750125
 20
-40.6248
 30
0.0
  0
VERTEX
  8
Group236
 10
318.350575
 20
-40.6248
 30
0.0
  0
SEQEND
  8
Group236
  0
ARC
  8
Group239
 62
0
 10
318.350575
 20
-59.9748
 30
0.0
 40
0.3
 50
90.0
 51
-180.0
  0
ARC
  8
Group239
 62
0
 10
318.350575
 20
-73.3748
 30
0.0
 40
0.3
 50
-180.0
 51
-90.0
  0
ARC
  8
Group239
 62
0
 10
331.750125
 20
-73.3748
 30
0.0
 40
0.3
 50
-90.0
 51
-0.0
  0
ARC
  8
Group239
 62
0
 10
331.750125
 20
-59.9748
 30
0.0
 40
0.3
 50
-0.0
 51
90.0
  0
POLYLINE
  8
Group239
 62
0
 70
0
 66
1
 10
0.0
 20
0.0
 30
0.0
  0
VERTEX
  8
Group239
 10
318.050575
 20
-59.9748
 30
0.0
  0
VERTEX
  8
Group239
 10
318.050575
 20
-73.3748
 30
0.0
  0
SEQEND
  8
Group239
  0
POLYLINE
  8
Group239
 62
0
 70
0
 66
1
 10
0.0
 20
0.0
 30
0.0
  0
VERTEX
  8
Group239
 10
318.350575
 20
-73.6748
 30
0.0
  0
VERTEX
  8
Group239
 10
331.750125
 20
-73.6748
 30
0.0
  0
SEQEND
  8
Group239
  0
POLYLINE
  8
Group239
 62
0
 70
0
 66
1
 10
0.0
 20
0.0
 30
0.0
  0
VERTEX
  8
Group239
 10
332.050125
 20
-73.3748
 30
0.0
  0
VERTEX
  8
Group239
 10
332.050125
 20
-59.9748
 30
0.0
  0
SEQEND
  8
Group239
  0
POLYLINE
  8
Group239
 62
0
 70
0
 66
1
 10
0.0
 20
0.0
 30
0.0
  0
VERTEX
  8
Group239
 10
331.750125
 20
-59.6748
 30
0.0
  0
VERTEX
  8
Group239
 10
318.350575
 20
-59.6748
 30
0.0
  0
SEQEND
  8
Group239
  0
ARC
  8
Group238
 62
0
 10
299.300575
 20
-59.9748
 30
0.0
 40
0.3
 50
90.0
 51
-180.0
  0
ARC
  8
Group238
 62
0
 10
299.300575
 20
-73.3748
 30
0.0
 40
0.3
 50
-180.0
 51
-90.0
  0
ARC
  8
Group238
 62
0
 10
312.700125
 20
-73.3748
 30
0.0
 40
0.3
 50
-90.0
 51
-0.0
  0
ARC
  8
Group238
 62
0
 10
312.700125
 20
-59.9748
 30
0.0
 40
0.3
 50
-0.0
 51
90.0
  0
POLYLINE
  8
Group238
 62
0
 70
0
 66
1
 10
0.0
 20
0.0
 30
0.0
  0
VERTEX
  8
Group238
 10
299.000575
 20
-59.9748
 30
0.0
  0
VERTEX
  8
Group238
 10
299.000575
 20
-73.3748
 30
0.0
  0
SEQEND
  8
Group238
  0
POLYLINE
  8
Group238
 62
0
 70
0
 66
1
 10
0.0
 20
0.0
 30
0.0
  0
VERTEX
  8
Group238
 10
299.300575
 20
-73.6748
 30
0.0
  0
VERTEX
  8
Group238
 10
312.700125
 20
-73.6748
 30
0.0
  0
SEQEND
  8
Group238
  0
POLYLINE
  8
Group238
 62
0
 70
0
 66
1
 10
0.0
 20
0.0
 30
0.0
  0
VERTEX
  8
Group238
 10
313.000125
 20
-73.3748
 30
0.0
  0
VERTEX
  8
Group238
 10
313.000125
 20
-59.9748
 30
0.0
  0
SEQEND
  8
Group238
  0
POLYLINE
  8
Group238
 62
0
 70
0
 66
1
 10
0.0
 20
0.0
 30
0.0
  0
VERTEX
  8
Group238
 10
312.700125
 20
-59.6748
 30
0.0
  0
VERTEX
  8
Group238
 10
299.300575
 20
-59.6748
 30
0.0
  0
SEQEND
  8
Group238
  0
ARC
  8
Group237
 62
0
 10
337.400575
 20
-59.9748
 30
0.0
 40
0.3
 50
90.0
 51
-180.0
  0
ARC
  8
Group237
 62
0
 10
337.400575
 20
-73.3748
 30
0.0
 40
0.3
 50
-180.0
 51
-90.0
  0
ARC
  8
Group237
 62
0
 10
350.800125
 20
-73.3748
 30
0.0
 40
0.3
 50
-90.0
 51
-0.0
  0
ARC
  8
Group237
 62
0
 10
350.800125
 20
-59.9748
 30
0.0
 40
0.3
 50
-0.0
 51
90.0
  0
POLYLINE
  8
Group237
 62
0
 70
0
 66
1
 10
0.0
 20
0.0
 30
0.0
  0
VERTEX
  8
Group237
 10
337.100575
 20
-59.9748
 30
0.0
  0
VERTEX
  8
Group237
 10
337.100575
 20
-73.3748
 30
0.0
  0
SEQEND
  8
Group237
  0
POLYLINE
  8
Group237
 62
0
 70
0
 66
1
 10
0.0
 20
0.0
 30
0.0
  0
VERTEX
  8
Group237
 10
337.400575
 20
-73.6748
 30
0.0
  0
VERTEX
  8
Group237
 10
350.800125
 20
-73.6748
 30
0.0
  0
SEQEND
  8
Group237
  0
POLYLINE
  8
Group237
 62
0
 70
0
 66
1
 10
0.0
 20
0.0
 30
0.0
  0
VERTEX
  8
Group237
 10
351.100125
 20
-73.3748
 30
0.0
  0
VERTEX
  8
Group237
 10
351.100125
 20
-59.9748
 30
0.0
  0
SEQEND
  8
Group237
  0
POLYLINE
  8
Group237
 62
0
 70
0
 66
1
 10
0.0
 20
0.0
 30
0.0
  0
VERTEX
  8
Group237
 10
350.800125
 20
-59.6748
 30
0.0
  0
VERTEX
  8
Group237
 10
337.400575
 20
-59.6748
 30
0.0
  0
SEQEND
  8
Group237
  0
ARC
  8
Group242
 62
0
 10
337.400575
 20
-79.0248
 30
0.0
 40
0.3
 50
90.0
 51
-180.0
  0
ARC
  8
Group242
 62
0
 10
337.400575
 20
-92.4248
 30
0.0
 40
0.3
 50
-180.0
 51
-90.0
  0
ARC
  8
Group242
 62
0
 10
350.800125
 20
-92.4248
 30
0.0
 40
0.3
 50
-90.0
 51
-0.0
  0
ARC
  8
Group242
 62
0
 10
350.800125
 20
-79.0248
 30
0.0
 40
0.3
 50
-0.0
 51
90.0
  0
POLYLINE
  8
Group242
 62
0
 70
0
 66
1
 10
0.0
 20
0.0
 30
0.0
  0
VERTEX
  8
Group242
 10
337.100575
 20
-79.0248
 30
0.0
  0
VERTEX
  8
Group242
 10
337.100575
 20
-92.4248
 30
0.0
  0
SEQEND
  8
Group242
  0
POLYLINE
  8
Group242
 62
0
 70
0
 66
1
 10
0.0
 20
0.0
 30
0.0
  0
VERTEX
  8
Group242
 10
337.400575
 20
-92.7248
 30
0.0
  0
VERTEX
  8
Group242
 10
350.800125
 20
-92.7248
 30
0.0
  0
SEQEND
  8
Group242
  0
POLYLINE
  8
Group242
 62
0
 70
0
 66
1
 10
0.0
 20
0.0
 30
0.0
  0
VERTEX
  8
Group242
 10
351.100125
 20
-92.4248
 30
0.0
  0
VERTEX
  8
Group242
 10
351.100125
 20
-79.0248
 30
0.0
  0
SEQEND
  8
Group242
  0
POLYLINE
  8
Group242
 62
0
 70
0
 66
1
 10
0.0
 20
0.0
 30
0.0
  0
VERTEX
  8
Group242
 10
350.800125
 20
-78.7248
 30
0.0
  0
VERTEX
  8
Group242
 10
337.400575
 20
-78.7248
 30
0.0
  0
SEQEND
  8
Group242
  0
ARC
  8
Group241
 62
0
 10
299.300575
 20
-79.0248
 30
0.0
 40
0.3
 50
90.0
 51
-180.0
  0
ARC
  8
Group241
 62
0
 10
299.300575
 20
-92.4248
 30
0.0
 40
0.3
 50
-180.0
 51
-90.0
  0
ARC
  8
Group241
 62
0
 10
312.700125
 20
-92.4248
 30
0.0
 40
0.3
 50
-90.0
 51
-0.0
  0
ARC
  8
Group241
 62
0
 10
312.700125
 20
-79.0248
 30
0.0
 40
0.3
 50
-0.0
 51
90.0
  0
POLYLINE
  8
Group241
 62
0
 70
0
 66
1
 10
0.0
 20
0.0
 30
0.0
  0
VERTEX
  8
Group241
 10
299.000575
 20
-79.0248
 30
0.0
  0
VERTEX
  8
Group241
 10
299.000575
 20
-92.4248
 30
0.0
  0
SEQEND
  8
Group241
  0
POLYLINE
  8
Group241
 62
0
 70
0
 66
1
 10
0.0
 20
0.0
 30
0.0
  0
VERTEX
  8
Group241
 10
299.300575
 20
-92.7248
 30
0.0
  0
VERTEX
  8
Group241
 10
312.700125
 20
-92.7248
 30
0.0
  0
SEQEND
  8
Group241
  0
POLYLINE
  8
Group241
 62
0
 70
0
 66
1
 10
0.0
 20
0.0
 30
0.0
  0
VERTEX
  8
Group241
 10
313.000125
 20
-92.4248
 30
0.0
  0
VERTEX
  8
Group241
 10
313.000125
 20
-79.0248
 30
0.0
  0
SEQEND
  8
Group241
  0
POLYLINE
  8
Group241
 62
0
 70
0
 66
1
 10
0.0
 20
0.0
 30
0.0
  0
VERTEX
  8
Group241
 10
312.700125
 20
-78.7248
 30
0.0
  0
VERTEX
  8
Group241
 10
299.300575
 20
-78.7248
 30
0.0
  0
SEQEND
  8
Group241
  0
ARC
  8
Group240
 62
0
 10
318.350575
 20
-79.0248
 30
0.0
 40
0.3
 50
90.0
 51
-180.0
  0
ARC
  8
Group240
 62
0
 10
318.350575
 20
-92.4248
 30
0.0
 40
0.3
 50
-180.0
 51
-90.0
  0
ARC
  8
Group240
 62
0
 10
331.750125
 20
-92.4248
 30
0.0
 40
0.3
 50
-90.0
 51
-0.0
  0
ARC
  8
Group240
 62
0
 10
331.750125
 20
-79.0248
 30
0.0
 40
0.3
 50
-0.0
 51
90.0
  0
POLYLINE
  8
Group240
 62
0
 70
0
 66
1
 10
0.0
 20
0.0
 30
0.0
  0
VERTEX
  8
Group240
 10
318.050575
 20
-79.0248
 30
0.0
  0
VERTEX
  8
Group240
 10
318.050575
 20
-92.4248
 30
0.0
  0
SEQEND
  8
Group240
  0
POLYLINE
  8
Group240
 62
0
 70
0
 66
1
 10
0.0
 20
0.0
 30
0.0
  0
VERTEX
  8
Group240
 10
318.350575
 20
-92.7248
 30
0.0
  0
VERTEX
  8
Group240
 10
331.750125
 20
-92.7248
 30
0.0
  0
SEQEND
  8
Group240
  0
POLYLINE
  8
Group240
 62
0
 70
0
 66
1
 10
0.0
 20
0.0
 30
0.0
  0
VERTEX
  8
Group240
 10
332.050125
 20
-92.4248
 30
0.0
  0
VERTEX
  8
Group240
 10
332.050125
 20
-79.0248
 30
0.0
  0
SEQEND
  8
Group240
  0
POLYLINE
  8
Group240
 62
0
 70
0
 66
1
 10
0.0
 20
0.0
 30
0.0
  0
VERTEX
  8
Group240
 10
331.750125
 20
-78.7248
 30
0.0
  0
VERTEX
  8
Group240
 10
318.350575
 20
-78.7248
 30
0.0
  0
SEQEND
  8
Group240
  0
ARC
  8
Group245
 62
0
 10
318.350575
 20
-98.074
 30
0.0
 40
0.3
 50
90.0
 51
-180.0
  0
ARC
  8
Group245
 62
0
 10
318.350575
 20
-111.474
 30
0.0
 40
0.3
 50
-180.0
 51
-90.0
  0
ARC
  8
Group245
 62
0
 10
331.750125
 20
-111.474
 30
0.0
 40
0.3
 50
-90.0
 51
-0.0
  0
ARC
  8
Group245
 62
0
 10
331.750125
 20
-98.074
 30
0.0
 40
0.3
 50
-0.0
 51
90.0
  0
POLYLINE
  8
Group245
 62
0
 70
0
 66
1
 10
0.0
 20
0.0
 30
0.0
  0
VERTEX
  8
Group245
 10
318.050575
 20
-98.074
 30
0.0
  0
VERTEX
  8
Group245
 10
318.050575
 20
-111.474
 30
0.0
  0
SEQEND
  8
Group245
  0
POLYLINE
  8
Group245
 62
0
 70
0
 66
1
 10
0.0
 20
0.0
 30
0.0
  0
VERTEX
  8
Group245
 10
318.350575
 20
-111.774
 30
0.0
  0
VERTEX
  8
Group245
 10
331.750125
 20
-111.774
 30
0.0
  0
SEQEND
  8
Group245
  0
POLYLINE
  8
Group245
 62
0
 70
0
 66
1
 10
0.0
 20
0.0
 30
0.0
  0
VERTEX
  8
Group245
 10
332.050125
 20
-111.474
 30
0.0
  0
VERTEX
  8
Group245
 10
332.050125
 20
-98.074
 30
0.0
  0
SEQEND
  8
Group245
  0
POLYLINE
  8
Group245
 62
0
 70
0
 66
1
 10
0.0
 20
0.0
 30
0.0
  0
VERTEX
  8
Group245
 10
331.750125
 20
-97.774
 30
0.0
  0
VERTEX
  8
Group245
 10
318.350575
 20
-97.774
 30
0.0
  0
SEQEND
  8
Group245
  0
ARC
  8
Group243
 62
0
 10
337.400575
 20
-98.074
 30
0.0
 40
0.3
 50
90.0
 51
-180.0
  0
ARC
  8
Group243
 62
0
 10
337.400575
 20
-111.474
 30
0.0
 40
0.3
 50
-180.0
 51
-90.0
  0
ARC
  8
Group243
 62
0
 10
350.800125
 20
-111.474
 30
0.0
 40
0.3
 50
-90.0
 51
-0.0
  0
ARC
  8
Group243
 62
0
 10
350.800125
 20
-98.074
 30
0.0
 40
0.3
 50
-0.0
 51
90.0
  0
POLYLINE
  8
Group243
 62
0
 70
0
 66
1
 10
0.0
 20
0.0
 30
0.0
  0
VERTEX
  8
Group243
 10
337.100575
 20
-98.074
 30
0.0
  0
VERTEX
  8
Group243
 10
337.100575
 20
-111.474
 30
0.0
  0
SEQEND
  8
Group243
  0
POLYLINE
  8
Group243
 62
0
 70
0
 66
1
 10
0.0
 20
0.0
 30
0.0
  0
VERTEX
  8
Group243
 10
337.400575
 20
-111.774
 30
0.0
  0
VERTEX
  8
Group243
 10
350.800125
 20
-111.774
 30
0.0
  0
SEQEND
  8
Group243
  0
POLYLINE
  8
Group243
 62
0
 70
0
 66
1
 10
0.0
 20
0.0
 30
0.0
  0
VERTEX
  8
Group243
 10
351.100125
 20
-111.474
 30
0.0
  0
VERTEX
  8
Group243
 10
351.100125
 20
-98.074
 30
0.0
  0
SEQEND
  8
Group243
  0
POLYLINE
  8
Group243
 62
0
 70
0
 66
1
 10
0.0
 20
0.0
 30
0.0
  0
VERTEX
  8
Group243
 10
350.800125
 20
-97.774
 30
0.0
  0
VERTEX
  8
Group243
 10
337.400575
 20
-97.774
 30
0.0
  0
SEQEND
  8
Group243
  0
ARC
  8
Group244
 62
0
 10
299.300575
 20
-98.074
 30
0.0
 40
0.3
 50
90.0
 51
-180.0
  0
ARC
  8
Group244
 62
0
 10
299.300575
 20
-111.474
 30
0.0
 40
0.3
 50
-180.0
 51
-90.0
  0
ARC
  8
Group244
 62
0
 10
312.700125
 20
-111.474
 30
0.0
 40
0.3
 50
-90.0
 51
-0.0
  0
ARC
  8
Group244
 62
0
 10
312.700125
 20
-98.074
 30
0.0
 40
0.3
 50
-0.0
 51
90.0
  0
POLYLINE
  8
Group244
 62
0
 70
0
 66
1
 10
0.0
 20
0.0
 30
0.0
  0
VERTEX
  8
Group244
 10
299.000575
 20
-98.074
 30
0.0
  0
VERTEX
  8
Group244
 10
299.000575
 20
-111.474
 30
0.0
  0
SEQEND
  8
Group244
  0
POLYLINE
  8
Group244
 62
0
 70
0
 66
1
 10
0.0
 20
0.0
 30
0.0
  0
VERTEX
  8
Group244
 10
299.300575
 20
-111.774
 30
0.0
  0
VERTEX
  8
Group244
 10
312.700125
 20
-111.774
 30
0.0
  0
SEQEND
  8
Group244
  0
POLYLINE
  8
Group244
 62
0
 70
0
 66
1
 10
0.0
 20
0.0
 30
0.0
  0
VERTEX
  8
Group244
 10
313.000125
 20
-111.474
 30
0.0
  0
VERTEX
  8
Group244
 10
313.000125
 20
-98.074
 30
0.0
  0
SEQEND
  8
Group244
  0
POLYLINE
  8
Group244
 62
0
 70
0
 66
1
 10
0.0
 20
0.0
 30
0.0
  0
VERTEX
  8
Group244
 10
312.700125
 20
-97.774
 30
0.0
  0
VERTEX
  8
Group244
 10
299.300575
 20
-97.774
 30
0.0
  0
SEQEND
  8
Group244
  0
ARC
  8
Group246
 62
0
 10
318.350575
 20
-117.12406
 30
0.0
 40
0.3
 50
90.0
 51
-180.0
  0
ARC
  8
Group246
 62
0
 10
318.350575
 20
-130.52406
 30
0.0
 40
0.3
 50
-180.0
 51
-90.0
  0
ARC
  8
Group246
 62
0
 10
331.750125
 20
-130.52406
 30
0.0
 40
0.3
 50
-90.0
 51
-0.0
  0
ARC
  8
Group246
 62
0
 10
331.750125
 20
-117.12406
 30
0.0
 40
0.3
 50
-0.0
 51
90.0
  0
POLYLINE
  8
Group246
 62
0
 70
0
 66
1
 10
0.0
 20
0.0
 30
0.0
  0
VERTEX
  8
Group246
 10
318.050575
 20
-117.12406
 30
0.0
  0
VERTEX
  8
Group246
 10
318.050575
 20
-130.52406
 30
0.0
  0
SEQEND
  8
Group246
  0
POLYLINE
  8
Group246
 62
0
 70
0
 66
1
 10
0.0
 20
0.0
 30
0.0
  0
VERTEX
  8
Group246
 10
318.350575
 20
-130.82406
 30
0.0
  0
VERTEX
  8
Group246
 10
331.750125
 20
-130.82406
 30
0.0
  0
SEQEND
  8
Group246
  0
POLYLINE
  8
Group246
 62
0
 70
0
 66
1
 10
0.0
 20
0.0
 30
0.0
  0
VERTEX
  8
Group246
 10
332.050125
 20
-130.52406
 30
0.0
  0
VERTEX
  8
Group246
 10
332.050125
 20
-117.12406
 30
0.0
  0
SEQEND
  8
Group246
  0
POLYLINE
  8
Group246
 62
0
 70
0
 66
1
 10
0.0
 20
0.0
 30
0.0
  0
VERTEX
  8
Group246
 10
331.750125
 20
-116.82406
 30
0.0
  0
VERTEX
  8
Group246
 10
318.350575
 20
-116.82406
 30
0.0
  0
SEQEND
  8
Group246
  0
ARC
  8
Group247
 62
0
 10
337.400575
 20
-117.12406
 30
0.0
 40
0.3
 50
90.0
 51
-180.0
  0
ARC
  8
Group247
 62
0
 10
337.400575
 20
-130.52406
 30
0.0
 40
0.3
 50
-180.0
 51
-90.0
  0
ARC
  8
Group247
 62
0
 10
350.800125
 20
-130.52406
 30
0.0
 40
0.3
 50
-90.0
 51
-0.0
  0
ARC
  8
Group247
 62
0
 10
350.800125
 20
-117.12406
 30
0.0
 40
0.3
 50
-0.0
 51
90.0
  0
POLYLINE
  8
Group247
 62
0
 70
0
 66
1
 10
0.0
 20
0.0
 30
0.0
  0
VERTEX
  8
Group247
 10
337.100575
 20
-117.12406
 30
0.0
  0
VERTEX
  8
Group247
 10
337.100575
 20
-130.52406
 30
0.0
  0
SEQEND
  8
Group247
  0
POLYLINE
  8
Group247
 62
0
 70
0
 66
1
 10
0.0
 20
0.0
 30
0.0
  0
VERTEX
  8
Group247
 10
337.400575
 20
-130.82406
 30
0.0
  0
VERTEX
  8
Group247
 10
350.800125
 20
-130.82406
 30
0.0
  0
SEQEND
  8
Group247
  0
POLYLINE
  8
Group247
 62
0
 70
0
 66
1
 10
0.0
 20
0.0
 30
0.0
  0
VERTEX
  8
Group247
 10
351.100125
 20
-130.52406
 30
0.0
  0
VERTEX
  8
Group247
 10
351.100125
 20
-117.12406
 30
0.0
  0
SEQEND
  8
Group247
  0
POLYLINE
  8
Group247
 62
0
 70
0
 66
1
 10
0.0
 20
0.0
 30
0.0
  0
VERTEX
  8
Group247
 10
350.800125
 20
-116.82406
 30
0.0
  0
VERTEX
  8
Group247
 10
337.400575
 20
-116.82406
 30
0.0
  0
SEQEND
  8
Group247
  0
POLYLINE
  8
plus
 62
0
 70
0
 66
1
 10
0.0
 20
0.0
 30
0.0
  0
VERTEX
  8
plus
 10
369.150575
 20
-92.7232
 30
0.0
  0
VERTEX
  8
plus
 10
357.150575
 20
-92.7232
 30
0.0
  0
SEQEND
  8
plus
  0
POLYLINE
  8
plus
 62
0
 70
0
 66
1
 10
0.0
 20
0.0
 30
0.0
  0
VERTEX
  8
plus
 10
357.150575
 20
-59.67375
 30
0.0
  0
VERTEX
  8
plus
 10
369.150575
 20
-59.67375
 30
0.0
  0
SEQEND
  8
plus
  0
POLYLINE
  8
plus
 62
0
 70
0
 66
1
 10
0.0
 20
0.0
 30
0.0
  0
VERTEX
  8
plus
 10
370.648975
 20
-91.4742
 30
0.0
  0
VERTEX
  8
plus
 10
370.150575
 20
-91.4742
 30
0.0
  0
SEQEND
  8
plus
  0
POLYLINE
  8
plus
 62
0
 70
0
 66
1
 10
0.0
 20
0.0
 30
0.0
  0
VERTEX
  8
plus
 10
370.648975
 20
-84.7245
 30
0.0
  0
VERTEX
  8
plus
 10
370.148975
 20
-84.7245
 30
0.0
  0
SEQEND
  8
plus
  0
POLYLINE
  8
plus
 62
0
 70
0
 66
1
 10
0.0
 20
0.0
 30
0.0
  0
VERTEX
  8
plus
 10
370.648975
 20
-67.6732
 30
0.0
  0
VERTEX
  8
plus
 10
370.148975
 20
-67.6732
 30
0.0
  0
SEQEND
  8
plus
  0
POLYLINE
  8
plus
 62
0
 70
0
 66
1
 10
0.0
 20
0.0
 30
0.0
  0
VERTEX
  8
plus
 10
370.648975
 20
-60.9235
 30
0.0
  0
VERTEX
  8
plus
 10
370.150575
 20
-60.9235
 30
0.0
  0
SEQEND
  8
plus
  0
POLYLINE
  8
plus
 62
0
 70
0
 66
1
 10
0.0
 20
0.0
 30
0.0
  0
VERTEX
  8
plus
 10
370.148975
 20
-84.7245
 30
0.0
  0
VERTEX
  8
plus
 10
370.148975
 20
-67.6732
 30
0.0
  0
SEQEND
  8
plus
  0
POLYLINE
  8
plus
 62
0
 70
0
 66
1
 10
0.0
 20
0.0
 30
0.0
  0
VERTEX
  8
plus
 10
371.648975
 20
-66.6732
 30
0.0
  0
VERTEX
  8
plus
 10
371.648975
 20
-61.9235
 30
0.0
  0
SEQEND
  8
plus
  0
ARC
  8
plus
 62
0
 10
370.648975
 20
-61.9235
 30
0.0
 40
1.0
 50
-0.0
 51
90.0
  0
ARC
  8
plus
 62
0
 10
370.648975
 20
-66.6732
 30
0.0
 40
1.0
 50
-90.0
 51
-0.0
  0
POLYLINE
  8
plus
 62
0
 70
0
 66
1
 10
0.0
 20
0.0
 30
0.0
  0
VERTEX
  8
plus
 10
371.648975
 20
-90.4742
 30
0.0
  0
VERTEX
  8
plus
 10
371.648975
 20
-85.7245
 30
0.0
  0
SEQEND
  8
plus
  0
ARC
  8
plus
 62
0
 10
370.648975
 20
-90.4742
 30
0.0
 40
1.0
 50
-90.0
 51
-0.0
  0
ARC
  8
plus
 62
0
 10
370.648975
 20
-85.7245
 30
0.0
 40
1.0
 50
-0.0
 51
90.0
  0
ARC
  8
Group248
 62
0
 10
356.450575
 20
-92.42335
 30
0.0
 40
0.3
 50
-180.0
 51
-90.0
  0
ARC
  8
Group248
 62
0
 10
369.850575
 20
-92.42335
 30
0.0
 40
0.3
 50
-90.0
 51
-0.0
  0
ARC
  8
Group248
 62
0
 10
369.849875
 20
-59.97435
 30
0.0
 40
0.3
 50
-0.0
 51
90.0
  0
ARC
  8
Group248
 62
0
 10
356.449875
 20
-59.97435
 30
0.0
 40
0.3
 50
90.0
 51
-180.0
  0
POLYLINE
  8
Group248
 62
0
 70
0
 66
1
 10
0.0
 20
0.0
 30
0.0
  0
VERTEX
  8
Group248
 10
356.450575
 20
-92.72335
 30
0.0
  0
VERTEX
  8
Group248
 10
369.850575
 20
-92.72335
 30
0.0
  0
SEQEND
  8
Group248
  0
POLYLINE
  8
Group248
 62
0
 70
0
 66
1
 10
0.0
 20
0.0
 30
0.0
  0
VERTEX
  8
Group248
 10
369.849875
 20
-59.67435
 30
0.0
  0
VERTEX
  8
Group248
 10
356.449875
 20
-59.67435
 30
0.0
  0
SEQEND
  8
Group248
  0
POLYLINE
  8
plus
 62
0
 70
0
 66
1
 10
0.0
 20
0.0
 30
0.0
  0
VERTEX
  8
plus
 10
370.150575
 20
-92.42335
 30
0.0
  0
VERTEX
  8
plus
 10
370.150575
 20
-91.4742
 30
0.0
  0
SEQEND
  8
plus
  0
POLYLINE
  8
plus
 62
0
 70
0
 66
1
 10
0.0
 20
0.0
 30
0.0
  0
VERTEX
  8
plus
 10
370.149875
 20
-59.97435
 30
0.0
  0
VERTEX
  8
plus
 10
370.150575
 20
-60.9235
 30
0.0
  0
SEQEND
  8
plus
  0
POLYLINE
  8
plus
 62
0
 70
0
 66
1
 10
0.0
 20
0.0
 30
0.0
  0
VERTEX
  8
plus
 10
356.151475
 20
-67.6732
 30
0.0
  0
VERTEX
  8
plus
 10
356.151475
 20
-84.7245
 30
0.0
  0
SEQEND
  8
plus
  0
POLYLINE
  8
plus
 62
0
 70
0
 66
1
 10
0.0
 20
0.0
 30
0.0
  0
VERTEX
  8
plus
 10
354.651475
 20
-85.7245
 30
0.0
  0
VERTEX
  8
plus
 10
354.651475
 20
-90.4742
 30
0.0
  0
SEQEND
  8
plus
  0
POLYLINE
  8
plus
 62
0
 70
0
 66
1
 10
0.0
 20
0.0
 30
0.0
  0
VERTEX
  8
plus
 10
355.651475
 20
-84.7245
 30
0.0
  0
VERTEX
  8
plus
 10
356.151475
 20
-84.7245
 30
0.0
  0
SEQEND
  8
plus
  0
ARC
  8
plus
 62
0
 10
355.651475
 20
-90.4742
 30
0.0
 40
1.0
 50
-180.0
 51
-90.0
  0
POLYLINE
  8
plus
 62
0
 70
0
 66
1
 10
0.0
 20
0.0
 30
0.0
  0
VERTEX
  8
plus
 10
355.651475
 20
-67.6732
 30
0.0
  0
VERTEX
  8
plus
 10
356.151475
 20
-67.6732
 30
0.0
  0
SEQEND
  8
plus
  0
ARC
  8
plus
 62
0
 10
355.651475
 20
-66.6732
 30
0.0
 40
1.0
 50
-180.0
 51
-90.0
  0
POLYLINE
  8
plus
 62
0
 70
0
 66
1
 10
0.0
 20
0.0
 30
0.0
  0
VERTEX
  8
plus
 10
354.651475
 20
-61.9235
 30
0.0
  0
VERTEX
  8
plus
 10
354.651475
 20
-66.6732
 30
0.0
  0
SEQEND
  8
plus
  0
ARC
  8
plus
 62
0
 10
355.651475
 20
-61.9235
 30
0.0
 40
1.0
 50
90.0
 51
-180.0
  0
POLYLINE
  8
plus
 62
0
 70
0
 66
1
 10
0.0
 20
0.0
 30
0.0
  0
VERTEX
  8
plus
 10
355.651475
 20
-60.9235
 30
0.0
  0
VERTEX
  8
plus
 10
356.149875
 20
-60.9235
 30
0.0
  0
SEQEND
  8
plus
  0
POLYLINE
  8
plus
 62
0
 70
0
 66
1
 10
0.0
 20
0.0
 30
0.0
  0
VERTEX
  8
plus
 10
355.651475
 20
-91.4742
 30
0.0
  0
VERTEX
  8
plus
 10
356.149875
 20
-91.4742
 30
0.0
  0
SEQEND
  8
plus
  0
ARC
  8
plus
 62
0
 10
355.651475
 20
-85.7245
 30
0.0
 40
1.0
 50
90.0
 51
-180.0
  0
POLYLINE
  8
plus
 62
0
 70
0
 66
1
 10
0.0
 20
0.0
 30
0.0
  0
VERTEX
  8
plus
 10
356.149875
 20
-91.4742
 30
0.0
  0
VERTEX
  8
plus
 10
356.150575
 20
-92.42335
 30
0.0
  0
SEQEND
  8
plus
  0
POLYLINE
  8
plus
 62
0
 70
0
 66
1
 10
0.0
 20
0.0
 30
0.0
  0
VERTEX
  8
plus
 10
356.149875
 20
-59.97435
 30
0.0
  0
VERTEX
  8
plus
 10
356.149875
 20
-60.9235
 30
0.0
  0
SEQEND
  8
plus
  0
ARC
  8
Group256
 62
0
 10
355.650475
 20
-123.823325
 30
0.0
 40
1.0
 50
90.0
 51
-180.0
  0
ARC
  8
Group256
 62
0
 10
355.650475
 20
-128.573025
 30
0.0
 40
1.0
 50
-180.0
 51
-90.0
  0
POLYLINE
  8
Group256
 62
0
 70
0
 66
1
 10
0.0
 20
0.0
 30
0.0
  0
VERTEX
  8
Group256
 10
354.650475
 20
-123.823325
 30
0.0
  0
VERTEX
  8
Group256
 10
354.650475
 20
-128.573025
 30
0.0
  0
SEQEND
  8
Group256
  0
ARC
  8
Group255
 62
0
 10
355.650475
 20
-100.022325
 30
0.0
 40
1.0
 50
90.0
 51
-180.0
  0
ARC
  8
Group255
 62
0
 10
355.650475
 20
-104.772025
 30
0.0
 40
1.0
 50
-180.0
 51
-90.0
  0
POLYLINE
  8
Group255
 62
0
 70
0
 66
1
 10
0.0
 20
0.0
 30
0.0
  0
VERTEX
  8
Group255
 10
354.650475
 20
-100.022325
 30
0.0
  0
VERTEX
  8
Group255
 10
354.650475
 20
-104.772025
 30
0.0
  0
SEQEND
  8
Group255
  0
ARC
  8
Group254
 62
0
 10
369.849575
 20
-107.599275
 30
0.0
 40
0.3
 50
-0.0
 51
90.0
  0
ARC
  8
Group254
 62
0
 10
356.449575
 20
-107.599275
 30
0.0
 40
0.3
 50
90.0
 51
-180.0
  0
ARC
  8
Group254
 62
0
 10
356.449575
 20
-120.998825
 30
0.0
 40
0.3
 50
-180.0
 51
-90.0
  0
ARC
  8
Group254
 62
0
 10
369.849575
 20
-120.998825
 30
0.0
 40
0.3
 50
-90.0
 51
-0.0
  0
POLYLINE
  8
Group254
 62
0
 70
0
 66
1
 10
0.0
 20
0.0
 30
0.0
  0
VERTEX
  8
Group254
 10
369.849575
 20
-107.299275
 30
0.0
  0
VERTEX
  8
Group254
 10
356.449575
 20
-107.299275
 30
0.0
  0
SEQEND
  8
Group254
  0
POLYLINE
  8
Group254
 62
0
 70
0
 66
1
 10
0.0
 20
0.0
 30
0.0
  0
VERTEX
  8
Group254
 10
356.149575
 20
-107.599275
 30
0.0
  0
VERTEX
  8
Group254
 10
356.149575
 20
-120.998825
 30
0.0
  0
SEQEND
  8
Group254
  0
POLYLINE
  8
Group254
 62
0
 70
0
 66
1
 10
0.0
 20
0.0
 30
0.0
  0
VERTEX
  8
Group254
 10
356.449575
 20
-121.298825
 30
0.0
  0
VERTEX
  8
Group254
 10
369.849575
 20
-121.298825
 30
0.0
  0
SEQEND
  8
Group254
  0
POLYLINE
  8
Group254
 62
0
 70
0
 66
1
 10
0.0
 20
0.0
 30
0.0
  0
VERTEX
  8
Group254
 10
370.149575
 20
-120.998825
 30
0.0
  0
VERTEX
  8
Group254
 10
370.149575
 20
-107.599275
 30
0.0
  0
SEQEND
  8
Group254
  0
ARC
  8
Enter003
 62
0
 10
370.648675
 20
-123.826075
 30
0.0
 40
1.0
 50
-0.0
 51
90.0
  0
ARC
  8
Enter003
 62
0
 10
370.648675
 20
-128.575775
 30
0.0
 40
1.0
 50
-90.0
 51
-0.0
  0
ARC
  8
Enter003
 62
0
 10
370.648675
 20
-100.025075
 30
0.0
 40
1.0
 50
-0.0
 51
90.0
  0
ARC
  8
Enter003
 62
0
 10
370.648675
 20
-104.774775
 30
0.0
 40
1.0
 50
-90.0
 51
-0.0
  0
POLYLINE
  8
Enter003
 62
0
 70
0
 66
1
 10
0.0
 20
0.0
 30
0.0
  0
VERTEX
  8
Enter003
 10
371.648675
 20
-128.575775
 30
0.0
  0
VERTEX
  8
Enter003
 10
371.648675
 20
-123.826075
 30
0.0
  0
SEQEND
  8
Enter003
  0
POLYLINE
  8
Enter003
 62
0
 70
0
 66
1
 10
0.0
 20
0.0
 30
0.0
  0
VERTEX
  8
Enter003
 10
371.648675
 20
-104.774775
 30
0.0
  0
VERTEX
  8
Enter003
 10
371.648675
 20
-100.025075
 30
0.0
  0
SEQEND
  8
Enter003
  0
POLYLINE
  8
Enter003
 62
0
 70
0
 66
1
 10
0.0
 20
0.0
 30
0.0
  0
VERTEX
  8
Enter003
 10
370.648675
 20
-99.025075
 30
0.0
  0
VERTEX
  8
Enter003
 10
355.650475
 20
-99.022325
 30
0.0
  0
SEQEND
  8
Enter003
  0
POLYLINE
  8
Enter003
 62
0
 70
0
 66
1
 10
0.0
 20
0.0
 30
0.0
  0
VERTEX
  8
Enter003
 10
355.650475
 20
-105.772025
 30
0.0
  0
VERTEX
  8
Enter003
 10
370.648675
 20
-105.774775
 30
0.0
  0
SEQEND
  8
Enter003
  0
POLYLINE
  8
Enter003
 62
0
 70
0
 66
1
 10
0.0
 20
0.0
 30
0.0
  0
VERTEX
  8
Enter003
 10
355.650475
 20
-122.823325
 30
0.0
  0
VERTEX
  8
Enter003
 10
370.648675
 20
-122.826075
 30
0.0
  0
SEQEND
  8
Enter003
  0
POLYLINE
  8
Enter003
 62
0
 70
0
 66
1
 10
0.0
 20
0.0
 30
0.0
  0
VERTEX
  8
Enter003
 10
355.650475
 20
-129.573025
 30
0.0
  0
VERTEX
  8
Enter003
 10
370.648675
 20
-129.575775
 30
0.0
  0
SEQEND
  8
Enter003
  0
POLYLINE
  8
Plate-border
 62
0
 70
0
 66
1
 10
0.0
 20
0.0
 30
0.0
  0
VERTEX
  8
Plate-border
 10
254.337575
 20
-139.38702
 30
0.0
  0
VERTEX
  8
Plate-border
 10
308.837575
 20
-139.38702
 30
0.0
  0
SEQEND
  8
Plate-border
  0
POLYLINE
  8
Plate-border
 62
0
 70
0
 66
1
 10
0.0
 20
0.0
 30
0.0
  0
VERTEX
  8
Plate-border
 10
308.837575
 20
-118.9875
 30
0.0
  0
VERTEX
  8
Plate-border
 10
293.787575
 20
-118.9875
 30
0.0
  0
SEQEND
  8
Plate-border
  0
POLYLINE
  8
Plate-border
 62
0
 70
0
 66
1
 10
0.0
 20
0.0
 30
0.0
  0
VERTEX
  8
Plate-border
 10
269.387575
 20
-118.9875
 30
0.0
  0
VERTEX
  8
Plate-border
 10
254.337575
 20
-118.9875
 30
0.0
  0
SEQEND
  8
Plate-border
  0
POLYLINE
  8
Plate-border
 62
0
 70
0
 66
1
 10
0.0
 20
0.0
 30
0.0
  0
VERTEX
  8
Plate-border
 10
297.787575
 20
-114.9875
 30
0.0
  0
VERTEX
  8
Plate-border
 10
312.837575
 20
-114.9875
 30
0.0
  0
SEQEND
  8
Plate-border
  0
POLYLINE
  8
Plate-border
 62
0
 70
0
 66
1
 10
0.0
 20
0.0
 30
0.0
  0
VERTEX
  8
Plate-border
 10
316.837575
 20
-134.02452
 30
0.0
  0
VERTEX
  8
Plate-border
 10
371.3402
 20
-134.02452
 30
0.0
  0
SEQEND
  8
Plate-border
  0
POLYLINE
  8
Plate-border
 62
0
 70
0
 66
1
 10
0.0
 20
0.0
 30
0.0
  0
VERTEX
  8
Plate-border
 10
373.3402
 20
-132.02452
 30
0.0
  0
VERTEX
  8
Plate-border
 10
373.3402
 20
-1.325
 30
0.0
  0
SEQEND
  8
Plate-border
  0
POLYLINE
  8
Plate-border
 62
0
 70
0
 66
1
 10
0.0
 20
0.0
 30
0.0
  0
VERTEX
  8
Plate-border
 10
265.387575
 20
-114.9875
 30
0.0
  0
VERTEX
  8
Plate-border
 10
250.337575
 20
-114.9875
 30
0.0
  0
SEQEND
  8
Plate-border
  0
POLYLINE
  8
Plate-border
 62
0
 70
0
 66
1
 10
0.0
 20
0.0
 30
0.0
  0
VERTEX
  8
Plate-border
 10
246.337575
 20
-134.02314
 30
0.0
  0
VERTEX
  8
Plate-border
 10
1.325225
 20
-134.02314
 30
0.0
  0
SEQEND
  8
Plate-border
  0
ARC
  8
Plate-border
 62
0
 10
46.325225
 20
-33.575
 30
0.0
 40
4.00000000001
 50
-112.619864949
 51
-68.962488975
  0
ARC
  8
Plate-border
 62
0
 10
34.325225
 20
-28.575
 30
0.0
 40
3.99999999973
 50
-150.0
 51
-112.619864949
  0
ARC
  8
Plate-border
 62
0
 10
59.325225
 20
-28.575
 30
0.0
 40
4.00000000016
 50
-68.962488976
 51
-30.0
  0
ARC
  8
Plate-border
 62
0
 10
59.325225
 20
-28.575
 30
0.0
 40
4.0
 50
30.0
 51
90.0
  0
ARC
  8
Plate-border
 62
0
 10
34.325225
 20
-28.575
 30
0.0
 40
4.0
 50
90.0
 51
150.0
  0
ARC
  8
Plate-border
 62
0
 10
186.287575
 20
-28.575
 30
0.0
 40
4.0
 50
30.0
 51
150.0
  0
ARC
  8
Plate-border
 62
0
 10
186.287575
 20
-28.575
 30
0.0
 40
4.0
 50
-150.0
 51
-30.0
  0
ARC
  8
Plate-border
 62
0
 10
250.287575
 20
-28.575
 30
0.0
 40
3.99999999971
 50
-150.0
 51
-119.054604102
  0
ARC
  8
Plate-border
 62
0
 10
250.287575
 20
-28.575
 30
0.0
 40
3.99999999971
 50
60.945395894
 51
150.0
  0
ARC
  8
Plate-border
 62
0
 10
264.287575
 20
-33.575
 30
0.0
 40
1.0
 50
90.0
 51
-180.0
  0
ARC
  8
Plate-border
 62
0
 10
259.287575
 20
-33.575
 30
0.0
 40
4.00000000015
 50
-119.054604103
 51
-0.0
  0
POLYLINE
  8
Plate-border
 62
0
 70
0
 66
1
 10
0.0
 20
0.0
 30
0.0
  0
VERTEX
  8
Plate-border
 10
32.7867634615
 20
-32.267307692
 30
0.0
  0
VERTEX
  8
Plate-border
 10
44.7867634615
 20
-37.2673076923
 30
0.0
  0
SEQEND
  8
Plate-border
  0
POLYLINE
  8
Plate-border
 62
0
 70
0
 66
1
 10
0.0
 20
0.0
 30
0.0
  0
VERTEX
  8
Plate-border
 10
47.7611413172
 20
-37.3083824248
 30
0.0
  0
VERTEX
  8
Plate-border
 10
60.7611413172
 20
-32.308382425
 30
0.0
  0
SEQEND
  8
Plate-border
  0
POLYLINE
  8
Plate-border
 62
0
 70
0
 66
1
 10
0.0
 20
0.0
 30
0.0
  0
VERTEX
  8
Plate-border
 10
34.325225
 20
-24.575
 30
0.0
  0
VERTEX
  8
Plate-border
 10
59.325225
 20
-24.575
 30
0.0
  0
SEQEND
  8
Plate-border
  0
POLYLINE
  8
Plate-border
 62
0
 70
0
 66
1
 10
0.0
 20
0.0
 30
0.0
  0
VERTEX
  8
Plate-border
 10
248.345003275
 20
-32.071629104
 30
0.0
  0
VERTEX
  8
Plate-border
 10
257.345003275
 20
-37.0716291045
 30
0.0
  0
SEQEND
  8
Plate-border
  0
POLYLINE
  8
Plate-border
 62
0
 70
0
 66
1
 10
0.0
 20
0.0
 30
0.0
  0
VERTEX
  8
Plate-border
 10
264.287575
 20
-32.575
 30
0.0
  0
VERTEX
  8
Plate-border
 10
289.787575
 20
-32.575
 30
0.0
  0
SEQEND
  8
Plate-border
  0
POLYLINE
  8
Plate-border
 62
0
 70
0
 66
1
 10
0.0
 20
0.0
 30
0.0
  0
VERTEX
  8
Plate-border
 10
252.230146725
 20
-25.078370896
 30
0.0
  0
VERTEX
  8
Plate-border
 10
254.924079112
 20
-26.575
 30
0.0
  0
SEQEND
  8
Plate-border
  0
POLYLINE
  8
Plate-border
 62
0
 70
0
 66
1
 10
0.0
 20
0.0
 30
0.0
  0
VERTEX
  8
Plate-border
 10
314.837575
 20
-132.02452
 30
0.0
  0
VERTEX
  8
Plate-border
 10
314.837575
 20
-130.50532
 30
0.0
  0
SEQEND
  8
Plate-border
  0
POLYLINE
  8
Plate-border
 62
0
 70
0
 66
1
 10
0.0
 20
0.0
 30
0.0
  0
VERTEX
  8
Plate-border
 10
314.837575
 20
-122.50532
 30
0.0
  0
VERTEX
  8
Plate-border
 10
314.837575
 20
-116.9875
 30
0.0
  0
SEQEND
  8
Plate-border
  0
POLYLINE
  8
Plate-border
 62
0
 70
0
 66
1
 10
0.0
 20
0.0
 30
0.0
  0
VERTEX
  8
Plate-border
 10
248.337575
 20
-116.9875
 30
0.0
  0
VERTEX
  8
Plate-border
 10
248.337575
 20
-122.50532
 30
0.0
  0
SEQEND
  8
Plate-border
  0
POLYLINE
  8
Plate-border
 62
0
 70
0
 66
1
 10
0.0
 20
0.0
 30
0.0
  0
VERTEX
  8
Plate-border
 10
248.337575
 20
-130.50532
 30
0.0
  0
VERTEX
  8
Plate-border
 10
248.337575
 20
-132.02314
 30
0.0
  0
SEQEND
  8
Plate-border
  0
POLYLINE
  8
Plate-border
 62
0
 70
0
 66
1
 10
0.0
 20
0.0
 30
0.0
  0
VERTEX
  8
Plate-border
 10
252.337575
 20
-137.38702
 30
0.0
  0
VERTEX
  8
Plate-border
 10
252.337575
 20
-130.50532
 30
0.0
  0
SEQEND
  8
Plate-border
  0
POLYLINE
  8
Plate-border
 62
0
 70
0
 66
1
 10
0.0
 20
0.0
 30
0.0
  0
VERTEX
  8
Plate-border
 10
310.837575
 20
-137.38702
 30
0.0
  0
VERTEX
  8
Plate-border
 10
310.837575
 20
-130.50532
 30
0.0
  0
SEQEND
  8
Plate-border
  0
POLYLINE
  8
Plate-border
 62
0
 70
0
 66
1
 10
0.0
 20
0.0
 30
0.0
  0
VERTEX
  8
Plate-border
 10
310.837575
 20
-122.50532
 30
0.0
  0
VERTEX
  8
Plate-border
 10
310.837575
 20
-120.9875
 30
0.0
  0
SEQEND
  8
Plate-border
  0
ARC
  8
Plate-border
 62
0
 10
254.337575
 20
-137.38702
 30
0.0
 40
2.0
 50
-180.0
 51
-90.0
  0
ARC
  8
Plate-border
 62
0
 10
316.837575
 20
-132.02452
 30
0.0
 40
2.0
 50
-180.0
 51
-90.0
  0
ARC
  8
Plate-border
 62
0
 10
297.787575
 20
-112.9875
 30
0.0
 40
2.0
 50
-180.0
 51
-90.0
  0
ARC
  8
Plate-border
 62
0
 10
1.325225
 20
-132.02314
 30
0.0
 40
2.0
 50
-180.0
 51
-90.0
  0
ARC
  8
Plate-border
 62
0
 10
308.837575
 20
-137.38702
 30
0.0
 40
2.0
 50
-90.0
 51
-0.0
  0
ARC
  8
Plate-border
 62
0
 10
371.3402
 20
-132.02452
 30
0.0
 40
2.0
 50
-90.0
 51
-0.0
  0
ARC
  8
Plate-border
 62
0
 10
289.787575
 20
-93.9375
 30
0.0
 40
2.0
 50
-90.0
 51
-0.0
  0
ARC
  8
Plate-border
 62
0
 10
265.387575
 20
-112.9875
 30
0.0
 40
2.0
 50
-90.0
 51
-0.0
  0
ARC
  8
Plate-border
 62
0
 10
246.337575
 20
-132.02314
 30
0.0
 40
2.0
 50
-90.0
 51
-0.0
  0
ARC
  8
Plate-border
 62
0
 10
262.3985125
 20
-24.575
 30
0.0
 40
2.0
 50
-90.0
 51
-0.0
  0
ARC
  8
Plate-border
 62
0
 10
293.787575
 20
-116.9875
 30
0.0
 40
2.0
 50
-180.0
 51
-90.0
  0
ARC
  8
Plate-border
 62
0
 10
1.325225
 20
-1.325
 30
0.0
 40
2.0
 50
90.0
 51
-180.0
  0
ARC
  8
Plate-border
 62
0
 10
269.387575
 20
-116.9875
 30
0.0
 40
2.0
 50
-90.0
 51
-0.0
  0
ARC
  8
Plate-border
 62
0
 10
273.387575
 20
-101.9375
 30
0.0
 40
2.0
 50
90.0
 51
-180.0
  0
ARC
  8
Plate-border
 62
0
 10
254.337575
 20
-120.9875
 30
0.0
 40
2.0
 50
90.0
 51
-180.0
  0
ARC
  8
Plate-border
 62
0
 10
250.337575
 20
-116.9875
 30
0.0
 40
2.0
 50
90.0
 51
-180.0
  0
ARC
  8
Plate-border
 62
0
 10
269.387575
 20
-97.9375
 30
0.0
 40
2.0
 50
90.0
 51
-180.0
  0
ARC
  8
Plate-border
 62
0
 10
289.787575
 20
-101.9375
 30
0.0
 40
2.0
 50
-0.0
 51
90.0
  0
ARC
  8
Plate-border
 62
0
 10
312.837575
 20
-116.9875
 30
0.0
 40
2.0
 50
-0.0
 51
90.0
  0
ARC
  8
Plate-border
 62
0
 10
308.837575
 20
-120.9875
 30
0.0
 40
2.0
 50
-0.0
 51
90.0
  0
ARC
  8
Plate-border
 62
0
 10
371.3402
 20
-1.325
 30
0.0
 40
2.0
 50
-0.0
 51
90.0
  0
ARC
  8
Plate-border
 62
0
 10
289.787575
 20
-34.575
 30
0.0
 40
2.0
 50
-0.0
 51
90.0
  0
ARC
  8
Plate-border
 62
0
 10
266.3985125
 20
-11.525
 30
0.0
 40
2.0
 50
90.0
 51
-180.0
  0
POLYLINE
  8
Plate-border
 62
0
 70
0
 66
1
 10
0.0
 20
0.0
 30
0.0
  0
VERTEX
  8
Plate-border
 10
371.3402
 20
0.675
 30
0.0
  0
VERTEX
  8
Plate-border
 10
1.325225
 20
0.675
 30
0.0
  0
SEQEND
  8
Plate-border
  0
ARC
  8
Plate-border
 62
0
 10
293.787575
 20
-5.325
 30
0.0
 40
2.0
 50
-0.0
 51
-180.0
  0
ARC
  8
Plate-border
 62
0
 10
289.787575
 20
-7.525
 30
0.0
 40
2.0
 50
-90.0
 51
-0.0
  0
POLYLINE
  8
Plate-border
 62
0
 70
0
 66
1
 10
0.0
 20
0.0
 30
0.0
  0
VERTEX
  8
Plate-border
 10
266.3985125
 20
-9.525
 30
0.0
  0
VERTEX
  8
Plate-border
 10
289.787575
 20
-9.525
 30
0.0
  0
SEQEND
  8
Plate-border
  0
POLYLINE
  8
Plate-border
 62
0
 70
0
 66
1
 10
0.0
 20
0.0
 30
0.0
  0
VERTEX
  8
Plate-border
 10
291.787575
 20
-7.525
 30
0.0
  0
VERTEX
  8
Plate-border
 10
291.787575
 20
-5.325
 30
0.0
  0
SEQEND
  8
Plate-border
  0
POLYLINE
  8
Plate-border
 62
0
 70
0
 66
1
 10
0.0
 20
0.0
 30
0.0
  0
VERTEX
  8
Plate-border
 10
254.924079112
 20
-26.575
 30
0.0
  0
VERTEX
  8
Plate-border
 10
262.3985125
 20
-26.575
 30
0.0
  0
SEQEND
  8
Plate-border
  0
POLYLINE
  8
Plate-border
 62
0
 70
0
 66
1
 10
0.0
 20
0.0
 30
0.0
  0
VERTEX
  8
Plate-border
 10
264.3985125
 20
-11.525
 30
0.0
  0
VERTEX
  8
Plate-border
 10
264.3985125
 20
-24.575
 30
0.0
  0
SEQEND
  8
Plate-border
  0
ARC
  8
Plate-border
 62
0
 10
312.837575
 20
-122.50532
 30
0.0
 40
2.0
 50
-180.0
 51
-0.0
  0
ARC
  8
Plate-border
 62
0
 10
312.837575
 20
-130.50532
 30
0.0
 40
2.0
 50
-0.0
 51
-180.0
  0
ARC
  8
Plate-border
 62
0
 10
250.337575
 20
-122.50532
 30
0.0
 40
2.0
 50
-180.0
 51
-0.0
  0
ARC
  8
Plate-border
 62
0
 10
250.337575
 20
-130.50532
 30
0.0
 40
2.0
 50
-0.0
 51
-180.0
  0
ARC
  8
Plate-border
 62
0
 10
277.587575
 20
-97.9375
 30
0.0
 40
2.0
 50
-90.0
 51
90.0
  0
ARC
  8
Plate-border
 62
0
 10
285.587575
 20
-97.9375
 30
0.0
 40
2.0
 50
90.0
 51
-90.0
  0
ARC
  8
Plate-border
 62
0
 10
293.787575
 20
-58.75625
 30
0.0
 40
2.0
 50
-180.0
 51
-0.0
  0
ARC
  8
Plate-border
 62
0
 10
293.787575
 20
-66.75625
 30
0.0
 40
2.0
 50
-0.0
 51
-180.0
  0
POLYLINE
  8
Plate-border
 62
0
 70
0
 66
1
 10
0.0
 20
0.0
 30
0.0
  0
VERTEX
  8
Plate-border
 10
252.337575
 20
-120.9875
 30
0.0
  0
VERTEX
  8
Plate-border
 10
252.337575
 20
-122.50532
 30
0.0
  0
SEQEND
  8
Plate-border
  0
ARC
  8
Plate-border
 62
0
 10
7.325225
 20
-28.575
 30
0.0
 40
2.0
 50
90.0000000014
 51
-89.9999999986
  0
ARC
  8
Plate-border
 62
0
 10
72.8560949616
 20
-28.575
 30
0.0
 40
2.0
 50
-90.0
 51
90.0
  0
ARC
  8
Plate-border
 62
0
 10
82.8560949616
 20
-28.575
 30
0.0
 40
2.0
 50
90.0
 51
-90.0
  0
ARC
  8
Plate-border
 62
0
 10
172.756705039
 20
-28.575
 30
0.0
 40
2.0
 50
90.0
 51
-90.0
  0
ARC
  8
Plate-border
 62
0
 10
162.756705039
 20
-28.575
 30
0.0
 40
2.0
 50
-90.0
 51
90.0
  0
POLYLINE
  8
Plate-border
 62
0
 70
0
 66
1
 10
0.0
 20
0.0
 30
0.0
  0
VERTEX
  8
Plate-border
 10
-0.674775
 20
-1.325
 30
0.0
  0
VERTEX
  8
Plate-border
 10
-0.674775
 20
-132.02314
 30
0.0
  0
SEQEND
  8
Plate-border
  0
POLYLINE
  8
Plate-border
 62
0
 70
0
 66
1
 10
0.0
 20
0.0
 30
0.0
  0
VERTEX
  8
Plate-border
 10
7.325225
 20
-26.575
 30
0.0
  0
VERTEX
  8
Plate-border
 10
30.8611233849
 20
-26.575
 30
0.0
  0
SEQEND
  8
Plate-border
  0
POLYLINE
  8
Plate-border
 62
0
 70
0
 66
1
 10
0.0
 20
0.0
 30
0.0
  0
VERTEX
  8
Plate-border
 10
7.325225
 20
-30.575
 30
0.0
  0
VERTEX
  8
Plate-border
 10
30.8611233851
 20
-30.575
 30
0.0
  0
SEQEND
  8
Plate-border
  0
POLYLINE
  8
Plate-border
 62
0
 70
0
 66
1
 10
0.0
 20
0.0
 30
0.0
  0
VERTEX
  8
Plate-border
 10
62.7893266151
 20
-26.575
 30
0.0
  0
VERTEX
  8
Plate-border
 10
72.856094962
 20
-26.575
 30
0.0
  0
SEQEND
  8
Plate-border
  0
POLYLINE
  8
Plate-border
 62
0
 70
0
 66
1
 10
0.0
 20
0.0
 30
0.0
  0
VERTEX
  8
Plate-border
 10
172.756705039
 20
-26.575
 30
0.0
  0
VERTEX
  8
Plate-border
 10
182.823473385
 20
-26.575
 30
0.0
  0
SEQEND
  8
Plate-border
  0
POLYLINE
  8
Plate-border
 62
0
 70
0
 66
1
 10
0.0
 20
0.0
 30
0.0
  0
VERTEX
  8
Plate-border
 10
182.823473385
 20
-30.575
 30
0.0
  0
VERTEX
  8
Plate-border
 10
172.756705039
 20
-30.575
 30
0.0
  0
SEQEND
  8
Plate-border
  0
POLYLINE
  8
Plate-border
 62
0
 70
0
 66
1
 10
0.0
 20
0.0
 30
0.0
  0
VERTEX
  8
Plate-border
 10
72.856094962
 20
-30.575
 30
0.0
  0
VERTEX
  8
Plate-border
 10
62.7893266153
 20
-30.575
 30
0.0
  0
SEQEND
  8
Plate-border
  0
ARC
  8
Plate-border
 62
0
 10
232.823473385
 20
-28.575
 30
0.0
 40
2.0
 50
-90.0
 51
90.0
  0
ARC
  8
Plate-border
 62
0
 10
240.823473385
 20
-28.575
 30
0.0
 40
2.0
 50
90.0
 51
-90.0
  0
POLYLINE
  8
Plate-border
 62
0
 70
0
 66
1
 10
0.0
 20
0.0
 30
0.0
  0
VERTEX
  8
Plate-border
 10
240.823473385
 20
-26.575
 30
0.0
  0
VERTEX
  8
Plate-border
 10
246.823473385
 20
-26.575
 30
0.0
  0
SEQEND
  8
Plate-border
  0
POLYLINE
  8
Plate-border
 62
0
 70
0
 66
1
 10
0.0
 20
0.0
 30
0.0
  0
VERTEX
  8
Plate-border
 10
246.823473385
 20
-30.575
 30
0.0
  0
VERTEX
  8
Plate-border
 10
240.823473385
 20
-30.575
 30
0.0
  0
SEQEND
  8
Plate-border
  0
POLYLINE
  8
Plate-border
 62
0
 70
0
 66
1
 10
0.0
 20
0.0
 30
0.0
  0
VERTEX
  8
Plate-border
 10
267.387575
 20
-97.9375
 30
0.0
  0
VERTEX
  8
Plate-border
 10
267.387575
 20
-112.9875
 30
0.0
  0
SEQEND
  8
Plate-border
  0
POLYLINE
  8
Plate-border
 62
0
 70
0
 66
1
 10
0.0
 20
0.0
 30
0.0
  0
VERTEX
  8
Plate-border
 10
271.387575
 20
-116.9875
 30
0.0
  0
VERTEX
  8
Plate-border
 10
271.387575
 20
-101.9375
 30
0.0
  0
SEQEND
  8
Plate-border
  0
POLYLINE
  8
Plate-border
 62
0
 70
0
 66
1
 10
0.0
 20
0.0
 30
0.0
  0
VERTEX
  8
Plate-border
 10
291.787575
 20
-116.9875
 30
0.0
  0
VERTEX
  8
Plate-border
 10
291.787575
 20
-101.9375
 30
0.0
  0
SEQEND
  8
Plate-border
  0
POLYLINE
  8
Plate-border
 62
0
 70
0
 66
1
 10
0.0
 20
0.0
 30
0.0
  0
VERTEX
  8
Plate-border
 10
269.387575
 20
-95.9375
 30
0.0
  0
VERTEX
  8
Plate-border
 10
277.587575
 20
-95.9375
 30
0.0
  0
SEQEND
  8
Plate-border
  0
POLYLINE
  8
Plate-border
 62
0
 70
0
 66
1
 10
0.0
 20
0.0
 30
0.0
  0
VERTEX
  8
Plate-border
 10
273.387575
 20
-99.9375
 30
0.0
  0
VERTEX
  8
Plate-border
 10
277.587575
 20
-99.9375
 30
0.0
  0
SEQEND
  8
Plate-border
  0
POLYLINE
  8
Plate-border
 62
0
 70
0
 66
1
 10
0.0
 20
0.0
 30
0.0
  0
VERTEX
  8
Plate-border
 10
285.587575
 20
-95.9375
 30
0.0
  0
VERTEX
  8
Plate-border
 10
289.787575
 20
-95.9375
 30
0.0
  0
SEQEND
  8
Plate-border
  0
POLYLINE
  8
Plate-border
 62
0
 70
0
 66
1
 10
0.0
 20
0.0
 30
0.0
  0
VERTEX
  8
Plate-border
 10
285.587575
 20
-99.9375
 30
0.0
  0
VERTEX
  8
Plate-border
 10
289.787575
 20
-99.9375
 30
0.0
  0
SEQEND
  8
Plate-border
  0
ARC
  8
Plate-border
 62
0
 10
91.0
 20
-117.32406
 30
0.0
 40
1.0
 50
90.0
 51
-180.0
  0
ARC
  8
Plate-border
 62
0
 10
91.0
 20
-130.32406
 30
0.0
 40
1.0
 50
-180.0
 51
-90.0
  0
ARC
  8
Plate-border
 62
0
 10
99.0
 20
-117.32406
 30
0.0
 40
1.0
 50
-0.0
 51
90.0
  0
ARC
  8
Plate-border
 62
0
 10
99.0
 20
-130.32406
 30
0.0
 40
1.0
 50
-90.0
 51
-0.0
  0
CIRCLE
  8
Plate-border
 62
0
 10
105.0
 20
-123.82
 30
0.0
 40
2.0
  0
POLYLINE
  8
Plate-border
 62
0
 70
0
 66
1
 10
0.0
 20
0.0
 30
0.0
  0
VERTEX
  8
Plate-border
 10
91.0
 20
-116.32406
 30
0.0
  0
VERTEX
  8
Plate-border
 10
99.0
 20
-116.32406
 30
0.0
  0
SEQEND
  8
Plate-border
  0
POLYLINE
  8
Plate-border
 62
0
 70
0
 66
1
 10
0.0
 20
0.0
 30
0.0
  0
VERTEX
  8
Plate-border
 10
90.0
 20
-117.32406
 30
0.0
  0
VERTEX
  8
Plate-border
 10
90.0
 20
-130.32406
 30
0.0
  0
SEQEND
  8
Plate-border
  0
POLYLINE
  8
Plate-border
 62
0
 70
0
 66
1
 10
0.0
 20
0.0
 30
0.0
  0
VERTEX
  8
Plate-border
 10
91.0
 20
-131.32406
 30
0.0
  0
VERTEX
  8
Plate-border
 10
99.0
 20
-131.32406
 30
0.0
  0
SEQEND
  8
Plate-border
  0
POLYLINE
  8
Plate-border
 62
0
 70
0
 66
1
 10
0.0
 20
0.0
 30
0.0
  0
VERTEX
  8
Plate-border
 10
100.0
 20
-117.32406
 30
0.0
  0
VERTEX
  8
Plate-border
 10
100.0
 20
-130.32406
 30
0.0
  0
SEQEND
  8
Plate-border
  0
POLYLINE
  8
Plate-border
 62
0
 70
0
 66
1
 10
0.0
 20
0.0
 30
0.0
  0
VERTEX
  8
Plate-border
 10
82.8560949616
 20
-26.575
 30
0.0
  0
VERTEX
  8
Plate-border
 10
162.756705039
 20
-26.575
 30
0.0
  0
SEQEND
  8
Plate-border
  0
POLYLINE
  8
Plate-border
 62
0
 70
0
 66
1
 10
0.0
 20
0.0
 30
0.0
  0
VERTEX
  8
Plate-border
 10
162.756705039
 20
-30.575
 30
0.0
  0
VERTEX
  8
Plate-border
 10
82.8560949616
 20
-30.575
 30
0.0
  0
SEQEND
  8
Plate-border
  0
POLYLINE
  8
Plate-border
 62
0
 70
0
 66
1
 10
0.0
 20
0.0
 30
0.0
  0
VERTEX
  8
Plate-border
 10
189.751676615
 20
-26.575
 30
0.0
  0
VERTEX
  8
Plate-border
 10
232.823473385
 20
-26.575
 30
0.0
  0
SEQEND
  8
Plate-border
  0
POLYLINE
  8
Plate-border
 62
0
 70
0
 66
1
 10
0.0
 20
0.0
 30
0.0
  0
VERTEX
  8
Plate-border
 10
232.823473385
 20
-30.575
 30
0.0
  0
VERTEX
  8
Plate-border
 10
189.751676615
 20
-30.575
 30
0.0
  0
SEQEND
  8
Plate-border
  0
POLYLINE
  8
Plate-border
 62
0
 70
0
 66
1
 10
0.0
 20
0.0
 30
0.0
  0
VERTEX
  8
Plate-border
 10
291.787575
 20
-34.575
 30
0.0
  0
VERTEX
  8
Plate-border
 10
291.787575
 20
-58.75625
 30
0.0
  0
SEQEND
  8
Plate-border
  0
POLYLINE
  8
Plate-border
 62
0
 70
0
 66
1
 10
0.0
 20
0.0
 30
0.0
  0
VERTEX
  8
Plate-border
 10
295.787575
 20
-5.325
 30
0.0
  0
VERTEX
  8
Plate-border
 10
295.787575
 20
-58.75625
 30
0.0
  0
SEQEND
  8
Plate-border
  0
POLYLINE
  8
Plate-border
 62
0
 70
0
 66
1
 10
0.0
 20
0.0
 30
0.0
  0
VERTEX
  8
Plate-border
 10
291.787575
 20
-66.75625
 30
0.0
  0
VERTEX
  8
Plate-border
 10
291.787575
 20
-93.9375
 30
0.0
  0
SEQEND
  8
Plate-border
  0
POLYLINE
  8
Plate-border
 62
0
 70
0
 66
1
 10
0.0
 20
0.0
 30
0.0
  0
VERTEX
  8
Plate-border
 10
295.787575
 20
-112.9875
 30
0.0
  0
VERTEX
  8
Plate-border
 10
295.787575
 20
-66.75625
 30
0.0
  0
SEQEND
  8
Plate-border
  0
ARC
  8
Group216
 62
0
 10
274.887575
 20
-103.43725
 30
0.0
 40
0.3
 50
90.0
 51
-180.0
  0
ARC
  8
Group216
 62
0
 10
274.887575
 20
-116.83725
 30
0.0
 40
0.3
 50
-180.0
 51
-90.0
  0
ARC
  8
Group216
 62
0
 10
288.287125
 20
-116.83725
 30
0.0
 40
0.3
 50
-90.0
 51
-0.0
  0
ARC
  8
Group216
 62
0
 10
288.287125
 20
-103.43725
 30
0.0
 40
0.3
 50
-0.0
 51
90.0
  0
POLYLINE
  8
Group216
 62
0
 70
0
 66
1
 10
0.0
 20
0.0
 30
0.0
  0
VERTEX
  8
Group216
 10
274.587575
 20
-103.43725
 30
0.0
  0
VERTEX
  8
Group216
 10
274.587575
 20
-116.83725
 30
0.0
  0
SEQEND
  8
Group216
  0
POLYLINE
  8
Group216
 62
0
 70
0
 66
1
 10
0.0
 20
0.0
 30
0.0
  0
VERTEX
  8
Group216
 10
274.887575
 20
-117.13725
 30
0.0
  0
VERTEX
  8
Group216
 10
288.287125
 20
-117.13725
 30
0.0
  0
SEQEND
  8
Group216
  0
POLYLINE
  8
Group216
 62
0
 70
0
 66
1
 10
0.0
 20
0.0
 30
0.0
  0
VERTEX
  8
Group216
 10
288.587125
 20
-116.83725
 30
0.0
  0
VERTEX
  8
Group216
 10
288.587125
 20
-103.43725
 30
0.0
  0
SEQEND
  8
Group216
  0
POLYLINE
  8
Group216
 62
0
 70
0
 66
1
 10
0.0
 20
0.0
 30
0.0
  0
VERTEX
  8
Group216
 10
288.287125
 20
-103.13725
 30
0.0
  0
VERTEX
  8
Group216
 10
274.887575
 20
-103.13725
 30
0.0
  0
SEQEND
  8
Group216
  0
ARC
  8
Group217
 62
0
 10
255.837575
 20
-122.48726
 30
0.0
 40
0.3
 50
90.0
 51
-180.0
  0
ARC
  8
Group217
 62
0
 10
255.837575
 20
-135.88726
 30
0.0
 40
0.3
 50
-180.0
 51
-90.0
  0
ARC
  8
Group217
 62
0
 10
269.237125
 20
-135.88726
 30
0.0
 40
0.3
 50
-90.0
 51
-0.0
  0
ARC
  8
Group217
 62
0
 10
269.237125
 20
-122.48726
 30
0.0
 40
0.3
 50
-0.0
 51
90.0
  0
POLYLINE
  8
Group217
 62
0
 70
0
 66
1
 10
0.0
 20
0.0
 30
0.0
  0
VERTEX
  8
Group217
 10
255.537575
 20
-122.48726
 30
0.0
  0
VERTEX
  8
Group217
 10
255.537575
 20
-135.88726
 30
0.0
  0
SEQEND
  8
Group217
  0
POLYLINE
  8
Group217
 62
0
 70
0
 66
1
 10
0.0
 20
0.0
 30
0.0
  0
VERTEX
  8
Group217
 10
255.837575
 20
-136.18726
 30
0.0
  0
VERTEX
  8
Group217
 10
269.237125
 20
-136.18726
 30
0.0
  0
SEQEND
  8
Group217
  0
POLYLINE
  8
Group217
 62
0
 70
0
 66
1
 10
0.0
 20
0.0
 30
0.0
  0
VERTEX
  8
Group217
 10
269.537125
 20
-135.88726
 30
0.0
  0
VERTEX
  8
Group217
 10
269.537125
 20
-122.48726
 30
0.0
  0
SEQEND
  8
Group217
  0
POLYLINE
  8
Group217
 62
0
 70
0
 66
1
 10
0.0
 20
0.0
 30
0.0
  0
VERTEX
  8
Group217
 10
269.237125
 20
-122.18726
 30
0.0
  0
VERTEX
  8
Group217
 10
255.837575
 20
-122.18726
 30
0.0
  0
SEQEND
  8
Group217
  0
ARC
  8
Group218
 62
0
 10
274.887575
 20
-122.48726
 30
0.0
 40
0.3
 50
90.0
 51
-180.0
  0
ARC
  8
Group218
 62
0
 10
274.887575
 20
-135.88726
 30
0.0
 40
0.3
 50
-180.0
 51
-90.0
  0
ARC
  8
Group218
 62
0
 10
288.287125
 20
-135.88726
 30
0.0
 40
0.3
 50
-90.0
 51
-0.0
  0
ARC
  8
Group218
 62
0
 10
288.287125
 20
-122.48726
 30
0.0
 40
0.3
 50
-0.0
 51
90.0
  0
POLYLINE
  8
Group218
 62
0
 70
0
 66
1
 10
0.0
 20
0.0
 30
0.0
  0
VERTEX
  8
Group218
 10
274.587575
 20
-122.48726
 30
0.0
  0
VERTEX
  8
Group218
 10
274.587575
 20
-135.88726
 30
0.0
  0
SEQEND
  8
Group218
  0
POLYLINE
  8
Group218
 62
0
 70
0
 66
1
 10
0.0
 20
0.0
 30
0.0
  0
VERTEX
  8
Group218
 10
274.887575
 20
-136.18726
 30
0.0
  0
VERTEX
  8
Group218
 10
288.287125
 20
-136.18726
 30
0.0
  0
SEQEND
  8
Group218
  0
POLYLINE
  8
Group218
 62
0
 70
0
 66
1
 10
0.0
 20
0.0
 30
0.0
  0
VERTEX
  8
Group218
 10
288.587125
 20
-135.88726
 30
0.0
  0
VERTEX
  8
Group218
 10
288.587125
 20
-122.48726
 30
0.0
  0
SEQEND
  8
Group218
  0
POLYLINE
  8
Group218
 62
0
 70
0
 66
1
 10
0.0
 20
0.0
 30
0.0
  0
VERTEX
  8
Group218
 10
288.287125
 20
-122.18726
 30
0.0
  0
VERTEX
  8
Group218
 10
274.887575
 20
-122.18726
 30
0.0
  0
SEQEND
  8
Group218
  0
ARC
  8
Group219
 62
0
 10
293.937575
 20
-122.48726
 30
0.0
 40
0.3
 50
90.0
 51
-180.0
  0
ARC
  8
Group219
 62
0
 10
293.937575
 20
-135.88726
 30
0.0
 40
0.3
 50
-180.0
 51
-90.0
  0
ARC
  8
Group219
 62
0
 10
307.337125
 20
-135.88726
 30
0.0
 40
0.3
 50
-90.0
 51
-0.0
  0
ARC
  8
Group219
 62
0
 10
307.337125
 20
-122.48726
 30
0.0
 40
0.3
 50
-0.0
 51
90.0
  0
POLYLINE
  8
Group219
 62
0
 70
0
 66
1
 10
0.0
 20
0.0
 30
0.0
  0
VERTEX
  8
Group219
 10
293.637575
 20
-122.48726
 30
0.0
  0
VERTEX
  8
Group219
 10
293.637575
 20
-135.88726
 30
0.0
  0
SEQEND
  8
Group219
  0
POLYLINE
  8
Group219
 62
0
 70
0
 66
1
 10
0.0
 20
0.0
 30
0.0
  0
VERTEX
  8
Group219
 10
293.937575
 20
-136.18726
 30
0.0
  0
VERTEX
  8
Group219
 10
307.337125
 20
-136.18726
 30
0.0
  0
SEQEND
  8
Group219
  0
POLYLINE
  8
Group219
 62
0
 70
0
 66
1
 10
0.0
 20
0.0
 30
0.0
  0
VERTEX
  8
Group219
 10
307.637125
 20
-135.88726
 30
0.0
  0
VERTEX
  8
Group219
 10
307.637125
 20
-122.48726
 30
0.0
  0
SEQEND
  8
Group219
  0
POLYLINE
  8
Group219
 62
0
 70
0
 66
1
 10
0.0
 20
0.0
 30
0.0
  0
VERTEX
  8
Group219
 10
307.337125
 20
-122.18726
 30
0.0
  0
VERTEX
  8
Group219
 10
293.937575
 20
-122.18726
 30
0.0
  0
SEQEND
  8
Group219
  0
ENDSEC
  0
EOF
