M48
; DRILL file {KiCad (5.1.4)-1} date 07.07.2020 12:47:23
; FORMAT={3:3/ absolute / metric / suppress leading zeros}
; #@! TF.CreationDate,2020-07-07T12:47:23+02:00
; #@! TF.GenerationSoftware,Kicad,Pcbnew,(5.1.4)-1
FMAT,2
METRIC,TZ
T1C0.400
T2C0.762
T3C0.850
T4C0.900
T5C0.991
T6C1.499
T7C3.000
T8C1.000
T9C1.702
T10C3.048
T11C3.600
T12C3.988
T13C4.000
T14C6.200
T15C6.500
%
G90
G05
T1
X19050Y-13335
X19050Y-51435
X23813Y-127635
X28575Y-70485
X33528Y-89535
X38100Y-51435
X41672Y-108585
X44069Y-101219
X47625Y-127635
X47625Y-70485
X52451Y-89535
X57150Y-13335
X57150Y-51435
X61849Y-108585
X66675Y-70485
X71438Y-127635
X71501Y-89535
X76200Y-13335
X76200Y-51435
X80963Y-108585
X85725Y-70485
X88106Y100
X90488Y-89640
X94854Y-32147
X95250Y-13335
X95250Y-51435
X100013Y-108585
X104775Y-70485
X109538Y-89535
X112713Y-33338
X114300Y-51435
X114300Y-13335
X118618Y-118872
X118999Y-108585
X119033Y-495
X119888Y-114430
X122682Y-95250
X123825Y-70485
X128651Y-89535
X131168Y-33933
X133350Y-51435
X135702Y-1120
X138049Y-108585
X142875Y-70485
X142875Y-13335
X147701Y-89535
X149592Y-34558
X152400Y-51435
X154722Y-1845
X157099Y-108585
X161925Y-70485
X161925Y-13335
X166751Y-89535
X171450Y-51435
X175022Y-31235
X176149Y-108585
X180975Y-70485
X180975Y-13335
X185801Y-89535
X190500Y-51435
X195199Y-108585
X200025Y-70485
X200025Y-13335
X200406Y9144
X203597Y1786
X204788Y-89535
X204978Y11938
X209296Y9144
X209550Y-51435
X214249Y-108585
X214313Y-127635
X217885Y-113705
X219075Y-70485
X223901Y-89535
X228600Y-13335
X228600Y-51435
X232227Y-89591
X233299Y-108585
X238125Y-70485
X238125Y-127635
X242888Y-89535
X247015Y-51435
X247650Y-13335
X257175Y-70485
X263525Y-91948
X266700Y-13335
X267970Y-108585
X284700Y-70485
X285750Y-13335
X285750Y-51435
X285750Y-89535
X285750Y-108585
X287406Y-110163
X287536Y-75605
X288131Y-32947
X288131Y-36160
X288163Y-34290
X288290Y-127000
X289752Y-32247
X289941Y-36068
X290978Y-36068
X292910Y-71090
X293360Y-52258
X293492Y3423
X293624Y-81026
X294132Y4191
X294132Y-92710
X295275Y-14883
X295871Y-52983
X295910Y-82804
X295910Y-94234
X295918Y1786
X296000Y-72987
X296294Y4061
X297160Y5953
X300482Y-80391
X300919Y-25075
X301752Y-96266
X301752Y-100584
X302514Y13462
X302514Y4572
X303014Y-86536
X303014Y-91678
X304927Y1936
X305308Y8890
X305562Y-83439
X307594Y-96266
X307594Y-100584
X308050Y-91678
X308356Y-85217
X311349Y-77391
X311912Y-99568
X311944Y-91511
X312074Y-66692
X312074Y-75605
X312554Y-93211
X312560Y-87011
X313436Y-97790
X313764Y-90716
X314325Y-15875
X314325Y-51435
X314325Y-70485
X315214Y-80264
X315400Y-89900
X316111Y-89161
X316992Y-81788
X322326Y-92202
X324104Y-88138
X324104Y-90678
X329162Y-17294
X331300Y-400
X333375Y-70485
X333375Y-51435
X333375Y-13589
X333375Y-108585
X338328Y-81915
X348361Y-3429
X350139Y-81788
X352425Y-70485
X352425Y-13589
X352425Y-51435
X353411Y-85755
X353925Y-16534
X353925Y-53578
X355092Y-19939
X355092Y-24384
X355346Y9144
X356108Y-3429
X356565Y-7976
X357734Y-8026
X358140Y-3353
X358394Y13462
X358394Y4572
X359029Y-23382
X359410Y-9144
X359410Y-10414
X359410Y-11684
X361950Y-51435
X361950Y-70485
X361950Y-89535
X361950Y-108585
X361979Y486
X361999Y1936
X362892Y1486
X364397Y-11938
X367308Y-525
X369689Y8180
X372160Y8940
X375047Y-21932
X377428Y7330
X377698Y11430
X377698Y-11938
X378025Y8180
X378635Y8973
X379857Y-5715
X381000Y-70485
X381000Y-51435
X381000Y-89535
X381000Y-108585
X386299Y-1150
X393067Y-88702
X397133Y-18019
X398907Y-63246
X398907Y-82042
X398907Y-100965
X400050Y-51435
X400611Y-22522
X401241Y-70485
X401241Y-89535
X401241Y-108585
X405408Y-1686
X416622Y-11906
X419100Y-51435
X422672Y-17859
X424428Y-2411
X426244Y-23217
T2
X380167Y11311
X382707Y11311
X385247Y11311
X387787Y11311
T3
X103730Y-121285
X103730Y-123825
X103730Y-126365
X106270Y-121285
X106270Y-123825
X106270Y-126365
T4
X424379Y-13692
X426919Y-13692
X398780Y-13692
X401320Y-13692
X373182Y-13692
X375722Y-13692
T5
X15399Y-90805
X17939Y-90805
X10636Y-90805
X13176Y-90805
X322581Y-14605
X325121Y-14605
X370205Y-52705
X372745Y-52705
T6
X367665Y-64135
X374015Y-61595
X386715Y-45085
X393065Y-42545
X167640Y-6985
X173990Y-4445
X405765Y-83185
X412115Y-80645
X424815Y-83185
X431165Y-80645
X39053Y-83185
X45403Y-80645
X272415Y-45085
X278765Y-42545
X253366Y-45085
X259716Y-42545
X405767Y-6985
X412117Y-4445
X62865Y-45085
X69215Y-42545
X115253Y-83185
X121602Y-80645
X243840Y-121285
X250190Y-118745
X262890Y-45085
X269240Y-42545
X10478Y-121285
X16828Y-118745
X148590Y-6985
X154940Y-4445
X172403Y-83185
X178753Y-80645
X200978Y-102235
X207327Y-99695
X405765Y-45085
X412115Y-42545
X127159Y-121285
X133509Y-118745
X148590Y-64135
X154940Y-61595
X229552Y-83185
X235903Y-80645
X367665Y-6985
X374015Y-4445
X43815Y-45085
X50165Y-42545
X31909Y-121285
X38259Y-118745
X270034Y-73609
X276384Y-71069
X424815Y-73660
X431165Y-71120
X129540Y-64135
X135890Y-61595
X186690Y-6985
X193040Y-4445
X162878Y-102235
X169228Y-99695
X367665Y-45085
X374015Y-42545
X139065Y-45085
X145415Y-42545
X220028Y-102235
X226378Y-99695
X405765Y-121285
X412115Y-118745
X224790Y-64135
X231140Y-61595
X215266Y-45085
X221616Y-42545
X5715Y-6985
X12065Y-4445
X17621Y-102235
X23971Y-99695
X320040Y-121285
X326390Y-118745
X339090Y-64135
X345440Y-61595
X300990Y-64135
X307340Y-61595
X129540Y-6985
X135890Y-4445
X105727Y-102235
X112078Y-99695
X424815Y-102235
X431165Y-99695
X386715Y-64135
X393065Y-61595
X220028Y-121285
X226378Y-118745
X320041Y-6985
X326391Y-4445
X86678Y-102235
X93027Y-99695
X8096Y-102235
X14446Y-99695
X62865Y-6985
X69215Y-4445
X96203Y-83185
X102552Y-80645
X246221Y-121285
X252571Y-118745
X12859Y-83185
X19209Y-80645
X234316Y-45085
X240666Y-42545
X424815Y-111760
X431165Y-109220
X177165Y-45085
X183515Y-42545
X134302Y-83185
X140653Y-80645
X377190Y-121285
X383540Y-118745
X272415Y-6985
X278765Y-4445
X139065Y-121285
X145415Y-118745
X339090Y-6985
X345440Y-4445
X191453Y-83185
X197803Y-80645
X386715Y-102235
X393065Y-99695
X10478Y-64135
X16828Y-61595
X222409Y-121285
X228759Y-118745
X91440Y-64135
X97790Y-61595
X367665Y-83185
X374015Y-80645
X386717Y-6985
X393067Y-4445
X424815Y-45085
X431165Y-42545
X55721Y-121285
X62071Y-118745
X24765Y-45085
X31115Y-42545
X67628Y-102235
X73977Y-99695
X72390Y-64135
X78740Y-61595
X215265Y-6985
X221615Y-4445
X181928Y-102235
X188278Y-99695
X58103Y-121285
X64453Y-118745
X167640Y-64135
X173990Y-61595
X339090Y-45085
X345440Y-42545
X255746Y-102235
X262096Y-99695
X367665Y-102235
X374015Y-99695
X243840Y-64135
X250190Y-61595
X300991Y-6985
X307341Y-4445
X43815Y-6985
X50165Y-4445
X48578Y-102235
X54928Y-99695
X300990Y-121285
X307340Y-118745
X267652Y-64135
X274003Y-61595
X405765Y-64135
X412115Y-61595
X5715Y-45085
X12065Y-42545
X386715Y-83185
X393065Y-80645
X248603Y-83185
X254952Y-80645
X424815Y-64135
X431165Y-61595
X198596Y-121285
X204946Y-118745
X81915Y-45085
X88265Y-42545
X405765Y-102235
X412115Y-99695
X100965Y-6985
X107315Y-4445
X77153Y-83185
X83503Y-80645
X8096Y-121285
X14446Y-118745
X196216Y-45085
X202566Y-42545
X246221Y-102235
X252571Y-99695
X253365Y-6985
X259715Y-4445
X153352Y-83185
X159702Y-80645
X270034Y-121285
X276384Y-118745
X320040Y-102235
X326390Y-99695
X300990Y-45085
X307340Y-42545
X267652Y-121285
X274003Y-118745
X158116Y-45085
X164466Y-42545
X210503Y-83185
X216853Y-80645
X386715Y-121285
X393065Y-118745
X424817Y-6985
X431167Y-4445
X34290Y-64135
X40640Y-61595
X424815Y-121285
X431165Y-118745
X205740Y-64135
X212090Y-61595
X260509Y-83185
X266859Y-80645
X339090Y-121285
X345440Y-118745
X110490Y-64135
X116840Y-61595
X367665Y-121285
X374015Y-118745
X100965Y-45085
X107315Y-42545
X143827Y-102235
X150177Y-99695
X320040Y-45085
X326390Y-42545
X120016Y-45085
X126366Y-42545
X29528Y-102235
X35878Y-99695
X186690Y-64135
X193040Y-61595
X58103Y-83185
X64453Y-80645
X272415Y-102235
X278765Y-99695
X34290Y-121285
X40640Y-118745
X234315Y-6985
X240665Y-4445
X320040Y-64135
X326390Y-61595
X53340Y-64135
X59690Y-61595
X81915Y-6985
X88265Y-4445
X124777Y-102235
X131128Y-99695
X8096Y-83185
X14446Y-80645
T8
X358378Y11130
X358378Y6730
X302419Y11130
X302419Y6730
X202588Y8930
X206988Y8930
T9
X185420Y-9525
X195580Y-9525
X161607Y-104775
X171767Y-104775
X366395Y-47625
X376555Y-47625
X137795Y-47625
X147955Y-47625
X218758Y-104775
X228917Y-104775
X404495Y-123825
X414655Y-123825
X223520Y-66675
X233680Y-66675
X213996Y-47625
X224156Y-47625
X4445Y-9525
X14605Y-9525
X16351Y-104775
X26511Y-104775
X318770Y-123825
X328930Y-123825
X337820Y-66675
X347980Y-66675
X299720Y-66675
X309880Y-66675
X128270Y-9525
X138430Y-9525
X104458Y-104775
X114618Y-104775
X423545Y-104775
X433705Y-104775
X385445Y-66675
X395605Y-66675
X218758Y-123825
X228917Y-123825
X318771Y-9525
X328931Y-9525
X85408Y-104775
X95568Y-104775
X6826Y-104775
X16986Y-104775
X61595Y-9525
X71755Y-9525
X94933Y-85725
X105093Y-85725
X244951Y-123825
X255111Y-123825
X11589Y-85725
X21749Y-85725
X233046Y-47625
X243206Y-47625
X423545Y-114300
X433705Y-114300
X175895Y-47625
X186055Y-47625
X133033Y-85725
X143193Y-85725
X375920Y-123825
X386080Y-123825
X271145Y-9525
X281305Y-9525
X137795Y-123825
X147955Y-123825
X337820Y-9525
X347980Y-9525
X190183Y-85725
X200343Y-85725
X385445Y-104775
X395605Y-104775
X9207Y-66675
X19368Y-66675
X221139Y-123825
X231299Y-123825
X90170Y-66675
X100330Y-66675
X366395Y-85725
X376555Y-85725
X385447Y-9525
X395607Y-9525
X423545Y-47625
X433705Y-47625
X54451Y-123825
X64611Y-123825
X23495Y-47625
X33655Y-47625
X66358Y-104775
X76518Y-104775
X71120Y-66675
X81280Y-66675
X213995Y-9525
X224155Y-9525
X180658Y-104775
X190818Y-104775
X56832Y-123825
X66993Y-123825
X166370Y-66675
X176530Y-66675
X337820Y-47625
X347980Y-47625
X254476Y-104775
X264636Y-104775
X366395Y-104775
X376555Y-104775
X242570Y-66675
X252730Y-66675
X299721Y-9525
X309881Y-9525
X42545Y-9525
X52705Y-9525
X47308Y-104775
X57468Y-104775
X299720Y-123825
X309880Y-123825
X266383Y-66675
X276542Y-66675
X404495Y-66675
X414655Y-66675
X4445Y-47625
X14605Y-47625
X385445Y-85725
X395605Y-85725
X247333Y-85725
X257493Y-85725
X423545Y-66675
X433705Y-66675
X197326Y-123825
X207486Y-123825
X80645Y-47625
X90805Y-47625
X404495Y-104775
X414655Y-104775
X99695Y-9525
X109855Y-9525
X75882Y-85725
X86043Y-85725
X6826Y-123825
X16986Y-123825
X194946Y-47625
X205106Y-47625
X244951Y-104775
X255111Y-104775
X252095Y-9525
X262255Y-9525
X152082Y-85725
X162243Y-85725
X268764Y-123825
X278924Y-123825
X318770Y-104775
X328930Y-104775
X299720Y-47625
X309880Y-47625
X266383Y-123825
X276542Y-123825
X156846Y-47625
X167006Y-47625
X209233Y-85725
X219392Y-85725
X385445Y-123825
X395605Y-123825
X423547Y-9525
X433707Y-9525
X33020Y-66675
X43180Y-66675
X423545Y-123825
X433705Y-123825
X204470Y-66675
X214630Y-66675
X259239Y-85725
X269399Y-85725
X337820Y-123825
X347980Y-123825
X109220Y-66675
X119380Y-66675
X366395Y-123825
X376555Y-123825
X99695Y-47625
X109855Y-47625
X142558Y-104775
X152718Y-104775
X318770Y-47625
X328930Y-47625
X118746Y-47625
X128906Y-47625
X28258Y-104775
X38417Y-104775
X185420Y-66675
X195580Y-66675
X56832Y-85725
X66993Y-85725
X271145Y-104775
X281305Y-104775
X33020Y-123825
X43180Y-123825
X233045Y-9525
X243205Y-9525
X318770Y-66675
X328930Y-66675
X52070Y-66675
X62230Y-66675
X80645Y-9525
X90805Y-9525
X123507Y-104775
X133668Y-104775
X6826Y-85725
X16986Y-85725
X366395Y-66675
X376555Y-66675
X385445Y-47625
X395605Y-47625
X166370Y-9525
X176530Y-9525
X404495Y-85725
X414655Y-85725
X423545Y-85725
X433705Y-85725
X37783Y-85725
X47943Y-85725
X271145Y-47625
X281305Y-47625
X252096Y-47625
X262256Y-47625
X404497Y-9525
X414657Y-9525
X61595Y-47625
X71755Y-47625
X113983Y-85725
X124143Y-85725
X242570Y-123825
X252730Y-123825
X261620Y-47625
X271780Y-47625
X9207Y-123825
X19368Y-123825
X147320Y-9525
X157480Y-9525
X171133Y-85725
X181293Y-85725
X199708Y-104775
X209867Y-104775
X404495Y-47625
X414655Y-47625
X125889Y-123825
X136049Y-123825
X147320Y-66675
X157480Y-66675
X228283Y-85725
X238443Y-85725
X366395Y-9525
X376555Y-9525
X42545Y-47625
X52705Y-47625
X30639Y-123825
X40799Y-123825
X268764Y-76149
X278924Y-76149
X423545Y-76200
X433705Y-76200
X128270Y-66675
X138430Y-66675
T10
X252381Y-78740
X276257Y-78740
X254762Y-40640
X278638Y-40640
X80931Y-116840
X181007Y-116840
X280829Y-64211
X280829Y-88087
X421640Y-64262
X421640Y-88138
X9493Y-97790
X33369Y-97790
X421640Y-102362
X421640Y-126238
X369062Y-116840
X392938Y-116840
X85693Y-116840
X200057Y-116840
X247618Y-97790
X271494Y-97790
T11
X34528Y-28575
X404218Y-28575
X290513Y-28575
X144066Y-28575
T12
X190500Y-66675
X61913Y-85725
X276225Y-104775
X38100Y-123825
X238125Y-9525
X323850Y-66675
X57150Y-66675
X85725Y-9525
X128588Y-104775
X11906Y-85725
X371475Y-66675
X390525Y-47625
X171450Y-9525
X409575Y-85725
X428625Y-85725
X42863Y-85725
X276225Y-47625
X257176Y-47625
X409577Y-9525
X66675Y-47625
X119063Y-85725
X247650Y-123825
X254762Y-55880
X266700Y-47625
X278638Y-55880
X14288Y-123825
X152400Y-9525
X176213Y-85725
X204788Y-104775
X409575Y-47625
X80931Y-132080
X130969Y-123825
X181007Y-132080
X152400Y-66675
X233363Y-85725
X371475Y-9525
X47625Y-47625
X35719Y-123825
X265589Y-64211
X265589Y-88087
X273844Y-76149
X428625Y-76200
X436880Y-64262
X436880Y-88138
X133350Y-66675
X190500Y-9525
X166688Y-104775
X371475Y-47625
X142875Y-47625
X223838Y-104775
X409575Y-123825
X228600Y-66675
X219076Y-47625
X9525Y-9525
X9493Y-113030
X21431Y-104775
X33369Y-113030
X323850Y-123825
X342900Y-66675
X304800Y-66675
X133350Y-9525
X109538Y-104775
X428625Y-104775
X390525Y-66675
X223838Y-123825
X323851Y-9525
X90488Y-104775
X11906Y-104775
X66675Y-9525
X100012Y-85725
X250031Y-123825
X16669Y-85725
X238126Y-47625
X428625Y-114300
X436880Y-102362
X436880Y-126238
X180975Y-47625
X138112Y-85725
X369062Y-132080
X381000Y-123825
X392938Y-132080
X276225Y-9525
X85693Y-132080
X142875Y-123825
X200057Y-132080
X342900Y-9525
X195263Y-85725
X390525Y-104775
X14288Y-66675
X226219Y-123825
X95250Y-66675
X371475Y-85725
X390527Y-9525
X428625Y-47625
X59531Y-123825
X28575Y-47625
X71438Y-104775
X76200Y-66675
X219075Y-9525
X185737Y-104775
X61913Y-123825
X171450Y-66675
X342900Y-47625
X247618Y-113030
X259556Y-104775
X271494Y-113030
X371475Y-104775
X247650Y-66675
X304801Y-9525
X47625Y-9525
X52388Y-104775
X304800Y-123825
X271463Y-66675
X409575Y-66675
X9525Y-47625
X390525Y-85725
X252413Y-85725
X428625Y-66675
X202406Y-123825
X85725Y-47625
X409575Y-104775
X104775Y-9525
X80962Y-85725
X11906Y-123825
X200026Y-47625
X250031Y-104775
X257175Y-9525
X157163Y-85725
X273844Y-123825
X323850Y-104775
X304800Y-47625
X271463Y-123825
X161926Y-47625
X214313Y-85725
X390525Y-123825
X428627Y-9525
X38100Y-66675
X428625Y-123825
X209550Y-66675
X252381Y-93980
X264319Y-85725
X276257Y-93980
X342900Y-123825
X114300Y-66675
X371475Y-123825
X104775Y-47625
X147638Y-104775
X323850Y-47625
X123826Y-47625
X33338Y-104775
T13
X358974Y-95250
X79177Y-95250
X2381Y-123825
T14
X389335Y-28575
T15
X49411Y-28575
T7
G00X395288Y9620
M15
G01X395288Y10620
M16
G05
T0
M30
