G04 #@! TF.GenerationSoftware,KiCad,Pcbnew,5.1.6*
G04 #@! TF.CreationDate,2020-10-03T15:38:36+02:00*
G04 #@! TF.ProjectId,gh80-3003,67683830-2d33-4303-9033-2e6b69636164,rev?*
G04 #@! TF.SameCoordinates,Original*
G04 #@! TF.FileFunction,Legend,Top*
G04 #@! TF.FilePolarity,Positive*
%FSLAX46Y46*%
G04 Gerber Fmt 4.6, Leading zero omitted, Abs format (unit mm)*
G04 Created by KiCad (PCBNEW 5.1.6) date 2020-10-03 15:38:36*
%MOMM*%
%LPD*%
G01*
G04 APERTURE LIST*
%ADD10C,0.300000*%
%ADD11C,0.150000*%
%ADD12C,0.120000*%
%ADD13C,1.803800*%
%ADD14C,4.089800*%
%ADD15C,2.388000*%
%ADD16C,3.150000*%
%ADD17R,2.102000X3.102000*%
%ADD18O,4.102000X5.102000*%
%ADD19C,4.102000*%
%ADD20C,1.102000*%
%ADD21R,1.802000X1.802000*%
%ADD22O,1.802000X1.802000*%
%ADD23R,1.902000X1.902000*%
%ADD24C,1.902000*%
%ADD25R,1.102000X1.802000*%
%ADD26C,6.602000*%
%ADD27C,3.702000*%
%ADD28C,6.302000*%
%ADD29R,1.880000X1.880000*%
%ADD30C,1.880000*%
G04 APERTURE END LIST*
D10*
X398550336Y-17799791D02*
X398478907Y-17871219D01*
X398264621Y-17942648D01*
X398121764Y-17942648D01*
X397907478Y-17871219D01*
X397764621Y-17728362D01*
X397693193Y-17585505D01*
X397621764Y-17299791D01*
X397621764Y-17085505D01*
X397693193Y-16799791D01*
X397764621Y-16656934D01*
X397907478Y-16514077D01*
X398121764Y-16442648D01*
X398264621Y-16442648D01*
X398478907Y-16514077D01*
X398550336Y-16585505D01*
X399836050Y-17942648D02*
X399836050Y-17156934D01*
X399764621Y-17014077D01*
X399621764Y-16942648D01*
X399336050Y-16942648D01*
X399193193Y-17014077D01*
X399836050Y-17871219D02*
X399693193Y-17942648D01*
X399336050Y-17942648D01*
X399193193Y-17871219D01*
X399121764Y-17728362D01*
X399121764Y-17585505D01*
X399193193Y-17442648D01*
X399336050Y-17371219D01*
X399693193Y-17371219D01*
X399836050Y-17299791D01*
X400550336Y-16942648D02*
X400550336Y-18442648D01*
X400550336Y-17014077D02*
X400693193Y-16942648D01*
X400978907Y-16942648D01*
X401121764Y-17014077D01*
X401193193Y-17085505D01*
X401264621Y-17228362D01*
X401264621Y-17656934D01*
X401193193Y-17799791D01*
X401121764Y-17871219D01*
X400978907Y-17942648D01*
X400693193Y-17942648D01*
X400550336Y-17871219D01*
X401836050Y-17871219D02*
X401978907Y-17942648D01*
X402264621Y-17942648D01*
X402407478Y-17871219D01*
X402478907Y-17728362D01*
X402478907Y-17656934D01*
X402407478Y-17514077D01*
X402264621Y-17442648D01*
X402050336Y-17442648D01*
X401907478Y-17371219D01*
X401836050Y-17228362D01*
X401836050Y-17156934D01*
X401907478Y-17014077D01*
X402050336Y-16942648D01*
X402264621Y-16942648D01*
X402407478Y-17014077D01*
X372344734Y-17942648D02*
X372344734Y-16442648D01*
X373201877Y-17942648D01*
X373201877Y-16442648D01*
X374559019Y-16942648D02*
X374559019Y-17942648D01*
X373916162Y-16942648D02*
X373916162Y-17728362D01*
X373987591Y-17871219D01*
X374130448Y-17942648D01*
X374344734Y-17942648D01*
X374487591Y-17871219D01*
X374559019Y-17799791D01*
X375273305Y-17942648D02*
X375273305Y-16942648D01*
X375273305Y-17085505D02*
X375344734Y-17014077D01*
X375487591Y-16942648D01*
X375701877Y-16942648D01*
X375844734Y-17014077D01*
X375916162Y-17156934D01*
X375916162Y-17942648D01*
X375916162Y-17156934D02*
X375987591Y-17014077D01*
X376130448Y-16942648D01*
X376344734Y-16942648D01*
X376487591Y-17014077D01*
X376559019Y-17156934D01*
X376559019Y-17942648D01*
X422648795Y-17871219D02*
X422863080Y-17942648D01*
X423220223Y-17942648D01*
X423363080Y-17871219D01*
X423434509Y-17799791D01*
X423505937Y-17656934D01*
X423505937Y-17514077D01*
X423434509Y-17371219D01*
X423363080Y-17299791D01*
X423220223Y-17228362D01*
X422934509Y-17156934D01*
X422791652Y-17085505D01*
X422720223Y-17014077D01*
X422648795Y-16871219D01*
X422648795Y-16728362D01*
X422720223Y-16585505D01*
X422791652Y-16514077D01*
X422934509Y-16442648D01*
X423291652Y-16442648D01*
X423505937Y-16514077D01*
X424791652Y-17871219D02*
X424648795Y-17942648D01*
X424363080Y-17942648D01*
X424220223Y-17871219D01*
X424148795Y-17799791D01*
X424077366Y-17656934D01*
X424077366Y-17228362D01*
X424148795Y-17085505D01*
X424220223Y-17014077D01*
X424363080Y-16942648D01*
X424648795Y-16942648D01*
X424791652Y-17014077D01*
X425434509Y-17942648D02*
X425434509Y-16942648D01*
X425434509Y-17228362D02*
X425505937Y-17085505D01*
X425577366Y-17014077D01*
X425720223Y-16942648D01*
X425863080Y-16942648D01*
X426577366Y-17942648D02*
X426434509Y-17871219D01*
X426363080Y-17799791D01*
X426291652Y-17656934D01*
X426291652Y-17228362D01*
X426363080Y-17085505D01*
X426434509Y-17014077D01*
X426577366Y-16942648D01*
X426791652Y-16942648D01*
X426934509Y-17014077D01*
X427005937Y-17085505D01*
X427077366Y-17228362D01*
X427077366Y-17656934D01*
X427005937Y-17799791D01*
X426934509Y-17871219D01*
X426791652Y-17942648D01*
X426577366Y-17942648D01*
X427934509Y-17942648D02*
X427791652Y-17871219D01*
X427720223Y-17728362D01*
X427720223Y-16442648D01*
X428720223Y-17942648D02*
X428577366Y-17871219D01*
X428505937Y-17728362D01*
X428505937Y-16442648D01*
D11*
X380666885Y8546542D02*
X380714504Y8641780D01*
X380714504Y8784637D01*
X380666885Y8927494D01*
X380571646Y9022732D01*
X380476408Y9070351D01*
X380285932Y9117970D01*
X380143075Y9117970D01*
X379952599Y9070351D01*
X379857361Y9022732D01*
X379762123Y8927494D01*
X379714504Y8784637D01*
X379714504Y8689399D01*
X379762123Y8546542D01*
X379809742Y8498923D01*
X380143075Y8498923D01*
X380143075Y8689399D01*
X379714504Y8070351D02*
X380714504Y8070351D01*
X379714504Y7498923D01*
X380714504Y7498923D01*
X379714504Y7022732D02*
X380714504Y7022732D01*
X380714504Y6784637D01*
X380666885Y6641780D01*
X380571646Y6546542D01*
X380476408Y6498923D01*
X380285932Y6451304D01*
X380143075Y6451304D01*
X379952599Y6498923D01*
X379857361Y6546542D01*
X379762123Y6641780D01*
X379714504Y6784637D01*
X379714504Y7022732D01*
X384794504Y9070351D02*
X385794504Y9070351D01*
X385794504Y8832256D01*
X385746885Y8689399D01*
X385651646Y8594161D01*
X385556408Y8546542D01*
X385365932Y8498923D01*
X385223075Y8498923D01*
X385032599Y8546542D01*
X384937361Y8594161D01*
X384842123Y8689399D01*
X384794504Y8832256D01*
X384794504Y9070351D01*
X385175456Y8070351D02*
X385175456Y7308447D01*
X388334504Y9213208D02*
X387334504Y8879875D01*
X388334504Y8546542D01*
X387429742Y7641780D02*
X387382123Y7689399D01*
X387334504Y7832256D01*
X387334504Y7927494D01*
X387382123Y8070351D01*
X387477361Y8165589D01*
X387572599Y8213208D01*
X387763075Y8260827D01*
X387905932Y8260827D01*
X388096408Y8213208D01*
X388191646Y8165589D01*
X388286885Y8070351D01*
X388334504Y7927494D01*
X388334504Y7832256D01*
X388286885Y7689399D01*
X388239265Y7641780D01*
X387429742Y6641780D02*
X387382123Y6689399D01*
X387334504Y6832256D01*
X387334504Y6927494D01*
X387382123Y7070351D01*
X387477361Y7165589D01*
X387572599Y7213208D01*
X387763075Y7260827D01*
X387905932Y7260827D01*
X388096408Y7213208D01*
X388191646Y7165589D01*
X388286885Y7070351D01*
X388334504Y6927494D01*
X388334504Y6832256D01*
X388286885Y6689399D01*
X388239265Y6641780D01*
X382254504Y9070351D02*
X383254504Y9070351D01*
X383254504Y8832256D01*
X383206885Y8689399D01*
X383111646Y8594161D01*
X383016408Y8546542D01*
X382825932Y8498923D01*
X382683075Y8498923D01*
X382492599Y8546542D01*
X382397361Y8594161D01*
X382302123Y8689399D01*
X382254504Y8832256D01*
X382254504Y9070351D01*
X382635456Y8070351D02*
X382635456Y7308447D01*
X382254504Y7689399D02*
X383016408Y7689399D01*
D12*
X102400000Y-119955000D02*
X103730000Y-119955000D01*
X102400000Y-121285000D02*
X102400000Y-119955000D01*
X105000000Y-119955000D02*
X107600000Y-119955000D01*
X105000000Y-122555000D02*
X105000000Y-119955000D01*
X102400000Y-122555000D02*
X105000000Y-122555000D01*
X107600000Y-119955000D02*
X107600000Y-127695000D01*
X102400000Y-122555000D02*
X102400000Y-127695000D01*
X102400000Y-127695000D02*
X107600000Y-127695000D01*
X372891877Y-14772199D02*
X372891877Y-14928199D01*
X372891877Y-12456199D02*
X372891877Y-12612199D01*
X376124212Y-12613591D02*
G75*
G03*
X372891877Y-12456683I-1672335J-1078608D01*
G01*
X376124212Y-14770807D02*
G75*
G02*
X372891877Y-14927715I-1672335J1078608D01*
G01*
X398490336Y-14772199D02*
X398490336Y-14928199D01*
X398490336Y-12456199D02*
X398490336Y-12612199D01*
X401722671Y-12613591D02*
G75*
G03*
X398490336Y-12456683I-1672335J-1078608D01*
G01*
X401722671Y-14770807D02*
G75*
G02*
X398490336Y-14927715I-1672335J1078608D01*
G01*
X424088795Y-12456199D02*
X424088795Y-12612199D01*
X424088795Y-14772199D02*
X424088795Y-14928199D01*
X427321130Y-14770807D02*
G75*
G02*
X424088795Y-14927715I-1672335J1078608D01*
G01*
X427321130Y-12613591D02*
G75*
G03*
X424088795Y-12456683I-1672335J-1078608D01*
G01*
X112250000Y-125075000D02*
X112250000Y-122575000D01*
X114000000Y-126575000D02*
X116000000Y-126575000D01*
X117750000Y-125075000D02*
X117750000Y-122575000D01*
X114000000Y-121075000D02*
X116000000Y-121075000D01*
X112700000Y-125525000D02*
X112250000Y-125075000D01*
X112700000Y-122125000D02*
X112250000Y-122575000D01*
X117300000Y-122125000D02*
X117750000Y-122575000D01*
X117300000Y-125525000D02*
X117750000Y-125075000D01*
D11*
X104023809Y-129147380D02*
X104023809Y-128147380D01*
X104452380Y-129099761D02*
X104595238Y-129147380D01*
X104833333Y-129147380D01*
X104928571Y-129099761D01*
X104976190Y-129052142D01*
X105023809Y-128956904D01*
X105023809Y-128861666D01*
X104976190Y-128766428D01*
X104928571Y-128718809D01*
X104833333Y-128671190D01*
X104642857Y-128623571D01*
X104547619Y-128575952D01*
X104500000Y-128528333D01*
X104452380Y-128433095D01*
X104452380Y-128337857D01*
X104500000Y-128242619D01*
X104547619Y-128195000D01*
X104642857Y-128147380D01*
X104880952Y-128147380D01*
X105023809Y-128195000D01*
X105452380Y-129147380D02*
X105452380Y-128147380D01*
X105833333Y-128147380D01*
X105928571Y-128195000D01*
X105976190Y-128242619D01*
X106023809Y-128337857D01*
X106023809Y-128480714D01*
X105976190Y-128575952D01*
X105928571Y-128623571D01*
X105833333Y-128671190D01*
X105452380Y-128671190D01*
X104015714Y-119197380D02*
X103444285Y-119197380D01*
X103730000Y-119197380D02*
X103730000Y-118197380D01*
X103634761Y-118340238D01*
X103539523Y-118435476D01*
X103444285Y-118483095D01*
X111654761Y-125158333D02*
X111702380Y-125015476D01*
X111702380Y-124777380D01*
X111654761Y-124682142D01*
X111607142Y-124634523D01*
X111511904Y-124586904D01*
X111416666Y-124586904D01*
X111321428Y-124634523D01*
X111273809Y-124682142D01*
X111226190Y-124777380D01*
X111178571Y-124967857D01*
X111130952Y-125063095D01*
X111083333Y-125110714D01*
X110988095Y-125158333D01*
X110892857Y-125158333D01*
X110797619Y-125110714D01*
X110750000Y-125063095D01*
X110702380Y-124967857D01*
X110702380Y-124729761D01*
X110750000Y-124586904D01*
X110702380Y-124253571D02*
X111702380Y-124015476D01*
X110988095Y-123825000D01*
X111702380Y-123634523D01*
X110702380Y-123396428D01*
X111702380Y-122491666D02*
X111702380Y-123063095D01*
X111702380Y-122777380D02*
X110702380Y-122777380D01*
X110845238Y-122872619D01*
X110940476Y-122967857D01*
X110988095Y-123063095D01*
%LPC*%
D13*
X309881280Y-9525000D03*
X299721280Y-9525000D03*
D14*
X304801280Y-9525000D03*
D15*
X300991280Y-6985000D03*
X307341280Y-4445000D03*
D13*
X243205000Y-9525000D03*
X233045000Y-9525000D03*
D14*
X238125000Y-9525000D03*
D15*
X234315000Y-6985000D03*
X240665000Y-4445000D03*
D13*
X433706800Y-9525040D03*
X423546800Y-9525040D03*
D14*
X428626800Y-9525040D03*
D15*
X424816800Y-6985040D03*
X431166800Y-4445040D03*
D13*
X395605000Y-47625000D03*
X385445000Y-47625000D03*
D14*
X390525000Y-47625000D03*
D15*
X386715000Y-45085000D03*
X393065000Y-42545000D03*
D13*
X224155920Y-47625200D03*
X213995920Y-47625200D03*
D14*
X219075920Y-47625200D03*
D15*
X215265920Y-45085200D03*
X221615920Y-42545200D03*
D13*
X62230000Y-66675000D03*
X52070000Y-66675000D03*
D14*
X57150000Y-66675000D03*
D15*
X53340000Y-64135000D03*
X59690000Y-61595000D03*
D13*
X309880000Y-66675000D03*
X299720000Y-66675000D03*
D14*
X304800000Y-66675000D03*
D15*
X300990000Y-64135000D03*
X307340000Y-61595000D03*
D13*
X414655000Y-66675000D03*
X404495000Y-66675000D03*
D14*
X409575000Y-66675000D03*
D15*
X405765000Y-64135000D03*
X412115000Y-61595000D03*
D13*
X21748750Y-85725000D03*
X11588750Y-85725000D03*
D14*
X16668750Y-85725000D03*
D15*
X12858750Y-83185000D03*
X19208750Y-80645000D03*
D13*
X328930000Y-104775000D03*
X318770000Y-104775000D03*
D14*
X323850000Y-104775000D03*
D15*
X320040000Y-102235000D03*
X326390000Y-99695000D03*
D13*
X209867500Y-104775000D03*
X199707500Y-104775000D03*
D14*
X204787500Y-104775000D03*
D15*
X200977500Y-102235000D03*
X207327500Y-99695000D03*
D14*
X265588750Y-64211201D03*
X265588750Y-88087201D03*
D16*
X280828750Y-64211201D03*
X280828750Y-88087201D03*
D13*
X278923750Y-76149201D03*
X268763750Y-76149201D03*
D14*
X273843750Y-76149201D03*
D15*
X270033750Y-73609201D03*
X276383750Y-71069201D03*
D13*
X157480000Y-9525000D03*
X147320000Y-9525000D03*
D14*
X152400000Y-9525000D03*
D15*
X148590000Y-6985000D03*
X154940000Y-4445000D03*
D13*
X14605008Y-9525008D03*
X4445008Y-9525008D03*
D14*
X9525008Y-9525008D03*
D15*
X5715008Y-6985008D03*
X12065008Y-4445008D03*
D13*
X52705200Y-9525000D03*
X42545200Y-9525000D03*
D14*
X47625200Y-9525000D03*
D15*
X43815200Y-6985000D03*
X50165200Y-4445000D03*
D13*
X71755000Y-9525000D03*
X61595000Y-9525000D03*
D14*
X66675000Y-9525000D03*
D15*
X62865000Y-6985000D03*
X69215000Y-4445000D03*
D13*
X90805360Y-9525000D03*
X80645360Y-9525000D03*
D14*
X85725360Y-9525000D03*
D15*
X81915360Y-6985000D03*
X88265360Y-4445000D03*
D13*
X109855440Y-9525000D03*
X99695440Y-9525000D03*
D14*
X104775440Y-9525000D03*
D15*
X100965440Y-6985000D03*
X107315440Y-4445000D03*
D13*
X138430000Y-9525000D03*
X128270000Y-9525000D03*
D14*
X133350000Y-9525000D03*
D15*
X129540000Y-6985000D03*
X135890000Y-4445000D03*
D13*
X176530000Y-9525000D03*
X166370000Y-9525000D03*
D14*
X171450000Y-9525000D03*
D15*
X167640000Y-6985000D03*
X173990000Y-4445000D03*
D13*
X195580000Y-9525000D03*
X185420000Y-9525000D03*
D14*
X190500000Y-9525000D03*
D15*
X186690000Y-6985000D03*
X193040000Y-4445000D03*
D13*
X224155000Y-9525000D03*
X213995000Y-9525000D03*
D14*
X219075000Y-9525000D03*
D15*
X215265000Y-6985000D03*
X221615000Y-4445000D03*
D13*
X262255000Y-9525000D03*
X252095000Y-9525000D03*
D14*
X257175000Y-9525000D03*
D15*
X253365000Y-6985000D03*
X259715000Y-4445000D03*
D13*
X281305000Y-9525000D03*
X271145000Y-9525000D03*
D14*
X276225000Y-9525000D03*
D15*
X272415000Y-6985000D03*
X278765000Y-4445000D03*
D13*
X328931360Y-9525040D03*
X318771360Y-9525040D03*
D14*
X323851360Y-9525040D03*
D15*
X320041360Y-6985040D03*
X326391360Y-4445040D03*
D13*
X347980000Y-9525000D03*
X337820000Y-9525000D03*
D14*
X342900000Y-9525000D03*
D15*
X339090000Y-6985000D03*
X345440000Y-4445000D03*
D13*
X14605040Y-47625000D03*
X4445040Y-47625000D03*
D14*
X9525040Y-47625000D03*
D15*
X5715040Y-45085000D03*
X12065040Y-42545000D03*
D13*
X33655000Y-47625000D03*
X23495000Y-47625000D03*
D14*
X28575000Y-47625000D03*
D15*
X24765000Y-45085000D03*
X31115000Y-42545000D03*
D13*
X52705200Y-47625200D03*
X42545200Y-47625200D03*
D14*
X47625200Y-47625200D03*
D15*
X43815200Y-45085200D03*
X50165200Y-42545200D03*
D13*
X71755280Y-47625200D03*
X61595280Y-47625200D03*
D14*
X66675280Y-47625200D03*
D15*
X62865280Y-45085200D03*
X69215280Y-42545200D03*
D13*
X90805360Y-47625200D03*
X80645360Y-47625200D03*
D14*
X85725360Y-47625200D03*
D15*
X81915360Y-45085200D03*
X88265360Y-42545200D03*
D13*
X109855440Y-47625200D03*
X99695440Y-47625200D03*
D14*
X104775440Y-47625200D03*
D15*
X100965440Y-45085200D03*
X107315440Y-42545200D03*
D13*
X128905520Y-47625200D03*
X118745520Y-47625200D03*
D14*
X123825520Y-47625200D03*
D15*
X120015520Y-45085200D03*
X126365520Y-42545200D03*
D13*
X147955000Y-47625000D03*
X137795000Y-47625000D03*
D14*
X142875000Y-47625000D03*
D15*
X139065000Y-45085000D03*
X145415000Y-42545000D03*
D13*
X167005680Y-47625200D03*
X156845680Y-47625200D03*
D14*
X161925680Y-47625200D03*
D15*
X158115680Y-45085200D03*
X164465680Y-42545200D03*
D13*
X186055000Y-47625200D03*
X175895000Y-47625200D03*
D14*
X180975000Y-47625200D03*
D15*
X177165000Y-45085200D03*
X183515000Y-42545200D03*
D13*
X205105840Y-47625200D03*
X194945840Y-47625200D03*
D14*
X200025840Y-47625200D03*
D15*
X196215840Y-45085200D03*
X202565840Y-42545200D03*
D13*
X243206000Y-47625000D03*
X233046000Y-47625000D03*
D14*
X238126000Y-47625000D03*
D15*
X234316000Y-45085000D03*
X240666000Y-42545000D03*
D13*
X262256080Y-47625200D03*
X252096080Y-47625200D03*
D14*
X257176080Y-47625200D03*
D15*
X253366080Y-45085200D03*
X259716080Y-42545200D03*
D14*
X278638000Y-55880000D03*
X254762000Y-55880000D03*
D16*
X278638000Y-40640000D03*
X254762000Y-40640000D03*
D13*
X271780000Y-47625000D03*
X261620000Y-47625000D03*
D14*
X266700000Y-47625000D03*
D15*
X262890000Y-45085000D03*
X269240000Y-42545000D03*
D13*
X309880000Y-47625000D03*
X299720000Y-47625000D03*
D14*
X304800000Y-47625000D03*
D15*
X300990000Y-45085000D03*
X307340000Y-42545000D03*
D13*
X328930000Y-47625000D03*
X318770000Y-47625000D03*
D14*
X323850000Y-47625000D03*
D15*
X320040000Y-45085000D03*
X326390000Y-42545000D03*
D13*
X347980000Y-47625000D03*
X337820000Y-47625000D03*
D14*
X342900000Y-47625000D03*
D15*
X339090000Y-45085000D03*
X345440000Y-42545000D03*
D13*
X376555000Y-47625000D03*
X366395000Y-47625000D03*
D14*
X371475000Y-47625000D03*
D15*
X367665000Y-45085000D03*
X374015000Y-42545000D03*
D13*
X414655000Y-47625000D03*
X404495000Y-47625000D03*
D14*
X409575000Y-47625000D03*
D15*
X405765000Y-45085000D03*
X412115000Y-42545000D03*
D13*
X433705000Y-47625000D03*
X423545000Y-47625000D03*
D14*
X428625000Y-47625000D03*
D15*
X424815000Y-45085000D03*
X431165000Y-42545000D03*
D13*
X19367500Y-66675000D03*
X9207500Y-66675000D03*
D14*
X14287500Y-66675000D03*
D15*
X10477500Y-64135000D03*
X16827500Y-61595000D03*
D13*
X43180000Y-66675000D03*
X33020000Y-66675000D03*
D14*
X38100000Y-66675000D03*
D15*
X34290000Y-64135000D03*
X40640000Y-61595000D03*
D13*
X81280000Y-66675000D03*
X71120000Y-66675000D03*
D14*
X76200000Y-66675000D03*
D15*
X72390000Y-64135000D03*
X78740000Y-61595000D03*
D13*
X100330000Y-66675000D03*
X90170000Y-66675000D03*
D14*
X95250000Y-66675000D03*
D15*
X91440000Y-64135000D03*
X97790000Y-61595000D03*
D13*
X119380000Y-66675000D03*
X109220000Y-66675000D03*
D14*
X114300000Y-66675000D03*
D15*
X110490000Y-64135000D03*
X116840000Y-61595000D03*
D13*
X138430000Y-66675000D03*
X128270000Y-66675000D03*
D14*
X133350000Y-66675000D03*
D15*
X129540000Y-64135000D03*
X135890000Y-61595000D03*
D13*
X157480000Y-66675000D03*
X147320000Y-66675000D03*
D14*
X152400000Y-66675000D03*
D15*
X148590000Y-64135000D03*
X154940000Y-61595000D03*
D13*
X176530000Y-66675000D03*
X166370000Y-66675000D03*
D14*
X171450000Y-66675000D03*
D15*
X167640000Y-64135000D03*
X173990000Y-61595000D03*
D13*
X195580000Y-66675000D03*
X185420000Y-66675000D03*
D14*
X190500000Y-66675000D03*
D15*
X186690000Y-64135000D03*
X193040000Y-61595000D03*
D13*
X214630000Y-66675000D03*
X204470000Y-66675000D03*
D14*
X209550000Y-66675000D03*
D15*
X205740000Y-64135000D03*
X212090000Y-61595000D03*
D13*
X233680000Y-66675000D03*
X223520000Y-66675000D03*
D14*
X228600000Y-66675000D03*
D15*
X224790000Y-64135000D03*
X231140000Y-61595000D03*
D13*
X252730000Y-66675000D03*
X242570000Y-66675000D03*
D14*
X247650000Y-66675000D03*
D15*
X243840000Y-64135000D03*
X250190000Y-61595000D03*
D13*
X276542500Y-66675000D03*
X266382500Y-66675000D03*
D14*
X271462500Y-66675000D03*
D15*
X267652500Y-64135000D03*
X274002500Y-61595000D03*
D13*
X328930000Y-66675000D03*
X318770000Y-66675000D03*
D14*
X323850000Y-66675000D03*
D15*
X320040000Y-64135000D03*
X326390000Y-61595000D03*
D13*
X347980000Y-66675000D03*
X337820000Y-66675000D03*
D14*
X342900000Y-66675000D03*
D15*
X339090000Y-64135000D03*
X345440000Y-61595000D03*
D13*
X376555000Y-66675000D03*
X366395000Y-66675000D03*
D14*
X371475000Y-66675000D03*
D15*
X367665000Y-64135000D03*
X374015000Y-61595000D03*
D13*
X395605000Y-66675000D03*
X385445000Y-66675000D03*
D14*
X390525000Y-66675000D03*
D15*
X386715000Y-64135000D03*
X393065000Y-61595000D03*
D13*
X433705000Y-66675000D03*
X423545000Y-66675000D03*
D14*
X428625000Y-66675000D03*
D15*
X424815000Y-64135000D03*
X431165000Y-61595000D03*
D13*
X47942500Y-85725000D03*
X37782500Y-85725000D03*
D14*
X42862500Y-85725000D03*
D15*
X39052500Y-83185000D03*
X45402500Y-80645000D03*
D13*
X66992500Y-85725000D03*
X56832500Y-85725000D03*
D14*
X61912500Y-85725000D03*
D15*
X58102500Y-83185000D03*
X64452500Y-80645000D03*
D13*
X86042500Y-85725000D03*
X75882500Y-85725000D03*
D14*
X80962500Y-85725000D03*
D15*
X77152500Y-83185000D03*
X83502500Y-80645000D03*
D13*
X105092500Y-85725000D03*
X94932500Y-85725000D03*
D14*
X100012500Y-85725000D03*
D15*
X96202500Y-83185000D03*
X102552500Y-80645000D03*
D13*
X124142500Y-85725000D03*
X113982500Y-85725000D03*
D14*
X119062500Y-85725000D03*
D15*
X115252500Y-83185000D03*
X121602500Y-80645000D03*
D13*
X143192500Y-85725000D03*
X133032500Y-85725000D03*
D14*
X138112500Y-85725000D03*
D15*
X134302500Y-83185000D03*
X140652500Y-80645000D03*
D13*
X162242500Y-85725000D03*
X152082500Y-85725000D03*
D14*
X157162500Y-85725000D03*
D15*
X153352500Y-83185000D03*
X159702500Y-80645000D03*
D13*
X181292500Y-85725000D03*
X171132500Y-85725000D03*
D14*
X176212500Y-85725000D03*
D15*
X172402500Y-83185000D03*
X178752500Y-80645000D03*
D13*
X200342500Y-85725000D03*
X190182500Y-85725000D03*
D14*
X195262500Y-85725000D03*
D15*
X191452500Y-83185000D03*
X197802500Y-80645000D03*
D13*
X219392500Y-85725000D03*
X209232500Y-85725000D03*
D14*
X214312500Y-85725000D03*
D15*
X210502500Y-83185000D03*
X216852500Y-80645000D03*
D13*
X238442500Y-85725000D03*
X228282500Y-85725000D03*
D14*
X233362500Y-85725000D03*
D15*
X229552500Y-83185000D03*
X235902500Y-80645000D03*
D14*
X276256750Y-93980000D03*
X252380750Y-93980000D03*
D16*
X276256750Y-78740000D03*
X252380750Y-78740000D03*
D13*
X269398750Y-85725000D03*
X259238750Y-85725000D03*
D14*
X264318750Y-85725000D03*
D15*
X260508750Y-83185000D03*
X266858750Y-80645000D03*
D13*
X376555000Y-85725000D03*
X366395000Y-85725000D03*
D14*
X371475000Y-85725000D03*
D15*
X367665000Y-83185000D03*
X374015000Y-80645000D03*
D13*
X395605000Y-85725000D03*
X385445000Y-85725000D03*
D14*
X390525000Y-85725000D03*
D15*
X386715000Y-83185000D03*
X393065000Y-80645000D03*
D13*
X414655000Y-85725000D03*
X404495000Y-85725000D03*
D14*
X409575000Y-85725000D03*
D15*
X405765000Y-83185000D03*
X412115000Y-80645000D03*
D14*
X436880000Y-64262000D03*
X436880000Y-88138000D03*
D16*
X421640000Y-64262000D03*
X421640000Y-88138000D03*
D13*
X433705000Y-76200000D03*
X423545000Y-76200000D03*
D14*
X428625000Y-76200000D03*
D15*
X424815000Y-73660000D03*
X431165000Y-71120000D03*
D14*
X33369250Y-113030000D03*
X9493250Y-113030000D03*
D16*
X33369250Y-97790000D03*
X9493250Y-97790000D03*
D13*
X26511250Y-104775000D03*
X16351250Y-104775000D03*
D14*
X21431250Y-104775000D03*
D15*
X17621250Y-102235000D03*
X23971250Y-99695000D03*
D13*
X38417500Y-104775000D03*
X28257500Y-104775000D03*
D14*
X33337500Y-104775000D03*
D15*
X29527500Y-102235000D03*
X35877500Y-99695000D03*
D13*
X57467500Y-104775000D03*
X47307500Y-104775000D03*
D14*
X52387500Y-104775000D03*
D15*
X48577500Y-102235000D03*
X54927500Y-99695000D03*
D13*
X76517500Y-104775000D03*
X66357500Y-104775000D03*
D14*
X71437500Y-104775000D03*
D15*
X67627500Y-102235000D03*
X73977500Y-99695000D03*
D13*
X95567500Y-104775000D03*
X85407500Y-104775000D03*
D14*
X90487500Y-104775000D03*
D15*
X86677500Y-102235000D03*
X93027500Y-99695000D03*
D13*
X114617500Y-104775000D03*
X104457500Y-104775000D03*
D14*
X109537500Y-104775000D03*
D15*
X105727500Y-102235000D03*
X112077500Y-99695000D03*
D13*
X133667500Y-104775000D03*
X123507500Y-104775000D03*
D14*
X128587500Y-104775000D03*
D15*
X124777500Y-102235000D03*
X131127500Y-99695000D03*
D13*
X152717500Y-104775000D03*
X142557500Y-104775000D03*
D14*
X147637500Y-104775000D03*
D15*
X143827500Y-102235000D03*
X150177500Y-99695000D03*
D13*
X171767500Y-104775000D03*
X161607500Y-104775000D03*
D14*
X166687500Y-104775000D03*
D15*
X162877500Y-102235000D03*
X169227500Y-99695000D03*
D13*
X190817500Y-104775000D03*
X180657500Y-104775000D03*
D14*
X185737500Y-104775000D03*
D15*
X181927500Y-102235000D03*
X188277500Y-99695000D03*
D13*
X228917500Y-104775000D03*
X218757500Y-104775000D03*
D14*
X223837500Y-104775000D03*
D15*
X220027500Y-102235000D03*
X226377500Y-99695000D03*
D14*
X271494250Y-113030000D03*
X247618250Y-113030000D03*
D16*
X271494250Y-97790000D03*
X247618250Y-97790000D03*
D13*
X264636250Y-104775000D03*
X254476250Y-104775000D03*
D14*
X259556250Y-104775000D03*
D15*
X255746250Y-102235000D03*
X262096250Y-99695000D03*
D13*
X281305000Y-104775000D03*
X271145000Y-104775000D03*
D14*
X276225000Y-104775000D03*
D15*
X272415000Y-102235000D03*
X278765000Y-99695000D03*
D13*
X376555000Y-104775000D03*
X366395000Y-104775000D03*
D14*
X371475000Y-104775000D03*
D15*
X367665000Y-102235000D03*
X374015000Y-99695000D03*
D13*
X395605000Y-104775000D03*
X385445000Y-104775000D03*
D14*
X390525000Y-104775000D03*
D15*
X386715000Y-102235000D03*
X393065000Y-99695000D03*
D13*
X414655000Y-104775000D03*
X404495000Y-104775000D03*
D14*
X409575000Y-104775000D03*
D15*
X405765000Y-102235000D03*
X412115000Y-99695000D03*
D13*
X433705000Y-104775000D03*
X423545000Y-104775000D03*
D14*
X428625000Y-104775000D03*
D15*
X424815000Y-102235000D03*
X431165000Y-99695000D03*
D13*
X43180000Y-123825000D03*
X33020000Y-123825000D03*
D14*
X38100000Y-123825000D03*
D15*
X34290000Y-121285000D03*
X40640000Y-118745000D03*
D13*
X252730000Y-123825000D03*
X242570000Y-123825000D03*
D14*
X247650000Y-123825000D03*
D15*
X243840000Y-121285000D03*
X250190000Y-118745000D03*
D13*
X309880000Y-123825000D03*
X299720000Y-123825000D03*
D14*
X304800000Y-123825000D03*
D15*
X300990000Y-121285000D03*
X307340000Y-118745000D03*
D13*
X328930000Y-123825000D03*
X318770000Y-123825000D03*
D14*
X323850000Y-123825000D03*
D15*
X320040000Y-121285000D03*
X326390000Y-118745000D03*
D13*
X347980000Y-123825000D03*
X337820000Y-123825000D03*
D14*
X342900000Y-123825000D03*
D15*
X339090000Y-121285000D03*
X345440000Y-118745000D03*
D13*
X395605000Y-123825000D03*
X385445000Y-123825000D03*
D14*
X390525000Y-123825000D03*
D15*
X386715000Y-121285000D03*
X393065000Y-118745000D03*
D13*
X414655000Y-123825000D03*
X404495000Y-123825000D03*
D14*
X409575000Y-123825000D03*
D15*
X405765000Y-121285000D03*
X412115000Y-118745000D03*
D14*
X436880000Y-102362000D03*
X436880000Y-126238000D03*
D16*
X421640000Y-102362000D03*
X421640000Y-126238000D03*
D13*
X433705000Y-114300000D03*
X423545000Y-114300000D03*
D14*
X428625000Y-114300000D03*
D15*
X424815000Y-111760000D03*
X431165000Y-109220000D03*
D13*
X376555000Y-9525000D03*
X366395000Y-9525000D03*
D14*
X371475000Y-9525000D03*
D15*
X367665000Y-6985000D03*
X374015000Y-4445000D03*
D13*
X395606640Y-9525040D03*
X385446640Y-9525040D03*
D14*
X390526640Y-9525040D03*
D15*
X386716640Y-6985040D03*
X393066640Y-4445040D03*
D13*
X414656720Y-9525000D03*
X404496720Y-9525000D03*
D14*
X409576720Y-9525000D03*
D15*
X405766720Y-6985000D03*
X412116720Y-4445000D03*
D13*
X281305000Y-47625000D03*
X271145000Y-47625000D03*
D14*
X276225000Y-47625000D03*
D15*
X272415000Y-45085000D03*
X278765000Y-42545000D03*
D13*
X16986250Y-85725000D03*
X6826250Y-85725000D03*
D14*
X11906250Y-85725000D03*
D15*
X8096250Y-83185000D03*
X14446250Y-80645000D03*
D13*
X257492500Y-85725000D03*
X247332500Y-85725000D03*
D14*
X252412500Y-85725000D03*
D15*
X248602500Y-83185000D03*
X254952500Y-80645000D03*
D13*
X433705000Y-85725000D03*
X423545000Y-85725000D03*
D14*
X428625000Y-85725000D03*
D15*
X424815000Y-83185000D03*
X431165000Y-80645000D03*
D13*
X16986250Y-104775000D03*
X6826250Y-104775000D03*
D14*
X11906250Y-104775000D03*
D15*
X8096250Y-102235000D03*
X14446250Y-99695000D03*
D13*
X255111250Y-104775000D03*
X244951250Y-104775000D03*
D14*
X250031250Y-104775000D03*
D15*
X246221250Y-102235000D03*
X252571250Y-99695000D03*
D13*
X19367500Y-123825000D03*
X9207500Y-123825000D03*
D14*
X14287500Y-123825000D03*
D15*
X10477500Y-121285000D03*
X16827500Y-118745000D03*
D13*
X66992500Y-123825000D03*
X56832500Y-123825000D03*
D14*
X61912500Y-123825000D03*
D15*
X58102500Y-121285000D03*
X64452500Y-118745000D03*
D14*
X200056750Y-132080000D03*
X85693250Y-132080000D03*
D16*
X200056750Y-116840000D03*
X85693250Y-116840000D03*
D13*
X147955000Y-123825000D03*
X137795000Y-123825000D03*
D14*
X142875000Y-123825000D03*
D15*
X139065000Y-121285000D03*
X145415000Y-118745000D03*
D13*
X228917500Y-123825000D03*
X218757500Y-123825000D03*
D14*
X223837500Y-123825000D03*
D15*
X220027500Y-121285000D03*
X226377500Y-118745000D03*
D13*
X276542500Y-123825000D03*
X266382500Y-123825000D03*
D14*
X271462500Y-123825000D03*
D15*
X267652500Y-121285000D03*
X274002500Y-118745000D03*
D13*
X207486250Y-123825000D03*
X197326250Y-123825000D03*
D14*
X202406250Y-123825000D03*
D15*
X198596250Y-121285000D03*
X204946250Y-118745000D03*
D14*
X181006750Y-132080000D03*
X80930750Y-132080000D03*
D16*
X181006750Y-116840000D03*
X80930750Y-116840000D03*
D13*
X136048750Y-123825000D03*
X125888750Y-123825000D03*
D14*
X130968750Y-123825000D03*
D15*
X127158750Y-121285000D03*
X133508750Y-118745000D03*
D13*
X231298750Y-123825000D03*
X221138750Y-123825000D03*
D14*
X226218750Y-123825000D03*
D15*
X222408750Y-121285000D03*
X228758750Y-118745000D03*
D13*
X255111250Y-123825000D03*
X244951250Y-123825000D03*
D14*
X250031250Y-123825000D03*
D15*
X246221250Y-121285000D03*
X252571250Y-118745000D03*
D13*
X278923750Y-123825000D03*
X268763750Y-123825000D03*
D14*
X273843750Y-123825000D03*
D15*
X270033750Y-121285000D03*
X276383750Y-118745000D03*
D13*
X433705000Y-123825000D03*
X423545000Y-123825000D03*
D14*
X428625000Y-123825000D03*
D15*
X424815000Y-121285000D03*
X431165000Y-118745000D03*
D13*
X16986260Y-123825104D03*
X6826260Y-123825104D03*
D14*
X11906260Y-123825104D03*
D15*
X8096260Y-121285104D03*
X14446260Y-118745104D03*
D13*
X40798750Y-123825000D03*
X30638750Y-123825000D03*
D14*
X35718750Y-123825000D03*
D15*
X31908750Y-121285000D03*
X38258750Y-118745000D03*
D13*
X64611250Y-123825000D03*
X54451250Y-123825000D03*
D14*
X59531250Y-123825000D03*
D15*
X55721250Y-121285000D03*
X62071250Y-118745000D03*
D14*
X392938000Y-132080000D03*
X369062000Y-132080000D03*
D16*
X392938000Y-116840000D03*
X369062000Y-116840000D03*
D13*
X386080000Y-123825000D03*
X375920000Y-123825000D03*
D14*
X381000000Y-123825000D03*
D15*
X377190000Y-121285000D03*
X383540000Y-118745000D03*
D13*
X376555000Y-123825000D03*
X366395000Y-123825000D03*
D14*
X371475000Y-123825000D03*
D15*
X367665000Y-121285000D03*
X374015000Y-118745000D03*
D17*
X380166885Y11310947D03*
X382706885Y11310947D03*
X385246885Y11310947D03*
X387786885Y11310947D03*
D18*
X395287832Y10120321D03*
D19*
X2381252Y-123825104D03*
D20*
X358378426Y11129695D03*
X358378426Y6729695D03*
X302419004Y11129695D03*
X302419004Y6729695D03*
D21*
X103730000Y-121285000D03*
D22*
X106270000Y-121285000D03*
X103730000Y-123825000D03*
X106270000Y-123825000D03*
X103730000Y-126365000D03*
X106270000Y-126365000D03*
D23*
X373181877Y-13692199D03*
D24*
X375721877Y-13692199D03*
D23*
X398780336Y-13692199D03*
D24*
X401320336Y-13692199D03*
X426918795Y-13692199D03*
D23*
X424378795Y-13692199D03*
D25*
X113100000Y-126975000D03*
X113100000Y-120675000D03*
X116900000Y-126975000D03*
X116900000Y-120675000D03*
D26*
X49410979Y-28575024D03*
D27*
X34528154Y-28575024D03*
X144065746Y-28575024D03*
X290512744Y-28575024D03*
D28*
X389334702Y-28575024D03*
D27*
X404217527Y-28575024D03*
D19*
X358973739Y-95250080D03*
X79176629Y-95250080D03*
D29*
X372745312Y-52705040D03*
D30*
X370205312Y-52705040D03*
X15398764Y-90805072D03*
D29*
X17938764Y-90805072D03*
X13176260Y-90805072D03*
D30*
X10636260Y-90805072D03*
X322581360Y-14605040D03*
D29*
X325121360Y-14605040D03*
D20*
X202587672Y8929695D03*
X206987672Y8929695D03*
M02*
