G04 #@! TF.GenerationSoftware,KiCad,Pcbnew,5.1.6*
G04 #@! TF.CreationDate,2020-10-03T15:38:36+02:00*
G04 #@! TF.ProjectId,gh80-3003,67683830-2d33-4303-9033-2e6b69636164,rev?*
G04 #@! TF.SameCoordinates,Original*
G04 #@! TF.FileFunction,Profile,NP*
%FSLAX46Y46*%
G04 Gerber Fmt 4.6, Leading zero omitted, Abs format (unit mm)*
G04 Created by KiCad (PCBNEW 5.1.6) date 2020-10-03 15:38:36*
%MOMM*%
%LPD*%
G01*
G04 APERTURE LIST*
G04 #@! TA.AperFunction,Profile*
%ADD10C,0.100000*%
G04 #@! TD*
G04 APERTURE END LIST*
D10*
X439340994Y2976565D02*
X404812840Y2976565D01*
X439340994Y2976565D02*
G75*
G02*
X441126933Y1190626I0J-1785939D01*
G01*
X403026901Y4762504D02*
X403026901Y11906260D01*
X404812840Y2976565D02*
G75*
G02*
X403026901Y4762504I0J1785939D01*
G01*
X295275248Y13692199D02*
X-1190626Y13692199D01*
X353615922Y13692199D02*
X353615922Y4167191D01*
X352425296Y2976565D02*
G75*
G03*
X353615922Y4167191I0J1190626D01*
G01*
X352425296Y2976565D02*
X308372134Y2976565D01*
X401240962Y13692199D02*
X365522182Y13692199D01*
X307181508Y13692198D02*
G75*
G03*
X305990882Y14882824I-1190626J0D01*
G01*
X307181440Y13692192D02*
X307181440Y4167191D01*
X307181508Y4167191D02*
G75*
G03*
X308372134Y2976565I1190626J0D01*
G01*
X305990815Y14882817D02*
X296465815Y14882817D01*
X296465815Y14882817D02*
X295275190Y13692192D01*
X441126933Y1190626D02*
X441126933Y-134540738D01*
X354806548Y14882825D02*
G75*
G03*
X353615922Y13692199I0J-1190626D01*
G01*
X354806548Y14882825D02*
X364331556Y14882825D01*
X364331556Y14882825D02*
X365522182Y13692199D01*
X-2976565Y-134540738D02*
X-2976565Y11906260D01*
X439340994Y-136326677D02*
X-1190626Y-136326677D01*
X-2976565Y11906260D02*
G75*
G02*
X-1190626Y13692199I1785939J0D01*
G01*
X-1190626Y-136326677D02*
G75*
G02*
X-2976565Y-134540738I0J1785939D01*
G01*
X441126933Y-134540738D02*
G75*
G02*
X439340994Y-136326677I-1785939J0D01*
G01*
X401240962Y13692199D02*
G75*
G02*
X403026901Y11906260I0J-1785939D01*
G01*
M02*
