M48
; DRILL file {KiCad 5.1.6} date Sat Oct  3 15:38:39 2020
; FORMAT={-:-/ absolute / inch / decimal}
; #@! TF.CreationDate,2020-10-03T15:38:39+02:00
; #@! TF.GenerationSoftware,Kicad,Pcbnew,5.1.6
; #@! TF.FileFunction,Plated,1,2,PTH
FMAT,2
INCH
T1C0.0157
T2C0.0300
T3C0.0335
T4C0.0354
T5C0.0390
T6C0.0590
T7C0.1181
%
G90
G05
T1
X0.75Y-0.525
X0.75Y-2.025
X0.9375Y-5.025
X1.125Y-2.775
X1.32Y-3.525
X1.5Y-2.025
X1.6406Y-4.275
X1.735Y-3.985
X1.875Y-5.025
X1.875Y-2.775
X2.065Y-3.525
X2.25Y-0.525
X2.25Y-2.025
X2.435Y-4.275
X2.625Y-2.775
X2.8125Y-5.025
X2.815Y-3.525
X3.0Y-0.525
X3.0Y-2.025
X3.1875Y-4.275
X3.375Y-2.775
X3.4688Y0.0039
X3.5625Y-3.5291
X3.7344Y-1.2656
X3.75Y-0.525
X3.75Y-2.025
X3.9375Y-4.275
X4.125Y-2.775
X4.3125Y-3.525
X4.4375Y-1.3125
X4.5Y-2.025
X4.5Y-0.525
X4.67Y-4.68
X4.685Y-4.275
X4.6863Y-0.0195
X4.72Y-4.5051
X4.83Y-3.75
X4.875Y-2.775
X5.065Y-3.525
X5.1641Y-1.3359
X5.25Y-2.025
X5.3426Y-0.0441
X5.435Y-4.275
X5.625Y-2.775
X5.625Y-0.525
X5.815Y-3.525
X5.8895Y-1.3605
X6.0Y-2.025
X6.0914Y-0.0727
X6.185Y-4.275
X6.375Y-2.775
X6.375Y-0.525
X6.565Y-3.525
X6.75Y-2.025
X6.8906Y-1.2297
X6.935Y-4.275
X7.125Y-2.775
X7.125Y-0.525
X7.315Y-3.525
X7.5Y-2.025
X7.685Y-4.275
X7.875Y-2.775
X7.875Y-0.525
X7.89Y0.36
X8.0156Y0.0703
X8.0625Y-3.525
X8.07Y0.47
X8.24Y0.36
X8.25Y-2.025
X8.435Y-4.275
X8.4375Y-5.025
X8.5781Y-4.4766
X8.625Y-2.775
X8.815Y-3.525
X9.0Y-0.525
X9.0Y-2.025
X9.1428Y-3.5272
X9.185Y-4.275
X9.375Y-2.775
X9.375Y-5.025
X9.5625Y-3.525
X9.725Y-2.025
X9.75Y-0.525
X10.125Y-2.775
X10.375Y-3.62
X10.5Y-0.525
X10.55Y-4.275
X11.2087Y-2.775
X11.25Y-0.525
X11.25Y-2.025
X11.25Y-3.525
X11.25Y-4.275
X11.3152Y-4.3371
X11.3203Y-2.9766
X11.3438Y-1.2971
X11.3438Y-1.4236
X11.345Y-1.35
X11.35Y-5.0
X11.4076Y-1.2696
X11.415Y-1.42
X11.4558Y-1.42
X11.5319Y-2.7988
X11.5496Y-2.0574
X11.5548Y0.1348
X11.56Y-3.19
X11.58Y0.165
X11.58Y-3.65
X11.625Y-0.5859
X11.6484Y-2.0859
X11.65Y-3.26
X11.65Y-3.71
X11.6503Y0.0703
X11.6536Y-2.8735
X11.6651Y0.1599
X11.6992Y0.2344
X11.83Y-3.165
X11.8472Y-0.9872
X11.88Y-3.79
X11.88Y-3.96
X11.91Y0.53
X11.91Y0.18
X11.9297Y-3.4069
X11.9297Y-3.6094
X12.005Y0.0762
X12.02Y0.35
X12.03Y-3.285
X12.11Y-3.79
X12.11Y-3.96
X12.128Y-3.6094
X12.14Y-3.355
X12.2578Y-3.0469
X12.28Y-3.92
X12.2813Y-3.6028
X12.2864Y-2.6257
X12.2864Y-2.9766
X12.3053Y-3.6697
X12.3055Y-3.4256
X12.34Y-3.85
X12.3529Y-3.5715
X12.375Y-0.625
X12.375Y-2.025
X12.375Y-2.775
X12.41Y-3.16
X12.4173Y-3.5394
X12.4453Y-3.5103
X12.48Y-3.22
X12.69Y-3.63
X12.76Y-3.47
X12.76Y-3.57
X12.9591Y-0.6809
X13.0433Y-0.0157
X13.125Y-2.775
X13.125Y-2.025
X13.125Y-0.535
X13.125Y-4.275
X13.32Y-3.225
X13.715Y-0.135
X13.785Y-3.22
X13.875Y-2.775
X13.875Y-0.535
X13.875Y-2.025
X13.9138Y-3.3762
X13.9341Y-0.6509
X13.9341Y-2.1094
X13.98Y-0.785
X13.98Y-0.96
X13.99Y0.36
X14.02Y-0.135
X14.038Y-0.314
X14.084Y-0.316
X14.1Y-0.132
X14.11Y0.53
X14.11Y0.18
X14.135Y-0.9205
X14.15Y-0.36
X14.15Y-0.41
X14.15Y-0.46
X14.25Y-2.025
X14.25Y-2.775
X14.25Y-3.525
X14.25Y-4.275
X14.2511Y0.0191
X14.2519Y0.0762
X14.2871Y0.0585
X14.3464Y-0.47
X14.4609Y-0.0207
X14.5547Y0.322
X14.652Y0.352
X14.7656Y-0.8635
X14.8594Y0.2886
X14.87Y0.45
X14.87Y-0.47
X14.8829Y0.322
X14.9069Y0.3533
X14.955Y-0.225
X15.0Y-2.775
X15.0Y-2.025
X15.0Y-3.525
X15.0Y-4.275
X15.2086Y-0.0453
X15.4751Y-3.4922
X15.6352Y-0.7094
X15.705Y-2.49
X15.705Y-3.23
X15.705Y-3.975
X15.75Y-2.025
X15.7721Y-0.8867
X15.7969Y-2.775
X15.7969Y-3.525
X15.7969Y-4.275
X15.961Y-0.0664
X16.4024Y-0.4688
X16.5Y-2.025
X16.6406Y-0.7031
X16.7098Y-0.0949
X16.7813Y-0.9141
T2
X14.9672Y0.4453
X15.0672Y0.4453
X15.1672Y0.4453
X15.2672Y0.4453
T3
X4.0839Y-4.775
X4.0839Y-4.875
X4.0839Y-4.975
X4.1839Y-4.775
X4.1839Y-4.875
X4.1839Y-4.975
T4
X15.7Y-0.5391
X15.8Y-0.5391
X14.6922Y-0.5391
X14.7922Y-0.5391
X16.7078Y-0.5391
X16.8078Y-0.5391
T5
X14.575Y-2.075
X14.675Y-2.075
X12.7001Y-0.575
X12.8001Y-0.575
X0.4188Y-3.575
X0.5188Y-3.575
X0.6063Y-3.575
X0.7063Y-3.575
T6
X9.6937Y-4.775
X9.9437Y-4.675
X3.975Y-1.775
X4.225Y-1.675
X4.35Y-2.525
X4.6Y-2.425
X15.975Y-1.775
X16.225Y-1.675
X6.0375Y-3.275
X6.2875Y-3.175
X8.7562Y-4.775
X9.0062Y-4.675
X10.725Y-0.275
X10.975Y-0.175
X14.475Y-4.775
X14.725Y-4.675
X16.725Y-2.525
X16.975Y-2.425
X3.225Y-1.775
X3.475Y-1.675
X15.975Y-3.275
X16.225Y-3.175
X9.225Y-0.275
X9.475Y-0.175
X8.1Y-2.525
X8.35Y-2.425
X15.975Y-4.775
X16.225Y-4.675
X3.225Y-0.275
X3.475Y-0.175
X10.2562Y-3.275
X10.5062Y-3.175
X9.975Y-0.275
X10.225Y-0.175
X4.9125Y-4.025
X5.1625Y-3.925
X14.475Y-1.775
X14.725Y-1.675
X15.225Y-4.775
X15.475Y-4.675
X16.725Y-4.4
X16.975Y-4.3
X8.475Y-1.775
X8.725Y-1.675
X5.475Y-4.775
X5.725Y-4.675
X5.2875Y-3.275
X5.5375Y-3.175
X13.35Y-4.775
X13.6Y-4.675
X2.2875Y-4.775
X2.5375Y-4.675
X15.225Y-1.775
X15.475Y-1.675
X7.9125Y-4.025
X8.1625Y-3.925
X9.975Y-1.775
X10.225Y-1.675
X12.6Y-4.775
X12.85Y-4.675
X15.225Y-2.525
X15.475Y-2.425
X0.4125Y-4.775
X0.6625Y-4.675
X2.475Y-1.775
X2.725Y-1.675
X4.5375Y-3.275
X4.7875Y-3.175
X15.225Y-3.275
X15.475Y-3.175
X3.6Y-2.525
X3.85Y-2.425
X7.35Y-2.525
X7.6Y-2.425
X11.85Y-4.775
X12.1Y-4.675
X11.85Y-2.525
X12.1Y-2.425
X8.475Y-0.275
X8.725Y-0.175
X4.1625Y-4.025
X4.4125Y-3.925
X10.6312Y-2.898
X10.8812Y-2.798
X13.35Y-1.775
X13.6Y-1.675
X10.0687Y-4.025
X10.3187Y-3.925
X14.475Y-2.525
X14.725Y-2.425
X9.7875Y-3.275
X10.0375Y-3.175
X0.3187Y-4.025
X0.5687Y-3.925
X3.7875Y-3.275
X4.0375Y-3.175
X2.85Y-2.525
X3.1Y-2.425
X9.6Y-4.775
X9.85Y-4.675
X10.35Y-1.775
X10.6Y-1.675
X0.3187Y-3.275
X0.5687Y-3.175
X2.475Y-0.275
X2.725Y-0.175
X9.0375Y-3.275
X9.2875Y-3.175
X16.725Y-3.275
X16.975Y-3.175
X9.6937Y-4.025
X9.9437Y-3.925
X10.725Y-1.775
X10.975Y-1.675
X14.85Y-4.775
X15.1Y-4.675
X15.975Y-2.525
X16.225Y-2.425
X3.0375Y-3.275
X3.2875Y-3.175
X14.475Y-3.275
X14.725Y-3.175
X6.6Y-2.525
X6.85Y-2.425
X5.0062Y-4.775
X5.2562Y-4.675
X7.35Y-0.275
X7.6Y-0.175
X3.4125Y-4.025
X3.6625Y-3.925
X12.6Y-1.775
X12.85Y-1.675
X8.6625Y-4.025
X8.9125Y-3.925
X1.35Y-4.775
X1.6Y-4.675
X9.225Y-1.775
X9.475Y-1.675
X13.35Y-2.525
X13.6Y-2.425
X2.1Y-2.525
X2.35Y-2.425
X1.725Y-1.775
X1.975Y-1.675
X1.35Y-2.525
X1.6Y-2.425
X16.725Y-4.025
X16.975Y-3.925
X10.5375Y-2.525
X10.7875Y-2.425
X1.725Y-0.275
X1.975Y-0.175
X8.2875Y-3.275
X8.5375Y-3.175
X2.1938Y-4.775
X2.4438Y-4.675
X11.85Y-1.775
X12.1Y-1.675
X0.6937Y-4.025
X0.9437Y-3.925
X12.6Y-2.525
X12.85Y-2.425
X15.975Y-4.025
X16.225Y-3.925
X15.9751Y-0.275
X16.2251Y-0.175
X2.2875Y-3.275
X2.5375Y-3.175
X1.2562Y-4.775
X1.5062Y-4.675
X10.5375Y-4.775
X10.7875Y-4.675
X5.85Y-2.525
X6.1Y-2.425
X15.225Y-4.025
X15.475Y-3.925
X7.8187Y-4.775
X8.0687Y-4.675
X0.3188Y-4.775
X0.5688Y-4.675
X6.6Y-0.275
X6.85Y-0.175
X2.6625Y-4.025
X2.9125Y-3.925
X6.975Y-1.775
X7.225Y-1.675
X11.8501Y-0.275
X12.1001Y-0.175
X13.35Y-0.275
X13.6Y-0.175
X7.1625Y-4.025
X7.4125Y-3.925
X14.475Y-4.025
X14.725Y-3.925
X15.2251Y-0.275
X15.4751Y-0.175
X7.725Y-1.775
X7.975Y-1.675
X0.225Y-1.775
X0.475Y-1.675
X16.725Y-4.775
X16.975Y-4.675
X0.975Y-1.775
X1.225Y-1.675
X0.4125Y-2.525
X0.6625Y-2.425
X9.6Y-2.525
X9.85Y-2.425
X12.6Y-4.025
X12.85Y-3.925
X0.225Y-0.275
X0.475Y-0.175
X7.5375Y-3.275
X7.7875Y-3.175
X1.9125Y-4.025
X2.1625Y-3.925
X6.225Y-1.775
X6.475Y-1.675
X14.475Y-0.275
X14.725Y-0.175
X8.6625Y-4.775
X8.9125Y-4.675
X5.1Y-2.525
X5.35Y-2.425
X6.7875Y-3.275
X7.0375Y-3.175
X5.1Y-0.275
X5.35Y-0.175
X10.6312Y-4.775
X10.8812Y-4.675
X16.7251Y-0.275
X16.9751Y-0.175
X12.6001Y-0.275
X12.8501Y-0.175
X6.4125Y-4.025
X6.6625Y-3.925
X10.725Y-4.025
X10.975Y-3.925
X1.5375Y-3.275
X1.7875Y-3.175
X16.725Y-1.775
X16.975Y-1.675
X16.725Y-2.9
X16.975Y-2.8
X0.5062Y-3.275
X0.7562Y-3.175
X4.725Y-1.775
X4.975Y-1.675
X8.85Y-2.525
X9.1Y-2.425
X5.85Y-0.275
X6.1Y-0.175
X3.975Y-0.275
X4.225Y-0.175
X1.1625Y-4.025
X1.4125Y-3.925
X5.475Y-1.775
X5.725Y-1.675
X5.6625Y-4.025
X5.9125Y-3.925
T7
G00X15.5625Y0.3788
M15
G01X15.5625Y0.4181
M16
G05
T0
M30
