G04 #@! TF.GenerationSoftware,KiCad,Pcbnew,5.1.6*
G04 #@! TF.CreationDate,2020-10-03T15:38:36+02:00*
G04 #@! TF.ProjectId,gh80-3003,67683830-2d33-4303-9033-2e6b69636164,rev?*
G04 #@! TF.SameCoordinates,Original*
G04 #@! TF.FileFunction,Soldermask,Top*
G04 #@! TF.FilePolarity,Negative*
%FSLAX46Y46*%
G04 Gerber Fmt 4.6, Leading zero omitted, Abs format (unit mm)*
G04 Created by KiCad (PCBNEW 5.1.6) date 2020-10-03 15:38:36*
%MOMM*%
%LPD*%
G01*
G04 APERTURE LIST*
%ADD10C,1.803800*%
%ADD11C,4.089800*%
%ADD12C,2.388000*%
%ADD13C,3.150000*%
%ADD14R,2.102000X3.102000*%
%ADD15O,4.102000X5.102000*%
%ADD16C,4.102000*%
%ADD17C,1.102000*%
%ADD18R,1.802000X1.802000*%
%ADD19O,1.802000X1.802000*%
%ADD20R,1.902000X1.902000*%
%ADD21C,1.902000*%
%ADD22R,1.102000X1.802000*%
%ADD23C,6.602000*%
%ADD24C,3.702000*%
%ADD25C,6.302000*%
%ADD26R,1.880000X1.880000*%
%ADD27C,1.880000*%
G04 APERTURE END LIST*
D10*
X309881280Y-9525000D03*
X299721280Y-9525000D03*
D11*
X304801280Y-9525000D03*
D12*
X300991280Y-6985000D03*
X307341280Y-4445000D03*
D10*
X243205000Y-9525000D03*
X233045000Y-9525000D03*
D11*
X238125000Y-9525000D03*
D12*
X234315000Y-6985000D03*
X240665000Y-4445000D03*
D10*
X433706800Y-9525040D03*
X423546800Y-9525040D03*
D11*
X428626800Y-9525040D03*
D12*
X424816800Y-6985040D03*
X431166800Y-4445040D03*
D10*
X395605000Y-47625000D03*
X385445000Y-47625000D03*
D11*
X390525000Y-47625000D03*
D12*
X386715000Y-45085000D03*
X393065000Y-42545000D03*
D10*
X224155920Y-47625200D03*
X213995920Y-47625200D03*
D11*
X219075920Y-47625200D03*
D12*
X215265920Y-45085200D03*
X221615920Y-42545200D03*
D10*
X62230000Y-66675000D03*
X52070000Y-66675000D03*
D11*
X57150000Y-66675000D03*
D12*
X53340000Y-64135000D03*
X59690000Y-61595000D03*
D10*
X309880000Y-66675000D03*
X299720000Y-66675000D03*
D11*
X304800000Y-66675000D03*
D12*
X300990000Y-64135000D03*
X307340000Y-61595000D03*
D10*
X414655000Y-66675000D03*
X404495000Y-66675000D03*
D11*
X409575000Y-66675000D03*
D12*
X405765000Y-64135000D03*
X412115000Y-61595000D03*
D10*
X21748750Y-85725000D03*
X11588750Y-85725000D03*
D11*
X16668750Y-85725000D03*
D12*
X12858750Y-83185000D03*
X19208750Y-80645000D03*
D10*
X328930000Y-104775000D03*
X318770000Y-104775000D03*
D11*
X323850000Y-104775000D03*
D12*
X320040000Y-102235000D03*
X326390000Y-99695000D03*
D10*
X209867500Y-104775000D03*
X199707500Y-104775000D03*
D11*
X204787500Y-104775000D03*
D12*
X200977500Y-102235000D03*
X207327500Y-99695000D03*
D11*
X265588750Y-64211201D03*
X265588750Y-88087201D03*
D13*
X280828750Y-64211201D03*
X280828750Y-88087201D03*
D10*
X278923750Y-76149201D03*
X268763750Y-76149201D03*
D11*
X273843750Y-76149201D03*
D12*
X270033750Y-73609201D03*
X276383750Y-71069201D03*
D10*
X157480000Y-9525000D03*
X147320000Y-9525000D03*
D11*
X152400000Y-9525000D03*
D12*
X148590000Y-6985000D03*
X154940000Y-4445000D03*
D10*
X14605008Y-9525008D03*
X4445008Y-9525008D03*
D11*
X9525008Y-9525008D03*
D12*
X5715008Y-6985008D03*
X12065008Y-4445008D03*
D10*
X52705200Y-9525000D03*
X42545200Y-9525000D03*
D11*
X47625200Y-9525000D03*
D12*
X43815200Y-6985000D03*
X50165200Y-4445000D03*
D10*
X71755000Y-9525000D03*
X61595000Y-9525000D03*
D11*
X66675000Y-9525000D03*
D12*
X62865000Y-6985000D03*
X69215000Y-4445000D03*
D10*
X90805360Y-9525000D03*
X80645360Y-9525000D03*
D11*
X85725360Y-9525000D03*
D12*
X81915360Y-6985000D03*
X88265360Y-4445000D03*
D10*
X109855440Y-9525000D03*
X99695440Y-9525000D03*
D11*
X104775440Y-9525000D03*
D12*
X100965440Y-6985000D03*
X107315440Y-4445000D03*
D10*
X138430000Y-9525000D03*
X128270000Y-9525000D03*
D11*
X133350000Y-9525000D03*
D12*
X129540000Y-6985000D03*
X135890000Y-4445000D03*
D10*
X176530000Y-9525000D03*
X166370000Y-9525000D03*
D11*
X171450000Y-9525000D03*
D12*
X167640000Y-6985000D03*
X173990000Y-4445000D03*
D10*
X195580000Y-9525000D03*
X185420000Y-9525000D03*
D11*
X190500000Y-9525000D03*
D12*
X186690000Y-6985000D03*
X193040000Y-4445000D03*
D10*
X224155000Y-9525000D03*
X213995000Y-9525000D03*
D11*
X219075000Y-9525000D03*
D12*
X215265000Y-6985000D03*
X221615000Y-4445000D03*
D10*
X262255000Y-9525000D03*
X252095000Y-9525000D03*
D11*
X257175000Y-9525000D03*
D12*
X253365000Y-6985000D03*
X259715000Y-4445000D03*
D10*
X281305000Y-9525000D03*
X271145000Y-9525000D03*
D11*
X276225000Y-9525000D03*
D12*
X272415000Y-6985000D03*
X278765000Y-4445000D03*
D10*
X328931360Y-9525040D03*
X318771360Y-9525040D03*
D11*
X323851360Y-9525040D03*
D12*
X320041360Y-6985040D03*
X326391360Y-4445040D03*
D10*
X347980000Y-9525000D03*
X337820000Y-9525000D03*
D11*
X342900000Y-9525000D03*
D12*
X339090000Y-6985000D03*
X345440000Y-4445000D03*
D10*
X14605040Y-47625000D03*
X4445040Y-47625000D03*
D11*
X9525040Y-47625000D03*
D12*
X5715040Y-45085000D03*
X12065040Y-42545000D03*
D10*
X33655000Y-47625000D03*
X23495000Y-47625000D03*
D11*
X28575000Y-47625000D03*
D12*
X24765000Y-45085000D03*
X31115000Y-42545000D03*
D10*
X52705200Y-47625200D03*
X42545200Y-47625200D03*
D11*
X47625200Y-47625200D03*
D12*
X43815200Y-45085200D03*
X50165200Y-42545200D03*
D10*
X71755280Y-47625200D03*
X61595280Y-47625200D03*
D11*
X66675280Y-47625200D03*
D12*
X62865280Y-45085200D03*
X69215280Y-42545200D03*
D10*
X90805360Y-47625200D03*
X80645360Y-47625200D03*
D11*
X85725360Y-47625200D03*
D12*
X81915360Y-45085200D03*
X88265360Y-42545200D03*
D10*
X109855440Y-47625200D03*
X99695440Y-47625200D03*
D11*
X104775440Y-47625200D03*
D12*
X100965440Y-45085200D03*
X107315440Y-42545200D03*
D10*
X128905520Y-47625200D03*
X118745520Y-47625200D03*
D11*
X123825520Y-47625200D03*
D12*
X120015520Y-45085200D03*
X126365520Y-42545200D03*
D10*
X147955000Y-47625000D03*
X137795000Y-47625000D03*
D11*
X142875000Y-47625000D03*
D12*
X139065000Y-45085000D03*
X145415000Y-42545000D03*
D10*
X167005680Y-47625200D03*
X156845680Y-47625200D03*
D11*
X161925680Y-47625200D03*
D12*
X158115680Y-45085200D03*
X164465680Y-42545200D03*
D10*
X186055000Y-47625200D03*
X175895000Y-47625200D03*
D11*
X180975000Y-47625200D03*
D12*
X177165000Y-45085200D03*
X183515000Y-42545200D03*
D10*
X205105840Y-47625200D03*
X194945840Y-47625200D03*
D11*
X200025840Y-47625200D03*
D12*
X196215840Y-45085200D03*
X202565840Y-42545200D03*
D10*
X243206000Y-47625000D03*
X233046000Y-47625000D03*
D11*
X238126000Y-47625000D03*
D12*
X234316000Y-45085000D03*
X240666000Y-42545000D03*
D10*
X262256080Y-47625200D03*
X252096080Y-47625200D03*
D11*
X257176080Y-47625200D03*
D12*
X253366080Y-45085200D03*
X259716080Y-42545200D03*
D11*
X278638000Y-55880000D03*
X254762000Y-55880000D03*
D13*
X278638000Y-40640000D03*
X254762000Y-40640000D03*
D10*
X271780000Y-47625000D03*
X261620000Y-47625000D03*
D11*
X266700000Y-47625000D03*
D12*
X262890000Y-45085000D03*
X269240000Y-42545000D03*
D10*
X309880000Y-47625000D03*
X299720000Y-47625000D03*
D11*
X304800000Y-47625000D03*
D12*
X300990000Y-45085000D03*
X307340000Y-42545000D03*
D10*
X328930000Y-47625000D03*
X318770000Y-47625000D03*
D11*
X323850000Y-47625000D03*
D12*
X320040000Y-45085000D03*
X326390000Y-42545000D03*
D10*
X347980000Y-47625000D03*
X337820000Y-47625000D03*
D11*
X342900000Y-47625000D03*
D12*
X339090000Y-45085000D03*
X345440000Y-42545000D03*
D10*
X376555000Y-47625000D03*
X366395000Y-47625000D03*
D11*
X371475000Y-47625000D03*
D12*
X367665000Y-45085000D03*
X374015000Y-42545000D03*
D10*
X414655000Y-47625000D03*
X404495000Y-47625000D03*
D11*
X409575000Y-47625000D03*
D12*
X405765000Y-45085000D03*
X412115000Y-42545000D03*
D10*
X433705000Y-47625000D03*
X423545000Y-47625000D03*
D11*
X428625000Y-47625000D03*
D12*
X424815000Y-45085000D03*
X431165000Y-42545000D03*
D10*
X19367500Y-66675000D03*
X9207500Y-66675000D03*
D11*
X14287500Y-66675000D03*
D12*
X10477500Y-64135000D03*
X16827500Y-61595000D03*
D10*
X43180000Y-66675000D03*
X33020000Y-66675000D03*
D11*
X38100000Y-66675000D03*
D12*
X34290000Y-64135000D03*
X40640000Y-61595000D03*
D10*
X81280000Y-66675000D03*
X71120000Y-66675000D03*
D11*
X76200000Y-66675000D03*
D12*
X72390000Y-64135000D03*
X78740000Y-61595000D03*
D10*
X100330000Y-66675000D03*
X90170000Y-66675000D03*
D11*
X95250000Y-66675000D03*
D12*
X91440000Y-64135000D03*
X97790000Y-61595000D03*
D10*
X119380000Y-66675000D03*
X109220000Y-66675000D03*
D11*
X114300000Y-66675000D03*
D12*
X110490000Y-64135000D03*
X116840000Y-61595000D03*
D10*
X138430000Y-66675000D03*
X128270000Y-66675000D03*
D11*
X133350000Y-66675000D03*
D12*
X129540000Y-64135000D03*
X135890000Y-61595000D03*
D10*
X157480000Y-66675000D03*
X147320000Y-66675000D03*
D11*
X152400000Y-66675000D03*
D12*
X148590000Y-64135000D03*
X154940000Y-61595000D03*
D10*
X176530000Y-66675000D03*
X166370000Y-66675000D03*
D11*
X171450000Y-66675000D03*
D12*
X167640000Y-64135000D03*
X173990000Y-61595000D03*
D10*
X195580000Y-66675000D03*
X185420000Y-66675000D03*
D11*
X190500000Y-66675000D03*
D12*
X186690000Y-64135000D03*
X193040000Y-61595000D03*
D10*
X214630000Y-66675000D03*
X204470000Y-66675000D03*
D11*
X209550000Y-66675000D03*
D12*
X205740000Y-64135000D03*
X212090000Y-61595000D03*
D10*
X233680000Y-66675000D03*
X223520000Y-66675000D03*
D11*
X228600000Y-66675000D03*
D12*
X224790000Y-64135000D03*
X231140000Y-61595000D03*
D10*
X252730000Y-66675000D03*
X242570000Y-66675000D03*
D11*
X247650000Y-66675000D03*
D12*
X243840000Y-64135000D03*
X250190000Y-61595000D03*
D10*
X276542500Y-66675000D03*
X266382500Y-66675000D03*
D11*
X271462500Y-66675000D03*
D12*
X267652500Y-64135000D03*
X274002500Y-61595000D03*
D10*
X328930000Y-66675000D03*
X318770000Y-66675000D03*
D11*
X323850000Y-66675000D03*
D12*
X320040000Y-64135000D03*
X326390000Y-61595000D03*
D10*
X347980000Y-66675000D03*
X337820000Y-66675000D03*
D11*
X342900000Y-66675000D03*
D12*
X339090000Y-64135000D03*
X345440000Y-61595000D03*
D10*
X376555000Y-66675000D03*
X366395000Y-66675000D03*
D11*
X371475000Y-66675000D03*
D12*
X367665000Y-64135000D03*
X374015000Y-61595000D03*
D10*
X395605000Y-66675000D03*
X385445000Y-66675000D03*
D11*
X390525000Y-66675000D03*
D12*
X386715000Y-64135000D03*
X393065000Y-61595000D03*
D10*
X433705000Y-66675000D03*
X423545000Y-66675000D03*
D11*
X428625000Y-66675000D03*
D12*
X424815000Y-64135000D03*
X431165000Y-61595000D03*
D10*
X47942500Y-85725000D03*
X37782500Y-85725000D03*
D11*
X42862500Y-85725000D03*
D12*
X39052500Y-83185000D03*
X45402500Y-80645000D03*
D10*
X66992500Y-85725000D03*
X56832500Y-85725000D03*
D11*
X61912500Y-85725000D03*
D12*
X58102500Y-83185000D03*
X64452500Y-80645000D03*
D10*
X86042500Y-85725000D03*
X75882500Y-85725000D03*
D11*
X80962500Y-85725000D03*
D12*
X77152500Y-83185000D03*
X83502500Y-80645000D03*
D10*
X105092500Y-85725000D03*
X94932500Y-85725000D03*
D11*
X100012500Y-85725000D03*
D12*
X96202500Y-83185000D03*
X102552500Y-80645000D03*
D10*
X124142500Y-85725000D03*
X113982500Y-85725000D03*
D11*
X119062500Y-85725000D03*
D12*
X115252500Y-83185000D03*
X121602500Y-80645000D03*
D10*
X143192500Y-85725000D03*
X133032500Y-85725000D03*
D11*
X138112500Y-85725000D03*
D12*
X134302500Y-83185000D03*
X140652500Y-80645000D03*
D10*
X162242500Y-85725000D03*
X152082500Y-85725000D03*
D11*
X157162500Y-85725000D03*
D12*
X153352500Y-83185000D03*
X159702500Y-80645000D03*
D10*
X181292500Y-85725000D03*
X171132500Y-85725000D03*
D11*
X176212500Y-85725000D03*
D12*
X172402500Y-83185000D03*
X178752500Y-80645000D03*
D10*
X200342500Y-85725000D03*
X190182500Y-85725000D03*
D11*
X195262500Y-85725000D03*
D12*
X191452500Y-83185000D03*
X197802500Y-80645000D03*
D10*
X219392500Y-85725000D03*
X209232500Y-85725000D03*
D11*
X214312500Y-85725000D03*
D12*
X210502500Y-83185000D03*
X216852500Y-80645000D03*
D10*
X238442500Y-85725000D03*
X228282500Y-85725000D03*
D11*
X233362500Y-85725000D03*
D12*
X229552500Y-83185000D03*
X235902500Y-80645000D03*
D11*
X276256750Y-93980000D03*
X252380750Y-93980000D03*
D13*
X276256750Y-78740000D03*
X252380750Y-78740000D03*
D10*
X269398750Y-85725000D03*
X259238750Y-85725000D03*
D11*
X264318750Y-85725000D03*
D12*
X260508750Y-83185000D03*
X266858750Y-80645000D03*
D10*
X376555000Y-85725000D03*
X366395000Y-85725000D03*
D11*
X371475000Y-85725000D03*
D12*
X367665000Y-83185000D03*
X374015000Y-80645000D03*
D10*
X395605000Y-85725000D03*
X385445000Y-85725000D03*
D11*
X390525000Y-85725000D03*
D12*
X386715000Y-83185000D03*
X393065000Y-80645000D03*
D10*
X414655000Y-85725000D03*
X404495000Y-85725000D03*
D11*
X409575000Y-85725000D03*
D12*
X405765000Y-83185000D03*
X412115000Y-80645000D03*
D11*
X436880000Y-64262000D03*
X436880000Y-88138000D03*
D13*
X421640000Y-64262000D03*
X421640000Y-88138000D03*
D10*
X433705000Y-76200000D03*
X423545000Y-76200000D03*
D11*
X428625000Y-76200000D03*
D12*
X424815000Y-73660000D03*
X431165000Y-71120000D03*
D11*
X33369250Y-113030000D03*
X9493250Y-113030000D03*
D13*
X33369250Y-97790000D03*
X9493250Y-97790000D03*
D10*
X26511250Y-104775000D03*
X16351250Y-104775000D03*
D11*
X21431250Y-104775000D03*
D12*
X17621250Y-102235000D03*
X23971250Y-99695000D03*
D10*
X38417500Y-104775000D03*
X28257500Y-104775000D03*
D11*
X33337500Y-104775000D03*
D12*
X29527500Y-102235000D03*
X35877500Y-99695000D03*
D10*
X57467500Y-104775000D03*
X47307500Y-104775000D03*
D11*
X52387500Y-104775000D03*
D12*
X48577500Y-102235000D03*
X54927500Y-99695000D03*
D10*
X76517500Y-104775000D03*
X66357500Y-104775000D03*
D11*
X71437500Y-104775000D03*
D12*
X67627500Y-102235000D03*
X73977500Y-99695000D03*
D10*
X95567500Y-104775000D03*
X85407500Y-104775000D03*
D11*
X90487500Y-104775000D03*
D12*
X86677500Y-102235000D03*
X93027500Y-99695000D03*
D10*
X114617500Y-104775000D03*
X104457500Y-104775000D03*
D11*
X109537500Y-104775000D03*
D12*
X105727500Y-102235000D03*
X112077500Y-99695000D03*
D10*
X133667500Y-104775000D03*
X123507500Y-104775000D03*
D11*
X128587500Y-104775000D03*
D12*
X124777500Y-102235000D03*
X131127500Y-99695000D03*
D10*
X152717500Y-104775000D03*
X142557500Y-104775000D03*
D11*
X147637500Y-104775000D03*
D12*
X143827500Y-102235000D03*
X150177500Y-99695000D03*
D10*
X171767500Y-104775000D03*
X161607500Y-104775000D03*
D11*
X166687500Y-104775000D03*
D12*
X162877500Y-102235000D03*
X169227500Y-99695000D03*
D10*
X190817500Y-104775000D03*
X180657500Y-104775000D03*
D11*
X185737500Y-104775000D03*
D12*
X181927500Y-102235000D03*
X188277500Y-99695000D03*
D10*
X228917500Y-104775000D03*
X218757500Y-104775000D03*
D11*
X223837500Y-104775000D03*
D12*
X220027500Y-102235000D03*
X226377500Y-99695000D03*
D11*
X271494250Y-113030000D03*
X247618250Y-113030000D03*
D13*
X271494250Y-97790000D03*
X247618250Y-97790000D03*
D10*
X264636250Y-104775000D03*
X254476250Y-104775000D03*
D11*
X259556250Y-104775000D03*
D12*
X255746250Y-102235000D03*
X262096250Y-99695000D03*
D10*
X281305000Y-104775000D03*
X271145000Y-104775000D03*
D11*
X276225000Y-104775000D03*
D12*
X272415000Y-102235000D03*
X278765000Y-99695000D03*
D10*
X376555000Y-104775000D03*
X366395000Y-104775000D03*
D11*
X371475000Y-104775000D03*
D12*
X367665000Y-102235000D03*
X374015000Y-99695000D03*
D10*
X395605000Y-104775000D03*
X385445000Y-104775000D03*
D11*
X390525000Y-104775000D03*
D12*
X386715000Y-102235000D03*
X393065000Y-99695000D03*
D10*
X414655000Y-104775000D03*
X404495000Y-104775000D03*
D11*
X409575000Y-104775000D03*
D12*
X405765000Y-102235000D03*
X412115000Y-99695000D03*
D10*
X433705000Y-104775000D03*
X423545000Y-104775000D03*
D11*
X428625000Y-104775000D03*
D12*
X424815000Y-102235000D03*
X431165000Y-99695000D03*
D10*
X43180000Y-123825000D03*
X33020000Y-123825000D03*
D11*
X38100000Y-123825000D03*
D12*
X34290000Y-121285000D03*
X40640000Y-118745000D03*
D10*
X252730000Y-123825000D03*
X242570000Y-123825000D03*
D11*
X247650000Y-123825000D03*
D12*
X243840000Y-121285000D03*
X250190000Y-118745000D03*
D10*
X309880000Y-123825000D03*
X299720000Y-123825000D03*
D11*
X304800000Y-123825000D03*
D12*
X300990000Y-121285000D03*
X307340000Y-118745000D03*
D10*
X328930000Y-123825000D03*
X318770000Y-123825000D03*
D11*
X323850000Y-123825000D03*
D12*
X320040000Y-121285000D03*
X326390000Y-118745000D03*
D10*
X347980000Y-123825000D03*
X337820000Y-123825000D03*
D11*
X342900000Y-123825000D03*
D12*
X339090000Y-121285000D03*
X345440000Y-118745000D03*
D10*
X395605000Y-123825000D03*
X385445000Y-123825000D03*
D11*
X390525000Y-123825000D03*
D12*
X386715000Y-121285000D03*
X393065000Y-118745000D03*
D10*
X414655000Y-123825000D03*
X404495000Y-123825000D03*
D11*
X409575000Y-123825000D03*
D12*
X405765000Y-121285000D03*
X412115000Y-118745000D03*
D11*
X436880000Y-102362000D03*
X436880000Y-126238000D03*
D13*
X421640000Y-102362000D03*
X421640000Y-126238000D03*
D10*
X433705000Y-114300000D03*
X423545000Y-114300000D03*
D11*
X428625000Y-114300000D03*
D12*
X424815000Y-111760000D03*
X431165000Y-109220000D03*
D10*
X376555000Y-9525000D03*
X366395000Y-9525000D03*
D11*
X371475000Y-9525000D03*
D12*
X367665000Y-6985000D03*
X374015000Y-4445000D03*
D10*
X395606640Y-9525040D03*
X385446640Y-9525040D03*
D11*
X390526640Y-9525040D03*
D12*
X386716640Y-6985040D03*
X393066640Y-4445040D03*
D10*
X414656720Y-9525000D03*
X404496720Y-9525000D03*
D11*
X409576720Y-9525000D03*
D12*
X405766720Y-6985000D03*
X412116720Y-4445000D03*
D10*
X281305000Y-47625000D03*
X271145000Y-47625000D03*
D11*
X276225000Y-47625000D03*
D12*
X272415000Y-45085000D03*
X278765000Y-42545000D03*
D10*
X16986250Y-85725000D03*
X6826250Y-85725000D03*
D11*
X11906250Y-85725000D03*
D12*
X8096250Y-83185000D03*
X14446250Y-80645000D03*
D10*
X257492500Y-85725000D03*
X247332500Y-85725000D03*
D11*
X252412500Y-85725000D03*
D12*
X248602500Y-83185000D03*
X254952500Y-80645000D03*
D10*
X433705000Y-85725000D03*
X423545000Y-85725000D03*
D11*
X428625000Y-85725000D03*
D12*
X424815000Y-83185000D03*
X431165000Y-80645000D03*
D10*
X16986250Y-104775000D03*
X6826250Y-104775000D03*
D11*
X11906250Y-104775000D03*
D12*
X8096250Y-102235000D03*
X14446250Y-99695000D03*
D10*
X255111250Y-104775000D03*
X244951250Y-104775000D03*
D11*
X250031250Y-104775000D03*
D12*
X246221250Y-102235000D03*
X252571250Y-99695000D03*
D10*
X19367500Y-123825000D03*
X9207500Y-123825000D03*
D11*
X14287500Y-123825000D03*
D12*
X10477500Y-121285000D03*
X16827500Y-118745000D03*
D10*
X66992500Y-123825000D03*
X56832500Y-123825000D03*
D11*
X61912500Y-123825000D03*
D12*
X58102500Y-121285000D03*
X64452500Y-118745000D03*
D11*
X200056750Y-132080000D03*
X85693250Y-132080000D03*
D13*
X200056750Y-116840000D03*
X85693250Y-116840000D03*
D10*
X147955000Y-123825000D03*
X137795000Y-123825000D03*
D11*
X142875000Y-123825000D03*
D12*
X139065000Y-121285000D03*
X145415000Y-118745000D03*
D10*
X228917500Y-123825000D03*
X218757500Y-123825000D03*
D11*
X223837500Y-123825000D03*
D12*
X220027500Y-121285000D03*
X226377500Y-118745000D03*
D10*
X276542500Y-123825000D03*
X266382500Y-123825000D03*
D11*
X271462500Y-123825000D03*
D12*
X267652500Y-121285000D03*
X274002500Y-118745000D03*
D10*
X207486250Y-123825000D03*
X197326250Y-123825000D03*
D11*
X202406250Y-123825000D03*
D12*
X198596250Y-121285000D03*
X204946250Y-118745000D03*
D11*
X181006750Y-132080000D03*
X80930750Y-132080000D03*
D13*
X181006750Y-116840000D03*
X80930750Y-116840000D03*
D10*
X136048750Y-123825000D03*
X125888750Y-123825000D03*
D11*
X130968750Y-123825000D03*
D12*
X127158750Y-121285000D03*
X133508750Y-118745000D03*
D10*
X231298750Y-123825000D03*
X221138750Y-123825000D03*
D11*
X226218750Y-123825000D03*
D12*
X222408750Y-121285000D03*
X228758750Y-118745000D03*
D10*
X255111250Y-123825000D03*
X244951250Y-123825000D03*
D11*
X250031250Y-123825000D03*
D12*
X246221250Y-121285000D03*
X252571250Y-118745000D03*
D10*
X278923750Y-123825000D03*
X268763750Y-123825000D03*
D11*
X273843750Y-123825000D03*
D12*
X270033750Y-121285000D03*
X276383750Y-118745000D03*
D10*
X433705000Y-123825000D03*
X423545000Y-123825000D03*
D11*
X428625000Y-123825000D03*
D12*
X424815000Y-121285000D03*
X431165000Y-118745000D03*
D10*
X16986260Y-123825104D03*
X6826260Y-123825104D03*
D11*
X11906260Y-123825104D03*
D12*
X8096260Y-121285104D03*
X14446260Y-118745104D03*
D10*
X40798750Y-123825000D03*
X30638750Y-123825000D03*
D11*
X35718750Y-123825000D03*
D12*
X31908750Y-121285000D03*
X38258750Y-118745000D03*
D10*
X64611250Y-123825000D03*
X54451250Y-123825000D03*
D11*
X59531250Y-123825000D03*
D12*
X55721250Y-121285000D03*
X62071250Y-118745000D03*
D11*
X392938000Y-132080000D03*
X369062000Y-132080000D03*
D13*
X392938000Y-116840000D03*
X369062000Y-116840000D03*
D10*
X386080000Y-123825000D03*
X375920000Y-123825000D03*
D11*
X381000000Y-123825000D03*
D12*
X377190000Y-121285000D03*
X383540000Y-118745000D03*
D10*
X376555000Y-123825000D03*
X366395000Y-123825000D03*
D11*
X371475000Y-123825000D03*
D12*
X367665000Y-121285000D03*
X374015000Y-118745000D03*
D14*
X380166885Y11310947D03*
X382706885Y11310947D03*
X385246885Y11310947D03*
X387786885Y11310947D03*
D15*
X395287832Y10120321D03*
D16*
X2381252Y-123825104D03*
D17*
X358378426Y11129695D03*
X358378426Y6729695D03*
X302419004Y11129695D03*
X302419004Y6729695D03*
D18*
X103730000Y-121285000D03*
D19*
X106270000Y-121285000D03*
X103730000Y-123825000D03*
X106270000Y-123825000D03*
X103730000Y-126365000D03*
X106270000Y-126365000D03*
D20*
X373181877Y-13692199D03*
D21*
X375721877Y-13692199D03*
D20*
X398780336Y-13692199D03*
D21*
X401320336Y-13692199D03*
X426918795Y-13692199D03*
D20*
X424378795Y-13692199D03*
D22*
X113100000Y-126975000D03*
X113100000Y-120675000D03*
X116900000Y-126975000D03*
X116900000Y-120675000D03*
D23*
X49410979Y-28575024D03*
D24*
X34528154Y-28575024D03*
X144065746Y-28575024D03*
X290512744Y-28575024D03*
D25*
X389334702Y-28575024D03*
D24*
X404217527Y-28575024D03*
D16*
X358973739Y-95250080D03*
X79176629Y-95250080D03*
D26*
X372745312Y-52705040D03*
D27*
X370205312Y-52705040D03*
X15398764Y-90805072D03*
D26*
X17938764Y-90805072D03*
X13176260Y-90805072D03*
D27*
X10636260Y-90805072D03*
X322581360Y-14605040D03*
D26*
X325121360Y-14605040D03*
D17*
X202587672Y8929695D03*
X206987672Y8929695D03*
M02*
