  0
SECTION
  2
HEADER
  9
$ACADVER
  1
AC1009
  9
$INSBASE
 10
0.0
 20
0.0
 30
0.0
  9
$EXTMIN
 10
0.0
 20
0.0
 30
0.0
  9
$EXTMAX
 10
0.0
 20
0.0
 30
0.0
  0
ENDSEC
  0
SECTION
  2
TABLES
  0
TABLE
  2
VPORT
 70
0
  0
ENDTAB
  0
TABLE
  2
LTYPE
 70
1
  0
LTYPE
  2
CONTINUOUS
 70
0
  3
Solid line
 72
65
 73
0
 40
0.0
  0
ENDTAB
  0
TABLE
  2
LAYER
 70
1
  0
LAYER
  2
0
 70
64
 62
7
  6
continuous
  0
ENDTAB
  0
TABLE
  2
STYLE
 70
1
  0
STYLE
  2
STANDARD
 70
0
 40
0
 41
1.0
 50
0.0
 71
0
 42
1
 3
ARIAL.TTF
 4

  0
ENDTAB
  0
TABLE
  2
VIEW
 70
0
  0
ENDTAB
  0
ENDSEC
  0
SECTION
  2
BLOCKS
  0
ENDSEC
  0
SECTION
  2
ENTITIES
  0
POLYLINE
  8
Group057
 62
0
 70
0
 66
1
 10
0.0
 20
0.0
 30
0.0
  0
VERTEX
  8
Group057
 10
277.7124999999997
 20
-59.67500000000003
 30
0.0
  0
VERTEX
  8
Group057
 10
265.2124999999997
 20
-59.67500000000003
 30
0.0
  0
SEQEND
  8
Group057
  0
POLYLINE
  8
Group057
 62
0
 70
0
 66
1
 10
0.0
 20
0.0
 30
0.0
  0
VERTEX
  8
Group057
 10
278.4624999999997
 20
-72.92500000000004
 30
0.0
  0
VERTEX
  8
Group057
 10
278.4624999999997
 20
-60.42500000000004
 30
0.0
  0
SEQEND
  8
Group057
  0
POLYLINE
  8
Group057
 62
0
 70
0
 66
1
 10
0.0
 20
0.0
 30
0.0
  0
VERTEX
  8
Group057
 10
264.4624999999997
 20
-60.42500000000003
 30
0.0
  0
VERTEX
  8
Group057
 10
264.4624999999997
 20
-72.92500000000004
 30
0.0
  0
SEQEND
  8
Group057
  0
ARC
  8
Group057
 62
0
 10
277.7124999999997
 20
-60.42500000000003
 30
0.0
 40
0.75
 50
-0.0
 51
90.0
  0
POLYLINE
  8
Group057
 62
0
 70
0
 66
1
 10
0.0
 20
0.0
 30
0.0
  0
VERTEX
  8
Group057
 10
265.2124999999997
 20
-73.67500000000004
 30
0.0
  0
VERTEX
  8
Group057
 10
277.7124999999997
 20
-73.67500000000004
 30
0.0
  0
SEQEND
  8
Group057
  0
ARC
  8
Group057
 62
0
 10
265.2124999999997
 20
-60.42500000000003
 30
0.0
 40
0.75
 50
90.0
 51
-180.0
  0
ARC
  8
Group057
 62
0
 10
277.7124999999997
 20
-72.92500000000004
 30
0.0
 40
0.75
 50
-90.0
 51
-0.0
  0
ARC
  8
Group057
 62
0
 10
265.2124999999997
 20
-72.92500000000004
 30
0.0
 40
0.75
 50
-180.0
 51
-90.0
  0
ARC
  8
Group079
 62
0
 10
249.3807499999998
 20
-77.97500000000001
 30
0.0
 40
0.75
 50
90.0
 51
-180.0
  0
POLYLINE
  8
Group079
 62
0
 70
0
 66
1
 10
0.0
 20
0.0
 30
0.0
  0
VERTEX
  8
Group079
 10
249.3807499999998
 20
-77.22500000000001
 30
0.0
  0
VERTEX
  8
Group079
 10
255.3807499999998
 20
-77.22500000000001
 30
0.0
  0
SEQEND
  8
Group079
  0
ARC
  8
Group079
 62
0
 10
255.3807499999998
 20
-77.97500000000001
 30
0.0
 40
0.75
 50
-0.0
 51
90.0
  0
POLYLINE
  8
Group079
 62
0
 70
0
 66
1
 10
0.0
 20
0.0
 30
0.0
  0
VERTEX
  8
Group079
 10
256.1307499999998
 20
-77.97500000000001
 30
0.0
  0
VERTEX
  8
Group079
 10
256.1307499999998
 20
-93.47500000000001
 30
0.0
  0
SEQEND
  8
Group079
  0
ARC
  8
Group079
 62
0
 10
255.3807499999998
 20
-93.47500000000001
 30
0.0
 40
0.75
 50
-90.0
 51
-0.0
  0
POLYLINE
  8
Group079
 62
0
 70
0
 66
1
 10
0.0
 20
0.0
 30
0.0
  0
VERTEX
  8
Group079
 10
255.3807499999998
 20
-94.22500000000001
 30
0.0
  0
VERTEX
  8
Group079
 10
249.3807499999998
 20
-94.22500000000001
 30
0.0
  0
SEQEND
  8
Group079
  0
ARC
  8
Group079
 62
0
 10
249.3807499999998
 20
-93.47500000000001
 30
0.0
 40
0.75
 50
-180.0
 51
-90.0
  0
POLYLINE
  8
Group079
 62
0
 70
0
 66
1
 10
0.0
 20
0.0
 30
0.0
  0
VERTEX
  8
Group079
 10
248.6307499999998
 20
-93.47500000000001
 30
0.0
  0
VERTEX
  8
Group079
 10
248.6307499999998
 20
-77.97500000000001
 30
0.0
  0
SEQEND
  8
Group079
  0
POLYLINE
  8
ansi enter
 62
0
 70
0
 66
1
 10
0.0
 20
0.0
 30
0.0
  0
VERTEX
  8
ansi enter
 10
270.56874999999985
 20
-78.72500000000001
 30
0.0
  0
VERTEX
  8
ansi enter
 10
258.06874999999985
 20
-78.72500000000001
 30
0.0
  0
SEQEND
  8
ansi enter
  0
ARC
  8
ansi enter
 62
0
 10
258.06874999999985
 20
-79.47500000000001
 30
0.0
 40
0.75
 50
90.0
 51
-180.0
  0
POLYLINE
  8
ansi enter
 62
0
 70
0
 66
1
 10
0.0
 20
0.0
 30
0.0
  0
VERTEX
  8
ansi enter
 10
271.31874999999985
 20
-91.97500000000001
 30
0.0
  0
VERTEX
  8
ansi enter
 10
271.31874999999985
 20
-79.47500000000001
 30
0.0
  0
SEQEND
  8
ansi enter
  0
ARC
  8
ansi enter
 62
0
 10
270.56874999999985
 20
-91.97500000000001
 30
0.0
 40
0.75
 50
-90.0
 51
-0.0
  0
POLYLINE
  8
ansi enter
 62
0
 70
0
 66
1
 10
0.0
 20
0.0
 30
0.0
  0
VERTEX
  8
ansi enter
 10
257.31874999999985
 20
-79.47500000000001
 30
0.0
  0
VERTEX
  8
ansi enter
 10
257.31874999999985
 20
-91.97500000000001
 30
0.0
  0
SEQEND
  8
ansi enter
  0
ARC
  8
ansi enter
 62
0
 10
258.06874999999985
 20
-91.97500000000001
 30
0.0
 40
0.75
 50
-180.0
 51
-90.0
  0
ARC
  8
ansi enter
 62
0
 10
270.56874999999985
 20
-79.47500000000001
 30
0.0
 40
0.75
 50
-0.0
 51
90.0
  0
POLYLINE
  8
ansi enter
 62
0
 70
0
 66
1
 10
0.0
 20
0.0
 30
0.0
  0
VERTEX
  8
ansi enter
 10
258.06874999999985
 20
-92.72500000000001
 30
0.0
  0
VERTEX
  8
ansi enter
 10
270.56874999999985
 20
-92.72500000000001
 30
0.0
  0
SEQEND
  8
ansi enter
  0
ARC
  8
Group080
 62
0
 10
273.25674999999984
 20
-77.97500000000001
 30
0.0
 40
0.75
 50
90.0
 51
-180.0
  0
POLYLINE
  8
Group080
 62
0
 70
0
 66
1
 10
0.0
 20
0.0
 30
0.0
  0
VERTEX
  8
Group080
 10
273.25674999999984
 20
-77.22500000000001
 30
0.0
  0
VERTEX
  8
Group080
 10
279.25674999999984
 20
-77.22500000000001
 30
0.0
  0
SEQEND
  8
Group080
  0
ARC
  8
Group080
 62
0
 10
279.25674999999984
 20
-77.97500000000001
 30
0.0
 40
0.75
 50
-0.0
 51
90.0
  0
POLYLINE
  8
Group080
 62
0
 70
0
 66
1
 10
0.0
 20
0.0
 30
0.0
  0
VERTEX
  8
Group080
 10
280.00674999999984
 20
-77.97500000000001
 30
0.0
  0
VERTEX
  8
Group080
 10
280.00674999999984
 20
-93.47500000000001
 30
0.0
  0
SEQEND
  8
Group080
  0
ARC
  8
Group080
 62
0
 10
279.25674999999984
 20
-93.47500000000001
 30
0.0
 40
0.75
 50
-90.0
 51
-0.0
  0
POLYLINE
  8
Group080
 62
0
 70
0
 66
1
 10
0.0
 20
0.0
 30
0.0
  0
VERTEX
  8
Group080
 10
279.25674999999984
 20
-94.22500000000001
 30
0.0
  0
VERTEX
  8
Group080
 10
273.25674999999984
 20
-94.22500000000001
 30
0.0
  0
SEQEND
  8
Group080
  0
ARC
  8
Group080
 62
0
 10
273.25674999999984
 20
-93.47500000000001
 30
0.0
 40
0.75
 50
-180.0
 51
-90.0
  0
POLYLINE
  8
Group080
 62
0
 70
0
 66
1
 10
0.0
 20
0.0
 30
0.0
  0
VERTEX
  8
Group080
 10
272.50674999999984
 20
-93.47500000000001
 30
0.0
  0
VERTEX
  8
Group080
 10
272.50674999999984
 20
-77.97500000000001
 30
0.0
  0
SEQEND
  8
Group080
  0
ARC
  8
Group087
 62
0
 10
6.493249999999994
 20
-97.025
 30
0.0
 40
0.75
 50
90.0
 51
-180.0
  0
POLYLINE
  8
Group087
 62
0
 70
0
 66
1
 10
0.0
 20
0.0
 30
0.0
  0
VERTEX
  8
Group087
 10
6.493249999999994
 20
-96.275
 30
0.0
  0
VERTEX
  8
Group087
 10
12.493249999999994
 20
-96.275
 30
0.0
  0
SEQEND
  8
Group087
  0
ARC
  8
Group087
 62
0
 10
12.493249999999994
 20
-97.025
 30
0.0
 40
0.75
 50
-0.0
 51
90.0
  0
POLYLINE
  8
Group087
 62
0
 70
0
 66
1
 10
0.0
 20
0.0
 30
0.0
  0
VERTEX
  8
Group087
 10
13.243249999999994
 20
-97.025
 30
0.0
  0
VERTEX
  8
Group087
 10
13.243249999999994
 20
-112.525
 30
0.0
  0
SEQEND
  8
Group087
  0
ARC
  8
Group087
 62
0
 10
12.493249999999994
 20
-112.525
 30
0.0
 40
0.75
 50
-90.0
 51
-0.0
  0
POLYLINE
  8
Group087
 62
0
 70
0
 66
1
 10
0.0
 20
0.0
 30
0.0
  0
VERTEX
  8
Group087
 10
12.493249999999994
 20
-113.275
 30
0.0
  0
VERTEX
  8
Group087
 10
6.493249999999994
 20
-113.275
 30
0.0
  0
SEQEND
  8
Group087
  0
ARC
  8
Group087
 62
0
 10
6.493249999999994
 20
-112.525
 30
0.0
 40
0.75
 50
-180.0
 51
-90.0
  0
POLYLINE
  8
Group087
 62
0
 70
0
 66
1
 10
0.0
 20
0.0
 30
0.0
  0
VERTEX
  8
Group087
 10
5.743249999999994
 20
-112.525
 30
0.0
  0
VERTEX
  8
Group087
 10
5.743249999999994
 20
-97.025
 30
0.0
  0
SEQEND
  8
Group087
  0
POLYLINE
  8
ansi shift
 62
0
 70
0
 66
1
 10
0.0
 20
0.0
 30
0.0
  0
VERTEX
  8
ansi shift
 10
27.68124999999998
 20
-97.775
 30
0.0
  0
VERTEX
  8
ansi shift
 10
15.18124999999998
 20
-97.775
 30
0.0
  0
SEQEND
  8
ansi shift
  0
ARC
  8
ansi shift
 62
0
 10
15.181249999999983
 20
-98.525
 30
0.0
 40
0.75
 50
90.0
 51
-180.0
  0
POLYLINE
  8
ansi shift
 62
0
 70
0
 66
1
 10
0.0
 20
0.0
 30
0.0
  0
VERTEX
  8
ansi shift
 10
28.43124999999998
 20
-111.025
 30
0.0
  0
VERTEX
  8
ansi shift
 10
28.43124999999998
 20
-98.525
 30
0.0
  0
SEQEND
  8
ansi shift
  0
ARC
  8
ansi shift
 62
0
 10
27.68124999999998
 20
-111.025
 30
0.0
 40
0.75
 50
-90.0
 51
-0.0
  0
POLYLINE
  8
ansi shift
 62
0
 70
0
 66
1
 10
0.0
 20
0.0
 30
0.0
  0
VERTEX
  8
ansi shift
 10
14.431249999999983
 20
-98.525
 30
0.0
  0
VERTEX
  8
ansi shift
 10
14.431249999999983
 20
-111.025
 30
0.0
  0
SEQEND
  8
ansi shift
  0
ARC
  8
ansi shift
 62
0
 10
15.181249999999983
 20
-111.025
 30
0.0
 40
0.75
 50
-180.0
 51
-90.0
  0
ARC
  8
ansi shift
 62
0
 10
27.68124999999998
 20
-98.525
 30
0.0
 40
0.75
 50
-0.0
 51
90.0
  0
POLYLINE
  8
ansi shift
 62
0
 70
0
 66
1
 10
0.0
 20
0.0
 30
0.0
  0
VERTEX
  8
ansi shift
 10
15.181249999999983
 20
-111.775
 30
0.0
  0
VERTEX
  8
ansi shift
 10
27.681249999999984
 20
-111.775
 30
0.0
  0
SEQEND
  8
ansi shift
  0
ARC
  8
Group088
 62
0
 10
30.36924999999997
 20
-97.025
 30
0.0
 40
0.75
 50
90.0
 51
-180.0
  0
POLYLINE
  8
Group088
 62
0
 70
0
 66
1
 10
0.0
 20
0.0
 30
0.0
  0
VERTEX
  8
Group088
 10
30.36924999999997
 20
-96.275
 30
0.0
  0
VERTEX
  8
Group088
 10
36.369249999999965
 20
-96.275
 30
0.0
  0
SEQEND
  8
Group088
  0
ARC
  8
Group088
 62
0
 10
36.36924999999997
 20
-97.025
 30
0.0
 40
0.75
 50
-0.0
 51
90.0
  0
POLYLINE
  8
Group088
 62
0
 70
0
 66
1
 10
0.0
 20
0.0
 30
0.0
  0
VERTEX
  8
Group088
 10
37.11924999999997
 20
-97.025
 30
0.0
  0
VERTEX
  8
Group088
 10
37.11924999999997
 20
-112.525
 30
0.0
  0
SEQEND
  8
Group088
  0
ARC
  8
Group088
 62
0
 10
36.36924999999997
 20
-112.525
 30
0.0
 40
0.75
 50
-90.0
 51
-0.0
  0
POLYLINE
  8
Group088
 62
0
 70
0
 66
1
 10
0.0
 20
0.0
 30
0.0
  0
VERTEX
  8
Group088
 10
36.36924999999997
 20
-113.275
 30
0.0
  0
VERTEX
  8
Group088
 10
30.369249999999973
 20
-113.275
 30
0.0
  0
SEQEND
  8
Group088
  0
ARC
  8
Group088
 62
0
 10
30.36924999999997
 20
-112.525
 30
0.0
 40
0.75
 50
-180.0
 51
-90.0
  0
POLYLINE
  8
Group088
 62
0
 70
0
 66
1
 10
0.0
 20
0.0
 30
0.0
  0
VERTEX
  8
Group088
 10
29.61924999999997
 20
-112.525
 30
0.0
  0
VERTEX
  8
Group088
 10
29.61924999999997
 20
-97.025
 30
0.0
  0
SEQEND
  8
Group088
  0
ARC
  8
Plate border
 62
0
 10
2.0
 20
-2.000000000000004
 30
0.0
 40
2.0
 50
90.0
 51
-180.0
  0
ARC
  8
Plate border
 62
0
 10
350.425
 20
-1.999999999999995
 30
0.0
 40
2.0
 50
-0.0
 51
90.0
  0
POLYLINE
  8
Plate border
 62
0
 70
0
 66
1
 10
0.0
 20
0.0
 30
0.0
  0
VERTEX
  8
Plate border
 10
2.0
 20
-4e-15
 30
0.0
  0
VERTEX
  8
Plate border
 10
350.42499999999995
 20
-6.0000000000000005e-15
 30
0.0
  0
SEQEND
  8
Plate border
  0
ARC
  8
Plate border
 62
0
 10
2.000000000000004
 20
-131.35000000000002
 30
0.0
 40
2.0
 50
-180.0
 51
-90.0
  0
ARC
  8
Plate border
 62
0
 10
26.718750000000007
 20
-131.35000000000002
 30
0.0
 40
2.0
 50
-90.0
 51
-0.0
  0
POLYLINE
  8
Plate border
 62
0
 70
0
 66
1
 10
0.0
 20
0.0
 30
0.0
  0
VERTEX
  8
Plate border
 10
28.718750000000007
 20
-131.35000000000002
 30
0.0
  0
VERTEX
  8
Plate border
 10
28.718750000000007
 20
-130.07500000000002
 30
0.0
  0
SEQEND
  8
Plate border
  0
ARC
  8
Plate border
 62
0
 10
47.100000000000044
 20
-131.35000000000002
 30
0.0
 40
2.0
 50
-180.0
 51
-90.0
  0
POLYLINE
  8
Plate border
 62
0
 70
0
 66
1
 10
0.0
 20
0.0
 30
0.0
  0
VERTEX
  8
Plate border
 10
45.100000000000044
 20
-131.35000000000002
 30
0.0
  0
VERTEX
  8
Plate border
 10
45.100000000000044
 20
-130.07500000000002
 30
0.0
  0
SEQEND
  8
Plate border
  0
POLYLINE
  8
Plate border
 62
0
 70
0
 66
1
 10
0.0
 20
0.0
 30
0.0
  0
VERTEX
  8
Plate border
 10
26.718750000000007
 20
-133.35000000000002
 30
0.0
  0
VERTEX
  8
Plate border
 10
2.0
 20
-133.35000000000002
 30
0.0
  0
SEQEND
  8
Plate border
  0
ARC
  8
Plate border
 62
0
 10
238.65
 20
-131.35000000000002
 30
0.0
 40
2.0
 50
-90.0
 51
-0.0
  0
POLYLINE
  8
Plate border
 62
0
 70
0
 66
1
 10
0.0
 20
0.0
 30
0.0
  0
VERTEX
  8
Plate border
 10
240.65
 20
-131.35000000000002
 30
0.0
  0
VERTEX
  8
Plate border
 10
240.65
 20
-130.075
 30
0.0
  0
SEQEND
  8
Plate border
  0
ARC
  8
Plate border
 62
0
 10
259.03125000000006
 20
-131.35000000000002
 30
0.0
 40
2.0
 50
-180.0
 51
-90.0
  0
POLYLINE
  8
Plate border
 62
0
 70
0
 66
1
 10
0.0
 20
0.0
 30
0.0
  0
VERTEX
  8
Plate border
 10
257.03125000000006
 20
-131.35000000000002
 30
0.0
  0
VERTEX
  8
Plate border
 10
257.03125000000006
 20
-130.075
 30
0.0
  0
SEQEND
  8
Plate border
  0
ARC
  8
Plate border
 62
0
 10
436.15000000000003
 20
-131.35000000000002
 30
0.0
 40
2.0
 50
-90.0
 51
-0.0
  0
POLYLINE
  8
Plate border
 62
0
 70
0
 66
1
 10
0.0
 20
0.0
 30
0.0
  0
VERTEX
  8
Plate border
 10
436.15000000000003
 20
-133.35000000000002
 30
0.0
  0
VERTEX
  8
Plate border
 10
259.03125
 20
-133.35000000000002
 30
0.0
  0
SEQEND
  8
Plate border
  0
ARC
  8
Plate border
 62
0
 10
436.15000000000003
 20
-40.099999999999994
 30
0.0
 40
2.0
 50
-0.0
 51
90.0
  0
POLYLINE
  8
Plate border
 62
0
 70
0
 66
1
 10
0.0
 20
0.0
 30
0.0
  0
VERTEX
  8
Plate border
 10
438.15000000000003
 20
-131.35000000000002
 30
0.0
  0
VERTEX
  8
Plate border
 10
438.15
 20
-40.10000000000005
 30
0.0
  0
SEQEND
  8
Plate border
  0
ARC
  8
Plate border
 62
0
 10
354.425
 20
-36.099999999999994
 30
0.0
 40
2.0
 50
-180.0
 51
-90.0
  0
POLYLINE
  8
Plate border
 62
0
 70
0
 66
1
 10
0.0
 20
0.0
 30
0.0
  0
VERTEX
  8
Plate border
 10
436.15000000000003
 20
-38.099999999999994
 30
0.0
  0
VERTEX
  8
Plate border
 10
354.425
 20
-38.099999999999994
 30
0.0
  0
SEQEND
  8
Plate border
  0
POLYLINE
  8
Plate border
 62
0
 70
0
 66
1
 10
0.0
 20
0.0
 30
0.0
  0
VERTEX
  8
Plate border
 10
352.425
 20
-36.099999999999994
 30
0.0
  0
VERTEX
  8
Plate border
 10
352.425
 20
-1.9999999999999858
 30
0.0
  0
SEQEND
  8
Plate border
  0
POLYLINE
  8
Plate border
 62
0
 70
0
 66
1
 10
0.0
 20
0.0
 30
0.0
  0
VERTEX
  8
Plate border
 10
0.0
 20
-2.000000000000004
 30
0.0
  0
VERTEX
  8
Plate border
 10
0.0
 20
-131.35000000000002
 30
0.0
  0
SEQEND
  8
Plate border
  0
ARC
  8
Plate border
 62
0
 10
7.495000000000003
 20
-28.42499999999999
 30
0.0
 40
2.5
 50
90.0
 51
-90.0
  0
ARC
  8
Plate border
 62
0
 10
144.16249999999997
 20
-28.424999999999983
 30
0.0
 40
4.600000000000001
 50
32.92073452808954
 51
147.0792654719105
  0
ARC
  8
Plate border
 62
0
 10
144.16249999999997
 20
-28.424999999999983
 30
0.0
 40
4.600000000000002
 50
-147.0792654719105
 51
-32.92073452808954
  0
ARC
  8
Plate border
 62
0
 10
344.925
 20
-28.42499999999997
 30
0.0
 40
2.5
 50
-90.0
 51
90.0
  0
ARC
  8
Plate border
 62
0
 10
290.46250000000003
 20
-125.85000000000002
 30
0.0
 40
2.5
 50
-180.0
 51
-0.0
  0
ARC
  8
Plate border
 62
0
 10
290.46250000000003
 20
-40.524999999999984
 30
0.0
 40
2.5
 50
-0.0
 51
-180.0
  0
ARC
  8
Plate border
 62
0
 10
290.46250000000003
 20
-28.424999999999976
 30
0.0
 40
4.599999999999991
 50
32.920734528089724
 51
147.07926547191025
  0
ARC
  8
Plate border
 62
0
 10
290.46250000000003
 20
-28.424999999999976
 30
0.0
 40
4.600000000000035
 50
-147.07926547191045
 51
-32.920734528089596
  0
POLYLINE
  8
Plate border
 62
0
 70
0
 66
1
 10
0.0
 20
0.0
 30
0.0
  0
VERTEX
  8
Plate border
 10
287.96250000000003
 20
-40.524999999999984
 30
0.0
  0
VERTEX
  8
Plate border
 10
287.96250000000003
 20
-125.85000000000002
 30
0.0
  0
SEQEND
  8
Plate border
  0
ARC
  8
Plate border
 62
0
 10
357.26250000000005
 20
-45.599999999999994
 30
0.0
 40
2.5
 50
-0.0
 51
-180.0
  0
ARC
  8
Plate border
 62
0
 10
290.46250000000003
 20
-125.85000000000002
 30
0.0
 40
2.5
 50
-180.0
 51
-0.0
  0
ARC
  8
Plate border
 62
0
 10
357.26250000000005
 20
-125.84999999999997
 30
0.0
 40
2.5
 50
-180.0
 51
-0.0
  0
POLYLINE
  8
Plate border
 62
0
 70
0
 66
1
 10
0.0
 20
0.0
 30
0.0
  0
VERTEX
  8
Plate border
 10
359.76250000000005
 20
-45.599999999999994
 30
0.0
  0
VERTEX
  8
Plate border
 10
359.76250000000005
 20
-125.84999999999997
 30
0.0
  0
SEQEND
  8
Plate border
  0
POLYLINE
  8
Plate border
 62
0
 70
0
 66
1
 10
0.0
 20
0.0
 30
0.0
  0
VERTEX
  8
Plate border
 10
292.96250000000003
 20
-40.524999999999984
 30
0.0
  0
VERTEX
  8
Plate border
 10
292.96250000000003
 20
-125.85000000000002
 30
0.0
  0
SEQEND
  8
Plate border
  0
POLYLINE
  8
Plate border
 62
0
 70
0
 66
1
 10
0.0
 20
0.0
 30
0.0
  0
VERTEX
  8
Plate border
 10
354.76250000000005
 20
-125.84999999999997
 30
0.0
  0
VERTEX
  8
Plate border
 10
354.76250000000005
 20
-45.599999999999994
 30
0.0
  0
SEQEND
  8
Plate border
  0
ARC
  8
Plate border
 62
0
 10
300.46250000000003
 20
-85.525
 30
0.0
 40
2.5
 50
90.0
 51
-90.0
  0
ARC
  8
Plate border
 62
0
 10
347.26250000000005
 20
-85.52500000000002
 30
0.0
 40
2.5
 50
-90.0
 51
90.0
  0
POLYLINE
  8
Plate border
 62
0
 70
0
 66
1
 10
0.0
 20
0.0
 30
0.0
  0
VERTEX
  8
Plate border
 10
347.26250000000005
 20
-83.02500000000002
 30
0.0
  0
VERTEX
  8
Plate border
 10
300.46250000000003
 20
-83.025
 30
0.0
  0
SEQEND
  8
Plate border
  0
POLYLINE
  8
Plate border
 62
0
 70
0
 66
1
 10
0.0
 20
0.0
 30
0.0
  0
VERTEX
  8
Plate border
 10
300.46250000000003
 20
-88.025
 30
0.0
  0
VERTEX
  8
Plate border
 10
347.26250000000005
 20
-88.02500000000002
 30
0.0
  0
SEQEND
  8
Plate border
  0
ARC
  8
Plate border
 62
0
 10
96.45850463867185
 20
-28.424999999999983
 30
0.0
 40
2.5
 50
-90.0
 51
90.0
  0
ARC
  8
Plate border
 62
0
 10
106.45850463867185
 20
-28.424999999999986
 30
0.0
 40
2.5
 50
90.0
 51
-90.0
  0
ARC
  8
Plate border
 62
0
 10
196.45850463867185
 20
-28.42499999999998
 30
0.0
 40
2.5
 50
90.0
 51
-90.0
  0
ARC
  8
Plate border
 62
0
 10
186.45850463867185
 20
-28.424999999999976
 30
0.0
 40
2.5
 50
-90.0
 51
90.0
  0
ARC
  8
Plate border
 62
0
 10
276.45850463867185
 20
-28.42499999999997
 30
0.0
 40
2.5
 50
-90.0
 51
90.0
  0
ARC
  8
Plate border
 62
0
 10
286.45850463867185
 20
-28.424999999999972
 30
0.0
 40
2.5
 50
90.0
 51
-90.0
  0
POLYLINE
  8
Plate border
 62
0
 70
0
 66
1
 10
0.0
 20
0.0
 30
0.0
  0
VERTEX
  8
Plate border
 10
52.82384691526155
 20
-25.924999999999986
 30
0.0
  0
VERTEX
  8
Plate border
 10
96.45850463867185
 20
-25.924999999999997
 30
0.0
  0
SEQEND
  8
Plate border
  0
POLYLINE
  8
Plate border
 62
0
 70
0
 66
1
 10
0.0
 20
0.0
 30
0.0
  0
VERTEX
  8
Plate border
 10
96.45850463867185
 20
-30.924999999999983
 30
0.0
  0
VERTEX
  8
Plate border
 10
52.82384691526154
 20
-30.92499999999998
 30
0.0
  0
SEQEND
  8
Plate border
  0
POLYLINE
  8
Plate border
 62
0
 70
0
 66
1
 10
0.0
 20
0.0
 30
0.0
  0
VERTEX
  8
Plate border
 10
106.45850463867185
 20
-25.924999999999986
 30
0.0
  0
VERTEX
  8
Plate border
 10
140.3011530847384
 20
-25.924999999999983
 30
0.0
  0
SEQEND
  8
Plate border
  0
POLYLINE
  8
Plate border
 62
0
 70
0
 66
1
 10
0.0
 20
0.0
 30
0.0
  0
VERTEX
  8
Plate border
 10
140.3011530847384
 20
-30.924999999999983
 30
0.0
  0
VERTEX
  8
Plate border
 10
106.45850463867185
 20
-30.924999999999986
 30
0.0
  0
SEQEND
  8
Plate border
  0
POLYLINE
  8
Plate border
 62
0
 70
0
 66
1
 10
0.0
 20
0.0
 30
0.0
  0
VERTEX
  8
Plate border
 10
148.02384691526154
 20
-25.92499999999998
 30
0.0
  0
VERTEX
  8
Plate border
 10
186.45850463867185
 20
-25.92499999999999
 30
0.0
  0
SEQEND
  8
Plate border
  0
POLYLINE
  8
Plate border
 62
0
 70
0
 66
1
 10
0.0
 20
0.0
 30
0.0
  0
VERTEX
  8
Plate border
 10
186.45850463867185
 20
-30.924999999999976
 30
0.0
  0
VERTEX
  8
Plate border
 10
148.02384691526154
 20
-30.924999999999972
 30
0.0
  0
SEQEND
  8
Plate border
  0
POLYLINE
  8
Plate border
 62
0
 70
0
 66
1
 10
0.0
 20
0.0
 30
0.0
  0
VERTEX
  8
Plate border
 10
196.45850463867185
 20
-25.92499999999998
 30
0.0
  0
VERTEX
  8
Plate border
 10
276.4585046386718
 20
-25.924999999999958
 30
0.0
  0
SEQEND
  8
Plate border
  0
POLYLINE
  8
Plate border
 62
0
 70
0
 66
1
 10
0.0
 20
0.0
 30
0.0
  0
VERTEX
  8
Plate border
 10
276.45850463867185
 20
-30.92499999999997
 30
0.0
  0
VERTEX
  8
Plate border
 10
196.45850463867188
 20
-30.92499999999999
 30
0.0
  0
SEQEND
  8
Plate border
  0
POLYLINE
  8
Plate border
 62
0
 70
0
 66
1
 10
0.0
 20
0.0
 30
0.0
  0
VERTEX
  8
Plate border
 10
286.45850463867185
 20
-25.924999999999972
 30
0.0
  0
VERTEX
  8
Plate border
 10
286.6011530847385
 20
-25.92499999999997
 30
0.0
  0
SEQEND
  8
Plate border
  0
POLYLINE
  8
Plate border
 62
0
 70
0
 66
1
 10
0.0
 20
0.0
 30
0.0
  0
VERTEX
  8
Plate border
 10
286.45850463867185
 20
-30.924999999999972
 30
0.0
  0
VERTEX
  8
Plate border
 10
286.6011530847384
 20
-30.925
 30
0.0
  0
SEQEND
  8
Plate border
  0
ARC
  8
Plate border
 62
0
 10
101.23749999999998
 20
-117.33000000000997
 30
0.0
 40
1.0
 50
90.0
 51
-180.0
  0
ARC
  8
Plate border
 62
0
 10
101.23749999999998
 20
-130.32999999999998
 30
0.0
 40
1.0
 50
-180.0
 51
-90.0
  0
ARC
  8
Plate border
 62
0
 10
109.2375
 20
-117.33000000000995
 30
0.0
 40
1.0
 50
-0.0
 51
90.0
  0
ARC
  8
Plate border
 62
0
 10
109.2375
 20
-130.32999999999998
 30
0.0
 40
1.0
 50
-90.0
 51
-0.0
  0
POLYLINE
  8
Plate border
 62
0
 70
0
 66
1
 10
0.0
 20
0.0
 30
0.0
  0
VERTEX
  8
Plate border
 10
101.23749999999998
 20
-116.32999999999997
 30
0.0
  0
VERTEX
  8
Plate border
 10
109.23749999999998
 20
-116.32999999999997
 30
0.0
  0
SEQEND
  8
Plate border
  0
POLYLINE
  8
Plate border
 62
0
 70
0
 66
1
 10
0.0
 20
0.0
 30
0.0
  0
VERTEX
  8
Plate border
 10
100.23749999999998
 20
-117.32999999999998
 30
0.0
  0
VERTEX
  8
Plate border
 10
100.23749999999998
 20
-130.32999999999998
 30
0.0
  0
SEQEND
  8
Plate border
  0
POLYLINE
  8
Plate border
 62
0
 70
0
 66
1
 10
0.0
 20
0.0
 30
0.0
  0
VERTEX
  8
Plate border
 10
101.23749999999998
 20
-131.32999999999998
 30
0.0
  0
VERTEX
  8
Plate border
 10
109.23749999999998
 20
-131.32999999999998
 30
0.0
  0
SEQEND
  8
Plate border
  0
POLYLINE
  8
Plate border
 62
0
 70
0
 66
1
 10
0.0
 20
0.0
 30
0.0
  0
VERTEX
  8
Plate border
 10
110.23749999999998
 20
-117.32999999999998
 30
0.0
  0
VERTEX
  8
Plate border
 10
110.23749999999998
 20
-130.32999999999998
 30
0.0
  0
SEQEND
  8
Plate border
  0
CIRCLE
  8
Plate border
 62
0
 10
115.23749999999998
 20
-123.82593999999997
 30
0.0
 40
2.0
  0
ARC
  8
Plate border
 62
0
 10
34.16249999999999
 20
-28.42499999999999
 30
0.0
 40
4.600000000000002
 50
90.0
 51
147.07926547191042
  0
ARC
  8
Plate border
 62
0
 10
34.16249999999999
 20
-28.42499999999999
 30
0.0
 40
4.600000000000002
 50
-147.07926547191042
 51
-90.0
  0
ARC
  8
Plate border
 62
0
 10
48.962499999999984
 20
-28.42499999999999
 30
0.0
 40
4.600000000000001
 50
32.920734528089646
 51
90.0
  0
ARC
  8
Plate border
 62
0
 10
48.962499999999984
 20
-28.42499999999999
 30
0.0
 40
4.599999999999997
 50
-90.0
 51
-32.92073452808955
  0
POLYLINE
  8
Plate border
 62
0
 70
0
 66
1
 10
0.0
 20
0.0
 30
0.0
  0
VERTEX
  8
Plate border
 10
34.16249999999999
 20
-23.82499999999999
 30
0.0
  0
VERTEX
  8
Plate border
 10
48.962499999999984
 20
-23.82499999999999
 30
0.0
  0
SEQEND
  8
Plate border
  0
POLYLINE
  8
Plate border
 62
0
 70
0
 66
1
 10
0.0
 20
0.0
 30
0.0
  0
VERTEX
  8
Plate border
 10
34.16249999999999
 20
-33.02499999999999
 30
0.0
  0
VERTEX
  8
Plate border
 10
48.962499999999984
 20
-33.024999999999984
 30
0.0
  0
SEQEND
  8
Plate border
  0
POLYLINE
  8
Plate border
 62
0
 70
0
 66
1
 10
0.0
 20
0.0
 30
0.0
  0
VERTEX
  8
Plate border
 10
256.28125000000006
 20
-116.825
 30
0.0
  0
VERTEX
  8
Plate border
 10
241.40000000000006
 20
-116.825
 30
0.0
  0
SEQEND
  8
Plate border
  0
POLYLINE
  8
Plate border
 62
0
 70
0
 66
1
 10
0.0
 20
0.0
 30
0.0
  0
VERTEX
  8
Plate border
 10
238.65
 20
-133.35000000000002
 30
0.0
  0
VERTEX
  8
Plate border
 10
47.10000000000002
 20
-133.35000000000002
 30
0.0
  0
SEQEND
  8
Plate border
  0
POLYLINE
  8
Plate border
 62
0
 70
0
 66
1
 10
0.0
 20
0.0
 30
0.0
  0
VERTEX
  8
Plate border
 10
44.350000000000044
 20
-116.82500000000002
 30
0.0
  0
VERTEX
  8
Plate border
 10
29.46875000000002
 20
-116.82500000000002
 30
0.0
  0
SEQEND
  8
Plate border
  0
POLYLINE
  8
Plate border
 62
0
 70
0
 66
1
 10
0.0
 20
0.0
 30
0.0
  0
VERTEX
  8
Plate border
 10
7.495000000000003
 20
-25.92499999999999
 30
0.0
  0
VERTEX
  8
Plate border
 10
30.301153084738417
 20
-25.92499999999999
 30
0.0
  0
SEQEND
  8
Plate border
  0
POLYLINE
  8
Plate border
 62
0
 70
0
 66
1
 10
0.0
 20
0.0
 30
0.0
  0
VERTEX
  8
Plate border
 10
30.301153084738417
 20
-30.92499999999999
 30
0.0
  0
VERTEX
  8
Plate border
 10
7.494999999999997
 20
-30.92499999999999
 30
0.0
  0
SEQEND
  8
Plate border
  0
POLYLINE
  8
Plate border
 62
0
 70
0
 66
1
 10
0.0
 20
0.0
 30
0.0
  0
VERTEX
  8
Plate border
 10
344.925
 20
-25.92499999999997
 30
0.0
  0
VERTEX
  8
Plate border
 10
294.3238469152616
 20
-25.924999999999972
 30
0.0
  0
SEQEND
  8
Plate border
  0
POLYLINE
  8
Plate border
 62
0
 70
0
 66
1
 10
0.0
 20
0.0
 30
0.0
  0
VERTEX
  8
Plate border
 10
294.32384691526164
 20
-30.925000000000004
 30
0.0
  0
VERTEX
  8
Plate border
 10
344.925
 20
-30.92499999999997
 30
0.0
  0
SEQEND
  8
Plate border
  0
POLYLINE
  8
Group108
 62
0
 70
0
 66
1
 10
0.0
 20
0.0
 30
0.0
  0
VERTEX
  8
Group108
 10
4.90625000000001
 20
-117.57500000000002
 30
0.0
  0
VERTEX
  8
Group108
 10
4.90625000000001
 20
-130.07500000000002
 30
0.0
  0
SEQEND
  8
Group108
  0
ARC
  8
Group108
 62
0
 10
5.656250000000005
 20
-130.07500000000002
 30
0.0
 40
0.75
 50
-180.0
 51
-90.0
  0
ARC
  8
Group108
 62
0
 10
5.656250000000005
 20
-117.57500000000002
 30
0.0
 40
0.75
 50
90.0
 51
-180.0
  0
POLYLINE
  8
Group108
 62
0
 70
0
 66
1
 10
0.0
 20
0.0
 30
0.0
  0
VERTEX
  8
Group108
 10
21.287500000000012
 20
-130.07500000000002
 30
0.0
  0
VERTEX
  8
Group108
 10
21.287500000000012
 20
-117.57500000000002
 30
0.0
  0
SEQEND
  8
Group108
  0
ARC
  8
Group108
 62
0
 10
20.537500000000012
 20
-117.57500000000002
 30
0.0
 40
0.75
 50
-0.0
 51
90.0
  0
ARC
  8
Group108
 62
0
 10
20.537500000000012
 20
-130.07500000000002
 30
0.0
 40
0.75
 50
-90.0
 51
-0.0
  0
POLYLINE
  8
Group108
 62
0
 70
0
 66
1
 10
0.0
 20
0.0
 30
0.0
  0
VERTEX
  8
Group108
 10
20.537500000000012
 20
-116.82500000000002
 30
0.0
  0
VERTEX
  8
Group108
 10
5.6562500000000036
 20
-116.82500000000002
 30
0.0
  0
SEQEND
  8
Group108
  0
POLYLINE
  8
Group108
 62
0
 70
0
 66
1
 10
0.0
 20
0.0
 30
0.0
  0
VERTEX
  8
Group108
 10
5.656250000000005
 20
-130.82500000000002
 30
0.0
  0
VERTEX
  8
Group108
 10
20.537500000000016
 20
-130.82500000000002
 30
0.0
  0
SEQEND
  8
Group108
  0
POLYLINE
  8
Group109
 62
0
 70
0
 66
1
 10
0.0
 20
0.0
 30
0.0
  0
VERTEX
  8
Group109
 10
45.100000000000044
 20
-130.07500000000002
 30
0.0
  0
VERTEX
  8
Group109
 10
45.100000000000044
 20
-117.57500000000002
 30
0.0
  0
SEQEND
  8
Group109
  0
POLYLINE
  8
Group109
 62
0
 70
0
 66
1
 10
0.0
 20
0.0
 30
0.0
  0
VERTEX
  8
Group109
 10
28.718750000000007
 20
-117.57500000000002
 30
0.0
  0
VERTEX
  8
Group109
 10
28.718750000000007
 20
-130.07500000000002
 30
0.0
  0
SEQEND
  8
Group109
  0
ARC
  8
Group109
 62
0
 10
44.350000000000044
 20
-117.57500000000002
 30
0.0
 40
0.75
 50
-0.0
 51
90.0
  0
ARC
  8
Group109
 62
0
 10
29.468750000000004
 20
-117.57500000000002
 30
0.0
 40
0.75
 50
90.0
 51
-180.0
  0
POLYLINE
  8
Group110
 62
0
 70
0
 66
1
 10
0.0
 20
0.0
 30
0.0
  0
VERTEX
  8
Group110
 10
52.53125000000001
 20
-117.57500000000002
 30
0.0
  0
VERTEX
  8
Group110
 10
52.53125000000001
 20
-130.07500000000002
 30
0.0
  0
SEQEND
  8
Group110
  0
ARC
  8
Group110
 62
0
 10
53.28125000000001
 20
-130.07500000000002
 30
0.0
 40
0.75
 50
-180.0
 51
-90.0
  0
ARC
  8
Group110
 62
0
 10
53.28125000000001
 20
-117.57500000000002
 30
0.0
 40
0.75
 50
90.0
 51
-180.0
  0
POLYLINE
  8
Group110
 62
0
 70
0
 66
1
 10
0.0
 20
0.0
 30
0.0
  0
VERTEX
  8
Group110
 10
68.91250000000001
 20
-130.07500000000002
 30
0.0
  0
VERTEX
  8
Group110
 10
68.91250000000001
 20
-117.57500000000002
 30
0.0
  0
SEQEND
  8
Group110
  0
ARC
  8
Group110
 62
0
 10
68.16250000000001
 20
-117.57500000000002
 30
0.0
 40
0.75
 50
-0.0
 51
90.0
  0
ARC
  8
Group110
 62
0
 10
68.16250000000001
 20
-130.07500000000002
 30
0.0
 40
0.75
 50
-90.0
 51
-0.0
  0
POLYLINE
  8
Group110
 62
0
 70
0
 66
1
 10
0.0
 20
0.0
 30
0.0
  0
VERTEX
  8
Group110
 10
68.16250000000001
 20
-116.82500000000002
 30
0.0
  0
VERTEX
  8
Group110
 10
53.28124999999997
 20
-116.82500000000002
 30
0.0
  0
SEQEND
  8
Group110
  0
POLYLINE
  8
Group110
 62
0
 70
0
 66
1
 10
0.0
 20
0.0
 30
0.0
  0
VERTEX
  8
Group110
 10
53.28125000000001
 20
-130.82500000000002
 30
0.0
  0
VERTEX
  8
Group110
 10
68.16250000000002
 20
-130.82500000000002
 30
0.0
  0
SEQEND
  8
Group110
  0
ARC
  8
Group112
 62
0
 10
178.00674999999998
 20
-116.075
 30
0.0
 40
0.75
 50
90.0
 51
-180.0
  0
POLYLINE
  8
Group112
 62
0
 70
0
 66
1
 10
0.0
 20
0.0
 30
0.0
  0
VERTEX
  8
Group112
 10
178.00674999999998
 20
-115.325
 30
0.0
  0
VERTEX
  8
Group112
 10
184.00674999999998
 20
-115.325
 30
0.0
  0
SEQEND
  8
Group112
  0
ARC
  8
Group112
 62
0
 10
184.00674999999998
 20
-116.075
 30
0.0
 40
0.75
 50
-0.0
 51
90.0
  0
POLYLINE
  8
Group112
 62
0
 70
0
 66
1
 10
0.0
 20
0.0
 30
0.0
  0
VERTEX
  8
Group112
 10
184.75674999999998
 20
-116.075
 30
0.0
  0
VERTEX
  8
Group112
 10
184.75674999999998
 20
-131.575
 30
0.0
  0
SEQEND
  8
Group112
  0
ARC
  8
Group112
 62
0
 10
184.00674999999998
 20
-131.575
 30
0.0
 40
0.75
 50
-90.0
 51
-0.0
  0
POLYLINE
  8
Group112
 62
0
 70
0
 66
1
 10
0.0
 20
0.0
 30
0.0
  0
VERTEX
  8
Group112
 10
184.00674999999998
 20
-132.325
 30
0.0
  0
VERTEX
  8
Group112
 10
178.00674999999998
 20
-132.325
 30
0.0
  0
SEQEND
  8
Group112
  0
ARC
  8
Group112
 62
0
 10
178.00674999999998
 20
-131.575
 30
0.0
 40
0.75
 50
-180.0
 51
-90.0
  0
POLYLINE
  8
Group112
 62
0
 70
0
 66
1
 10
0.0
 20
0.0
 30
0.0
  0
VERTEX
  8
Group112
 10
177.25674999999998
 20
-131.575
 30
0.0
  0
VERTEX
  8
Group112
 10
177.25674999999998
 20
-116.07499999999999
 30
0.0
  0
SEQEND
  8
Group112
  0
ARC
  8
Group113
 62
0
 10
77.93075
 20
-116.075
 30
0.0
 40
0.75
 50
90.0
 51
-180.0
  0
ARC
  8
Group113
 62
0
 10
77.93075
 20
-131.575
 30
0.0
 40
0.75
 50
-180.0
 51
-90.0
  0
POLYLINE
  8
Group113
 62
0
 70
0
 66
1
 10
0.0
 20
0.0
 30
0.0
  0
VERTEX
  8
Group113
 10
77.18075
 20
-131.575
 30
0.0
  0
VERTEX
  8
Group113
 10
77.18075
 20
-116.07499999999999
 30
0.0
  0
SEQEND
  8
Group113
  0
ARC
  8
Group111
 62
0
 10
124.71874999999999
 20
-130.075
 30
0.0
 40
0.75
 50
-180.0
 51
-90.0
  0
ARC
  8
Group111
 62
0
 10
124.71874999999999
 20
-117.575
 30
0.0
 40
0.75
 50
90.0
 51
-180.0
  0
POLYLINE
  8
Group111
 62
0
 70
0
 66
1
 10
0.0
 20
0.0
 30
0.0
  0
VERTEX
  8
Group111
 10
123.96874999999999
 20
-117.575
 30
0.0
  0
VERTEX
  8
Group111
 10
123.96874999999999
 20
-130.075
 30
0.0
  0
SEQEND
  8
Group111
  0
ARC
  8
Group111
 62
0
 10
149.12499999999997
 20
-117.57500000000002
 30
0.0
 40
0.75
 50
-0.0
 51
90.0
  0
ARC
  8
Group111
 62
0
 10
149.12499999999997
 20
-130.07500000000002
 30
0.0
 40
0.75
 50
-90.0
 51
-0.0
  0
POLYLINE
  8
Group111
 62
0
 70
0
 66
1
 10
0.0
 20
0.0
 30
0.0
  0
VERTEX
  8
Group111
 10
149.87499999999997
 20
-130.07500000000002
 30
0.0
  0
VERTEX
  8
Group111
 10
149.87499999999997
 20
-117.57500000000002
 30
0.0
  0
SEQEND
  8
Group111
  0
ARC
  8
Group139
 62
0
 10
88.72499999999998
 20
-116.07500000000002
 30
0.0
 40
0.75
 50
-0.0
 51
90.0
  0
POLYLINE
  8
Group139
 62
0
 70
0
 66
1
 10
0.0
 20
0.0
 30
0.0
  0
VERTEX
  8
Group139
 10
89.47499999999998
 20
-116.07500000000002
 30
0.0
  0
VERTEX
  8
Group139
 10
89.47499999999998
 20
-131.57500000000002
 30
0.0
  0
SEQEND
  8
Group139
  0
ARC
  8
Group139
 62
0
 10
88.72499999999998
 20
-131.57500000000002
 30
0.0
 40
0.75
 50
-90.0
 51
-0.0
  0
ARC
  8
Group138
 62
0
 10
197.02499999999998
 20
-116.07500000000002
 30
0.0
 40
0.75
 50
90.0
 51
-180.0
  0
POLYLINE
  8
Group138
 62
0
 70
0
 66
1
 10
0.0
 20
0.0
 30
0.0
  0
VERTEX
  8
Group138
 10
197.02499999999998
 20
-115.32500000000002
 30
0.0
  0
VERTEX
  8
Group138
 10
203.02499999999998
 20
-115.32500000000002
 30
0.0
  0
SEQEND
  8
Group138
  0
ARC
  8
Group138
 62
0
 10
203.02499999999998
 20
-116.07500000000002
 30
0.0
 40
0.75
 50
-0.0
 51
90.0
  0
ARC
  8
Group138
 62
0
 10
203.02499999999998
 20
-131.57500000000002
 30
0.0
 40
0.75
 50
-90.0
 51
-0.0
  0
POLYLINE
  8
Group138
 62
0
 70
0
 66
1
 10
0.0
 20
0.0
 30
0.0
  0
VERTEX
  8
Group138
 10
203.02499999999998
 20
-132.32500000000002
 30
0.0
  0
VERTEX
  8
Group138
 10
197.02499999999998
 20
-132.32500000000002
 30
0.0
  0
SEQEND
  8
Group138
  0
ARC
  8
Group138
 62
0
 10
197.02499999999998
 20
-131.57500000000002
 30
0.0
 40
0.75
 50
-180.0
 51
-90.0
  0
POLYLINE
  8
Group111
 62
0
 70
0
 66
1
 10
0.0
 20
0.0
 30
0.0
  0
VERTEX
  8
Group111
 10
209.40625
 20
-130.075
 30
0.0
  0
VERTEX
  8
Group111
 10
209.40625
 20
-117.57499999999999
 30
0.0
  0
SEQEND
  8
Group111
  0
POLYLINE
  8
Group111
 62
0
 70
0
 66
1
 10
0.0
 20
0.0
 30
0.0
  0
VERTEX
  8
Group111
 10
195.40625
 20
-117.575
 30
0.0
  0
VERTEX
  8
Group111
 10
195.40625
 20
-130.075
 30
0.0
  0
SEQEND
  8
Group111
  0
ARC
  8
Group111
 62
0
 10
196.15625
 20
-130.075
 30
0.0
 40
0.75
 50
-180.0
 51
-90.0
  0
ARC
  8
Group111
 62
0
 10
208.65625
 20
-117.575
 30
0.0
 40
0.75
 50
-0.0
 51
90.0
  0
ARC
  8
Group111
 62
0
 10
196.15625
 20
-117.575
 30
0.0
 40
0.75
 50
90.0
 51
-180.0
  0
ARC
  8
Group111
 62
0
 10
208.65625
 20
-130.075
 30
0.0
 40
0.75
 50
-90.0
 51
-0.0
  0
POLYLINE
  8
Group111
 62
0
 70
0
 66
1
 10
0.0
 20
0.0
 30
0.0
  0
VERTEX
  8
Group111
 10
88.72499999999998
 20
-115.32500000000002
 30
0.0
  0
VERTEX
  8
Group111
 10
77.93075
 20
-115.325
 30
0.0
  0
SEQEND
  8
Group111
  0
POLYLINE
  8
Group111
 62
0
 70
0
 66
1
 10
0.0
 20
0.0
 30
0.0
  0
VERTEX
  8
Group111
 10
77.93075
 20
-132.325
 30
0.0
  0
VERTEX
  8
Group111
 10
88.72499999999998
 20
-132.32500000000002
 30
0.0
  0
SEQEND
  8
Group111
  0
POLYLINE
  8
Group111
 62
0
 70
0
 66
1
 10
0.0
 20
0.0
 30
0.0
  0
VERTEX
  8
Group111
 10
149.12499999999997
 20
-116.82500000000002
 30
0.0
  0
VERTEX
  8
Group111
 10
124.71874999999999
 20
-116.825
 30
0.0
  0
SEQEND
  8
Group111
  0
POLYLINE
  8
Group111
 62
0
 70
0
 66
1
 10
0.0
 20
0.0
 30
0.0
  0
VERTEX
  8
Group111
 10
124.71874999999999
 20
-130.825
 30
0.0
  0
VERTEX
  8
Group111
 10
149.12499999999997
 20
-130.82500000000002
 30
0.0
  0
SEQEND
  8
Group111
  0
POLYLINE
  8
Group111
 62
0
 70
0
 66
1
 10
0.0
 20
0.0
 30
0.0
  0
VERTEX
  8
Group111
 10
196.15625
 20
-116.825
 30
0.0
  0
VERTEX
  8
Group111
 10
196.27499999999998
 20
-116.825
 30
0.0
  0
SEQEND
  8
Group111
  0
POLYLINE
  8
Group111
 62
0
 70
0
 66
1
 10
0.0
 20
0.0
 30
0.0
  0
VERTEX
  8
Group111
 10
196.15625
 20
-130.825
 30
0.0
  0
VERTEX
  8
Group111
 10
196.27499999999998
 20
-130.825
 30
0.0
  0
SEQEND
  8
Group111
  0
POLYLINE
  8
Group111
 62
0
 70
0
 66
1
 10
0.0
 20
0.0
 30
0.0
  0
VERTEX
  8
Group111
 10
208.65625
 20
-130.825
 30
0.0
  0
VERTEX
  8
Group111
 10
203.77499999999998
 20
-130.825
 30
0.0
  0
SEQEND
  8
Group111
  0
POLYLINE
  8
Group111
 62
0
 70
0
 66
1
 10
0.0
 20
0.0
 30
0.0
  0
VERTEX
  8
Group111
 10
208.65625
 20
-116.825
 30
0.0
  0
VERTEX
  8
Group111
 10
203.77499999999998
 20
-116.825
 30
0.0
  0
SEQEND
  8
Group111
  0
POLYLINE
  8
Group111
 62
0
 70
0
 66
1
 10
0.0
 20
0.0
 30
0.0
  0
VERTEX
  8
Group111
 10
196.27499999999998
 20
-116.07500000000002
 30
0.0
  0
VERTEX
  8
Group111
 10
196.27499999999998
 20
-116.825
 30
0.0
  0
SEQEND
  8
Group111
  0
POLYLINE
  8
Group111
 62
0
 70
0
 66
1
 10
0.0
 20
0.0
 30
0.0
  0
VERTEX
  8
Group111
 10
203.77499999999998
 20
-116.07500000000002
 30
0.0
  0
VERTEX
  8
Group111
 10
203.77499999999998
 20
-116.825
 30
0.0
  0
SEQEND
  8
Group111
  0
POLYLINE
  8
Group111
 62
0
 70
0
 66
1
 10
0.0
 20
0.0
 30
0.0
  0
VERTEX
  8
Group111
 10
196.27499999999998
 20
-131.57500000000002
 30
0.0
  0
VERTEX
  8
Group111
 10
196.27499999999998
 20
-130.825
 30
0.0
  0
SEQEND
  8
Group111
  0
POLYLINE
  8
Group111
 62
0
 70
0
 66
1
 10
0.0
 20
0.0
 30
0.0
  0
VERTEX
  8
Group111
 10
203.77499999999998
 20
-130.825
 30
0.0
  0
VERTEX
  8
Group111
 10
203.77499999999998
 20
-131.57500000000002
 30
0.0
  0
SEQEND
  8
Group111
  0
POLYLINE
  8
Group115
 62
0
 70
0
 66
1
 10
0.0
 20
0.0
 30
0.0
  0
VERTEX
  8
Group115
 10
233.21875
 20
-130.075
 30
0.0
  0
VERTEX
  8
Group115
 10
233.21875
 20
-117.57499999999999
 30
0.0
  0
SEQEND
  8
Group115
  0
ARC
  8
Group115
 62
0
 10
232.46875
 20
-117.575
 30
0.0
 40
0.75
 50
-0.0
 51
90.0
  0
ARC
  8
Group115
 62
0
 10
232.46875
 20
-130.075
 30
0.0
 40
0.75
 50
-90.0
 51
-0.0
  0
POLYLINE
  8
Group115
 62
0
 70
0
 66
1
 10
0.0
 20
0.0
 30
0.0
  0
VERTEX
  8
Group115
 10
216.83749999999995
 20
-117.57500000000002
 30
0.0
  0
VERTEX
  8
Group115
 10
216.83749999999995
 20
-130.07500000000002
 30
0.0
  0
SEQEND
  8
Group115
  0
ARC
  8
Group115
 62
0
 10
217.58749999999995
 20
-117.57500000000002
 30
0.0
 40
0.75
 50
90.0
 51
-180.0
  0
ARC
  8
Group115
 62
0
 10
217.58749999999995
 20
-130.07500000000002
 30
0.0
 40
0.75
 50
-180.0
 51
-90.0
  0
POLYLINE
  8
Group115
 62
0
 70
0
 66
1
 10
0.0
 20
0.0
 30
0.0
  0
VERTEX
  8
Group115
 10
217.58749999999995
 20
-116.82500000000002
 30
0.0
  0
VERTEX
  8
Group115
 10
232.46875
 20
-116.82500000000006
 30
0.0
  0
SEQEND
  8
Group115
  0
POLYLINE
  8
Group115
 62
0
 70
0
 66
1
 10
0.0
 20
0.0
 30
0.0
  0
VERTEX
  8
Group115
 10
217.58749999999995
 20
-130.82500000000002
 30
0.0
  0
VERTEX
  8
Group115
 10
232.46875
 20
-130.825
 30
0.0
  0
SEQEND
  8
Group115
  0
POLYLINE
  8
Group116
 62
0
 70
0
 66
1
 10
0.0
 20
0.0
 30
0.0
  0
VERTEX
  8
Group116
 10
257.03125000000006
 20
-130.075
 30
0.0
  0
VERTEX
  8
Group116
 10
257.03125000000006
 20
-117.57499999999999
 30
0.0
  0
SEQEND
  8
Group116
  0
POLYLINE
  8
Group116
 62
0
 70
0
 66
1
 10
0.0
 20
0.0
 30
0.0
  0
VERTEX
  8
Group116
 10
240.65
 20
-117.575
 30
0.0
  0
VERTEX
  8
Group116
 10
240.65
 20
-130.075
 30
0.0
  0
SEQEND
  8
Group116
  0
ARC
  8
Group116
 62
0
 10
256.28125000000006
 20
-117.575
 30
0.0
 40
0.75
 50
-0.0
 51
90.0
  0
ARC
  8
Group116
 62
0
 10
241.4
 20
-117.575
 30
0.0
 40
0.75
 50
90.0
 51
-180.0
  0
POLYLINE
  8
Group117
 62
0
 70
0
 66
1
 10
0.0
 20
0.0
 30
0.0
  0
VERTEX
  8
Group117
 10
280.84375000000006
 20
-130.075
 30
0.0
  0
VERTEX
  8
Group117
 10
280.84375000000006
 20
-117.57499999999999
 30
0.0
  0
SEQEND
  8
Group117
  0
ARC
  8
Group117
 62
0
 10
280.09375000000006
 20
-117.575
 30
0.0
 40
0.75
 50
-0.0
 51
90.0
  0
ARC
  8
Group117
 62
0
 10
280.09375000000006
 20
-130.075
 30
0.0
 40
0.75
 50
-90.0
 51
-0.0
  0
POLYLINE
  8
Group117
 62
0
 70
0
 66
1
 10
0.0
 20
0.0
 30
0.0
  0
VERTEX
  8
Group117
 10
264.46250000000003
 20
-117.57500000000002
 30
0.0
  0
VERTEX
  8
Group117
 10
264.46250000000003
 20
-130.07500000000002
 30
0.0
  0
SEQEND
  8
Group117
  0
ARC
  8
Group117
 62
0
 10
265.21250000000003
 20
-117.57500000000002
 30
0.0
 40
0.75
 50
90.0
 51
-180.0
  0
ARC
  8
Group117
 62
0
 10
265.21250000000003
 20
-130.07500000000002
 30
0.0
 40
0.75
 50
-180.0
 51
-90.0
  0
POLYLINE
  8
Group117
 62
0
 70
0
 66
1
 10
0.0
 20
0.0
 30
0.0
  0
VERTEX
  8
Group117
 10
280.09375000000006
 20
-116.825
 30
0.0
  0
VERTEX
  8
Group117
 10
265.21250000000003
 20
-116.82500000000002
 30
0.0
  0
SEQEND
  8
Group117
  0
POLYLINE
  8
Group117
 62
0
 70
0
 66
1
 10
0.0
 20
0.0
 30
0.0
  0
VERTEX
  8
Group117
 10
265.21250000000003
 20
-130.82500000000002
 30
0.0
  0
VERTEX
  8
Group117
 10
280.09375000000006
 20
-130.825
 30
0.0
  0
SEQEND
  8
Group117
  0
ARC
  8
Group118
 62
0
 10
298.5499999999999
 20
-117.57500000000002
 30
0.0
 40
0.75
 50
90.0
 51
-180.0
  0
ARC
  8
Group118
 62
0
 10
311.0499999999999
 20
-117.57500000000002
 30
0.0
 40
0.75
 50
-0.0
 51
90.0
  0
ARC
  8
Group118
 62
0
 10
298.5499999999999
 20
-130.07500000000002
 30
0.0
 40
0.75
 50
-180.0
 51
-90.0
  0
ARC
  8
Group118
 62
0
 10
311.0499999999999
 20
-130.07500000000002
 30
0.0
 40
0.75
 50
-90.0
 51
-0.0
  0
POLYLINE
  8
Group118
 62
0
 70
0
 66
1
 10
0.0
 20
0.0
 30
0.0
  0
VERTEX
  8
Group118
 10
311.0499999999999
 20
-116.82500000000002
 30
0.0
  0
VERTEX
  8
Group118
 10
298.5499999999999
 20
-116.82500000000002
 30
0.0
  0
SEQEND
  8
Group118
  0
POLYLINE
  8
Group118
 62
0
 70
0
 66
1
 10
0.0
 20
0.0
 30
0.0
  0
VERTEX
  8
Group118
 10
297.7999999999999
 20
-117.57500000000002
 30
0.0
  0
VERTEX
  8
Group118
 10
297.7999999999999
 20
-130.07500000000002
 30
0.0
  0
SEQEND
  8
Group118
  0
POLYLINE
  8
Group118
 62
0
 70
0
 66
1
 10
0.0
 20
0.0
 30
0.0
  0
VERTEX
  8
Group118
 10
298.5499999999999
 20
-130.82500000000002
 30
0.0
  0
VERTEX
  8
Group118
 10
311.0499999999999
 20
-130.82500000000002
 30
0.0
  0
SEQEND
  8
Group118
  0
POLYLINE
  8
Group118
 62
0
 70
0
 66
1
 10
0.0
 20
0.0
 30
0.0
  0
VERTEX
  8
Group118
 10
311.7999999999999
 20
-130.07500000000002
 30
0.0
  0
VERTEX
  8
Group118
 10
311.7999999999999
 20
-117.57500000000002
 30
0.0
  0
SEQEND
  8
Group118
  0
ARC
  8
Group119
 62
0
 10
317.59999999999997
 20
-117.57500000000002
 30
0.0
 40
0.75
 50
90.0
 51
-180.0
  0
ARC
  8
Group119
 62
0
 10
330.09999999999997
 20
-117.57500000000002
 30
0.0
 40
0.75
 50
-0.0
 51
90.0
  0
ARC
  8
Group119
 62
0
 10
317.59999999999997
 20
-130.07500000000002
 30
0.0
 40
0.75
 50
-180.0
 51
-90.0
  0
ARC
  8
Group119
 62
0
 10
330.09999999999997
 20
-130.07500000000002
 30
0.0
 40
0.75
 50
-90.0
 51
-0.0
  0
POLYLINE
  8
Group119
 62
0
 70
0
 66
1
 10
0.0
 20
0.0
 30
0.0
  0
VERTEX
  8
Group119
 10
330.09999999999997
 20
-116.82500000000002
 30
0.0
  0
VERTEX
  8
Group119
 10
317.59999999999997
 20
-116.82500000000002
 30
0.0
  0
SEQEND
  8
Group119
  0
POLYLINE
  8
Group119
 62
0
 70
0
 66
1
 10
0.0
 20
0.0
 30
0.0
  0
VERTEX
  8
Group119
 10
316.84999999999997
 20
-117.57500000000002
 30
0.0
  0
VERTEX
  8
Group119
 10
316.84999999999997
 20
-130.07500000000002
 30
0.0
  0
SEQEND
  8
Group119
  0
POLYLINE
  8
Group119
 62
0
 70
0
 66
1
 10
0.0
 20
0.0
 30
0.0
  0
VERTEX
  8
Group119
 10
317.59999999999997
 20
-130.82500000000002
 30
0.0
  0
VERTEX
  8
Group119
 10
330.09999999999997
 20
-130.82500000000002
 30
0.0
  0
SEQEND
  8
Group119
  0
POLYLINE
  8
Group119
 62
0
 70
0
 66
1
 10
0.0
 20
0.0
 30
0.0
  0
VERTEX
  8
Group119
 10
330.84999999999997
 20
-130.07500000000002
 30
0.0
  0
VERTEX
  8
Group119
 10
330.84999999999997
 20
-117.57500000000002
 30
0.0
  0
SEQEND
  8
Group119
  0
ARC
  8
Group120
 62
0
 10
336.6499999999999
 20
-117.57500000000002
 30
0.0
 40
0.75
 50
90.0
 51
-180.0
  0
ARC
  8
Group120
 62
0
 10
349.1499999999999
 20
-117.57500000000002
 30
0.0
 40
0.75
 50
-0.0
 51
90.0
  0
ARC
  8
Group120
 62
0
 10
336.6499999999999
 20
-130.07500000000002
 30
0.0
 40
0.75
 50
-180.0
 51
-90.0
  0
ARC
  8
Group120
 62
0
 10
349.1499999999999
 20
-130.07500000000002
 30
0.0
 40
0.75
 50
-90.0
 51
-0.0
  0
POLYLINE
  8
Group120
 62
0
 70
0
 66
1
 10
0.0
 20
0.0
 30
0.0
  0
VERTEX
  8
Group120
 10
349.1499999999999
 20
-116.82500000000002
 30
0.0
  0
VERTEX
  8
Group120
 10
336.6499999999999
 20
-116.82500000000002
 30
0.0
  0
SEQEND
  8
Group120
  0
POLYLINE
  8
Group120
 62
0
 70
0
 66
1
 10
0.0
 20
0.0
 30
0.0
  0
VERTEX
  8
Group120
 10
335.8999999999999
 20
-117.57500000000002
 30
0.0
  0
VERTEX
  8
Group120
 10
335.8999999999999
 20
-130.07500000000002
 30
0.0
  0
SEQEND
  8
Group120
  0
POLYLINE
  8
Group120
 62
0
 70
0
 66
1
 10
0.0
 20
0.0
 30
0.0
  0
VERTEX
  8
Group120
 10
336.6499999999999
 20
-130.82500000000002
 30
0.0
  0
VERTEX
  8
Group120
 10
349.1499999999999
 20
-130.82500000000002
 30
0.0
  0
SEQEND
  8
Group120
  0
POLYLINE
  8
Group120
 62
0
 70
0
 66
1
 10
0.0
 20
0.0
 30
0.0
  0
VERTEX
  8
Group120
 10
349.8999999999999
 20
-130.07500000000002
 30
0.0
  0
VERTEX
  8
Group120
 10
349.8999999999999
 20
-117.57500000000002
 30
0.0
  0
SEQEND
  8
Group120
  0
ARC
  8
Group123
 62
0
 10
403.325
 20
-117.575
 30
0.0
 40
0.75
 50
90.0
 51
-180.0
  0
ARC
  8
Group123
 62
0
 10
415.825
 20
-117.575
 30
0.0
 40
0.75
 50
-0.0
 51
90.0
  0
ARC
  8
Group123
 62
0
 10
403.325
 20
-130.075
 30
0.0
 40
0.75
 50
-180.0
 51
-90.0
  0
ARC
  8
Group123
 62
0
 10
415.825
 20
-130.075
 30
0.0
 40
0.75
 50
-90.0
 51
-0.0
  0
POLYLINE
  8
Group123
 62
0
 70
0
 66
1
 10
0.0
 20
0.0
 30
0.0
  0
VERTEX
  8
Group123
 10
415.825
 20
-116.825
 30
0.0
  0
VERTEX
  8
Group123
 10
403.325
 20
-116.825
 30
0.0
  0
SEQEND
  8
Group123
  0
POLYLINE
  8
Group123
 62
0
 70
0
 66
1
 10
0.0
 20
0.0
 30
0.0
  0
VERTEX
  8
Group123
 10
402.575
 20
-117.575
 30
0.0
  0
VERTEX
  8
Group123
 10
402.575
 20
-130.075
 30
0.0
  0
SEQEND
  8
Group123
  0
POLYLINE
  8
Group123
 62
0
 70
0
 66
1
 10
0.0
 20
0.0
 30
0.0
  0
VERTEX
  8
Group123
 10
403.325
 20
-130.825
 30
0.0
  0
VERTEX
  8
Group123
 10
415.825
 20
-130.825
 30
0.0
  0
SEQEND
  8
Group123
  0
POLYLINE
  8
Group123
 62
0
 70
0
 66
1
 10
0.0
 20
0.0
 30
0.0
  0
VERTEX
  8
Group123
 10
416.575
 20
-130.075
 30
0.0
  0
VERTEX
  8
Group123
 10
416.575
 20
-117.57499999999999
 30
0.0
  0
SEQEND
  8
Group123
  0
ARC
  8
Group158
 62
0
 10
366.06200000000007
 20
-116.07499999999999
 30
0.0
 40
0.75
 50
90.0
 51
-180.0
  0
POLYLINE
  8
Group158
 62
0
 70
0
 66
1
 10
0.0
 20
0.0
 30
0.0
  0
VERTEX
  8
Group158
 10
366.06200000000007
 20
-115.32499999999999
 30
0.0
  0
VERTEX
  8
Group158
 10
372.06200000000007
 20
-115.32499999999999
 30
0.0
  0
SEQEND
  8
Group158
  0
ARC
  8
Group158
 62
0
 10
372.06200000000007
 20
-116.07499999999999
 30
0.0
 40
0.75
 50
-0.0
 51
90.0
  0
ARC
  8
Group158
 62
0
 10
372.06200000000007
 20
-131.575
 30
0.0
 40
0.75
 50
-90.0
 51
-0.0
  0
POLYLINE
  8
Group158
 62
0
 70
0
 66
1
 10
0.0
 20
0.0
 30
0.0
  0
VERTEX
  8
Group158
 10
372.06200000000007
 20
-132.325
 30
0.0
  0
VERTEX
  8
Group158
 10
366.06200000000007
 20
-132.325
 30
0.0
  0
SEQEND
  8
Group158
  0
ARC
  8
Group158
 62
0
 10
366.06200000000007
 20
-131.575
 30
0.0
 40
0.75
 50
-180.0
 51
-90.0
  0
ARC
  8
Group159
 62
0
 10
389.93800000000005
 20
-116.07499999999999
 30
0.0
 40
0.75
 50
90.0
 51
-180.0
  0
POLYLINE
  8
Group159
 62
0
 70
0
 66
1
 10
0.0
 20
0.0
 30
0.0
  0
VERTEX
  8
Group159
 10
389.93800000000005
 20
-115.32499999999999
 30
0.0
  0
VERTEX
  8
Group159
 10
395.93800000000005
 20
-115.32499999999999
 30
0.0
  0
SEQEND
  8
Group159
  0
ARC
  8
Group159
 62
0
 10
395.93800000000005
 20
-116.07499999999999
 30
0.0
 40
0.75
 50
-0.0
 51
90.0
  0
ARC
  8
Group159
 62
0
 10
395.93800000000005
 20
-131.575
 30
0.0
 40
0.75
 50
-90.0
 51
-0.0
  0
POLYLINE
  8
Group159
 62
0
 70
0
 66
1
 10
0.0
 20
0.0
 30
0.0
  0
VERTEX
  8
Group159
 10
395.93800000000005
 20
-132.325
 30
0.0
  0
VERTEX
  8
Group159
 10
389.93800000000005
 20
-132.325
 30
0.0
  0
SEQEND
  8
Group159
  0
ARC
  8
Group159
 62
0
 10
389.93800000000005
 20
-131.575
 30
0.0
 40
0.75
 50
-180.0
 51
-90.0
  0
ARC
  8
Group161
 62
0
 10
365.22499999999997
 20
-117.57499999999999
 30
0.0
 40
0.75
 50
90.0
 51
-180.0
  0
ARC
  8
Group161
 62
0
 10
365.22499999999997
 20
-130.075
 30
0.0
 40
0.75
 50
-180.0
 51
-90.0
  0
POLYLINE
  8
Group161
 62
0
 70
0
 66
1
 10
0.0
 20
0.0
 30
0.0
  0
VERTEX
  8
Group161
 10
364.47499999999997
 20
-117.57499999999999
 30
0.0
  0
VERTEX
  8
Group161
 10
364.47499999999997
 20
-130.075
 30
0.0
  0
SEQEND
  8
Group161
  0
ARC
  8
Group160
 62
0
 10
396.77500000000003
 20
-117.57499999999999
 30
0.0
 40
0.75
 50
-0.0
 51
90.0
  0
ARC
  8
Group160
 62
0
 10
396.77500000000003
 20
-130.075
 30
0.0
 40
0.75
 50
-90.0
 51
-0.0
  0
POLYLINE
  8
Group160
 62
0
 70
0
 66
1
 10
0.0
 20
0.0
 30
0.0
  0
VERTEX
  8
Group160
 10
397.52500000000003
 20
-130.075
 30
0.0
  0
VERTEX
  8
Group160
 10
397.52500000000003
 20
-117.57499999999999
 30
0.0
  0
SEQEND
  8
Group160
  0
POLYLINE
  8
numzero
 62
0
 70
0
 66
1
 10
0.0
 20
0.0
 30
0.0
  0
VERTEX
  8
numzero
 10
365.22499999999997
 20
-116.82499999999999
 30
0.0
  0
VERTEX
  8
numzero
 10
365.312
 20
-116.82499999999999
 30
0.0
  0
SEQEND
  8
numzero
  0
POLYLINE
  8
numzero
 62
0
 70
0
 66
1
 10
0.0
 20
0.0
 30
0.0
  0
VERTEX
  8
numzero
 10
372.81200000000007
 20
-116.82499999999999
 30
0.0
  0
VERTEX
  8
numzero
 10
389.18800000000005
 20
-116.82499999999999
 30
0.0
  0
SEQEND
  8
numzero
  0
POLYLINE
  8
numzero
 62
0
 70
0
 66
1
 10
0.0
 20
0.0
 30
0.0
  0
VERTEX
  8
numzero
 10
396.77500000000003
 20
-116.82499999999999
 30
0.0
  0
VERTEX
  8
numzero
 10
396.688
 20
-116.82499999999999
 30
0.0
  0
SEQEND
  8
numzero
  0
POLYLINE
  8
numzero
 62
0
 70
0
 66
1
 10
0.0
 20
0.0
 30
0.0
  0
VERTEX
  8
numzero
 10
396.77500000000003
 20
-130.825
 30
0.0
  0
VERTEX
  8
numzero
 10
396.688
 20
-130.825
 30
0.0
  0
SEQEND
  8
numzero
  0
POLYLINE
  8
numzero
 62
0
 70
0
 66
1
 10
0.0
 20
0.0
 30
0.0
  0
VERTEX
  8
numzero
 10
365.22499999999997
 20
-130.825
 30
0.0
  0
VERTEX
  8
numzero
 10
365.312
 20
-130.825
 30
0.0
  0
SEQEND
  8
numzero
  0
POLYLINE
  8
numzero
 62
0
 70
0
 66
1
 10
0.0
 20
0.0
 30
0.0
  0
VERTEX
  8
numzero
 10
365.31200000000007
 20
-116.82499999999999
 30
0.0
  0
VERTEX
  8
numzero
 10
365.31200000000007
 20
-116.07499999999999
 30
0.0
  0
SEQEND
  8
numzero
  0
POLYLINE
  8
numzero
 62
0
 70
0
 66
1
 10
0.0
 20
0.0
 30
0.0
  0
VERTEX
  8
numzero
 10
372.81200000000007
 20
-116.07499999999999
 30
0.0
  0
VERTEX
  8
numzero
 10
372.81200000000007
 20
-116.82499999999999
 30
0.0
  0
SEQEND
  8
numzero
  0
POLYLINE
  8
numzero
 62
0
 70
0
 66
1
 10
0.0
 20
0.0
 30
0.0
  0
VERTEX
  8
numzero
 10
389.18800000000005
 20
-116.07499999999999
 30
0.0
  0
VERTEX
  8
numzero
 10
389.18800000000005
 20
-116.82499999999999
 30
0.0
  0
SEQEND
  8
numzero
  0
POLYLINE
  8
numzero
 62
0
 70
0
 66
1
 10
0.0
 20
0.0
 30
0.0
  0
VERTEX
  8
numzero
 10
396.68800000000005
 20
-116.07499999999999
 30
0.0
  0
VERTEX
  8
numzero
 10
396.68800000000005
 20
-116.82499999999999
 30
0.0
  0
SEQEND
  8
numzero
  0
POLYLINE
  8
numzero
 62
0
 70
0
 66
1
 10
0.0
 20
0.0
 30
0.0
  0
VERTEX
  8
numzero
 10
365.31200000000007
 20
-131.575
 30
0.0
  0
VERTEX
  8
numzero
 10
365.31200000000007
 20
-130.825
 30
0.0
  0
SEQEND
  8
numzero
  0
POLYLINE
  8
numzero
 62
0
 70
0
 66
1
 10
0.0
 20
0.0
 30
0.0
  0
VERTEX
  8
numzero
 10
396.68800000000005
 20
-131.575
 30
0.0
  0
VERTEX
  8
numzero
 10
396.68800000000005
 20
-130.825
 30
0.0
  0
SEQEND
  8
numzero
  0
POLYLINE
  8
numzero
 62
0
 70
0
 66
1
 10
0.0
 20
0.0
 30
0.0
  0
VERTEX
  8
numzero
 10
389.18800000000005
 20
-131.575
 30
0.0
  0
VERTEX
  8
numzero
 10
389.18800000000005
 20
-130.825
 30
0.0
  0
SEQEND
  8
numzero
  0
POLYLINE
  8
numzero
 62
0
 70
0
 66
1
 10
0.0
 20
0.0
 30
0.0
  0
VERTEX
  8
numzero
 10
389.18800000000005
 20
-130.825
 30
0.0
  0
VERTEX
  8
numzero
 10
372.81200000000007
 20
-130.825
 30
0.0
  0
SEQEND
  8
numzero
  0
POLYLINE
  8
numzero
 62
0
 70
0
 66
1
 10
0.0
 20
0.0
 30
0.0
  0
VERTEX
  8
numzero
 10
372.81200000000007
 20
-131.575
 30
0.0
  0
VERTEX
  8
numzero
 10
372.81200000000007
 20
-130.825
 30
0.0
  0
SEQEND
  8
numzero
  0
ARC
  8
Group163
 62
0
 10
420.87499999999994
 20
-129.23800000000006
 30
0.0
 40
0.75
 50
-180.0
 51
-90.0
  0
POLYLINE
  8
Group163
 62
0
 70
0
 66
1
 10
0.0
 20
0.0
 30
0.0
  0
VERTEX
  8
Group163
 10
420.12499999999994
 20
-129.23800000000006
 30
0.0
  0
VERTEX
  8
Group163
 10
420.1249999999998
 20
-123.23800000000001
 30
0.0
  0
SEQEND
  8
Group163
  0
ARC
  8
Group163
 62
0
 10
420.87499999999994
 20
-123.23800000000006
 30
0.0
 40
0.75
 50
90.0
 51
-180.0
  0
ARC
  8
Group163
 62
0
 10
436.37500000000006
 20
-123.238
 30
0.0
 40
0.75
 50
-0.0
 51
90.0
  0
POLYLINE
  8
Group163
 62
0
 70
0
 66
1
 10
0.0
 20
0.0
 30
0.0
  0
VERTEX
  8
Group163
 10
437.12500000000006
 20
-123.238
 30
0.0
  0
VERTEX
  8
Group163
 10
437.1250000000002
 20
-129.238
 30
0.0
  0
SEQEND
  8
Group163
  0
ARC
  8
Group163
 62
0
 10
436.37500000000006
 20
-129.238
 30
0.0
 40
0.75
 50
-90.0
 51
-0.0
  0
ARC
  8
Group164
 62
0
 10
420.87499999999994
 20
-105.36200000000008
 30
0.0
 40
0.75
 50
-180.0
 51
-90.0
  0
POLYLINE
  8
Group164
 62
0
 70
0
 66
1
 10
0.0
 20
0.0
 30
0.0
  0
VERTEX
  8
Group164
 10
420.12499999999994
 20
-105.36200000000008
 30
0.0
  0
VERTEX
  8
Group164
 10
420.12499999999994
 20
-99.36200000000008
 30
0.0
  0
SEQEND
  8
Group164
  0
ARC
  8
Group164
 62
0
 10
420.87499999999994
 20
-99.36200000000008
 30
0.0
 40
0.75
 50
90.0
 51
-180.0
  0
ARC
  8
Group164
 62
0
 10
436.37499999999994
 20
-99.36200000000002
 30
0.0
 40
0.75
 50
-0.0
 51
90.0
  0
POLYLINE
  8
Group164
 62
0
 70
0
 66
1
 10
0.0
 20
0.0
 30
0.0
  0
VERTEX
  8
Group164
 10
437.12499999999994
 20
-99.36200000000002
 30
0.0
  0
VERTEX
  8
Group164
 10
437.12499999999994
 20
-105.36200000000002
 30
0.0
  0
SEQEND
  8
Group164
  0
ARC
  8
Group164
 62
0
 10
436.37499999999994
 20
-105.36200000000002
 30
0.0
 40
0.75
 50
-90.0
 51
-0.0
  0
ARC
  8
Group166
 62
0
 10
422.37499999999994
 20
-130.0750000000001
 30
0.0
 40
0.75
 50
-180.0
 51
-90.0
  0
ARC
  8
Group166
 62
0
 10
434.87500000000006
 20
-130.07500000000005
 30
0.0
 40
0.75
 50
-90.0
 51
-0.0
  0
POLYLINE
  8
Group166
 62
0
 70
0
 66
1
 10
0.0
 20
0.0
 30
0.0
  0
VERTEX
  8
Group166
 10
422.37499999999994
 20
-130.8250000000001
 30
0.0
  0
VERTEX
  8
Group166
 10
434.87499999999994
 20
-130.8250000000001
 30
0.0
  0
SEQEND
  8
Group166
  0
ARC
  8
Group165
 62
0
 10
422.37499999999994
 20
-98.52500000000003
 30
0.0
 40
0.75
 50
90.0
 51
-180.0
  0
ARC
  8
Group165
 62
0
 10
434.87499999999994
 20
-98.52499999999998
 30
0.0
 40
0.75
 50
-0.0
 51
90.0
  0
POLYLINE
  8
Group165
 62
0
 70
0
 66
1
 10
0.0
 20
0.0
 30
0.0
  0
VERTEX
  8
Group165
 10
434.87499999999994
 20
-97.77499999999998
 30
0.0
  0
VERTEX
  8
Group165
 10
422.37499999999994
 20
-97.77499999999998
 30
0.0
  0
SEQEND
  8
Group165
  0
POLYLINE
  8
numenter001
 62
0
 70
0
 66
1
 10
0.0
 20
0.0
 30
0.0
  0
VERTEX
  8
numenter001
 10
421.62499999999994
 20
-130.0750000000001
 30
0.0
  0
VERTEX
  8
numenter001
 10
421.62499999999994
 20
-129.98800000000006
 30
0.0
  0
SEQEND
  8
numenter001
  0
POLYLINE
  8
numenter001
 62
0
 70
0
 66
1
 10
0.0
 20
0.0
 30
0.0
  0
VERTEX
  8
numenter001
 10
421.62499999999994
 20
-122.48800000000006
 30
0.0
  0
VERTEX
  8
numenter001
 10
421.62499999999994
 20
-106.11200000000008
 30
0.0
  0
SEQEND
  8
numenter001
  0
POLYLINE
  8
numenter001
 62
0
 70
0
 66
1
 10
0.0
 20
0.0
 30
0.0
  0
VERTEX
  8
numenter001
 10
421.62499999999994
 20
-98.52500000000003
 30
0.0
  0
VERTEX
  8
numenter001
 10
421.62499999999994
 20
-98.61200000000008
 30
0.0
  0
SEQEND
  8
numenter001
  0
POLYLINE
  8
numenter001
 62
0
 70
0
 66
1
 10
0.0
 20
0.0
 30
0.0
  0
VERTEX
  8
numenter001
 10
435.62499999999994
 20
-98.52499999999998
 30
0.0
  0
VERTEX
  8
numenter001
 10
435.62499999999994
 20
-98.61200000000002
 30
0.0
  0
SEQEND
  8
numenter001
  0
POLYLINE
  8
numenter001
 62
0
 70
0
 66
1
 10
0.0
 20
0.0
 30
0.0
  0
VERTEX
  8
numenter001
 10
435.62500000000006
 20
-130.07500000000005
 30
0.0
  0
VERTEX
  8
numenter001
 10
435.62500000000006
 20
-129.988
 30
0.0
  0
SEQEND
  8
numenter001
  0
POLYLINE
  8
numenter001
 62
0
 70
0
 66
1
 10
0.0
 20
0.0
 30
0.0
  0
VERTEX
  8
numenter001
 10
421.62499999999994
 20
-129.98800000000006
 30
0.0
  0
VERTEX
  8
numenter001
 10
420.87499999999994
 20
-129.98800000000006
 30
0.0
  0
SEQEND
  8
numenter001
  0
POLYLINE
  8
numenter001
 62
0
 70
0
 66
1
 10
0.0
 20
0.0
 30
0.0
  0
VERTEX
  8
numenter001
 10
420.87499999999994
 20
-122.48800000000006
 30
0.0
  0
VERTEX
  8
numenter001
 10
421.62499999999994
 20
-122.48800000000006
 30
0.0
  0
SEQEND
  8
numenter001
  0
POLYLINE
  8
numenter001
 62
0
 70
0
 66
1
 10
0.0
 20
0.0
 30
0.0
  0
VERTEX
  8
numenter001
 10
420.87499999999994
 20
-106.11200000000008
 30
0.0
  0
VERTEX
  8
numenter001
 10
421.62499999999994
 20
-106.11200000000008
 30
0.0
  0
SEQEND
  8
numenter001
  0
POLYLINE
  8
numenter001
 62
0
 70
0
 66
1
 10
0.0
 20
0.0
 30
0.0
  0
VERTEX
  8
numenter001
 10
420.87499999999994
 20
-98.61200000000008
 30
0.0
  0
VERTEX
  8
numenter001
 10
421.62499999999994
 20
-98.61200000000008
 30
0.0
  0
SEQEND
  8
numenter001
  0
POLYLINE
  8
numenter001
 62
0
 70
0
 66
1
 10
0.0
 20
0.0
 30
0.0
  0
VERTEX
  8
numenter001
 10
436.37500000000006
 20
-129.988
 30
0.0
  0
VERTEX
  8
numenter001
 10
435.62500000000006
 20
-129.988
 30
0.0
  0
SEQEND
  8
numenter001
  0
POLYLINE
  8
numenter001
 62
0
 70
0
 66
1
 10
0.0
 20
0.0
 30
0.0
  0
VERTEX
  8
numenter001
 10
436.37499999999994
 20
-98.61200000000002
 30
0.0
  0
VERTEX
  8
numenter001
 10
435.62499999999994
 20
-98.61200000000002
 30
0.0
  0
SEQEND
  8
numenter001
  0
POLYLINE
  8
numenter001
 62
0
 70
0
 66
1
 10
0.0
 20
0.0
 30
0.0
  0
VERTEX
  8
numenter001
 10
436.37499999999994
 20
-106.11200000000002
 30
0.0
  0
VERTEX
  8
numenter001
 10
435.62499999999994
 20
-106.11200000000002
 30
0.0
  0
SEQEND
  8
numenter001
  0
POLYLINE
  8
numenter001
 62
0
 70
0
 66
1
 10
0.0
 20
0.0
 30
0.0
  0
VERTEX
  8
numenter001
 10
435.62499999999994
 20
-106.11200000000002
 30
0.0
  0
VERTEX
  8
numenter001
 10
435.62499999999994
 20
-122.488
 30
0.0
  0
SEQEND
  8
numenter001
  0
POLYLINE
  8
numenter001
 62
0
 70
0
 66
1
 10
0.0
 20
0.0
 30
0.0
  0
VERTEX
  8
numenter001
 10
436.37500000000006
 20
-122.488
 30
0.0
  0
VERTEX
  8
numenter001
 10
435.62500000000006
 20
-122.488
 30
0.0
  0
SEQEND
  8
numenter001
  0
ARC
  8
Group089
 62
0
 10
46.137500000000024
 20
-98.52500000000002
 30
0.0
 40
0.75
 50
90.0
 51
-180.0
  0
ARC
  8
Group089
 62
0
 10
58.637500000000024
 20
-98.52500000000002
 30
0.0
 40
0.75
 50
-0.0
 51
90.0
  0
ARC
  8
Group089
 62
0
 10
46.137500000000024
 20
-111.02500000000002
 30
0.0
 40
0.75
 50
-180.0
 51
-90.0
  0
ARC
  8
Group089
 62
0
 10
58.637500000000024
 20
-111.02500000000002
 30
0.0
 40
0.75
 50
-90.0
 51
-0.0
  0
POLYLINE
  8
Group089
 62
0
 70
0
 66
1
 10
0.0
 20
0.0
 30
0.0
  0
VERTEX
  8
Group089
 10
58.637500000000024
 20
-97.77500000000002
 30
0.0
  0
VERTEX
  8
Group089
 10
46.137500000000024
 20
-97.77500000000002
 30
0.0
  0
SEQEND
  8
Group089
  0
POLYLINE
  8
Group089
 62
0
 70
0
 66
1
 10
0.0
 20
0.0
 30
0.0
  0
VERTEX
  8
Group089
 10
45.387500000000024
 20
-98.52500000000002
 30
0.0
  0
VERTEX
  8
Group089
 10
45.387500000000024
 20
-111.02500000000002
 30
0.0
  0
SEQEND
  8
Group089
  0
POLYLINE
  8
Group089
 62
0
 70
0
 66
1
 10
0.0
 20
0.0
 30
0.0
  0
VERTEX
  8
Group089
 10
46.137500000000024
 20
-111.77500000000002
 30
0.0
  0
VERTEX
  8
Group089
 10
58.637500000000024
 20
-111.77500000000002
 30
0.0
  0
SEQEND
  8
Group089
  0
POLYLINE
  8
Group089
 62
0
 70
0
 66
1
 10
0.0
 20
0.0
 30
0.0
  0
VERTEX
  8
Group089
 10
59.387500000000024
 20
-111.02500000000002
 30
0.0
  0
VERTEX
  8
Group089
 10
59.387500000000024
 20
-98.52500000000002
 30
0.0
  0
SEQEND
  8
Group089
  0
ARC
  8
Group090
 62
0
 10
65.1875
 20
-98.52500000000002
 30
0.0
 40
0.75
 50
90.0
 51
-180.0
  0
ARC
  8
Group090
 62
0
 10
77.6875
 20
-98.52500000000002
 30
0.0
 40
0.75
 50
-0.0
 51
90.0
  0
ARC
  8
Group090
 62
0
 10
65.1875
 20
-111.02500000000002
 30
0.0
 40
0.75
 50
-180.0
 51
-90.0
  0
ARC
  8
Group090
 62
0
 10
77.6875
 20
-111.02500000000002
 30
0.0
 40
0.75
 50
-90.0
 51
-0.0
  0
POLYLINE
  8
Group090
 62
0
 70
0
 66
1
 10
0.0
 20
0.0
 30
0.0
  0
VERTEX
  8
Group090
 10
77.6875
 20
-97.77500000000002
 30
0.0
  0
VERTEX
  8
Group090
 10
65.1875
 20
-97.77500000000002
 30
0.0
  0
SEQEND
  8
Group090
  0
POLYLINE
  8
Group090
 62
0
 70
0
 66
1
 10
0.0
 20
0.0
 30
0.0
  0
VERTEX
  8
Group090
 10
64.4375
 20
-98.52500000000002
 30
0.0
  0
VERTEX
  8
Group090
 10
64.4375
 20
-111.02500000000002
 30
0.0
  0
SEQEND
  8
Group090
  0
POLYLINE
  8
Group090
 62
0
 70
0
 66
1
 10
0.0
 20
0.0
 30
0.0
  0
VERTEX
  8
Group090
 10
65.1875
 20
-111.77500000000002
 30
0.0
  0
VERTEX
  8
Group090
 10
77.6875
 20
-111.77500000000002
 30
0.0
  0
SEQEND
  8
Group090
  0
POLYLINE
  8
Group090
 62
0
 70
0
 66
1
 10
0.0
 20
0.0
 30
0.0
  0
VERTEX
  8
Group090
 10
78.4375
 20
-111.02500000000002
 30
0.0
  0
VERTEX
  8
Group090
 10
78.4375
 20
-98.52500000000002
 30
0.0
  0
SEQEND
  8
Group090
  0
ARC
  8
Group091
 62
0
 10
84.23749999999998
 20
-98.52500000000002
 30
0.0
 40
0.75
 50
90.0
 51
-180.0
  0
ARC
  8
Group091
 62
0
 10
96.73749999999998
 20
-98.52500000000002
 30
0.0
 40
0.75
 50
-0.0
 51
90.0
  0
ARC
  8
Group091
 62
0
 10
84.23749999999998
 20
-111.02500000000002
 30
0.0
 40
0.75
 50
-180.0
 51
-90.0
  0
ARC
  8
Group091
 62
0
 10
96.73749999999998
 20
-111.02500000000002
 30
0.0
 40
0.75
 50
-90.0
 51
-0.0
  0
POLYLINE
  8
Group091
 62
0
 70
0
 66
1
 10
0.0
 20
0.0
 30
0.0
  0
VERTEX
  8
Group091
 10
96.73749999999998
 20
-97.77500000000002
 30
0.0
  0
VERTEX
  8
Group091
 10
84.23749999999998
 20
-97.77500000000002
 30
0.0
  0
SEQEND
  8
Group091
  0
POLYLINE
  8
Group091
 62
0
 70
0
 66
1
 10
0.0
 20
0.0
 30
0.0
  0
VERTEX
  8
Group091
 10
83.48749999999998
 20
-98.52500000000002
 30
0.0
  0
VERTEX
  8
Group091
 10
83.48749999999998
 20
-111.02500000000002
 30
0.0
  0
SEQEND
  8
Group091
  0
POLYLINE
  8
Group091
 62
0
 70
0
 66
1
 10
0.0
 20
0.0
 30
0.0
  0
VERTEX
  8
Group091
 10
84.23749999999998
 20
-111.77500000000002
 30
0.0
  0
VERTEX
  8
Group091
 10
96.73749999999998
 20
-111.77500000000002
 30
0.0
  0
SEQEND
  8
Group091
  0
POLYLINE
  8
Group091
 62
0
 70
0
 66
1
 10
0.0
 20
0.0
 30
0.0
  0
VERTEX
  8
Group091
 10
97.48749999999998
 20
-111.02500000000002
 30
0.0
  0
VERTEX
  8
Group091
 10
97.48749999999998
 20
-98.52500000000002
 30
0.0
  0
SEQEND
  8
Group091
  0
ARC
  8
Group092
 62
0
 10
103.28749999999998
 20
-98.52500000000002
 30
0.0
 40
0.75
 50
90.0
 51
-180.0
  0
ARC
  8
Group092
 62
0
 10
115.78749999999998
 20
-98.52500000000002
 30
0.0
 40
0.75
 50
-0.0
 51
90.0
  0
ARC
  8
Group092
 62
0
 10
103.28749999999998
 20
-111.02500000000002
 30
0.0
 40
0.75
 50
-180.0
 51
-90.0
  0
ARC
  8
Group092
 62
0
 10
115.78749999999998
 20
-111.02500000000002
 30
0.0
 40
0.75
 50
-90.0
 51
-0.0
  0
POLYLINE
  8
Group092
 62
0
 70
0
 66
1
 10
0.0
 20
0.0
 30
0.0
  0
VERTEX
  8
Group092
 10
115.78749999999998
 20
-97.77500000000002
 30
0.0
  0
VERTEX
  8
Group092
 10
103.28749999999998
 20
-97.77500000000002
 30
0.0
  0
SEQEND
  8
Group092
  0
POLYLINE
  8
Group092
 62
0
 70
0
 66
1
 10
0.0
 20
0.0
 30
0.0
  0
VERTEX
  8
Group092
 10
102.53749999999998
 20
-98.52500000000002
 30
0.0
  0
VERTEX
  8
Group092
 10
102.53749999999998
 20
-111.02500000000002
 30
0.0
  0
SEQEND
  8
Group092
  0
POLYLINE
  8
Group092
 62
0
 70
0
 66
1
 10
0.0
 20
0.0
 30
0.0
  0
VERTEX
  8
Group092
 10
103.28749999999998
 20
-111.77500000000002
 30
0.0
  0
VERTEX
  8
Group092
 10
115.78749999999998
 20
-111.77500000000002
 30
0.0
  0
SEQEND
  8
Group092
  0
POLYLINE
  8
Group092
 62
0
 70
0
 66
1
 10
0.0
 20
0.0
 30
0.0
  0
VERTEX
  8
Group092
 10
116.53749999999998
 20
-111.02500000000002
 30
0.0
  0
VERTEX
  8
Group092
 10
116.53749999999998
 20
-98.52500000000002
 30
0.0
  0
SEQEND
  8
Group092
  0
ARC
  8
Group093
 62
0
 10
122.33749999999998
 20
-98.52500000000002
 30
0.0
 40
0.75
 50
90.0
 51
-180.0
  0
ARC
  8
Group093
 62
0
 10
134.83749999999998
 20
-98.52500000000002
 30
0.0
 40
0.75
 50
-0.0
 51
90.0
  0
ARC
  8
Group093
 62
0
 10
122.33749999999998
 20
-111.02500000000002
 30
0.0
 40
0.75
 50
-180.0
 51
-90.0
  0
ARC
  8
Group093
 62
0
 10
134.83749999999998
 20
-111.02500000000002
 30
0.0
 40
0.75
 50
-90.0
 51
-0.0
  0
POLYLINE
  8
Group093
 62
0
 70
0
 66
1
 10
0.0
 20
0.0
 30
0.0
  0
VERTEX
  8
Group093
 10
134.83749999999998
 20
-97.77500000000002
 30
0.0
  0
VERTEX
  8
Group093
 10
122.33749999999998
 20
-97.77500000000002
 30
0.0
  0
SEQEND
  8
Group093
  0
POLYLINE
  8
Group093
 62
0
 70
0
 66
1
 10
0.0
 20
0.0
 30
0.0
  0
VERTEX
  8
Group093
 10
121.58749999999998
 20
-98.52500000000002
 30
0.0
  0
VERTEX
  8
Group093
 10
121.58749999999998
 20
-111.02500000000002
 30
0.0
  0
SEQEND
  8
Group093
  0
POLYLINE
  8
Group093
 62
0
 70
0
 66
1
 10
0.0
 20
0.0
 30
0.0
  0
VERTEX
  8
Group093
 10
122.33749999999998
 20
-111.77500000000002
 30
0.0
  0
VERTEX
  8
Group093
 10
134.83749999999998
 20
-111.77500000000002
 30
0.0
  0
SEQEND
  8
Group093
  0
POLYLINE
  8
Group093
 62
0
 70
0
 66
1
 10
0.0
 20
0.0
 30
0.0
  0
VERTEX
  8
Group093
 10
135.58749999999998
 20
-111.02500000000002
 30
0.0
  0
VERTEX
  8
Group093
 10
135.58749999999998
 20
-98.52500000000002
 30
0.0
  0
SEQEND
  8
Group093
  0
ARC
  8
Group094
 62
0
 10
141.3875
 20
-98.52500000000002
 30
0.0
 40
0.75
 50
90.0
 51
-180.0
  0
ARC
  8
Group094
 62
0
 10
153.8875
 20
-98.52500000000002
 30
0.0
 40
0.75
 50
-0.0
 51
90.0
  0
ARC
  8
Group094
 62
0
 10
141.3875
 20
-111.02500000000002
 30
0.0
 40
0.75
 50
-180.0
 51
-90.0
  0
ARC
  8
Group094
 62
0
 10
153.8875
 20
-111.02500000000002
 30
0.0
 40
0.75
 50
-90.0
 51
-0.0
  0
POLYLINE
  8
Group094
 62
0
 70
0
 66
1
 10
0.0
 20
0.0
 30
0.0
  0
VERTEX
  8
Group094
 10
153.8875
 20
-97.77500000000002
 30
0.0
  0
VERTEX
  8
Group094
 10
141.3875
 20
-97.77500000000002
 30
0.0
  0
SEQEND
  8
Group094
  0
POLYLINE
  8
Group094
 62
0
 70
0
 66
1
 10
0.0
 20
0.0
 30
0.0
  0
VERTEX
  8
Group094
 10
140.6375
 20
-98.52500000000002
 30
0.0
  0
VERTEX
  8
Group094
 10
140.6375
 20
-111.02500000000002
 30
0.0
  0
SEQEND
  8
Group094
  0
POLYLINE
  8
Group094
 62
0
 70
0
 66
1
 10
0.0
 20
0.0
 30
0.0
  0
VERTEX
  8
Group094
 10
141.3875
 20
-111.77500000000002
 30
0.0
  0
VERTEX
  8
Group094
 10
153.8875
 20
-111.77500000000002
 30
0.0
  0
SEQEND
  8
Group094
  0
POLYLINE
  8
Group094
 62
0
 70
0
 66
1
 10
0.0
 20
0.0
 30
0.0
  0
VERTEX
  8
Group094
 10
154.6375
 20
-111.02500000000002
 30
0.0
  0
VERTEX
  8
Group094
 10
154.6375
 20
-98.52500000000002
 30
0.0
  0
SEQEND
  8
Group094
  0
ARC
  8
Group095
 62
0
 10
160.43749999999997
 20
-98.52500000000002
 30
0.0
 40
0.75
 50
90.0
 51
-180.0
  0
ARC
  8
Group095
 62
0
 10
172.93749999999997
 20
-98.52500000000002
 30
0.0
 40
0.75
 50
-0.0
 51
90.0
  0
ARC
  8
Group095
 62
0
 10
160.43749999999997
 20
-111.02500000000002
 30
0.0
 40
0.75
 50
-180.0
 51
-90.0
  0
ARC
  8
Group095
 62
0
 10
172.93749999999997
 20
-111.02500000000002
 30
0.0
 40
0.75
 50
-90.0
 51
-0.0
  0
POLYLINE
  8
Group095
 62
0
 70
0
 66
1
 10
0.0
 20
0.0
 30
0.0
  0
VERTEX
  8
Group095
 10
172.93749999999997
 20
-97.77500000000002
 30
0.0
  0
VERTEX
  8
Group095
 10
160.43749999999997
 20
-97.77500000000002
 30
0.0
  0
SEQEND
  8
Group095
  0
POLYLINE
  8
Group095
 62
0
 70
0
 66
1
 10
0.0
 20
0.0
 30
0.0
  0
VERTEX
  8
Group095
 10
159.68749999999997
 20
-98.52500000000002
 30
0.0
  0
VERTEX
  8
Group095
 10
159.68749999999997
 20
-111.02500000000002
 30
0.0
  0
SEQEND
  8
Group095
  0
POLYLINE
  8
Group095
 62
0
 70
0
 66
1
 10
0.0
 20
0.0
 30
0.0
  0
VERTEX
  8
Group095
 10
160.43749999999997
 20
-111.77500000000002
 30
0.0
  0
VERTEX
  8
Group095
 10
172.93749999999997
 20
-111.77500000000002
 30
0.0
  0
SEQEND
  8
Group095
  0
POLYLINE
  8
Group095
 62
0
 70
0
 66
1
 10
0.0
 20
0.0
 30
0.0
  0
VERTEX
  8
Group095
 10
173.68749999999997
 20
-111.02500000000002
 30
0.0
  0
VERTEX
  8
Group095
 10
173.68749999999997
 20
-98.52500000000002
 30
0.0
  0
SEQEND
  8
Group095
  0
ARC
  8
Group096
 62
0
 10
179.48749999999995
 20
-98.52500000000002
 30
0.0
 40
0.75
 50
90.0
 51
-180.0
  0
ARC
  8
Group096
 62
0
 10
191.98749999999995
 20
-98.52500000000002
 30
0.0
 40
0.75
 50
-0.0
 51
90.0
  0
ARC
  8
Group096
 62
0
 10
179.48749999999995
 20
-111.02500000000002
 30
0.0
 40
0.75
 50
-180.0
 51
-90.0
  0
ARC
  8
Group096
 62
0
 10
191.98749999999995
 20
-111.02500000000002
 30
0.0
 40
0.75
 50
-90.0
 51
-0.0
  0
POLYLINE
  8
Group096
 62
0
 70
0
 66
1
 10
0.0
 20
0.0
 30
0.0
  0
VERTEX
  8
Group096
 10
191.98749999999995
 20
-97.77500000000002
 30
0.0
  0
VERTEX
  8
Group096
 10
179.48749999999995
 20
-97.77500000000002
 30
0.0
  0
SEQEND
  8
Group096
  0
POLYLINE
  8
Group096
 62
0
 70
0
 66
1
 10
0.0
 20
0.0
 30
0.0
  0
VERTEX
  8
Group096
 10
178.73749999999995
 20
-98.52500000000002
 30
0.0
  0
VERTEX
  8
Group096
 10
178.73749999999995
 20
-111.02500000000002
 30
0.0
  0
SEQEND
  8
Group096
  0
POLYLINE
  8
Group096
 62
0
 70
0
 66
1
 10
0.0
 20
0.0
 30
0.0
  0
VERTEX
  8
Group096
 10
179.48749999999995
 20
-111.77500000000002
 30
0.0
  0
VERTEX
  8
Group096
 10
191.98749999999995
 20
-111.77500000000002
 30
0.0
  0
SEQEND
  8
Group096
  0
POLYLINE
  8
Group096
 62
0
 70
0
 66
1
 10
0.0
 20
0.0
 30
0.0
  0
VERTEX
  8
Group096
 10
192.73749999999995
 20
-111.02500000000002
 30
0.0
  0
VERTEX
  8
Group096
 10
192.73749999999995
 20
-98.52500000000002
 30
0.0
  0
SEQEND
  8
Group096
  0
ARC
  8
Group097
 62
0
 10
198.53749999999994
 20
-98.52500000000002
 30
0.0
 40
0.75
 50
90.0
 51
-180.0
  0
ARC
  8
Group097
 62
0
 10
211.03749999999994
 20
-98.52500000000002
 30
0.0
 40
0.75
 50
-0.0
 51
90.0
  0
ARC
  8
Group097
 62
0
 10
198.53749999999994
 20
-111.02500000000002
 30
0.0
 40
0.75
 50
-180.0
 51
-90.0
  0
ARC
  8
Group097
 62
0
 10
211.03749999999994
 20
-111.02500000000002
 30
0.0
 40
0.75
 50
-90.0
 51
-0.0
  0
POLYLINE
  8
Group097
 62
0
 70
0
 66
1
 10
0.0
 20
0.0
 30
0.0
  0
VERTEX
  8
Group097
 10
211.03749999999994
 20
-97.77500000000002
 30
0.0
  0
VERTEX
  8
Group097
 10
198.53749999999994
 20
-97.77500000000002
 30
0.0
  0
SEQEND
  8
Group097
  0
POLYLINE
  8
Group097
 62
0
 70
0
 66
1
 10
0.0
 20
0.0
 30
0.0
  0
VERTEX
  8
Group097
 10
197.78749999999994
 20
-98.52500000000002
 30
0.0
  0
VERTEX
  8
Group097
 10
197.78749999999994
 20
-111.02500000000002
 30
0.0
  0
SEQEND
  8
Group097
  0
POLYLINE
  8
Group097
 62
0
 70
0
 66
1
 10
0.0
 20
0.0
 30
0.0
  0
VERTEX
  8
Group097
 10
198.53749999999994
 20
-111.77500000000002
 30
0.0
  0
VERTEX
  8
Group097
 10
211.03749999999994
 20
-111.77500000000002
 30
0.0
  0
SEQEND
  8
Group097
  0
POLYLINE
  8
Group097
 62
0
 70
0
 66
1
 10
0.0
 20
0.0
 30
0.0
  0
VERTEX
  8
Group097
 10
211.78749999999994
 20
-111.02500000000002
 30
0.0
  0
VERTEX
  8
Group097
 10
211.78749999999994
 20
-98.52500000000002
 30
0.0
  0
SEQEND
  8
Group097
  0
ARC
  8
Group098
 62
0
 10
217.58749999999992
 20
-98.52500000000002
 30
0.0
 40
0.75
 50
90.0
 51
-180.0
  0
ARC
  8
Group098
 62
0
 10
230.08749999999992
 20
-98.52500000000002
 30
0.0
 40
0.75
 50
-0.0
 51
90.0
  0
ARC
  8
Group098
 62
0
 10
217.58749999999992
 20
-111.02500000000002
 30
0.0
 40
0.75
 50
-180.0
 51
-90.0
  0
ARC
  8
Group098
 62
0
 10
230.08749999999992
 20
-111.02500000000002
 30
0.0
 40
0.75
 50
-90.0
 51
-0.0
  0
POLYLINE
  8
Group098
 62
0
 70
0
 66
1
 10
0.0
 20
0.0
 30
0.0
  0
VERTEX
  8
Group098
 10
230.08749999999992
 20
-97.77500000000002
 30
0.0
  0
VERTEX
  8
Group098
 10
217.58749999999992
 20
-97.77500000000002
 30
0.0
  0
SEQEND
  8
Group098
  0
POLYLINE
  8
Group098
 62
0
 70
0
 66
1
 10
0.0
 20
0.0
 30
0.0
  0
VERTEX
  8
Group098
 10
216.83749999999992
 20
-98.52500000000002
 30
0.0
  0
VERTEX
  8
Group098
 10
216.83749999999992
 20
-111.02500000000002
 30
0.0
  0
SEQEND
  8
Group098
  0
POLYLINE
  8
Group098
 62
0
 70
0
 66
1
 10
0.0
 20
0.0
 30
0.0
  0
VERTEX
  8
Group098
 10
217.58749999999992
 20
-111.77500000000002
 30
0.0
  0
VERTEX
  8
Group098
 10
230.08749999999992
 20
-111.77500000000002
 30
0.0
  0
SEQEND
  8
Group098
  0
POLYLINE
  8
Group098
 62
0
 70
0
 66
1
 10
0.0
 20
0.0
 30
0.0
  0
VERTEX
  8
Group098
 10
230.83749999999992
 20
-111.02500000000002
 30
0.0
  0
VERTEX
  8
Group098
 10
230.83749999999992
 20
-98.52500000000002
 30
0.0
  0
SEQEND
  8
Group098
  0
ARC
  8
Group101
 62
0
 10
244.61824999999993
 20
-97.025
 30
0.0
 40
0.75
 50
90.0
 51
-180.0
  0
POLYLINE
  8
Group101
 62
0
 70
0
 66
1
 10
0.0
 20
0.0
 30
0.0
  0
VERTEX
  8
Group101
 10
244.61824999999993
 20
-96.275
 30
0.0
  0
VERTEX
  8
Group101
 10
250.61824999999993
 20
-96.275
 30
0.0
  0
SEQEND
  8
Group101
  0
ARC
  8
Group101
 62
0
 10
250.61824999999993
 20
-97.025
 30
0.0
 40
0.75
 50
-0.0
 51
90.0
  0
ARC
  8
Group101
 62
0
 10
250.61824999999993
 20
-112.525
 30
0.0
 40
0.75
 50
-90.0
 51
-0.0
  0
POLYLINE
  8
Group101
 62
0
 70
0
 66
1
 10
0.0
 20
0.0
 30
0.0
  0
VERTEX
  8
Group101
 10
250.61824999999993
 20
-113.275
 30
0.0
  0
VERTEX
  8
Group101
 10
244.61824999999993
 20
-113.275
 30
0.0
  0
SEQEND
  8
Group101
  0
ARC
  8
Group101
 62
0
 10
244.61824999999993
 20
-112.525
 30
0.0
 40
0.75
 50
-180.0
 51
-90.0
  0
POLYLINE
  8
ansi shift001
 62
0
 70
0
 66
1
 10
0.0
 20
0.0
 30
0.0
  0
VERTEX
  8
ansi shift001
 10
266.5562499999999
 20
-111.025
 30
0.0
  0
VERTEX
  8
ansi shift001
 10
266.5562499999999
 20
-98.525
 30
0.0
  0
SEQEND
  8
ansi shift001
  0
ARC
  8
ansi shift001
 62
0
 10
265.8062499999999
 20
-111.025
 30
0.0
 40
0.75
 50
-90.0
 51
-0.0
  0
ARC
  8
ansi shift001
 62
0
 10
265.8062499999999
 20
-98.525
 30
0.0
 40
0.75
 50
-0.0
 51
90.0
  0
ARC
  8
Group100
 62
0
 10
268.4942499999999
 20
-97.025
 30
0.0
 40
0.75
 50
90.0
 51
-180.0
  0
POLYLINE
  8
Group100
 62
0
 70
0
 66
1
 10
0.0
 20
0.0
 30
0.0
  0
VERTEX
  8
Group100
 10
268.4942499999999
 20
-96.275
 30
0.0
  0
VERTEX
  8
Group100
 10
274.4942499999999
 20
-96.275
 30
0.0
  0
SEQEND
  8
Group100
  0
ARC
  8
Group100
 62
0
 10
274.4942499999999
 20
-97.025
 30
0.0
 40
0.75
 50
-0.0
 51
90.0
  0
ARC
  8
Group100
 62
0
 10
274.4942499999999
 20
-112.525
 30
0.0
 40
0.75
 50
-90.0
 51
-0.0
  0
POLYLINE
  8
Group100
 62
0
 70
0
 66
1
 10
0.0
 20
0.0
 30
0.0
  0
VERTEX
  8
Group100
 10
274.4942499999999
 20
-113.275
 30
0.0
  0
VERTEX
  8
Group100
 10
268.4942499999999
 20
-113.275
 30
0.0
  0
SEQEND
  8
Group100
  0
ARC
  8
Group100
 62
0
 10
268.4942499999999
 20
-112.525
 30
0.0
 40
0.75
 50
-180.0
 51
-90.0
  0
POLYLINE
  8
Group100
 62
0
 70
0
 66
1
 10
0.0
 20
0.0
 30
0.0
  0
VERTEX
  8
Group100
 10
267.7442499999999
 20
-112.525
 30
0.0
  0
VERTEX
  8
Group100
 10
267.7442499999999
 20
-97.025
 30
0.0
  0
SEQEND
  8
Group100
  0
ARC
  8
Group154
 62
0
 10
243.78124999999991
 20
-111.02500000000009
 30
0.0
 40
0.75
 50
-180.0
 51
-90.0
  0
ARC
  8
Group154
 62
0
 10
243.78124999999991
 20
-98.52500000000009
 30
0.0
 40
0.75
 50
90.0
 51
-180.0
  0
POLYLINE
  8
Group154
 62
0
 70
0
 66
1
 10
0.0
 20
0.0
 30
0.0
  0
VERTEX
  8
Group154
 10
243.03124999999991
 20
-98.52500000000009
 30
0.0
  0
VERTEX
  8
Group154
 10
243.03124999999991
 20
-111.02500000000009
 30
0.0
  0
SEQEND
  8
Group154
  0
ARC
  8
Group155
 62
0
 10
282.47499999999997
 20
-111.02500000000023
 30
0.0
 40
0.75
 50
-90.0
 51
-0.0
  0
POLYLINE
  8
Group155
 62
0
 70
0
 66
1
 10
0.0
 20
0.0
 30
0.0
  0
VERTEX
  8
Group155
 10
283.22499999999997
 20
-111.02500000000023
 30
0.0
  0
VERTEX
  8
Group155
 10
283.22499999999997
 20
-98.52500000000023
 30
0.0
  0
SEQEND
  8
Group155
  0
ARC
  8
Group155
 62
0
 10
282.47499999999997
 20
-98.52500000000023
 30
0.0
 40
0.75
 50
-0.0
 51
90.0
  0
POLYLINE
  8
ansi shift001
 62
0
 70
0
 66
1
 10
0.0
 20
0.0
 30
0.0
  0
VERTEX
  8
ansi shift001
 10
243.78124999999991
 20
-97.77500000000009
 30
0.0
  0
VERTEX
  8
ansi shift001
 10
243.86824999999993
 20
-97.77500000000009
 30
0.0
  0
SEQEND
  8
ansi shift001
  0
POLYLINE
  8
ansi shift001
 62
0
 70
0
 66
1
 10
0.0
 20
0.0
 30
0.0
  0
VERTEX
  8
ansi shift001
 10
243.78124999999991
 20
-111.77500000000009
 30
0.0
  0
VERTEX
  8
ansi shift001
 10
243.86824999999993
 20
-111.77500000000009
 30
0.0
  0
SEQEND
  8
ansi shift001
  0
POLYLINE
  8
ansi shift001
 62
0
 70
0
 66
1
 10
0.0
 20
0.0
 30
0.0
  0
VERTEX
  8
ansi shift001
 10
243.86824999999993
 20
-97.025
 30
0.0
  0
VERTEX
  8
ansi shift001
 10
243.86824999999993
 20
-97.77500000000009
 30
0.0
  0
SEQEND
  8
ansi shift001
  0
POLYLINE
  8
ansi shift001
 62
0
 70
0
 66
1
 10
0.0
 20
0.0
 30
0.0
  0
VERTEX
  8
ansi shift001
 10
243.86824999999993
 20
-112.525
 30
0.0
  0
VERTEX
  8
ansi shift001
 10
243.86824999999993
 20
-111.77500000000009
 30
0.0
  0
SEQEND
  8
ansi shift001
  0
POLYLINE
  8
ansi shift001
 62
0
 70
0
 66
1
 10
0.0
 20
0.0
 30
0.0
  0
VERTEX
  8
ansi shift001
 10
265.8062499999999
 20
-111.775
 30
0.0
  0
VERTEX
  8
ansi shift001
 10
251.36824999999993
 20
-111.775
 30
0.0
  0
SEQEND
  8
ansi shift001
  0
POLYLINE
  8
ansi shift001
 62
0
 70
0
 66
1
 10
0.0
 20
0.0
 30
0.0
  0
VERTEX
  8
ansi shift001
 10
265.8062499999999
 20
-97.775
 30
0.0
  0
VERTEX
  8
ansi shift001
 10
251.36824999999993
 20
-97.775
 30
0.0
  0
SEQEND
  8
ansi shift001
  0
POLYLINE
  8
ansi shift001
 62
0
 70
0
 66
1
 10
0.0
 20
0.0
 30
0.0
  0
VERTEX
  8
ansi shift001
 10
251.36824999999993
 20
-97.775
 30
0.0
  0
VERTEX
  8
ansi shift001
 10
251.36824999999993
 20
-97.025
 30
0.0
  0
SEQEND
  8
ansi shift001
  0
POLYLINE
  8
ansi shift001
 62
0
 70
0
 66
1
 10
0.0
 20
0.0
 30
0.0
  0
VERTEX
  8
ansi shift001
 10
251.36824999999993
 20
-111.775
 30
0.0
  0
VERTEX
  8
ansi shift001
 10
251.36824999999993
 20
-112.525
 30
0.0
  0
SEQEND
  8
ansi shift001
  0
POLYLINE
  8
ansi shift001
 62
0
 70
0
 66
1
 10
0.0
 20
0.0
 30
0.0
  0
VERTEX
  8
ansi shift001
 10
282.47499999999997
 20
-97.77500000000023
 30
0.0
  0
VERTEX
  8
ansi shift001
 10
275.24424999999997
 20
-97.77500000000023
 30
0.0
  0
SEQEND
  8
ansi shift001
  0
POLYLINE
  8
ansi shift001
 62
0
 70
0
 66
1
 10
0.0
 20
0.0
 30
0.0
  0
VERTEX
  8
ansi shift001
 10
282.47499999999997
 20
-111.77500000000023
 30
0.0
  0
VERTEX
  8
ansi shift001
 10
275.24424999999997
 20
-111.77500000000023
 30
0.0
  0
SEQEND
  8
ansi shift001
  0
POLYLINE
  8
ansi shift001
 62
0
 70
0
 66
1
 10
0.0
 20
0.0
 30
0.0
  0
VERTEX
  8
ansi shift001
 10
275.2442499999999
 20
-97.77500000000023
 30
0.0
  0
VERTEX
  8
ansi shift001
 10
275.2442499999999
 20
-97.025
 30
0.0
  0
SEQEND
  8
ansi shift001
  0
POLYLINE
  8
ansi shift001
 62
0
 70
0
 66
1
 10
0.0
 20
0.0
 30
0.0
  0
VERTEX
  8
ansi shift001
 10
275.2442499999999
 20
-111.77500000000023
 30
0.0
  0
VERTEX
  8
ansi shift001
 10
275.2442499999999
 20
-112.525
 30
0.0
  0
SEQEND
  8
ansi shift001
  0
ARC
  8
Group102
 62
0
 10
317.59999999999997
 20
-98.52500000000002
 30
0.0
 40
0.75
 50
90.0
 51
-180.0
  0
ARC
  8
Group102
 62
0
 10
330.09999999999997
 20
-98.52500000000002
 30
0.0
 40
0.75
 50
-0.0
 51
90.0
  0
ARC
  8
Group102
 62
0
 10
317.59999999999997
 20
-111.02500000000002
 30
0.0
 40
0.75
 50
-180.0
 51
-90.0
  0
ARC
  8
Group102
 62
0
 10
330.09999999999997
 20
-111.02500000000002
 30
0.0
 40
0.75
 50
-90.0
 51
-0.0
  0
POLYLINE
  8
Group102
 62
0
 70
0
 66
1
 10
0.0
 20
0.0
 30
0.0
  0
VERTEX
  8
Group102
 10
330.09999999999997
 20
-97.77500000000002
 30
0.0
  0
VERTEX
  8
Group102
 10
317.59999999999997
 20
-97.77500000000002
 30
0.0
  0
SEQEND
  8
Group102
  0
POLYLINE
  8
Group102
 62
0
 70
0
 66
1
 10
0.0
 20
0.0
 30
0.0
  0
VERTEX
  8
Group102
 10
316.84999999999997
 20
-98.52500000000002
 30
0.0
  0
VERTEX
  8
Group102
 10
316.84999999999997
 20
-111.02500000000002
 30
0.0
  0
SEQEND
  8
Group102
  0
POLYLINE
  8
Group102
 62
0
 70
0
 66
1
 10
0.0
 20
0.0
 30
0.0
  0
VERTEX
  8
Group102
 10
317.59999999999997
 20
-111.77500000000002
 30
0.0
  0
VERTEX
  8
Group102
 10
330.09999999999997
 20
-111.77500000000002
 30
0.0
  0
SEQEND
  8
Group102
  0
POLYLINE
  8
Group102
 62
0
 70
0
 66
1
 10
0.0
 20
0.0
 30
0.0
  0
VERTEX
  8
Group102
 10
330.84999999999997
 20
-111.02500000000002
 30
0.0
  0
VERTEX
  8
Group102
 10
330.84999999999997
 20
-98.52500000000002
 30
0.0
  0
SEQEND
  8
Group102
  0
ARC
  8
Group103
 62
0
 10
365.22499999999997
 20
-98.525
 30
0.0
 40
0.75
 50
90.0
 51
-180.0
  0
ARC
  8
Group103
 62
0
 10
377.72499999999997
 20
-98.525
 30
0.0
 40
0.75
 50
-0.0
 51
90.0
  0
ARC
  8
Group103
 62
0
 10
365.22499999999997
 20
-111.025
 30
0.0
 40
0.75
 50
-180.0
 51
-90.0
  0
ARC
  8
Group103
 62
0
 10
377.72499999999997
 20
-111.025
 30
0.0
 40
0.75
 50
-90.0
 51
-0.0
  0
POLYLINE
  8
Group103
 62
0
 70
0
 66
1
 10
0.0
 20
0.0
 30
0.0
  0
VERTEX
  8
Group103
 10
377.72499999999997
 20
-97.775
 30
0.0
  0
VERTEX
  8
Group103
 10
365.22499999999997
 20
-97.775
 30
0.0
  0
SEQEND
  8
Group103
  0
POLYLINE
  8
Group103
 62
0
 70
0
 66
1
 10
0.0
 20
0.0
 30
0.0
  0
VERTEX
  8
Group103
 10
364.47499999999997
 20
-98.525
 30
0.0
  0
VERTEX
  8
Group103
 10
364.47499999999997
 20
-111.025
 30
0.0
  0
SEQEND
  8
Group103
  0
POLYLINE
  8
Group103
 62
0
 70
0
 66
1
 10
0.0
 20
0.0
 30
0.0
  0
VERTEX
  8
Group103
 10
365.22499999999997
 20
-111.775
 30
0.0
  0
VERTEX
  8
Group103
 10
377.72499999999997
 20
-111.775
 30
0.0
  0
SEQEND
  8
Group103
  0
POLYLINE
  8
Group103
 62
0
 70
0
 66
1
 10
0.0
 20
0.0
 30
0.0
  0
VERTEX
  8
Group103
 10
378.47499999999997
 20
-111.025
 30
0.0
  0
VERTEX
  8
Group103
 10
378.47499999999997
 20
-98.525
 30
0.0
  0
SEQEND
  8
Group103
  0
ARC
  8
Group104
 62
0
 10
384.2749999999999
 20
-98.525
 30
0.0
 40
0.75
 50
90.0
 51
-180.0
  0
ARC
  8
Group104
 62
0
 10
396.7749999999999
 20
-98.525
 30
0.0
 40
0.75
 50
-0.0
 51
90.0
  0
ARC
  8
Group104
 62
0
 10
384.2749999999999
 20
-111.025
 30
0.0
 40
0.75
 50
-180.0
 51
-90.0
  0
ARC
  8
Group104
 62
0
 10
396.7749999999999
 20
-111.025
 30
0.0
 40
0.75
 50
-90.0
 51
-0.0
  0
POLYLINE
  8
Group104
 62
0
 70
0
 66
1
 10
0.0
 20
0.0
 30
0.0
  0
VERTEX
  8
Group104
 10
396.7749999999999
 20
-97.775
 30
0.0
  0
VERTEX
  8
Group104
 10
384.2749999999999
 20
-97.775
 30
0.0
  0
SEQEND
  8
Group104
  0
POLYLINE
  8
Group104
 62
0
 70
0
 66
1
 10
0.0
 20
0.0
 30
0.0
  0
VERTEX
  8
Group104
 10
383.5249999999999
 20
-98.525
 30
0.0
  0
VERTEX
  8
Group104
 10
383.5249999999999
 20
-111.025
 30
0.0
  0
SEQEND
  8
Group104
  0
POLYLINE
  8
Group104
 62
0
 70
0
 66
1
 10
0.0
 20
0.0
 30
0.0
  0
VERTEX
  8
Group104
 10
384.2749999999999
 20
-111.775
 30
0.0
  0
VERTEX
  8
Group104
 10
396.7749999999999
 20
-111.775
 30
0.0
  0
SEQEND
  8
Group104
  0
POLYLINE
  8
Group104
 62
0
 70
0
 66
1
 10
0.0
 20
0.0
 30
0.0
  0
VERTEX
  8
Group104
 10
397.5249999999999
 20
-111.025
 30
0.0
  0
VERTEX
  8
Group104
 10
397.5249999999999
 20
-98.525
 30
0.0
  0
SEQEND
  8
Group104
  0
ARC
  8
Group105
 62
0
 10
403.325
 20
-98.525
 30
0.0
 40
0.75
 50
90.0
 51
-180.0
  0
ARC
  8
Group105
 62
0
 10
415.825
 20
-98.525
 30
0.0
 40
0.75
 50
-0.0
 51
90.0
  0
ARC
  8
Group105
 62
0
 10
403.325
 20
-111.025
 30
0.0
 40
0.75
 50
-180.0
 51
-90.0
  0
ARC
  8
Group105
 62
0
 10
415.825
 20
-111.025
 30
0.0
 40
0.75
 50
-90.0
 51
-0.0
  0
POLYLINE
  8
Group105
 62
0
 70
0
 66
1
 10
0.0
 20
0.0
 30
0.0
  0
VERTEX
  8
Group105
 10
415.825
 20
-97.775
 30
0.0
  0
VERTEX
  8
Group105
 10
403.325
 20
-97.775
 30
0.0
  0
SEQEND
  8
Group105
  0
POLYLINE
  8
Group105
 62
0
 70
0
 66
1
 10
0.0
 20
0.0
 30
0.0
  0
VERTEX
  8
Group105
 10
402.575
 20
-98.525
 30
0.0
  0
VERTEX
  8
Group105
 10
402.575
 20
-111.025
 30
0.0
  0
SEQEND
  8
Group105
  0
POLYLINE
  8
Group105
 62
0
 70
0
 66
1
 10
0.0
 20
0.0
 30
0.0
  0
VERTEX
  8
Group105
 10
403.325
 20
-111.775
 30
0.0
  0
VERTEX
  8
Group105
 10
415.825
 20
-111.775
 30
0.0
  0
SEQEND
  8
Group105
  0
POLYLINE
  8
Group105
 62
0
 70
0
 66
1
 10
0.0
 20
0.0
 30
0.0
  0
VERTEX
  8
Group105
 10
416.575
 20
-111.025
 30
0.0
  0
VERTEX
  8
Group105
 10
416.575
 20
-98.525
 30
0.0
  0
SEQEND
  8
Group105
  0
POLYLINE
  8
Group044
 62
0
 70
0
 66
1
 10
0.0
 20
0.0
 30
0.0
  0
VERTEX
  8
Group044
 10
20.537500000000005
 20
-59.675000000000026
 30
0.0
  0
VERTEX
  8
Group044
 10
8.037500000000005
 20
-59.675000000000026
 30
0.0
  0
SEQEND
  8
Group044
  0
POLYLINE
  8
Group044
 62
0
 70
0
 66
1
 10
0.0
 20
0.0
 30
0.0
  0
VERTEX
  8
Group044
 10
21.287500000000005
 20
-72.92500000000003
 30
0.0
  0
VERTEX
  8
Group044
 10
21.287500000000005
 20
-60.425000000000026
 30
0.0
  0
SEQEND
  8
Group044
  0
POLYLINE
  8
Group044
 62
0
 70
0
 66
1
 10
0.0
 20
0.0
 30
0.0
  0
VERTEX
  8
Group044
 10
7.287500000000004
 20
-60.425000000000026
 30
0.0
  0
VERTEX
  8
Group044
 10
7.287500000000004
 20
-72.92500000000003
 30
0.0
  0
SEQEND
  8
Group044
  0
ARC
  8
Group044
 62
0
 10
20.537500000000005
 20
-60.425000000000026
 30
0.0
 40
0.75
 50
-0.0
 51
90.0
  0
POLYLINE
  8
Group044
 62
0
 70
0
 66
1
 10
0.0
 20
0.0
 30
0.0
  0
VERTEX
  8
Group044
 10
8.037500000000003
 20
-73.67500000000003
 30
0.0
  0
VERTEX
  8
Group044
 10
20.53750000000001
 20
-73.67500000000003
 30
0.0
  0
SEQEND
  8
Group044
  0
ARC
  8
Group044
 62
0
 10
8.037500000000003
 20
-60.425000000000026
 30
0.0
 40
0.75
 50
90.0
 51
-180.0
  0
ARC
  8
Group044
 62
0
 10
20.537500000000005
 20
-72.92500000000003
 30
0.0
 40
0.75
 50
-90.0
 51
-0.0
  0
ARC
  8
Group044
 62
0
 10
8.037500000000003
 20
-72.92500000000003
 30
0.0
 40
0.75
 50
-180.0
 51
-90.0
  0
ARC
  8
Group045
 62
0
 10
31.85
 20
-60.425000000000026
 30
0.0
 40
0.75
 50
90.0
 51
-180.0
  0
ARC
  8
Group045
 62
0
 10
44.35
 20
-60.425000000000026
 30
0.0
 40
0.75
 50
-0.0
 51
90.0
  0
ARC
  8
Group045
 62
0
 10
31.85
 20
-72.92500000000003
 30
0.0
 40
0.75
 50
-180.0
 51
-90.0
  0
ARC
  8
Group045
 62
0
 10
44.35
 20
-72.92500000000003
 30
0.0
 40
0.75
 50
-90.0
 51
-0.0
  0
POLYLINE
  8
Group045
 62
0
 70
0
 66
1
 10
0.0
 20
0.0
 30
0.0
  0
VERTEX
  8
Group045
 10
44.35
 20
-59.675000000000026
 30
0.0
  0
VERTEX
  8
Group045
 10
31.85
 20
-59.675000000000026
 30
0.0
  0
SEQEND
  8
Group045
  0
POLYLINE
  8
Group045
 62
0
 70
0
 66
1
 10
0.0
 20
0.0
 30
0.0
  0
VERTEX
  8
Group045
 10
31.1
 20
-60.425000000000026
 30
0.0
  0
VERTEX
  8
Group045
 10
31.1
 20
-72.92500000000003
 30
0.0
  0
SEQEND
  8
Group045
  0
POLYLINE
  8
Group045
 62
0
 70
0
 66
1
 10
0.0
 20
0.0
 30
0.0
  0
VERTEX
  8
Group045
 10
31.85
 20
-73.67500000000003
 30
0.0
  0
VERTEX
  8
Group045
 10
44.349999999999994
 20
-73.67500000000003
 30
0.0
  0
SEQEND
  8
Group045
  0
POLYLINE
  8
Group045
 62
0
 70
0
 66
1
 10
0.0
 20
0.0
 30
0.0
  0
VERTEX
  8
Group045
 10
45.1
 20
-72.92500000000003
 30
0.0
  0
VERTEX
  8
Group045
 10
45.1
 20
-60.425000000000026
 30
0.0
  0
SEQEND
  8
Group045
  0
ARC
  8
Group046
 62
0
 10
50.89999999999999
 20
-60.425000000000026
 30
0.0
 40
0.75
 50
90.0
 51
-180.0
  0
ARC
  8
Group046
 62
0
 10
63.399999999999984
 20
-60.425000000000026
 30
0.0
 40
0.75
 50
-0.0
 51
90.0
  0
ARC
  8
Group046
 62
0
 10
50.89999999999999
 20
-72.92500000000003
 30
0.0
 40
0.75
 50
-180.0
 51
-90.0
  0
ARC
  8
Group046
 62
0
 10
63.399999999999984
 20
-72.92500000000003
 30
0.0
 40
0.75
 50
-90.0
 51
-0.0
  0
POLYLINE
  8
Group046
 62
0
 70
0
 66
1
 10
0.0
 20
0.0
 30
0.0
  0
VERTEX
  8
Group046
 10
63.399999999999984
 20
-59.675000000000026
 30
0.0
  0
VERTEX
  8
Group046
 10
50.899999999999984
 20
-59.675000000000026
 30
0.0
  0
SEQEND
  8
Group046
  0
POLYLINE
  8
Group046
 62
0
 70
0
 66
1
 10
0.0
 20
0.0
 30
0.0
  0
VERTEX
  8
Group046
 10
50.14999999999999
 20
-60.425000000000026
 30
0.0
  0
VERTEX
  8
Group046
 10
50.14999999999999
 20
-72.92500000000003
 30
0.0
  0
SEQEND
  8
Group046
  0
POLYLINE
  8
Group046
 62
0
 70
0
 66
1
 10
0.0
 20
0.0
 30
0.0
  0
VERTEX
  8
Group046
 10
50.89999999999999
 20
-73.67500000000003
 30
0.0
  0
VERTEX
  8
Group046
 10
63.399999999999984
 20
-73.67500000000003
 30
0.0
  0
SEQEND
  8
Group046
  0
POLYLINE
  8
Group046
 62
0
 70
0
 66
1
 10
0.0
 20
0.0
 30
0.0
  0
VERTEX
  8
Group046
 10
64.14999999999998
 20
-72.92500000000003
 30
0.0
  0
VERTEX
  8
Group046
 10
64.14999999999998
 20
-60.425000000000026
 30
0.0
  0
SEQEND
  8
Group046
  0
ARC
  8
Group047
 62
0
 10
69.94999999999996
 20
-60.425000000000026
 30
0.0
 40
0.75
 50
90.0
 51
-180.0
  0
ARC
  8
Group047
 62
0
 10
82.44999999999996
 20
-60.425000000000026
 30
0.0
 40
0.75
 50
-0.0
 51
90.0
  0
ARC
  8
Group047
 62
0
 10
69.94999999999996
 20
-72.92500000000003
 30
0.0
 40
0.75
 50
-180.0
 51
-90.0
  0
ARC
  8
Group047
 62
0
 10
82.44999999999996
 20
-72.92500000000003
 30
0.0
 40
0.75
 50
-90.0
 51
-0.0
  0
POLYLINE
  8
Group047
 62
0
 70
0
 66
1
 10
0.0
 20
0.0
 30
0.0
  0
VERTEX
  8
Group047
 10
82.44999999999996
 20
-59.675000000000026
 30
0.0
  0
VERTEX
  8
Group047
 10
69.94999999999996
 20
-59.675000000000026
 30
0.0
  0
SEQEND
  8
Group047
  0
POLYLINE
  8
Group047
 62
0
 70
0
 66
1
 10
0.0
 20
0.0
 30
0.0
  0
VERTEX
  8
Group047
 10
69.19999999999996
 20
-60.425000000000026
 30
0.0
  0
VERTEX
  8
Group047
 10
69.19999999999996
 20
-72.92500000000003
 30
0.0
  0
SEQEND
  8
Group047
  0
POLYLINE
  8
Group047
 62
0
 70
0
 66
1
 10
0.0
 20
0.0
 30
0.0
  0
VERTEX
  8
Group047
 10
69.94999999999996
 20
-73.67500000000003
 30
0.0
  0
VERTEX
  8
Group047
 10
82.44999999999996
 20
-73.67500000000003
 30
0.0
  0
SEQEND
  8
Group047
  0
POLYLINE
  8
Group047
 62
0
 70
0
 66
1
 10
0.0
 20
0.0
 30
0.0
  0
VERTEX
  8
Group047
 10
83.19999999999996
 20
-72.92500000000003
 30
0.0
  0
VERTEX
  8
Group047
 10
83.19999999999996
 20
-60.425000000000026
 30
0.0
  0
SEQEND
  8
Group047
  0
ARC
  8
Group048
 62
0
 10
88.99999999999994
 20
-60.425000000000026
 30
0.0
 40
0.75
 50
90.0
 51
-180.0
  0
ARC
  8
Group048
 62
0
 10
101.49999999999994
 20
-60.425000000000026
 30
0.0
 40
0.75
 50
-0.0
 51
90.0
  0
ARC
  8
Group048
 62
0
 10
88.99999999999994
 20
-72.92500000000003
 30
0.0
 40
0.75
 50
-180.0
 51
-90.0
  0
ARC
  8
Group048
 62
0
 10
101.49999999999994
 20
-72.92500000000003
 30
0.0
 40
0.75
 50
-90.0
 51
-0.0
  0
POLYLINE
  8
Group048
 62
0
 70
0
 66
1
 10
0.0
 20
0.0
 30
0.0
  0
VERTEX
  8
Group048
 10
101.49999999999994
 20
-59.675000000000026
 30
0.0
  0
VERTEX
  8
Group048
 10
88.99999999999994
 20
-59.675000000000026
 30
0.0
  0
SEQEND
  8
Group048
  0
POLYLINE
  8
Group048
 62
0
 70
0
 66
1
 10
0.0
 20
0.0
 30
0.0
  0
VERTEX
  8
Group048
 10
88.24999999999994
 20
-60.425000000000026
 30
0.0
  0
VERTEX
  8
Group048
 10
88.24999999999994
 20
-72.92500000000003
 30
0.0
  0
SEQEND
  8
Group048
  0
POLYLINE
  8
Group048
 62
0
 70
0
 66
1
 10
0.0
 20
0.0
 30
0.0
  0
VERTEX
  8
Group048
 10
88.99999999999994
 20
-73.67500000000003
 30
0.0
  0
VERTEX
  8
Group048
 10
101.49999999999994
 20
-73.67500000000003
 30
0.0
  0
SEQEND
  8
Group048
  0
POLYLINE
  8
Group048
 62
0
 70
0
 66
1
 10
0.0
 20
0.0
 30
0.0
  0
VERTEX
  8
Group048
 10
102.24999999999994
 20
-72.92500000000003
 30
0.0
  0
VERTEX
  8
Group048
 10
102.24999999999994
 20
-60.425000000000026
 30
0.0
  0
SEQEND
  8
Group048
  0
ARC
  8
Group049
 62
0
 10
108.04999999999993
 20
-60.425000000000026
 30
0.0
 40
0.75
 50
90.0
 51
-180.0
  0
ARC
  8
Group049
 62
0
 10
120.54999999999993
 20
-60.425000000000026
 30
0.0
 40
0.75
 50
-0.0
 51
90.0
  0
ARC
  8
Group049
 62
0
 10
108.04999999999993
 20
-72.92500000000003
 30
0.0
 40
0.75
 50
-180.0
 51
-90.0
  0
ARC
  8
Group049
 62
0
 10
120.54999999999993
 20
-72.92500000000003
 30
0.0
 40
0.75
 50
-90.0
 51
-0.0
  0
POLYLINE
  8
Group049
 62
0
 70
0
 66
1
 10
0.0
 20
0.0
 30
0.0
  0
VERTEX
  8
Group049
 10
120.54999999999993
 20
-59.675000000000026
 30
0.0
  0
VERTEX
  8
Group049
 10
108.04999999999993
 20
-59.675000000000026
 30
0.0
  0
SEQEND
  8
Group049
  0
POLYLINE
  8
Group049
 62
0
 70
0
 66
1
 10
0.0
 20
0.0
 30
0.0
  0
VERTEX
  8
Group049
 10
107.29999999999993
 20
-60.425000000000026
 30
0.0
  0
VERTEX
  8
Group049
 10
107.29999999999993
 20
-72.92500000000003
 30
0.0
  0
SEQEND
  8
Group049
  0
POLYLINE
  8
Group049
 62
0
 70
0
 66
1
 10
0.0
 20
0.0
 30
0.0
  0
VERTEX
  8
Group049
 10
108.04999999999993
 20
-73.67500000000003
 30
0.0
  0
VERTEX
  8
Group049
 10
120.54999999999993
 20
-73.67500000000003
 30
0.0
  0
SEQEND
  8
Group049
  0
POLYLINE
  8
Group049
 62
0
 70
0
 66
1
 10
0.0
 20
0.0
 30
0.0
  0
VERTEX
  8
Group049
 10
121.29999999999993
 20
-72.92500000000003
 30
0.0
  0
VERTEX
  8
Group049
 10
121.29999999999993
 20
-60.425000000000026
 30
0.0
  0
SEQEND
  8
Group049
  0
ARC
  8
Group050
 62
0
 10
127.09999999999991
 20
-60.425000000000026
 30
0.0
 40
0.75
 50
90.0
 51
-180.0
  0
ARC
  8
Group050
 62
0
 10
139.5999999999999
 20
-60.425000000000026
 30
0.0
 40
0.75
 50
-0.0
 51
90.0
  0
ARC
  8
Group050
 62
0
 10
127.09999999999991
 20
-72.92500000000003
 30
0.0
 40
0.75
 50
-180.0
 51
-90.0
  0
ARC
  8
Group050
 62
0
 10
139.5999999999999
 20
-72.92500000000003
 30
0.0
 40
0.75
 50
-90.0
 51
-0.0
  0
POLYLINE
  8
Group050
 62
0
 70
0
 66
1
 10
0.0
 20
0.0
 30
0.0
  0
VERTEX
  8
Group050
 10
139.5999999999999
 20
-59.675000000000026
 30
0.0
  0
VERTEX
  8
Group050
 10
127.09999999999991
 20
-59.675000000000026
 30
0.0
  0
SEQEND
  8
Group050
  0
POLYLINE
  8
Group050
 62
0
 70
0
 66
1
 10
0.0
 20
0.0
 30
0.0
  0
VERTEX
  8
Group050
 10
126.34999999999991
 20
-60.425000000000026
 30
0.0
  0
VERTEX
  8
Group050
 10
126.34999999999991
 20
-72.92500000000003
 30
0.0
  0
SEQEND
  8
Group050
  0
POLYLINE
  8
Group050
 62
0
 70
0
 66
1
 10
0.0
 20
0.0
 30
0.0
  0
VERTEX
  8
Group050
 10
127.09999999999991
 20
-73.67500000000003
 30
0.0
  0
VERTEX
  8
Group050
 10
139.5999999999999
 20
-73.67500000000003
 30
0.0
  0
SEQEND
  8
Group050
  0
POLYLINE
  8
Group050
 62
0
 70
0
 66
1
 10
0.0
 20
0.0
 30
0.0
  0
VERTEX
  8
Group050
 10
140.3499999999999
 20
-72.92500000000003
 30
0.0
  0
VERTEX
  8
Group050
 10
140.3499999999999
 20
-60.425000000000026
 30
0.0
  0
SEQEND
  8
Group050
  0
ARC
  8
Group051
 62
0
 10
146.14999999999986
 20
-60.425000000000026
 30
0.0
 40
0.75
 50
90.0
 51
-180.0
  0
ARC
  8
Group051
 62
0
 10
158.64999999999986
 20
-60.425000000000026
 30
0.0
 40
0.75
 50
-0.0
 51
90.0
  0
ARC
  8
Group051
 62
0
 10
146.14999999999986
 20
-72.92500000000003
 30
0.0
 40
0.75
 50
-180.0
 51
-90.0
  0
ARC
  8
Group051
 62
0
 10
158.64999999999986
 20
-72.92500000000003
 30
0.0
 40
0.75
 50
-90.0
 51
-0.0
  0
POLYLINE
  8
Group051
 62
0
 70
0
 66
1
 10
0.0
 20
0.0
 30
0.0
  0
VERTEX
  8
Group051
 10
158.64999999999986
 20
-59.675000000000026
 30
0.0
  0
VERTEX
  8
Group051
 10
146.14999999999986
 20
-59.675000000000026
 30
0.0
  0
SEQEND
  8
Group051
  0
POLYLINE
  8
Group051
 62
0
 70
0
 66
1
 10
0.0
 20
0.0
 30
0.0
  0
VERTEX
  8
Group051
 10
145.39999999999986
 20
-60.425000000000026
 30
0.0
  0
VERTEX
  8
Group051
 10
145.39999999999986
 20
-72.92500000000003
 30
0.0
  0
SEQEND
  8
Group051
  0
POLYLINE
  8
Group051
 62
0
 70
0
 66
1
 10
0.0
 20
0.0
 30
0.0
  0
VERTEX
  8
Group051
 10
146.14999999999986
 20
-73.67500000000003
 30
0.0
  0
VERTEX
  8
Group051
 10
158.64999999999986
 20
-73.67500000000003
 30
0.0
  0
SEQEND
  8
Group051
  0
POLYLINE
  8
Group051
 62
0
 70
0
 66
1
 10
0.0
 20
0.0
 30
0.0
  0
VERTEX
  8
Group051
 10
159.39999999999986
 20
-72.92500000000003
 30
0.0
  0
VERTEX
  8
Group051
 10
159.39999999999986
 20
-60.425000000000026
 30
0.0
  0
SEQEND
  8
Group051
  0
ARC
  8
Group052
 62
0
 10
165.19999999999982
 20
-60.425000000000026
 30
0.0
 40
0.75
 50
90.0
 51
-180.0
  0
ARC
  8
Group052
 62
0
 10
177.69999999999982
 20
-60.425000000000026
 30
0.0
 40
0.75
 50
-0.0
 51
90.0
  0
ARC
  8
Group052
 62
0
 10
165.19999999999982
 20
-72.92500000000003
 30
0.0
 40
0.75
 50
-180.0
 51
-90.0
  0
ARC
  8
Group052
 62
0
 10
177.69999999999982
 20
-72.92500000000003
 30
0.0
 40
0.75
 50
-90.0
 51
-0.0
  0
POLYLINE
  8
Group052
 62
0
 70
0
 66
1
 10
0.0
 20
0.0
 30
0.0
  0
VERTEX
  8
Group052
 10
177.69999999999982
 20
-59.675000000000026
 30
0.0
  0
VERTEX
  8
Group052
 10
165.19999999999982
 20
-59.675000000000026
 30
0.0
  0
SEQEND
  8
Group052
  0
POLYLINE
  8
Group052
 62
0
 70
0
 66
1
 10
0.0
 20
0.0
 30
0.0
  0
VERTEX
  8
Group052
 10
164.44999999999982
 20
-60.425000000000026
 30
0.0
  0
VERTEX
  8
Group052
 10
164.44999999999982
 20
-72.92500000000003
 30
0.0
  0
SEQEND
  8
Group052
  0
POLYLINE
  8
Group052
 62
0
 70
0
 66
1
 10
0.0
 20
0.0
 30
0.0
  0
VERTEX
  8
Group052
 10
165.19999999999982
 20
-73.67500000000003
 30
0.0
  0
VERTEX
  8
Group052
 10
177.69999999999982
 20
-73.67500000000003
 30
0.0
  0
SEQEND
  8
Group052
  0
POLYLINE
  8
Group052
 62
0
 70
0
 66
1
 10
0.0
 20
0.0
 30
0.0
  0
VERTEX
  8
Group052
 10
178.44999999999982
 20
-72.92500000000003
 30
0.0
  0
VERTEX
  8
Group052
 10
178.44999999999982
 20
-60.425000000000026
 30
0.0
  0
SEQEND
  8
Group052
  0
ARC
  8
Group053
 62
0
 10
184.24999999999977
 20
-60.425000000000026
 30
0.0
 40
0.75
 50
90.0
 51
-180.0
  0
ARC
  8
Group053
 62
0
 10
196.74999999999977
 20
-60.425000000000026
 30
0.0
 40
0.75
 50
-0.0
 51
90.0
  0
ARC
  8
Group053
 62
0
 10
184.24999999999977
 20
-72.92500000000003
 30
0.0
 40
0.75
 50
-180.0
 51
-90.0
  0
ARC
  8
Group053
 62
0
 10
196.74999999999977
 20
-72.92500000000003
 30
0.0
 40
0.75
 50
-90.0
 51
-0.0
  0
POLYLINE
  8
Group053
 62
0
 70
0
 66
1
 10
0.0
 20
0.0
 30
0.0
  0
VERTEX
  8
Group053
 10
196.74999999999977
 20
-59.675000000000026
 30
0.0
  0
VERTEX
  8
Group053
 10
184.24999999999977
 20
-59.675000000000026
 30
0.0
  0
SEQEND
  8
Group053
  0
POLYLINE
  8
Group053
 62
0
 70
0
 66
1
 10
0.0
 20
0.0
 30
0.0
  0
VERTEX
  8
Group053
 10
183.49999999999977
 20
-60.425000000000026
 30
0.0
  0
VERTEX
  8
Group053
 10
183.49999999999977
 20
-72.92500000000003
 30
0.0
  0
SEQEND
  8
Group053
  0
POLYLINE
  8
Group053
 62
0
 70
0
 66
1
 10
0.0
 20
0.0
 30
0.0
  0
VERTEX
  8
Group053
 10
184.24999999999977
 20
-73.67500000000003
 30
0.0
  0
VERTEX
  8
Group053
 10
196.74999999999977
 20
-73.67500000000003
 30
0.0
  0
SEQEND
  8
Group053
  0
POLYLINE
  8
Group053
 62
0
 70
0
 66
1
 10
0.0
 20
0.0
 30
0.0
  0
VERTEX
  8
Group053
 10
197.49999999999977
 20
-72.92500000000003
 30
0.0
  0
VERTEX
  8
Group053
 10
197.49999999999977
 20
-60.425000000000026
 30
0.0
  0
SEQEND
  8
Group053
  0
ARC
  8
Group054
 62
0
 10
203.29999999999973
 20
-60.425000000000026
 30
0.0
 40
0.75
 50
90.0
 51
-180.0
  0
ARC
  8
Group054
 62
0
 10
215.79999999999973
 20
-60.425000000000026
 30
0.0
 40
0.75
 50
-0.0
 51
90.0
  0
ARC
  8
Group054
 62
0
 10
203.29999999999973
 20
-72.92500000000003
 30
0.0
 40
0.75
 50
-180.0
 51
-90.0
  0
ARC
  8
Group054
 62
0
 10
215.79999999999973
 20
-72.92500000000003
 30
0.0
 40
0.75
 50
-90.0
 51
-0.0
  0
POLYLINE
  8
Group054
 62
0
 70
0
 66
1
 10
0.0
 20
0.0
 30
0.0
  0
VERTEX
  8
Group054
 10
215.79999999999973
 20
-59.675000000000026
 30
0.0
  0
VERTEX
  8
Group054
 10
203.29999999999973
 20
-59.675000000000026
 30
0.0
  0
SEQEND
  8
Group054
  0
POLYLINE
  8
Group054
 62
0
 70
0
 66
1
 10
0.0
 20
0.0
 30
0.0
  0
VERTEX
  8
Group054
 10
202.54999999999973
 20
-60.425000000000026
 30
0.0
  0
VERTEX
  8
Group054
 10
202.54999999999973
 20
-72.92500000000003
 30
0.0
  0
SEQEND
  8
Group054
  0
POLYLINE
  8
Group054
 62
0
 70
0
 66
1
 10
0.0
 20
0.0
 30
0.0
  0
VERTEX
  8
Group054
 10
203.29999999999973
 20
-73.67500000000003
 30
0.0
  0
VERTEX
  8
Group054
 10
215.79999999999973
 20
-73.67500000000003
 30
0.0
  0
SEQEND
  8
Group054
  0
POLYLINE
  8
Group054
 62
0
 70
0
 66
1
 10
0.0
 20
0.0
 30
0.0
  0
VERTEX
  8
Group054
 10
216.54999999999973
 20
-72.92500000000003
 30
0.0
  0
VERTEX
  8
Group054
 10
216.54999999999973
 20
-60.425000000000026
 30
0.0
  0
SEQEND
  8
Group054
  0
ARC
  8
Group055
 62
0
 10
222.34999999999968
 20
-60.425000000000026
 30
0.0
 40
0.75
 50
90.0
 51
-180.0
  0
ARC
  8
Group055
 62
0
 10
234.84999999999968
 20
-60.425000000000026
 30
0.0
 40
0.75
 50
-0.0
 51
90.0
  0
ARC
  8
Group055
 62
0
 10
222.34999999999968
 20
-72.92500000000003
 30
0.0
 40
0.75
 50
-180.0
 51
-90.0
  0
ARC
  8
Group055
 62
0
 10
234.84999999999968
 20
-72.92500000000003
 30
0.0
 40
0.75
 50
-90.0
 51
-0.0
  0
POLYLINE
  8
Group055
 62
0
 70
0
 66
1
 10
0.0
 20
0.0
 30
0.0
  0
VERTEX
  8
Group055
 10
234.84999999999968
 20
-59.675000000000026
 30
0.0
  0
VERTEX
  8
Group055
 10
222.34999999999968
 20
-59.675000000000026
 30
0.0
  0
SEQEND
  8
Group055
  0
POLYLINE
  8
Group055
 62
0
 70
0
 66
1
 10
0.0
 20
0.0
 30
0.0
  0
VERTEX
  8
Group055
 10
221.59999999999968
 20
-60.425000000000026
 30
0.0
  0
VERTEX
  8
Group055
 10
221.59999999999968
 20
-72.92500000000003
 30
0.0
  0
SEQEND
  8
Group055
  0
POLYLINE
  8
Group055
 62
0
 70
0
 66
1
 10
0.0
 20
0.0
 30
0.0
  0
VERTEX
  8
Group055
 10
222.34999999999968
 20
-73.67500000000003
 30
0.0
  0
VERTEX
  8
Group055
 10
234.84999999999968
 20
-73.67500000000003
 30
0.0
  0
SEQEND
  8
Group055
  0
POLYLINE
  8
Group055
 62
0
 70
0
 66
1
 10
0.0
 20
0.0
 30
0.0
  0
VERTEX
  8
Group055
 10
235.59999999999968
 20
-72.92500000000003
 30
0.0
  0
VERTEX
  8
Group055
 10
235.59999999999968
 20
-60.425000000000026
 30
0.0
  0
SEQEND
  8
Group055
  0
ARC
  8
Group056
 62
0
 10
241.39999999999964
 20
-60.425000000000026
 30
0.0
 40
0.75
 50
90.0
 51
-180.0
  0
ARC
  8
Group056
 62
0
 10
253.89999999999964
 20
-60.425000000000026
 30
0.0
 40
0.75
 50
-0.0
 51
90.0
  0
ARC
  8
Group056
 62
0
 10
241.39999999999964
 20
-72.92500000000003
 30
0.0
 40
0.75
 50
-180.0
 51
-90.0
  0
ARC
  8
Group056
 62
0
 10
253.89999999999964
 20
-72.92500000000003
 30
0.0
 40
0.75
 50
-90.0
 51
-0.0
  0
POLYLINE
  8
Group056
 62
0
 70
0
 66
1
 10
0.0
 20
0.0
 30
0.0
  0
VERTEX
  8
Group056
 10
253.89999999999964
 20
-59.675000000000026
 30
0.0
  0
VERTEX
  8
Group056
 10
241.39999999999964
 20
-59.675000000000026
 30
0.0
  0
SEQEND
  8
Group056
  0
POLYLINE
  8
Group056
 62
0
 70
0
 66
1
 10
0.0
 20
0.0
 30
0.0
  0
VERTEX
  8
Group056
 10
240.64999999999964
 20
-60.425000000000026
 30
0.0
  0
VERTEX
  8
Group056
 10
240.64999999999964
 20
-72.92500000000003
 30
0.0
  0
SEQEND
  8
Group056
  0
POLYLINE
  8
Group056
 62
0
 70
0
 66
1
 10
0.0
 20
0.0
 30
0.0
  0
VERTEX
  8
Group056
 10
241.39999999999964
 20
-73.67500000000003
 30
0.0
  0
VERTEX
  8
Group056
 10
253.89999999999964
 20
-73.67500000000003
 30
0.0
  0
SEQEND
  8
Group056
  0
POLYLINE
  8
Group056
 62
0
 70
0
 66
1
 10
0.0
 20
0.0
 30
0.0
  0
VERTEX
  8
Group056
 10
254.64999999999964
 20
-72.92500000000003
 30
0.0
  0
VERTEX
  8
Group056
 10
254.64999999999964
 20
-60.425000000000026
 30
0.0
  0
SEQEND
  8
Group056
  0
ARC
  8
Group058
 62
0
 10
298.5499999999999
 20
-60.425
 30
0.0
 40
0.75
 50
90.0
 51
-180.0
  0
ARC
  8
Group058
 62
0
 10
311.05
 20
-60.425
 30
0.0
 40
0.75
 50
-0.0
 51
90.0
  0
ARC
  8
Group058
 62
0
 10
298.5499999999999
 20
-72.92500000000001
 30
0.0
 40
0.75
 50
-180.0
 51
-90.0
  0
ARC
  8
Group058
 62
0
 10
311.05
 20
-72.92500000000001
 30
0.0
 40
0.75
 50
-90.0
 51
-0.0
  0
POLYLINE
  8
Group058
 62
0
 70
0
 66
1
 10
0.0
 20
0.0
 30
0.0
  0
VERTEX
  8
Group058
 10
311.05
 20
-59.675
 30
0.0
  0
VERTEX
  8
Group058
 10
298.55
 20
-59.675
 30
0.0
  0
SEQEND
  8
Group058
  0
POLYLINE
  8
Group058
 62
0
 70
0
 66
1
 10
0.0
 20
0.0
 30
0.0
  0
VERTEX
  8
Group058
 10
297.7999999999999
 20
-60.425
 30
0.0
  0
VERTEX
  8
Group058
 10
297.7999999999999
 20
-72.925
 30
0.0
  0
SEQEND
  8
Group058
  0
POLYLINE
  8
Group058
 62
0
 70
0
 66
1
 10
0.0
 20
0.0
 30
0.0
  0
VERTEX
  8
Group058
 10
298.5499999999999
 20
-73.67500000000001
 30
0.0
  0
VERTEX
  8
Group058
 10
311.0499999999999
 20
-73.67500000000001
 30
0.0
  0
SEQEND
  8
Group058
  0
POLYLINE
  8
Group058
 62
0
 70
0
 66
1
 10
0.0
 20
0.0
 30
0.0
  0
VERTEX
  8
Group058
 10
311.8
 20
-72.92500000000001
 30
0.0
  0
VERTEX
  8
Group058
 10
311.8
 20
-60.42500000000001
 30
0.0
  0
SEQEND
  8
Group058
  0
ARC
  8
Group059
 62
0
 10
317.59999999999997
 20
-60.425
 30
0.0
 40
0.75
 50
90.0
 51
-180.0
  0
ARC
  8
Group059
 62
0
 10
330.09999999999997
 20
-60.425
 30
0.0
 40
0.75
 50
-0.0
 51
90.0
  0
ARC
  8
Group059
 62
0
 10
317.59999999999997
 20
-72.92500000000001
 30
0.0
 40
0.75
 50
-180.0
 51
-90.0
  0
ARC
  8
Group059
 62
0
 10
330.09999999999997
 20
-72.92500000000001
 30
0.0
 40
0.75
 50
-90.0
 51
-0.0
  0
POLYLINE
  8
Group059
 62
0
 70
0
 66
1
 10
0.0
 20
0.0
 30
0.0
  0
VERTEX
  8
Group059
 10
330.09999999999997
 20
-59.675
 30
0.0
  0
VERTEX
  8
Group059
 10
317.59999999999997
 20
-59.675
 30
0.0
  0
SEQEND
  8
Group059
  0
POLYLINE
  8
Group059
 62
0
 70
0
 66
1
 10
0.0
 20
0.0
 30
0.0
  0
VERTEX
  8
Group059
 10
316.84999999999997
 20
-60.425
 30
0.0
  0
VERTEX
  8
Group059
 10
316.84999999999997
 20
-72.925
 30
0.0
  0
SEQEND
  8
Group059
  0
POLYLINE
  8
Group059
 62
0
 70
0
 66
1
 10
0.0
 20
0.0
 30
0.0
  0
VERTEX
  8
Group059
 10
317.59999999999997
 20
-73.67500000000001
 30
0.0
  0
VERTEX
  8
Group059
 10
330.09999999999997
 20
-73.67500000000001
 30
0.0
  0
SEQEND
  8
Group059
  0
POLYLINE
  8
Group059
 62
0
 70
0
 66
1
 10
0.0
 20
0.0
 30
0.0
  0
VERTEX
  8
Group059
 10
330.84999999999997
 20
-72.92500000000001
 30
0.0
  0
VERTEX
  8
Group059
 10
330.84999999999997
 20
-60.42500000000001
 30
0.0
  0
SEQEND
  8
Group059
  0
ARC
  8
Group060
 62
0
 10
336.6499999999999
 20
-60.425
 30
0.0
 40
0.75
 50
90.0
 51
-180.0
  0
ARC
  8
Group060
 62
0
 10
349.15000000000003
 20
-60.425
 30
0.0
 40
0.75
 50
-0.0
 51
90.0
  0
ARC
  8
Group060
 62
0
 10
336.6499999999999
 20
-72.92500000000001
 30
0.0
 40
0.75
 50
-180.0
 51
-90.0
  0
ARC
  8
Group060
 62
0
 10
349.15000000000003
 20
-72.92500000000001
 30
0.0
 40
0.75
 50
-90.0
 51
-0.0
  0
POLYLINE
  8
Group060
 62
0
 70
0
 66
1
 10
0.0
 20
0.0
 30
0.0
  0
VERTEX
  8
Group060
 10
349.15000000000003
 20
-59.675
 30
0.0
  0
VERTEX
  8
Group060
 10
336.65000000000003
 20
-59.675
 30
0.0
  0
SEQEND
  8
Group060
  0
POLYLINE
  8
Group060
 62
0
 70
0
 66
1
 10
0.0
 20
0.0
 30
0.0
  0
VERTEX
  8
Group060
 10
335.8999999999999
 20
-60.425
 30
0.0
  0
VERTEX
  8
Group060
 10
335.8999999999999
 20
-72.925
 30
0.0
  0
SEQEND
  8
Group060
  0
POLYLINE
  8
Group060
 62
0
 70
0
 66
1
 10
0.0
 20
0.0
 30
0.0
  0
VERTEX
  8
Group060
 10
336.6499999999999
 20
-73.67500000000001
 30
0.0
  0
VERTEX
  8
Group060
 10
349.1499999999999
 20
-73.67500000000001
 30
0.0
  0
SEQEND
  8
Group060
  0
POLYLINE
  8
Group060
 62
0
 70
0
 66
1
 10
0.0
 20
0.0
 30
0.0
  0
VERTEX
  8
Group060
 10
349.90000000000003
 20
-72.92500000000001
 30
0.0
  0
VERTEX
  8
Group060
 10
349.90000000000003
 20
-60.42500000000001
 30
0.0
  0
SEQEND
  8
Group060
  0
ARC
  8
Group061
 62
0
 10
365.22499999999997
 20
-60.425
 30
0.0
 40
0.75
 50
90.0
 51
-180.0
  0
ARC
  8
Group061
 62
0
 10
377.72499999999997
 20
-60.425
 30
0.0
 40
0.75
 50
-0.0
 51
90.0
  0
ARC
  8
Group061
 62
0
 10
365.22499999999997
 20
-72.92500000000001
 30
0.0
 40
0.75
 50
-180.0
 51
-90.0
  0
ARC
  8
Group061
 62
0
 10
377.72499999999997
 20
-72.92500000000001
 30
0.0
 40
0.75
 50
-90.0
 51
-0.0
  0
POLYLINE
  8
Group061
 62
0
 70
0
 66
1
 10
0.0
 20
0.0
 30
0.0
  0
VERTEX
  8
Group061
 10
377.72499999999997
 20
-59.675
 30
0.0
  0
VERTEX
  8
Group061
 10
365.22499999999997
 20
-59.675
 30
0.0
  0
SEQEND
  8
Group061
  0
POLYLINE
  8
Group061
 62
0
 70
0
 66
1
 10
0.0
 20
0.0
 30
0.0
  0
VERTEX
  8
Group061
 10
364.47499999999997
 20
-60.425
 30
0.0
  0
VERTEX
  8
Group061
 10
364.47499999999997
 20
-72.925
 30
0.0
  0
SEQEND
  8
Group061
  0
POLYLINE
  8
Group061
 62
0
 70
0
 66
1
 10
0.0
 20
0.0
 30
0.0
  0
VERTEX
  8
Group061
 10
365.22499999999997
 20
-73.67500000000001
 30
0.0
  0
VERTEX
  8
Group061
 10
377.72499999999997
 20
-73.67500000000001
 30
0.0
  0
SEQEND
  8
Group061
  0
POLYLINE
  8
Group061
 62
0
 70
0
 66
1
 10
0.0
 20
0.0
 30
0.0
  0
VERTEX
  8
Group061
 10
378.47499999999997
 20
-72.92500000000001
 30
0.0
  0
VERTEX
  8
Group061
 10
378.47499999999997
 20
-60.42500000000001
 30
0.0
  0
SEQEND
  8
Group061
  0
ARC
  8
Group062
 62
0
 10
384.2749999999999
 20
-60.425
 30
0.0
 40
0.75
 50
90.0
 51
-180.0
  0
ARC
  8
Group062
 62
0
 10
396.77500000000003
 20
-60.425
 30
0.0
 40
0.75
 50
-0.0
 51
90.0
  0
ARC
  8
Group062
 62
0
 10
384.2749999999999
 20
-72.92500000000001
 30
0.0
 40
0.75
 50
-180.0
 51
-90.0
  0
ARC
  8
Group062
 62
0
 10
396.77500000000003
 20
-72.92500000000001
 30
0.0
 40
0.75
 50
-90.0
 51
-0.0
  0
POLYLINE
  8
Group062
 62
0
 70
0
 66
1
 10
0.0
 20
0.0
 30
0.0
  0
VERTEX
  8
Group062
 10
396.77500000000003
 20
-59.675
 30
0.0
  0
VERTEX
  8
Group062
 10
384.27500000000003
 20
-59.675
 30
0.0
  0
SEQEND
  8
Group062
  0
POLYLINE
  8
Group062
 62
0
 70
0
 66
1
 10
0.0
 20
0.0
 30
0.0
  0
VERTEX
  8
Group062
 10
383.5249999999999
 20
-60.425
 30
0.0
  0
VERTEX
  8
Group062
 10
383.5249999999999
 20
-72.925
 30
0.0
  0
SEQEND
  8
Group062
  0
POLYLINE
  8
Group062
 62
0
 70
0
 66
1
 10
0.0
 20
0.0
 30
0.0
  0
VERTEX
  8
Group062
 10
384.2749999999999
 20
-73.67500000000001
 30
0.0
  0
VERTEX
  8
Group062
 10
396.7749999999999
 20
-73.67500000000001
 30
0.0
  0
SEQEND
  8
Group062
  0
POLYLINE
  8
Group062
 62
0
 70
0
 66
1
 10
0.0
 20
0.0
 30
0.0
  0
VERTEX
  8
Group062
 10
397.52500000000003
 20
-72.92500000000001
 30
0.0
  0
VERTEX
  8
Group062
 10
397.52500000000003
 20
-60.42500000000001
 30
0.0
  0
SEQEND
  8
Group062
  0
ARC
  8
Group063
 62
0
 10
403.325
 20
-60.425
 30
0.0
 40
0.75
 50
90.0
 51
-180.0
  0
ARC
  8
Group063
 62
0
 10
415.825
 20
-60.425
 30
0.0
 40
0.75
 50
-0.0
 51
90.0
  0
ARC
  8
Group063
 62
0
 10
403.325
 20
-72.92500000000001
 30
0.0
 40
0.75
 50
-180.0
 51
-90.0
  0
ARC
  8
Group063
 62
0
 10
415.825
 20
-72.92500000000001
 30
0.0
 40
0.75
 50
-90.0
 51
-0.0
  0
POLYLINE
  8
Group063
 62
0
 70
0
 66
1
 10
0.0
 20
0.0
 30
0.0
  0
VERTEX
  8
Group063
 10
415.825
 20
-59.675
 30
0.0
  0
VERTEX
  8
Group063
 10
403.325
 20
-59.675
 30
0.0
  0
SEQEND
  8
Group063
  0
POLYLINE
  8
Group063
 62
0
 70
0
 66
1
 10
0.0
 20
0.0
 30
0.0
  0
VERTEX
  8
Group063
 10
402.575
 20
-60.425
 30
0.0
  0
VERTEX
  8
Group063
 10
402.575
 20
-72.925
 30
0.0
  0
SEQEND
  8
Group063
  0
POLYLINE
  8
Group063
 62
0
 70
0
 66
1
 10
0.0
 20
0.0
 30
0.0
  0
VERTEX
  8
Group063
 10
403.325
 20
-73.67500000000001
 30
0.0
  0
VERTEX
  8
Group063
 10
415.825
 20
-73.67500000000001
 30
0.0
  0
SEQEND
  8
Group063
  0
POLYLINE
  8
Group063
 62
0
 70
0
 66
1
 10
0.0
 20
0.0
 30
0.0
  0
VERTEX
  8
Group063
 10
416.575
 20
-72.92500000000001
 30
0.0
  0
VERTEX
  8
Group063
 10
416.575
 20
-60.42500000000001
 30
0.0
  0
SEQEND
  8
Group063
  0
POLYLINE
  8
Group066
 62
0
 70
0
 66
1
 10
0.0
 20
0.0
 30
0.0
  0
VERTEX
  8
Group066
 10
23.668750000000006
 20
-91.97500000000002
 30
0.0
  0
VERTEX
  8
Group066
 10
23.668750000000006
 20
-79.47500000000002
 30
0.0
  0
SEQEND
  8
Group066
  0
ARC
  8
Group066
 62
0
 10
22.918750000000006
 20
-79.47500000000002
 30
0.0
 40
0.75
 50
-0.0
 51
90.0
  0
ARC
  8
Group066
 62
0
 10
22.918750000000006
 20
-91.97500000000002
 30
0.0
 40
0.75
 50
-90.0
 51
-0.0
  0
POLYLINE
  8
Group066
 62
0
 70
0
 66
1
 10
0.0
 20
0.0
 30
0.0
  0
VERTEX
  8
Group066
 10
4.906249999999998
 20
-79.47500000000002
 30
0.0
  0
VERTEX
  8
Group066
 10
4.906249999999998
 20
-91.97500000000002
 30
0.0
  0
SEQEND
  8
Group066
  0
ARC
  8
Group066
 62
0
 10
5.656249999999998
 20
-79.47500000000002
 30
0.0
 40
0.75
 50
90.0
 51
-180.0
  0
ARC
  8
Group066
 62
0
 10
5.656249999999998
 20
-91.97500000000002
 30
0.0
 40
0.75
 50
-180.0
 51
-90.0
  0
POLYLINE
  8
Group066
 62
0
 70
0
 66
1
 10
0.0
 20
0.0
 30
0.0
  0
VERTEX
  8
Group066
 10
22.918750000000006
 20
-92.72500000000002
 30
0.0
  0
VERTEX
  8
Group066
 10
5.6562499999999964
 20
-92.72500000000002
 30
0.0
  0
SEQEND
  8
Group066
  0
POLYLINE
  8
Group066
 62
0
 70
0
 66
1
 10
0.0
 20
0.0
 30
0.0
  0
VERTEX
  8
Group066
 10
5.656249999999998
 20
-78.72500000000002
 30
0.0
  0
VERTEX
  8
Group066
 10
22.91875000000001
 20
-78.72500000000002
 30
0.0
  0
SEQEND
  8
Group066
  0
ARC
  8
Group067
 62
0
 10
36.612500000000004
 20
-79.47500000000002
 30
0.0
 40
0.75
 50
90.0
 51
-180.0
  0
ARC
  8
Group067
 62
0
 10
49.112500000000004
 20
-79.47500000000002
 30
0.0
 40
0.75
 50
-0.0
 51
90.0
  0
ARC
  8
Group067
 62
0
 10
36.612500000000004
 20
-91.97500000000002
 30
0.0
 40
0.75
 50
-180.0
 51
-90.0
  0
ARC
  8
Group067
 62
0
 10
49.112500000000004
 20
-91.97500000000002
 30
0.0
 40
0.75
 50
-90.0
 51
-0.0
  0
POLYLINE
  8
Group067
 62
0
 70
0
 66
1
 10
0.0
 20
0.0
 30
0.0
  0
VERTEX
  8
Group067
 10
49.112500000000004
 20
-78.72500000000002
 30
0.0
  0
VERTEX
  8
Group067
 10
36.612500000000004
 20
-78.72500000000002
 30
0.0
  0
SEQEND
  8
Group067
  0
POLYLINE
  8
Group067
 62
0
 70
0
 66
1
 10
0.0
 20
0.0
 30
0.0
  0
VERTEX
  8
Group067
 10
35.862500000000004
 20
-79.47500000000002
 30
0.0
  0
VERTEX
  8
Group067
 10
35.862500000000004
 20
-91.97500000000002
 30
0.0
  0
SEQEND
  8
Group067
  0
POLYLINE
  8
Group067
 62
0
 70
0
 66
1
 10
0.0
 20
0.0
 30
0.0
  0
VERTEX
  8
Group067
 10
36.612500000000004
 20
-92.72500000000002
 30
0.0
  0
VERTEX
  8
Group067
 10
49.112500000000004
 20
-92.72500000000002
 30
0.0
  0
SEQEND
  8
Group067
  0
POLYLINE
  8
Group067
 62
0
 70
0
 66
1
 10
0.0
 20
0.0
 30
0.0
  0
VERTEX
  8
Group067
 10
49.862500000000004
 20
-91.97500000000002
 30
0.0
  0
VERTEX
  8
Group067
 10
49.862500000000004
 20
-79.47500000000002
 30
0.0
  0
SEQEND
  8
Group067
  0
ARC
  8
Group068
 62
0
 10
55.662499999999994
 20
-79.47500000000002
 30
0.0
 40
0.75
 50
90.0
 51
-180.0
  0
ARC
  8
Group068
 62
0
 10
68.1625
 20
-79.47500000000002
 30
0.0
 40
0.75
 50
-0.0
 51
90.0
  0
ARC
  8
Group068
 62
0
 10
55.662499999999994
 20
-91.97500000000002
 30
0.0
 40
0.75
 50
-180.0
 51
-90.0
  0
ARC
  8
Group068
 62
0
 10
68.1625
 20
-91.97500000000002
 30
0.0
 40
0.75
 50
-90.0
 51
-0.0
  0
POLYLINE
  8
Group068
 62
0
 70
0
 66
1
 10
0.0
 20
0.0
 30
0.0
  0
VERTEX
  8
Group068
 10
68.1625
 20
-78.72500000000002
 30
0.0
  0
VERTEX
  8
Group068
 10
55.662499999999994
 20
-78.72500000000002
 30
0.0
  0
SEQEND
  8
Group068
  0
POLYLINE
  8
Group068
 62
0
 70
0
 66
1
 10
0.0
 20
0.0
 30
0.0
  0
VERTEX
  8
Group068
 10
54.912499999999994
 20
-79.47500000000002
 30
0.0
  0
VERTEX
  8
Group068
 10
54.912499999999994
 20
-91.97500000000002
 30
0.0
  0
SEQEND
  8
Group068
  0
POLYLINE
  8
Group068
 62
0
 70
0
 66
1
 10
0.0
 20
0.0
 30
0.0
  0
VERTEX
  8
Group068
 10
55.662499999999994
 20
-92.72500000000002
 30
0.0
  0
VERTEX
  8
Group068
 10
68.1625
 20
-92.72500000000002
 30
0.0
  0
SEQEND
  8
Group068
  0
POLYLINE
  8
Group068
 62
0
 70
0
 66
1
 10
0.0
 20
0.0
 30
0.0
  0
VERTEX
  8
Group068
 10
68.9125
 20
-91.97500000000002
 30
0.0
  0
VERTEX
  8
Group068
 10
68.9125
 20
-79.47500000000002
 30
0.0
  0
SEQEND
  8
Group068
  0
ARC
  8
Group069
 62
0
 10
74.71249999999998
 20
-79.47500000000002
 30
0.0
 40
0.75
 50
90.0
 51
-180.0
  0
ARC
  8
Group069
 62
0
 10
87.21249999999998
 20
-79.47500000000002
 30
0.0
 40
0.75
 50
-0.0
 51
90.0
  0
ARC
  8
Group069
 62
0
 10
74.71249999999998
 20
-91.97500000000002
 30
0.0
 40
0.75
 50
-180.0
 51
-90.0
  0
ARC
  8
Group069
 62
0
 10
87.21249999999998
 20
-91.97500000000002
 30
0.0
 40
0.75
 50
-90.0
 51
-0.0
  0
POLYLINE
  8
Group069
 62
0
 70
0
 66
1
 10
0.0
 20
0.0
 30
0.0
  0
VERTEX
  8
Group069
 10
87.21249999999998
 20
-78.72500000000002
 30
0.0
  0
VERTEX
  8
Group069
 10
74.71249999999998
 20
-78.72500000000002
 30
0.0
  0
SEQEND
  8
Group069
  0
POLYLINE
  8
Group069
 62
0
 70
0
 66
1
 10
0.0
 20
0.0
 30
0.0
  0
VERTEX
  8
Group069
 10
73.96249999999998
 20
-79.47500000000002
 30
0.0
  0
VERTEX
  8
Group069
 10
73.96249999999998
 20
-91.97500000000002
 30
0.0
  0
SEQEND
  8
Group069
  0
POLYLINE
  8
Group069
 62
0
 70
0
 66
1
 10
0.0
 20
0.0
 30
0.0
  0
VERTEX
  8
Group069
 10
74.71249999999998
 20
-92.72500000000002
 30
0.0
  0
VERTEX
  8
Group069
 10
87.21249999999998
 20
-92.72500000000002
 30
0.0
  0
SEQEND
  8
Group069
  0
POLYLINE
  8
Group069
 62
0
 70
0
 66
1
 10
0.0
 20
0.0
 30
0.0
  0
VERTEX
  8
Group069
 10
87.96249999999998
 20
-91.97500000000002
 30
0.0
  0
VERTEX
  8
Group069
 10
87.96249999999998
 20
-79.47500000000002
 30
0.0
  0
SEQEND
  8
Group069
  0
ARC
  8
Group070
 62
0
 10
93.76249999999996
 20
-79.47500000000002
 30
0.0
 40
0.75
 50
90.0
 51
-180.0
  0
ARC
  8
Group070
 62
0
 10
106.26249999999996
 20
-79.47500000000002
 30
0.0
 40
0.75
 50
-0.0
 51
90.0
  0
ARC
  8
Group070
 62
0
 10
93.76249999999996
 20
-91.97500000000002
 30
0.0
 40
0.75
 50
-180.0
 51
-90.0
  0
ARC
  8
Group070
 62
0
 10
106.26249999999996
 20
-91.97500000000002
 30
0.0
 40
0.75
 50
-90.0
 51
-0.0
  0
POLYLINE
  8
Group070
 62
0
 70
0
 66
1
 10
0.0
 20
0.0
 30
0.0
  0
VERTEX
  8
Group070
 10
106.26249999999996
 20
-78.72500000000002
 30
0.0
  0
VERTEX
  8
Group070
 10
93.76249999999996
 20
-78.72500000000002
 30
0.0
  0
SEQEND
  8
Group070
  0
POLYLINE
  8
Group070
 62
0
 70
0
 66
1
 10
0.0
 20
0.0
 30
0.0
  0
VERTEX
  8
Group070
 10
93.01249999999996
 20
-79.47500000000002
 30
0.0
  0
VERTEX
  8
Group070
 10
93.01249999999996
 20
-91.97500000000002
 30
0.0
  0
SEQEND
  8
Group070
  0
POLYLINE
  8
Group070
 62
0
 70
0
 66
1
 10
0.0
 20
0.0
 30
0.0
  0
VERTEX
  8
Group070
 10
93.76249999999996
 20
-92.72500000000002
 30
0.0
  0
VERTEX
  8
Group070
 10
106.26249999999996
 20
-92.72500000000002
 30
0.0
  0
SEQEND
  8
Group070
  0
POLYLINE
  8
Group070
 62
0
 70
0
 66
1
 10
0.0
 20
0.0
 30
0.0
  0
VERTEX
  8
Group070
 10
107.01249999999996
 20
-91.97500000000002
 30
0.0
  0
VERTEX
  8
Group070
 10
107.01249999999996
 20
-79.47500000000002
 30
0.0
  0
SEQEND
  8
Group070
  0
ARC
  8
Group071
 62
0
 10
112.81249999999994
 20
-79.47500000000002
 30
0.0
 40
0.75
 50
90.0
 51
-180.0
  0
ARC
  8
Group071
 62
0
 10
125.31249999999994
 20
-79.47500000000002
 30
0.0
 40
0.75
 50
-0.0
 51
90.0
  0
ARC
  8
Group071
 62
0
 10
112.81249999999994
 20
-91.97500000000002
 30
0.0
 40
0.75
 50
-180.0
 51
-90.0
  0
ARC
  8
Group071
 62
0
 10
125.31249999999994
 20
-91.97500000000002
 30
0.0
 40
0.75
 50
-90.0
 51
-0.0
  0
POLYLINE
  8
Group071
 62
0
 70
0
 66
1
 10
0.0
 20
0.0
 30
0.0
  0
VERTEX
  8
Group071
 10
125.31249999999994
 20
-78.72500000000002
 30
0.0
  0
VERTEX
  8
Group071
 10
112.81249999999994
 20
-78.72500000000002
 30
0.0
  0
SEQEND
  8
Group071
  0
POLYLINE
  8
Group071
 62
0
 70
0
 66
1
 10
0.0
 20
0.0
 30
0.0
  0
VERTEX
  8
Group071
 10
112.06249999999994
 20
-79.47500000000002
 30
0.0
  0
VERTEX
  8
Group071
 10
112.06249999999994
 20
-91.97500000000002
 30
0.0
  0
SEQEND
  8
Group071
  0
POLYLINE
  8
Group071
 62
0
 70
0
 66
1
 10
0.0
 20
0.0
 30
0.0
  0
VERTEX
  8
Group071
 10
112.81249999999994
 20
-92.72500000000002
 30
0.0
  0
VERTEX
  8
Group071
 10
125.31249999999994
 20
-92.72500000000002
 30
0.0
  0
SEQEND
  8
Group071
  0
POLYLINE
  8
Group071
 62
0
 70
0
 66
1
 10
0.0
 20
0.0
 30
0.0
  0
VERTEX
  8
Group071
 10
126.06249999999994
 20
-91.97500000000002
 30
0.0
  0
VERTEX
  8
Group071
 10
126.06249999999994
 20
-79.47500000000002
 30
0.0
  0
SEQEND
  8
Group071
  0
ARC
  8
Group072
 62
0
 10
131.86249999999993
 20
-79.47500000000002
 30
0.0
 40
0.75
 50
90.0
 51
-180.0
  0
ARC
  8
Group072
 62
0
 10
144.36249999999993
 20
-79.47500000000002
 30
0.0
 40
0.75
 50
-0.0
 51
90.0
  0
ARC
  8
Group072
 62
0
 10
131.86249999999993
 20
-91.97500000000002
 30
0.0
 40
0.75
 50
-180.0
 51
-90.0
  0
ARC
  8
Group072
 62
0
 10
144.36249999999993
 20
-91.97500000000002
 30
0.0
 40
0.75
 50
-90.0
 51
-0.0
  0
POLYLINE
  8
Group072
 62
0
 70
0
 66
1
 10
0.0
 20
0.0
 30
0.0
  0
VERTEX
  8
Group072
 10
144.36249999999993
 20
-78.72500000000002
 30
0.0
  0
VERTEX
  8
Group072
 10
131.86249999999993
 20
-78.72500000000002
 30
0.0
  0
SEQEND
  8
Group072
  0
POLYLINE
  8
Group072
 62
0
 70
0
 66
1
 10
0.0
 20
0.0
 30
0.0
  0
VERTEX
  8
Group072
 10
131.11249999999993
 20
-79.47500000000002
 30
0.0
  0
VERTEX
  8
Group072
 10
131.11249999999993
 20
-91.97500000000002
 30
0.0
  0
SEQEND
  8
Group072
  0
POLYLINE
  8
Group072
 62
0
 70
0
 66
1
 10
0.0
 20
0.0
 30
0.0
  0
VERTEX
  8
Group072
 10
131.86249999999993
 20
-92.72500000000002
 30
0.0
  0
VERTEX
  8
Group072
 10
144.36249999999993
 20
-92.72500000000002
 30
0.0
  0
SEQEND
  8
Group072
  0
POLYLINE
  8
Group072
 62
0
 70
0
 66
1
 10
0.0
 20
0.0
 30
0.0
  0
VERTEX
  8
Group072
 10
145.11249999999993
 20
-91.97500000000002
 30
0.0
  0
VERTEX
  8
Group072
 10
145.11249999999993
 20
-79.47500000000002
 30
0.0
  0
SEQEND
  8
Group072
  0
ARC
  8
Group073
 62
0
 10
150.9124999999999
 20
-79.47500000000002
 30
0.0
 40
0.75
 50
90.0
 51
-180.0
  0
ARC
  8
Group073
 62
0
 10
163.4124999999999
 20
-79.47500000000002
 30
0.0
 40
0.75
 50
-0.0
 51
90.0
  0
ARC
  8
Group073
 62
0
 10
150.9124999999999
 20
-91.97500000000002
 30
0.0
 40
0.75
 50
-180.0
 51
-90.0
  0
ARC
  8
Group073
 62
0
 10
163.4124999999999
 20
-91.97500000000002
 30
0.0
 40
0.75
 50
-90.0
 51
-0.0
  0
POLYLINE
  8
Group073
 62
0
 70
0
 66
1
 10
0.0
 20
0.0
 30
0.0
  0
VERTEX
  8
Group073
 10
163.4124999999999
 20
-78.72500000000002
 30
0.0
  0
VERTEX
  8
Group073
 10
150.9124999999999
 20
-78.72500000000002
 30
0.0
  0
SEQEND
  8
Group073
  0
POLYLINE
  8
Group073
 62
0
 70
0
 66
1
 10
0.0
 20
0.0
 30
0.0
  0
VERTEX
  8
Group073
 10
150.1624999999999
 20
-79.47500000000002
 30
0.0
  0
VERTEX
  8
Group073
 10
150.1624999999999
 20
-91.97500000000002
 30
0.0
  0
SEQEND
  8
Group073
  0
POLYLINE
  8
Group073
 62
0
 70
0
 66
1
 10
0.0
 20
0.0
 30
0.0
  0
VERTEX
  8
Group073
 10
150.9124999999999
 20
-92.72500000000002
 30
0.0
  0
VERTEX
  8
Group073
 10
163.4124999999999
 20
-92.72500000000002
 30
0.0
  0
SEQEND
  8
Group073
  0
POLYLINE
  8
Group073
 62
0
 70
0
 66
1
 10
0.0
 20
0.0
 30
0.0
  0
VERTEX
  8
Group073
 10
164.1624999999999
 20
-91.97500000000002
 30
0.0
  0
VERTEX
  8
Group073
 10
164.1624999999999
 20
-79.47500000000002
 30
0.0
  0
SEQEND
  8
Group073
  0
ARC
  8
Group074
 62
0
 10
169.9624999999999
 20
-79.47500000000002
 30
0.0
 40
0.75
 50
90.0
 51
-180.0
  0
ARC
  8
Group074
 62
0
 10
182.4624999999999
 20
-79.47500000000002
 30
0.0
 40
0.75
 50
-0.0
 51
90.0
  0
ARC
  8
Group074
 62
0
 10
169.9624999999999
 20
-91.97500000000002
 30
0.0
 40
0.75
 50
-180.0
 51
-90.0
  0
ARC
  8
Group074
 62
0
 10
182.4624999999999
 20
-91.97500000000002
 30
0.0
 40
0.75
 50
-90.0
 51
-0.0
  0
POLYLINE
  8
Group074
 62
0
 70
0
 66
1
 10
0.0
 20
0.0
 30
0.0
  0
VERTEX
  8
Group074
 10
182.4624999999999
 20
-78.72500000000002
 30
0.0
  0
VERTEX
  8
Group074
 10
169.9624999999999
 20
-78.72500000000002
 30
0.0
  0
SEQEND
  8
Group074
  0
POLYLINE
  8
Group074
 62
0
 70
0
 66
1
 10
0.0
 20
0.0
 30
0.0
  0
VERTEX
  8
Group074
 10
169.2124999999999
 20
-79.47500000000002
 30
0.0
  0
VERTEX
  8
Group074
 10
169.2124999999999
 20
-91.97500000000002
 30
0.0
  0
SEQEND
  8
Group074
  0
POLYLINE
  8
Group074
 62
0
 70
0
 66
1
 10
0.0
 20
0.0
 30
0.0
  0
VERTEX
  8
Group074
 10
169.9624999999999
 20
-92.72500000000002
 30
0.0
  0
VERTEX
  8
Group074
 10
182.4624999999999
 20
-92.72500000000002
 30
0.0
  0
SEQEND
  8
Group074
  0
POLYLINE
  8
Group074
 62
0
 70
0
 66
1
 10
0.0
 20
0.0
 30
0.0
  0
VERTEX
  8
Group074
 10
183.2124999999999
 20
-91.97500000000002
 30
0.0
  0
VERTEX
  8
Group074
 10
183.2124999999999
 20
-79.47500000000002
 30
0.0
  0
SEQEND
  8
Group074
  0
ARC
  8
Group075
 62
0
 10
189.01249999999987
 20
-79.47500000000002
 30
0.0
 40
0.75
 50
90.0
 51
-180.0
  0
ARC
  8
Group075
 62
0
 10
201.51249999999987
 20
-79.47500000000002
 30
0.0
 40
0.75
 50
-0.0
 51
90.0
  0
ARC
  8
Group075
 62
0
 10
189.01249999999987
 20
-91.97500000000002
 30
0.0
 40
0.75
 50
-180.0
 51
-90.0
  0
ARC
  8
Group075
 62
0
 10
201.51249999999987
 20
-91.97500000000002
 30
0.0
 40
0.75
 50
-90.0
 51
-0.0
  0
POLYLINE
  8
Group075
 62
0
 70
0
 66
1
 10
0.0
 20
0.0
 30
0.0
  0
VERTEX
  8
Group075
 10
201.51249999999987
 20
-78.72500000000002
 30
0.0
  0
VERTEX
  8
Group075
 10
189.01249999999987
 20
-78.72500000000002
 30
0.0
  0
SEQEND
  8
Group075
  0
POLYLINE
  8
Group075
 62
0
 70
0
 66
1
 10
0.0
 20
0.0
 30
0.0
  0
VERTEX
  8
Group075
 10
188.26249999999987
 20
-79.47500000000002
 30
0.0
  0
VERTEX
  8
Group075
 10
188.26249999999987
 20
-91.97500000000002
 30
0.0
  0
SEQEND
  8
Group075
  0
POLYLINE
  8
Group075
 62
0
 70
0
 66
1
 10
0.0
 20
0.0
 30
0.0
  0
VERTEX
  8
Group075
 10
189.01249999999987
 20
-92.72500000000002
 30
0.0
  0
VERTEX
  8
Group075
 10
201.51249999999987
 20
-92.72500000000002
 30
0.0
  0
SEQEND
  8
Group075
  0
POLYLINE
  8
Group075
 62
0
 70
0
 66
1
 10
0.0
 20
0.0
 30
0.0
  0
VERTEX
  8
Group075
 10
202.26249999999987
 20
-91.97500000000002
 30
0.0
  0
VERTEX
  8
Group075
 10
202.26249999999987
 20
-79.47500000000002
 30
0.0
  0
SEQEND
  8
Group075
  0
ARC
  8
Group076
 62
0
 10
208.06249999999986
 20
-79.47500000000002
 30
0.0
 40
0.75
 50
90.0
 51
-180.0
  0
ARC
  8
Group076
 62
0
 10
220.56249999999986
 20
-79.47500000000002
 30
0.0
 40
0.75
 50
-0.0
 51
90.0
  0
ARC
  8
Group076
 62
0
 10
208.06249999999986
 20
-91.97500000000002
 30
0.0
 40
0.75
 50
-180.0
 51
-90.0
  0
ARC
  8
Group076
 62
0
 10
220.56249999999986
 20
-91.97500000000002
 30
0.0
 40
0.75
 50
-90.0
 51
-0.0
  0
POLYLINE
  8
Group076
 62
0
 70
0
 66
1
 10
0.0
 20
0.0
 30
0.0
  0
VERTEX
  8
Group076
 10
220.56249999999986
 20
-78.72500000000002
 30
0.0
  0
VERTEX
  8
Group076
 10
208.06249999999986
 20
-78.72500000000002
 30
0.0
  0
SEQEND
  8
Group076
  0
POLYLINE
  8
Group076
 62
0
 70
0
 66
1
 10
0.0
 20
0.0
 30
0.0
  0
VERTEX
  8
Group076
 10
207.31249999999986
 20
-79.47500000000002
 30
0.0
  0
VERTEX
  8
Group076
 10
207.31249999999986
 20
-91.97500000000002
 30
0.0
  0
SEQEND
  8
Group076
  0
POLYLINE
  8
Group076
 62
0
 70
0
 66
1
 10
0.0
 20
0.0
 30
0.0
  0
VERTEX
  8
Group076
 10
208.06249999999986
 20
-92.72500000000002
 30
0.0
  0
VERTEX
  8
Group076
 10
220.56249999999986
 20
-92.72500000000002
 30
0.0
  0
SEQEND
  8
Group076
  0
POLYLINE
  8
Group076
 62
0
 70
0
 66
1
 10
0.0
 20
0.0
 30
0.0
  0
VERTEX
  8
Group076
 10
221.31249999999986
 20
-91.97500000000002
 30
0.0
  0
VERTEX
  8
Group076
 10
221.31249999999986
 20
-79.47500000000002
 30
0.0
  0
SEQEND
  8
Group076
  0
ARC
  8
Group077
 62
0
 10
227.11249999999984
 20
-79.47500000000002
 30
0.0
 40
0.75
 50
90.0
 51
-180.0
  0
ARC
  8
Group077
 62
0
 10
239.61249999999984
 20
-79.47500000000002
 30
0.0
 40
0.75
 50
-0.0
 51
90.0
  0
ARC
  8
Group077
 62
0
 10
227.11249999999984
 20
-91.97500000000002
 30
0.0
 40
0.75
 50
-180.0
 51
-90.0
  0
ARC
  8
Group077
 62
0
 10
239.61249999999984
 20
-91.97500000000002
 30
0.0
 40
0.75
 50
-90.0
 51
-0.0
  0
POLYLINE
  8
Group077
 62
0
 70
0
 66
1
 10
0.0
 20
0.0
 30
0.0
  0
VERTEX
  8
Group077
 10
239.61249999999984
 20
-78.72500000000002
 30
0.0
  0
VERTEX
  8
Group077
 10
227.11249999999984
 20
-78.72500000000002
 30
0.0
  0
SEQEND
  8
Group077
  0
POLYLINE
  8
Group077
 62
0
 70
0
 66
1
 10
0.0
 20
0.0
 30
0.0
  0
VERTEX
  8
Group077
 10
226.36249999999984
 20
-79.47500000000002
 30
0.0
  0
VERTEX
  8
Group077
 10
226.36249999999984
 20
-91.97500000000002
 30
0.0
  0
SEQEND
  8
Group077
  0
POLYLINE
  8
Group077
 62
0
 70
0
 66
1
 10
0.0
 20
0.0
 30
0.0
  0
VERTEX
  8
Group077
 10
227.11249999999984
 20
-92.72500000000002
 30
0.0
  0
VERTEX
  8
Group077
 10
239.61249999999984
 20
-92.72500000000002
 30
0.0
  0
SEQEND
  8
Group077
  0
POLYLINE
  8
Group077
 62
0
 70
0
 66
1
 10
0.0
 20
0.0
 30
0.0
  0
VERTEX
  8
Group077
 10
240.36249999999984
 20
-91.97500000000002
 30
0.0
  0
VERTEX
  8
Group077
 10
240.36249999999984
 20
-79.47500000000002
 30
0.0
  0
SEQEND
  8
Group077
  0
ARC
  8
Group081
 62
0
 10
365.22499999999997
 20
-79.475
 30
0.0
 40
0.75
 50
90.0
 51
-180.0
  0
ARC
  8
Group081
 62
0
 10
377.72499999999997
 20
-79.475
 30
0.0
 40
0.75
 50
-0.0
 51
90.0
  0
ARC
  8
Group081
 62
0
 10
365.22499999999997
 20
-91.97500000000002
 30
0.0
 40
0.75
 50
-180.0
 51
-90.0
  0
ARC
  8
Group081
 62
0
 10
377.72499999999997
 20
-91.97500000000002
 30
0.0
 40
0.75
 50
-90.0
 51
-0.0
  0
POLYLINE
  8
Group081
 62
0
 70
0
 66
1
 10
0.0
 20
0.0
 30
0.0
  0
VERTEX
  8
Group081
 10
377.72499999999997
 20
-78.725
 30
0.0
  0
VERTEX
  8
Group081
 10
365.22499999999997
 20
-78.725
 30
0.0
  0
SEQEND
  8
Group081
  0
POLYLINE
  8
Group081
 62
0
 70
0
 66
1
 10
0.0
 20
0.0
 30
0.0
  0
VERTEX
  8
Group081
 10
364.47499999999997
 20
-79.475
 30
0.0
  0
VERTEX
  8
Group081
 10
364.47499999999997
 20
-91.975
 30
0.0
  0
SEQEND
  8
Group081
  0
POLYLINE
  8
Group081
 62
0
 70
0
 66
1
 10
0.0
 20
0.0
 30
0.0
  0
VERTEX
  8
Group081
 10
365.22499999999997
 20
-92.72500000000002
 30
0.0
  0
VERTEX
  8
Group081
 10
377.72499999999997
 20
-92.72500000000002
 30
0.0
  0
SEQEND
  8
Group081
  0
POLYLINE
  8
Group081
 62
0
 70
0
 66
1
 10
0.0
 20
0.0
 30
0.0
  0
VERTEX
  8
Group081
 10
378.47499999999997
 20
-91.97500000000002
 30
0.0
  0
VERTEX
  8
Group081
 10
378.47499999999997
 20
-79.47500000000002
 30
0.0
  0
SEQEND
  8
Group081
  0
ARC
  8
Group082
 62
0
 10
384.2749999999999
 20
-79.475
 30
0.0
 40
0.75
 50
90.0
 51
-180.0
  0
ARC
  8
Group082
 62
0
 10
396.77500000000003
 20
-79.475
 30
0.0
 40
0.75
 50
-0.0
 51
90.0
  0
ARC
  8
Group082
 62
0
 10
384.2749999999999
 20
-91.97500000000002
 30
0.0
 40
0.75
 50
-180.0
 51
-90.0
  0
ARC
  8
Group082
 62
0
 10
396.77500000000003
 20
-91.97500000000002
 30
0.0
 40
0.75
 50
-90.0
 51
-0.0
  0
POLYLINE
  8
Group082
 62
0
 70
0
 66
1
 10
0.0
 20
0.0
 30
0.0
  0
VERTEX
  8
Group082
 10
396.77500000000003
 20
-78.725
 30
0.0
  0
VERTEX
  8
Group082
 10
384.27500000000003
 20
-78.725
 30
0.0
  0
SEQEND
  8
Group082
  0
POLYLINE
  8
Group082
 62
0
 70
0
 66
1
 10
0.0
 20
0.0
 30
0.0
  0
VERTEX
  8
Group082
 10
383.5249999999999
 20
-79.475
 30
0.0
  0
VERTEX
  8
Group082
 10
383.5249999999999
 20
-91.975
 30
0.0
  0
SEQEND
  8
Group082
  0
POLYLINE
  8
Group082
 62
0
 70
0
 66
1
 10
0.0
 20
0.0
 30
0.0
  0
VERTEX
  8
Group082
 10
384.2749999999999
 20
-92.72500000000002
 30
0.0
  0
VERTEX
  8
Group082
 10
396.7749999999999
 20
-92.72500000000002
 30
0.0
  0
SEQEND
  8
Group082
  0
POLYLINE
  8
Group082
 62
0
 70
0
 66
1
 10
0.0
 20
0.0
 30
0.0
  0
VERTEX
  8
Group082
 10
397.52500000000003
 20
-91.97500000000002
 30
0.0
  0
VERTEX
  8
Group082
 10
397.52500000000003
 20
-79.47500000000002
 30
0.0
  0
SEQEND
  8
Group082
  0
ARC
  8
Group083
 62
0
 10
403.325
 20
-79.475
 30
0.0
 40
0.75
 50
90.0
 51
-180.0
  0
ARC
  8
Group083
 62
0
 10
415.825
 20
-79.475
 30
0.0
 40
0.75
 50
-0.0
 51
90.0
  0
ARC
  8
Group083
 62
0
 10
403.325
 20
-91.97500000000002
 30
0.0
 40
0.75
 50
-180.0
 51
-90.0
  0
ARC
  8
Group083
 62
0
 10
415.825
 20
-91.97500000000002
 30
0.0
 40
0.75
 50
-90.0
 51
-0.0
  0
POLYLINE
  8
Group083
 62
0
 70
0
 66
1
 10
0.0
 20
0.0
 30
0.0
  0
VERTEX
  8
Group083
 10
415.825
 20
-78.725
 30
0.0
  0
VERTEX
  8
Group083
 10
403.325
 20
-78.725
 30
0.0
  0
SEQEND
  8
Group083
  0
POLYLINE
  8
Group083
 62
0
 70
0
 66
1
 10
0.0
 20
0.0
 30
0.0
  0
VERTEX
  8
Group083
 10
402.575
 20
-79.475
 30
0.0
  0
VERTEX
  8
Group083
 10
402.575
 20
-91.975
 30
0.0
  0
SEQEND
  8
Group083
  0
POLYLINE
  8
Group083
 62
0
 70
0
 66
1
 10
0.0
 20
0.0
 30
0.0
  0
VERTEX
  8
Group083
 10
403.325
 20
-92.72500000000002
 30
0.0
  0
VERTEX
  8
Group083
 10
415.825
 20
-92.72500000000002
 30
0.0
  0
SEQEND
  8
Group083
  0
POLYLINE
  8
Group083
 62
0
 70
0
 66
1
 10
0.0
 20
0.0
 30
0.0
  0
VERTEX
  8
Group083
 10
416.575
 20
-91.97500000000002
 30
0.0
  0
VERTEX
  8
Group083
 10
416.575
 20
-79.47500000000002
 30
0.0
  0
SEQEND
  8
Group083
  0
ARC
  8
Group169
 62
0
 10
420.87499999999994
 20
-91.13799999999998
 30
0.0
 40
0.75
 50
-180.0
 51
-90.0
  0
POLYLINE
  8
Group169
 62
0
 70
0
 66
1
 10
0.0
 20
0.0
 30
0.0
  0
VERTEX
  8
Group169
 10
420.12499999999994
 20
-91.13799999999998
 30
0.0
  0
VERTEX
  8
Group169
 10
420.12500000000006
 20
-85.138
 30
0.0
  0
SEQEND
  8
Group169
  0
ARC
  8
Group169
 62
0
 10
420.87499999999994
 20
-85.13799999999998
 30
0.0
 40
0.75
 50
90.0
 51
-180.0
  0
ARC
  8
Group169
 62
0
 10
436.37500000000006
 20
-85.13799999999992
 30
0.0
 40
0.75
 50
-0.0
 51
90.0
  0
POLYLINE
  8
Group169
 62
0
 70
0
 66
1
 10
0.0
 20
0.0
 30
0.0
  0
VERTEX
  8
Group169
 10
437.12500000000006
 20
-85.13799999999992
 30
0.0
  0
VERTEX
  8
Group169
 10
437.12499999999994
 20
-91.13799999999993
 30
0.0
  0
SEQEND
  8
Group169
  0
ARC
  8
Group169
 62
0
 10
436.37500000000006
 20
-91.13799999999992
 30
0.0
 40
0.75
 50
-90.0
 51
-0.0
  0
ARC
  8
Group167
 62
0
 10
420.87499999999994
 20
-67.262
 30
0.0
 40
0.75
 50
-180.0
 51
-90.0
  0
POLYLINE
  8
Group167
 62
0
 70
0
 66
1
 10
0.0
 20
0.0
 30
0.0
  0
VERTEX
  8
Group167
 10
420.12499999999994
 20
-67.262
 30
0.0
  0
VERTEX
  8
Group167
 10
420.12499999999994
 20
-61.262000000000064
 30
0.0
  0
SEQEND
  8
Group167
  0
ARC
  8
Group167
 62
0
 10
420.87499999999994
 20
-61.262
 30
0.0
 40
0.75
 50
90.0
 51
-180.0
  0
ARC
  8
Group167
 62
0
 10
436.37499999999994
 20
-61.261999999999944
 30
0.0
 40
0.75
 50
-0.0
 51
90.0
  0
POLYLINE
  8
Group167
 62
0
 70
0
 66
1
 10
0.0
 20
0.0
 30
0.0
  0
VERTEX
  8
Group167
 10
437.12499999999994
 20
-61.261999999999944
 30
0.0
  0
VERTEX
  8
Group167
 10
437.12499999999994
 20
-67.26199999999994
 30
0.0
  0
SEQEND
  8
Group167
  0
ARC
  8
Group167
 62
0
 10
436.37499999999994
 20
-67.26199999999994
 30
0.0
 40
0.75
 50
-90.0
 51
-0.0
  0
ARC
  8
Group170
 62
0
 10
422.37499999999994
 20
-91.97500000000002
 30
0.0
 40
0.75
 50
-180.0
 51
-90.0
  0
ARC
  8
Group170
 62
0
 10
434.87500000000006
 20
-91.97499999999997
 30
0.0
 40
0.75
 50
-90.0
 51
-0.0
  0
POLYLINE
  8
Group170
 62
0
 70
0
 66
1
 10
0.0
 20
0.0
 30
0.0
  0
VERTEX
  8
Group170
 10
422.37499999999994
 20
-92.72500000000002
 30
0.0
  0
VERTEX
  8
Group170
 10
434.87499999999994
 20
-92.72500000000002
 30
0.0
  0
SEQEND
  8
Group170
  0
ARC
  8
Group168
 62
0
 10
422.37499999999994
 20
-60.424999999999955
 30
0.0
 40
0.75
 50
90.0
 51
-180.0
  0
ARC
  8
Group168
 62
0
 10
434.87499999999994
 20
-60.4249999999999
 30
0.0
 40
0.75
 50
-0.0
 51
90.0
  0
POLYLINE
  8
Group168
 62
0
 70
0
 66
1
 10
0.0
 20
0.0
 30
0.0
  0
VERTEX
  8
Group168
 10
434.87499999999994
 20
-59.6749999999999
 30
0.0
  0
VERTEX
  8
Group168
 10
422.37499999999994
 20
-59.67499999999996
 30
0.0
  0
SEQEND
  8
Group168
  0
POLYLINE
  8
numenter002
 62
0
 70
0
 66
1
 10
0.0
 20
0.0
 30
0.0
  0
VERTEX
  8
numenter002
 10
421.62499999999994
 20
-91.97500000000002
 30
0.0
  0
VERTEX
  8
numenter002
 10
421.62499999999994
 20
-91.88799999999998
 30
0.0
  0
SEQEND
  8
numenter002
  0
POLYLINE
  8
numenter002
 62
0
 70
0
 66
1
 10
0.0
 20
0.0
 30
0.0
  0
VERTEX
  8
numenter002
 10
421.62499999999994
 20
-84.38799999999998
 30
0.0
  0
VERTEX
  8
numenter002
 10
421.62499999999994
 20
-68.012
 30
0.0
  0
SEQEND
  8
numenter002
  0
POLYLINE
  8
numenter002
 62
0
 70
0
 66
1
 10
0.0
 20
0.0
 30
0.0
  0
VERTEX
  8
numenter002
 10
421.62499999999994
 20
-60.424999999999955
 30
0.0
  0
VERTEX
  8
numenter002
 10
421.62499999999994
 20
-60.512
 30
0.0
  0
SEQEND
  8
numenter002
  0
POLYLINE
  8
numenter002
 62
0
 70
0
 66
1
 10
0.0
 20
0.0
 30
0.0
  0
VERTEX
  8
numenter002
 10
435.62499999999994
 20
-60.4249999999999
 30
0.0
  0
VERTEX
  8
numenter002
 10
435.62499999999994
 20
-60.511999999999944
 30
0.0
  0
SEQEND
  8
numenter002
  0
POLYLINE
  8
numenter002
 62
0
 70
0
 66
1
 10
0.0
 20
0.0
 30
0.0
  0
VERTEX
  8
numenter002
 10
435.62500000000006
 20
-91.97499999999997
 30
0.0
  0
VERTEX
  8
numenter002
 10
435.62500000000006
 20
-91.88799999999992
 30
0.0
  0
SEQEND
  8
numenter002
  0
POLYLINE
  8
numenter002
 62
0
 70
0
 66
1
 10
0.0
 20
0.0
 30
0.0
  0
VERTEX
  8
numenter002
 10
421.62499999999994
 20
-91.88799999999998
 30
0.0
  0
VERTEX
  8
numenter002
 10
420.87499999999994
 20
-91.88799999999998
 30
0.0
  0
SEQEND
  8
numenter002
  0
POLYLINE
  8
numenter002
 62
0
 70
0
 66
1
 10
0.0
 20
0.0
 30
0.0
  0
VERTEX
  8
numenter002
 10
420.87499999999994
 20
-84.38799999999998
 30
0.0
  0
VERTEX
  8
numenter002
 10
421.62499999999994
 20
-84.38799999999998
 30
0.0
  0
SEQEND
  8
numenter002
  0
POLYLINE
  8
numenter002
 62
0
 70
0
 66
1
 10
0.0
 20
0.0
 30
0.0
  0
VERTEX
  8
numenter002
 10
420.87499999999994
 20
-68.012
 30
0.0
  0
VERTEX
  8
numenter002
 10
421.62499999999994
 20
-68.012
 30
0.0
  0
SEQEND
  8
numenter002
  0
POLYLINE
  8
numenter002
 62
0
 70
0
 66
1
 10
0.0
 20
0.0
 30
0.0
  0
VERTEX
  8
numenter002
 10
420.87499999999994
 20
-60.512
 30
0.0
  0
VERTEX
  8
numenter002
 10
421.62499999999994
 20
-60.512
 30
0.0
  0
SEQEND
  8
numenter002
  0
POLYLINE
  8
numenter002
 62
0
 70
0
 66
1
 10
0.0
 20
0.0
 30
0.0
  0
VERTEX
  8
numenter002
 10
436.37500000000006
 20
-91.88799999999992
 30
0.0
  0
VERTEX
  8
numenter002
 10
435.62500000000006
 20
-91.88799999999992
 30
0.0
  0
SEQEND
  8
numenter002
  0
POLYLINE
  8
numenter002
 62
0
 70
0
 66
1
 10
0.0
 20
0.0
 30
0.0
  0
VERTEX
  8
numenter002
 10
436.37499999999994
 20
-60.511999999999944
 30
0.0
  0
VERTEX
  8
numenter002
 10
435.62499999999994
 20
-60.511999999999944
 30
0.0
  0
SEQEND
  8
numenter002
  0
POLYLINE
  8
numenter002
 62
0
 70
0
 66
1
 10
0.0
 20
0.0
 30
0.0
  0
VERTEX
  8
numenter002
 10
436.37499999999994
 20
-68.01199999999994
 30
0.0
  0
VERTEX
  8
numenter002
 10
435.62499999999994
 20
-68.01199999999994
 30
0.0
  0
SEQEND
  8
numenter002
  0
POLYLINE
  8
numenter002
 62
0
 70
0
 66
1
 10
0.0
 20
0.0
 30
0.0
  0
VERTEX
  8
numenter002
 10
435.62499999999994
 20
-68.01199999999994
 30
0.0
  0
VERTEX
  8
numenter002
 10
435.62499999999994
 20
-84.38799999999992
 30
0.0
  0
SEQEND
  8
numenter002
  0
POLYLINE
  8
numenter002
 62
0
 70
0
 66
1
 10
0.0
 20
0.0
 30
0.0
  0
VERTEX
  8
numenter002
 10
436.37500000000006
 20
-84.38799999999992
 30
0.0
  0
VERTEX
  8
numenter002
 10
435.62500000000006
 20
-84.38799999999992
 30
0.0
  0
SEQEND
  8
numenter002
  0
ARC
  8
Group020
 62
0
 10
3.275
 20
-41.375000000000014
 30
0.0
 40
0.75
 50
90.0
 51
-180.0
  0
ARC
  8
Group020
 62
0
 10
15.775
 20
-41.375000000000014
 30
0.0
 40
0.75
 50
-0.0
 51
90.0
  0
ARC
  8
Group020
 62
0
 10
3.275
 20
-53.875000000000014
 30
0.0
 40
0.75
 50
-180.0
 51
-90.0
  0
ARC
  8
Group020
 62
0
 10
15.775
 20
-53.875000000000014
 30
0.0
 40
0.75
 50
-90.0
 51
-0.0
  0
POLYLINE
  8
Group020
 62
0
 70
0
 66
1
 10
0.0
 20
0.0
 30
0.0
  0
VERTEX
  8
Group020
 10
15.775
 20
-40.625000000000014
 30
0.0
  0
VERTEX
  8
Group020
 10
3.2750000000000004
 20
-40.625000000000014
 30
0.0
  0
SEQEND
  8
Group020
  0
POLYLINE
  8
Group020
 62
0
 70
0
 66
1
 10
0.0
 20
0.0
 30
0.0
  0
VERTEX
  8
Group020
 10
2.525
 20
-41.375000000000014
 30
0.0
  0
VERTEX
  8
Group020
 10
2.525
 20
-53.875000000000014
 30
0.0
  0
SEQEND
  8
Group020
  0
POLYLINE
  8
Group020
 62
0
 70
0
 66
1
 10
0.0
 20
0.0
 30
0.0
  0
VERTEX
  8
Group020
 10
3.275
 20
-54.625000000000014
 30
0.0
  0
VERTEX
  8
Group020
 10
15.775
 20
-54.625000000000014
 30
0.0
  0
SEQEND
  8
Group020
  0
POLYLINE
  8
Group020
 62
0
 70
0
 66
1
 10
0.0
 20
0.0
 30
0.0
  0
VERTEX
  8
Group020
 10
16.525
 20
-53.875000000000014
 30
0.0
  0
VERTEX
  8
Group020
 10
16.525
 20
-41.375000000000014
 30
0.0
  0
SEQEND
  8
Group020
  0
ARC
  8
Group021
 62
0
 10
22.32499999999999
 20
-41.375000000000014
 30
0.0
 40
0.75
 50
90.0
 51
-180.0
  0
ARC
  8
Group021
 62
0
 10
34.824999999999996
 20
-41.375000000000014
 30
0.0
 40
0.75
 50
-0.0
 51
90.0
  0
ARC
  8
Group021
 62
0
 10
22.32499999999999
 20
-53.875000000000014
 30
0.0
 40
0.75
 50
-180.0
 51
-90.0
  0
ARC
  8
Group021
 62
0
 10
34.824999999999996
 20
-53.875000000000014
 30
0.0
 40
0.75
 50
-90.0
 51
-0.0
  0
POLYLINE
  8
Group021
 62
0
 70
0
 66
1
 10
0.0
 20
0.0
 30
0.0
  0
VERTEX
  8
Group021
 10
34.824999999999996
 20
-40.625000000000014
 30
0.0
  0
VERTEX
  8
Group021
 10
22.324999999999996
 20
-40.625000000000014
 30
0.0
  0
SEQEND
  8
Group021
  0
POLYLINE
  8
Group021
 62
0
 70
0
 66
1
 10
0.0
 20
0.0
 30
0.0
  0
VERTEX
  8
Group021
 10
21.57499999999999
 20
-41.375000000000014
 30
0.0
  0
VERTEX
  8
Group021
 10
21.57499999999999
 20
-53.875000000000014
 30
0.0
  0
SEQEND
  8
Group021
  0
POLYLINE
  8
Group021
 62
0
 70
0
 66
1
 10
0.0
 20
0.0
 30
0.0
  0
VERTEX
  8
Group021
 10
22.32499999999999
 20
-54.625000000000014
 30
0.0
  0
VERTEX
  8
Group021
 10
34.82499999999999
 20
-54.625000000000014
 30
0.0
  0
SEQEND
  8
Group021
  0
POLYLINE
  8
Group021
 62
0
 70
0
 66
1
 10
0.0
 20
0.0
 30
0.0
  0
VERTEX
  8
Group021
 10
35.574999999999996
 20
-53.875000000000014
 30
0.0
  0
VERTEX
  8
Group021
 10
35.574999999999996
 20
-41.375000000000014
 30
0.0
  0
SEQEND
  8
Group021
  0
ARC
  8
Group022
 62
0
 10
41.374999999999986
 20
-41.375000000000014
 30
0.0
 40
0.75
 50
90.0
 51
-180.0
  0
ARC
  8
Group022
 62
0
 10
53.87499999999999
 20
-41.375000000000014
 30
0.0
 40
0.75
 50
-0.0
 51
90.0
  0
ARC
  8
Group022
 62
0
 10
41.374999999999986
 20
-53.875000000000014
 30
0.0
 40
0.75
 50
-180.0
 51
-90.0
  0
ARC
  8
Group022
 62
0
 10
53.87499999999999
 20
-53.875000000000014
 30
0.0
 40
0.75
 50
-90.0
 51
-0.0
  0
POLYLINE
  8
Group022
 62
0
 70
0
 66
1
 10
0.0
 20
0.0
 30
0.0
  0
VERTEX
  8
Group022
 10
53.87499999999999
 20
-40.625000000000014
 30
0.0
  0
VERTEX
  8
Group022
 10
41.37499999999999
 20
-40.625000000000014
 30
0.0
  0
SEQEND
  8
Group022
  0
POLYLINE
  8
Group022
 62
0
 70
0
 66
1
 10
0.0
 20
0.0
 30
0.0
  0
VERTEX
  8
Group022
 10
40.624999999999986
 20
-41.375000000000014
 30
0.0
  0
VERTEX
  8
Group022
 10
40.624999999999986
 20
-53.875000000000014
 30
0.0
  0
SEQEND
  8
Group022
  0
POLYLINE
  8
Group022
 62
0
 70
0
 66
1
 10
0.0
 20
0.0
 30
0.0
  0
VERTEX
  8
Group022
 10
41.374999999999986
 20
-54.625000000000014
 30
0.0
  0
VERTEX
  8
Group022
 10
53.87499999999999
 20
-54.625000000000014
 30
0.0
  0
SEQEND
  8
Group022
  0
POLYLINE
  8
Group022
 62
0
 70
0
 66
1
 10
0.0
 20
0.0
 30
0.0
  0
VERTEX
  8
Group022
 10
54.62499999999999
 20
-53.875000000000014
 30
0.0
  0
VERTEX
  8
Group022
 10
54.62499999999999
 20
-41.375000000000014
 30
0.0
  0
SEQEND
  8
Group022
  0
ARC
  8
Group023
 62
0
 10
60.42499999999998
 20
-41.375000000000014
 30
0.0
 40
0.75
 50
90.0
 51
-180.0
  0
ARC
  8
Group023
 62
0
 10
72.92499999999998
 20
-41.375000000000014
 30
0.0
 40
0.75
 50
-0.0
 51
90.0
  0
ARC
  8
Group023
 62
0
 10
60.42499999999998
 20
-53.875000000000014
 30
0.0
 40
0.75
 50
-180.0
 51
-90.0
  0
ARC
  8
Group023
 62
0
 10
72.92499999999998
 20
-53.875000000000014
 30
0.0
 40
0.75
 50
-90.0
 51
-0.0
  0
POLYLINE
  8
Group023
 62
0
 70
0
 66
1
 10
0.0
 20
0.0
 30
0.0
  0
VERTEX
  8
Group023
 10
72.92499999999998
 20
-40.625000000000014
 30
0.0
  0
VERTEX
  8
Group023
 10
60.42499999999998
 20
-40.625000000000014
 30
0.0
  0
SEQEND
  8
Group023
  0
POLYLINE
  8
Group023
 62
0
 70
0
 66
1
 10
0.0
 20
0.0
 30
0.0
  0
VERTEX
  8
Group023
 10
59.67499999999998
 20
-41.375000000000014
 30
0.0
  0
VERTEX
  8
Group023
 10
59.67499999999998
 20
-53.875000000000014
 30
0.0
  0
SEQEND
  8
Group023
  0
POLYLINE
  8
Group023
 62
0
 70
0
 66
1
 10
0.0
 20
0.0
 30
0.0
  0
VERTEX
  8
Group023
 10
60.42499999999998
 20
-54.625000000000014
 30
0.0
  0
VERTEX
  8
Group023
 10
72.92499999999998
 20
-54.625000000000014
 30
0.0
  0
SEQEND
  8
Group023
  0
POLYLINE
  8
Group023
 62
0
 70
0
 66
1
 10
0.0
 20
0.0
 30
0.0
  0
VERTEX
  8
Group023
 10
73.67499999999998
 20
-53.875000000000014
 30
0.0
  0
VERTEX
  8
Group023
 10
73.67499999999998
 20
-41.375000000000014
 30
0.0
  0
SEQEND
  8
Group023
  0
ARC
  8
Group024
 62
0
 10
79.47499999999997
 20
-41.375000000000014
 30
0.0
 40
0.75
 50
90.0
 51
-180.0
  0
ARC
  8
Group024
 62
0
 10
91.97499999999998
 20
-41.375000000000014
 30
0.0
 40
0.75
 50
-0.0
 51
90.0
  0
ARC
  8
Group024
 62
0
 10
79.47499999999997
 20
-53.875000000000014
 30
0.0
 40
0.75
 50
-180.0
 51
-90.0
  0
ARC
  8
Group024
 62
0
 10
91.97499999999998
 20
-53.875000000000014
 30
0.0
 40
0.75
 50
-90.0
 51
-0.0
  0
POLYLINE
  8
Group024
 62
0
 70
0
 66
1
 10
0.0
 20
0.0
 30
0.0
  0
VERTEX
  8
Group024
 10
91.97499999999998
 20
-40.625000000000014
 30
0.0
  0
VERTEX
  8
Group024
 10
79.47499999999998
 20
-40.625000000000014
 30
0.0
  0
SEQEND
  8
Group024
  0
POLYLINE
  8
Group024
 62
0
 70
0
 66
1
 10
0.0
 20
0.0
 30
0.0
  0
VERTEX
  8
Group024
 10
78.72499999999997
 20
-41.375000000000014
 30
0.0
  0
VERTEX
  8
Group024
 10
78.72499999999997
 20
-53.875000000000014
 30
0.0
  0
SEQEND
  8
Group024
  0
POLYLINE
  8
Group024
 62
0
 70
0
 66
1
 10
0.0
 20
0.0
 30
0.0
  0
VERTEX
  8
Group024
 10
79.47499999999997
 20
-54.625000000000014
 30
0.0
  0
VERTEX
  8
Group024
 10
91.97499999999997
 20
-54.625000000000014
 30
0.0
  0
SEQEND
  8
Group024
  0
POLYLINE
  8
Group024
 62
0
 70
0
 66
1
 10
0.0
 20
0.0
 30
0.0
  0
VERTEX
  8
Group024
 10
92.72499999999998
 20
-53.875000000000014
 30
0.0
  0
VERTEX
  8
Group024
 10
92.72499999999998
 20
-41.375000000000014
 30
0.0
  0
SEQEND
  8
Group024
  0
ARC
  8
Group025
 62
0
 10
98.52499999999996
 20
-41.375000000000014
 30
0.0
 40
0.75
 50
90.0
 51
-180.0
  0
ARC
  8
Group025
 62
0
 10
111.02499999999998
 20
-41.375000000000014
 30
0.0
 40
0.75
 50
-0.0
 51
90.0
  0
ARC
  8
Group025
 62
0
 10
98.52499999999996
 20
-53.875000000000014
 30
0.0
 40
0.75
 50
-180.0
 51
-90.0
  0
ARC
  8
Group025
 62
0
 10
111.02499999999998
 20
-53.875000000000014
 30
0.0
 40
0.75
 50
-90.0
 51
-0.0
  0
POLYLINE
  8
Group025
 62
0
 70
0
 66
1
 10
0.0
 20
0.0
 30
0.0
  0
VERTEX
  8
Group025
 10
111.02499999999998
 20
-40.625000000000014
 30
0.0
  0
VERTEX
  8
Group025
 10
98.52499999999998
 20
-40.625000000000014
 30
0.0
  0
SEQEND
  8
Group025
  0
POLYLINE
  8
Group025
 62
0
 70
0
 66
1
 10
0.0
 20
0.0
 30
0.0
  0
VERTEX
  8
Group025
 10
97.77499999999996
 20
-41.375000000000014
 30
0.0
  0
VERTEX
  8
Group025
 10
97.77499999999996
 20
-53.875000000000014
 30
0.0
  0
SEQEND
  8
Group025
  0
POLYLINE
  8
Group025
 62
0
 70
0
 66
1
 10
0.0
 20
0.0
 30
0.0
  0
VERTEX
  8
Group025
 10
98.52499999999996
 20
-54.625000000000014
 30
0.0
  0
VERTEX
  8
Group025
 10
111.02499999999996
 20
-54.625000000000014
 30
0.0
  0
SEQEND
  8
Group025
  0
POLYLINE
  8
Group025
 62
0
 70
0
 66
1
 10
0.0
 20
0.0
 30
0.0
  0
VERTEX
  8
Group025
 10
111.77499999999998
 20
-53.875000000000014
 30
0.0
  0
VERTEX
  8
Group025
 10
111.77499999999998
 20
-41.375000000000014
 30
0.0
  0
SEQEND
  8
Group025
  0
ARC
  8
Group026
 62
0
 10
117.57499999999996
 20
-41.375000000000014
 30
0.0
 40
0.75
 50
90.0
 51
-180.0
  0
ARC
  8
Group026
 62
0
 10
130.075
 20
-41.375000000000014
 30
0.0
 40
0.75
 50
-0.0
 51
90.0
  0
ARC
  8
Group026
 62
0
 10
117.57499999999996
 20
-53.875000000000014
 30
0.0
 40
0.75
 50
-180.0
 51
-90.0
  0
ARC
  8
Group026
 62
0
 10
130.075
 20
-53.875000000000014
 30
0.0
 40
0.75
 50
-90.0
 51
-0.0
  0
POLYLINE
  8
Group026
 62
0
 70
0
 66
1
 10
0.0
 20
0.0
 30
0.0
  0
VERTEX
  8
Group026
 10
130.075
 20
-40.625000000000014
 30
0.0
  0
VERTEX
  8
Group026
 10
117.57499999999999
 20
-40.625000000000014
 30
0.0
  0
SEQEND
  8
Group026
  0
POLYLINE
  8
Group026
 62
0
 70
0
 66
1
 10
0.0
 20
0.0
 30
0.0
  0
VERTEX
  8
Group026
 10
116.82499999999996
 20
-41.375000000000014
 30
0.0
  0
VERTEX
  8
Group026
 10
116.82499999999996
 20
-53.875000000000014
 30
0.0
  0
SEQEND
  8
Group026
  0
POLYLINE
  8
Group026
 62
0
 70
0
 66
1
 10
0.0
 20
0.0
 30
0.0
  0
VERTEX
  8
Group026
 10
117.57499999999996
 20
-54.625000000000014
 30
0.0
  0
VERTEX
  8
Group026
 10
130.07499999999996
 20
-54.625000000000014
 30
0.0
  0
SEQEND
  8
Group026
  0
POLYLINE
  8
Group026
 62
0
 70
0
 66
1
 10
0.0
 20
0.0
 30
0.0
  0
VERTEX
  8
Group026
 10
130.825
 20
-53.875000000000014
 30
0.0
  0
VERTEX
  8
Group026
 10
130.825
 20
-41.375000000000014
 30
0.0
  0
SEQEND
  8
Group026
  0
ARC
  8
Group027
 62
0
 10
136.62499999999994
 20
-41.375000000000014
 30
0.0
 40
0.75
 50
90.0
 51
-180.0
  0
ARC
  8
Group027
 62
0
 10
149.125
 20
-41.375000000000014
 30
0.0
 40
0.75
 50
-0.0
 51
90.0
  0
ARC
  8
Group027
 62
0
 10
136.62499999999994
 20
-53.875000000000014
 30
0.0
 40
0.75
 50
-180.0
 51
-90.0
  0
ARC
  8
Group027
 62
0
 10
149.125
 20
-53.875000000000014
 30
0.0
 40
0.75
 50
-90.0
 51
-0.0
  0
POLYLINE
  8
Group027
 62
0
 70
0
 66
1
 10
0.0
 20
0.0
 30
0.0
  0
VERTEX
  8
Group027
 10
149.125
 20
-40.625000000000014
 30
0.0
  0
VERTEX
  8
Group027
 10
136.625
 20
-40.625000000000014
 30
0.0
  0
SEQEND
  8
Group027
  0
POLYLINE
  8
Group027
 62
0
 70
0
 66
1
 10
0.0
 20
0.0
 30
0.0
  0
VERTEX
  8
Group027
 10
135.87499999999994
 20
-41.375000000000014
 30
0.0
  0
VERTEX
  8
Group027
 10
135.87499999999994
 20
-53.875000000000014
 30
0.0
  0
SEQEND
  8
Group027
  0
POLYLINE
  8
Group027
 62
0
 70
0
 66
1
 10
0.0
 20
0.0
 30
0.0
  0
VERTEX
  8
Group027
 10
136.62499999999994
 20
-54.625000000000014
 30
0.0
  0
VERTEX
  8
Group027
 10
149.12499999999994
 20
-54.625000000000014
 30
0.0
  0
SEQEND
  8
Group027
  0
POLYLINE
  8
Group027
 62
0
 70
0
 66
1
 10
0.0
 20
0.0
 30
0.0
  0
VERTEX
  8
Group027
 10
149.875
 20
-53.875000000000014
 30
0.0
  0
VERTEX
  8
Group027
 10
149.875
 20
-41.375000000000014
 30
0.0
  0
SEQEND
  8
Group027
  0
ARC
  8
Group028
 62
0
 10
155.67499999999995
 20
-41.375000000000014
 30
0.0
 40
0.75
 50
90.0
 51
-180.0
  0
ARC
  8
Group028
 62
0
 10
168.175
 20
-41.375000000000014
 30
0.0
 40
0.75
 50
-0.0
 51
90.0
  0
ARC
  8
Group028
 62
0
 10
155.67499999999995
 20
-53.875000000000014
 30
0.0
 40
0.75
 50
-180.0
 51
-90.0
  0
ARC
  8
Group028
 62
0
 10
168.175
 20
-53.875000000000014
 30
0.0
 40
0.75
 50
-90.0
 51
-0.0
  0
POLYLINE
  8
Group028
 62
0
 70
0
 66
1
 10
0.0
 20
0.0
 30
0.0
  0
VERTEX
  8
Group028
 10
168.175
 20
-40.625000000000014
 30
0.0
  0
VERTEX
  8
Group028
 10
155.675
 20
-40.625000000000014
 30
0.0
  0
SEQEND
  8
Group028
  0
POLYLINE
  8
Group028
 62
0
 70
0
 66
1
 10
0.0
 20
0.0
 30
0.0
  0
VERTEX
  8
Group028
 10
154.92499999999995
 20
-41.375000000000014
 30
0.0
  0
VERTEX
  8
Group028
 10
154.92499999999995
 20
-53.875000000000014
 30
0.0
  0
SEQEND
  8
Group028
  0
POLYLINE
  8
Group028
 62
0
 70
0
 66
1
 10
0.0
 20
0.0
 30
0.0
  0
VERTEX
  8
Group028
 10
155.67499999999995
 20
-54.625000000000014
 30
0.0
  0
VERTEX
  8
Group028
 10
168.17499999999995
 20
-54.625000000000014
 30
0.0
  0
SEQEND
  8
Group028
  0
POLYLINE
  8
Group028
 62
0
 70
0
 66
1
 10
0.0
 20
0.0
 30
0.0
  0
VERTEX
  8
Group028
 10
168.925
 20
-53.875000000000014
 30
0.0
  0
VERTEX
  8
Group028
 10
168.925
 20
-41.375000000000014
 30
0.0
  0
SEQEND
  8
Group028
  0
ARC
  8
Group029
 62
0
 10
174.72499999999997
 20
-41.375000000000014
 30
0.0
 40
0.75
 50
90.0
 51
-180.0
  0
ARC
  8
Group029
 62
0
 10
187.22500000000002
 20
-41.375000000000014
 30
0.0
 40
0.75
 50
-0.0
 51
90.0
  0
ARC
  8
Group029
 62
0
 10
174.72499999999997
 20
-53.875000000000014
 30
0.0
 40
0.75
 50
-180.0
 51
-90.0
  0
ARC
  8
Group029
 62
0
 10
187.22500000000002
 20
-53.875000000000014
 30
0.0
 40
0.75
 50
-90.0
 51
-0.0
  0
POLYLINE
  8
Group029
 62
0
 70
0
 66
1
 10
0.0
 20
0.0
 30
0.0
  0
VERTEX
  8
Group029
 10
187.22500000000002
 20
-40.625000000000014
 30
0.0
  0
VERTEX
  8
Group029
 10
174.72500000000002
 20
-40.625000000000014
 30
0.0
  0
SEQEND
  8
Group029
  0
POLYLINE
  8
Group029
 62
0
 70
0
 66
1
 10
0.0
 20
0.0
 30
0.0
  0
VERTEX
  8
Group029
 10
173.97499999999997
 20
-41.375000000000014
 30
0.0
  0
VERTEX
  8
Group029
 10
173.97499999999997
 20
-53.875000000000014
 30
0.0
  0
SEQEND
  8
Group029
  0
POLYLINE
  8
Group029
 62
0
 70
0
 66
1
 10
0.0
 20
0.0
 30
0.0
  0
VERTEX
  8
Group029
 10
174.72499999999997
 20
-54.625000000000014
 30
0.0
  0
VERTEX
  8
Group029
 10
187.22499999999997
 20
-54.625000000000014
 30
0.0
  0
SEQEND
  8
Group029
  0
POLYLINE
  8
Group029
 62
0
 70
0
 66
1
 10
0.0
 20
0.0
 30
0.0
  0
VERTEX
  8
Group029
 10
187.97500000000002
 20
-53.875000000000014
 30
0.0
  0
VERTEX
  8
Group029
 10
187.97500000000002
 20
-41.375000000000014
 30
0.0
  0
SEQEND
  8
Group029
  0
ARC
  8
Group030
 62
0
 10
193.77499999999998
 20
-41.375000000000014
 30
0.0
 40
0.75
 50
90.0
 51
-180.0
  0
ARC
  8
Group030
 62
0
 10
206.27500000000003
 20
-41.375000000000014
 30
0.0
 40
0.75
 50
-0.0
 51
90.0
  0
ARC
  8
Group030
 62
0
 10
193.77499999999998
 20
-53.875000000000014
 30
0.0
 40
0.75
 50
-180.0
 51
-90.0
  0
ARC
  8
Group030
 62
0
 10
206.27500000000003
 20
-53.875000000000014
 30
0.0
 40
0.75
 50
-90.0
 51
-0.0
  0
POLYLINE
  8
Group030
 62
0
 70
0
 66
1
 10
0.0
 20
0.0
 30
0.0
  0
VERTEX
  8
Group030
 10
206.27500000000003
 20
-40.625000000000014
 30
0.0
  0
VERTEX
  8
Group030
 10
193.77500000000003
 20
-40.625000000000014
 30
0.0
  0
SEQEND
  8
Group030
  0
POLYLINE
  8
Group030
 62
0
 70
0
 66
1
 10
0.0
 20
0.0
 30
0.0
  0
VERTEX
  8
Group030
 10
193.02499999999998
 20
-41.375000000000014
 30
0.0
  0
VERTEX
  8
Group030
 10
193.02499999999998
 20
-53.875000000000014
 30
0.0
  0
SEQEND
  8
Group030
  0
POLYLINE
  8
Group030
 62
0
 70
0
 66
1
 10
0.0
 20
0.0
 30
0.0
  0
VERTEX
  8
Group030
 10
193.77499999999998
 20
-54.625000000000014
 30
0.0
  0
VERTEX
  8
Group030
 10
206.27499999999998
 20
-54.625000000000014
 30
0.0
  0
SEQEND
  8
Group030
  0
POLYLINE
  8
Group030
 62
0
 70
0
 66
1
 10
0.0
 20
0.0
 30
0.0
  0
VERTEX
  8
Group030
 10
207.02500000000003
 20
-53.875000000000014
 30
0.0
  0
VERTEX
  8
Group030
 10
207.02500000000003
 20
-41.375000000000014
 30
0.0
  0
SEQEND
  8
Group030
  0
ARC
  8
Group031
 62
0
 10
212.825
 20
-41.375000000000014
 30
0.0
 40
0.75
 50
90.0
 51
-180.0
  0
ARC
  8
Group031
 62
0
 10
225.32500000000005
 20
-41.375000000000014
 30
0.0
 40
0.75
 50
-0.0
 51
90.0
  0
ARC
  8
Group031
 62
0
 10
212.825
 20
-53.875000000000014
 30
0.0
 40
0.75
 50
-180.0
 51
-90.0
  0
ARC
  8
Group031
 62
0
 10
225.32500000000005
 20
-53.875000000000014
 30
0.0
 40
0.75
 50
-90.0
 51
-0.0
  0
POLYLINE
  8
Group031
 62
0
 70
0
 66
1
 10
0.0
 20
0.0
 30
0.0
  0
VERTEX
  8
Group031
 10
225.32500000000005
 20
-40.625000000000014
 30
0.0
  0
VERTEX
  8
Group031
 10
212.82500000000005
 20
-40.625000000000014
 30
0.0
  0
SEQEND
  8
Group031
  0
POLYLINE
  8
Group031
 62
0
 70
0
 66
1
 10
0.0
 20
0.0
 30
0.0
  0
VERTEX
  8
Group031
 10
212.075
 20
-41.375000000000014
 30
0.0
  0
VERTEX
  8
Group031
 10
212.075
 20
-53.875000000000014
 30
0.0
  0
SEQEND
  8
Group031
  0
POLYLINE
  8
Group031
 62
0
 70
0
 66
1
 10
0.0
 20
0.0
 30
0.0
  0
VERTEX
  8
Group031
 10
212.825
 20
-54.625000000000014
 30
0.0
  0
VERTEX
  8
Group031
 10
225.325
 20
-54.625000000000014
 30
0.0
  0
SEQEND
  8
Group031
  0
POLYLINE
  8
Group031
 62
0
 70
0
 66
1
 10
0.0
 20
0.0
 30
0.0
  0
VERTEX
  8
Group031
 10
226.07500000000005
 20
-53.875000000000014
 30
0.0
  0
VERTEX
  8
Group031
 10
226.07500000000005
 20
-41.375000000000014
 30
0.0
  0
SEQEND
  8
Group031
  0
ARC
  8
Group032
 62
0
 10
231.875
 20
-41.375000000000014
 30
0.0
 40
0.75
 50
90.0
 51
-180.0
  0
ARC
  8
Group032
 62
0
 10
244.37500000000006
 20
-41.375000000000014
 30
0.0
 40
0.75
 50
-0.0
 51
90.0
  0
ARC
  8
Group032
 62
0
 10
231.875
 20
-53.875000000000014
 30
0.0
 40
0.75
 50
-180.0
 51
-90.0
  0
ARC
  8
Group032
 62
0
 10
244.37500000000006
 20
-53.875000000000014
 30
0.0
 40
0.75
 50
-90.0
 51
-0.0
  0
POLYLINE
  8
Group032
 62
0
 70
0
 66
1
 10
0.0
 20
0.0
 30
0.0
  0
VERTEX
  8
Group032
 10
244.37500000000006
 20
-40.625000000000014
 30
0.0
  0
VERTEX
  8
Group032
 10
231.87500000000006
 20
-40.625000000000014
 30
0.0
  0
SEQEND
  8
Group032
  0
POLYLINE
  8
Group032
 62
0
 70
0
 66
1
 10
0.0
 20
0.0
 30
0.0
  0
VERTEX
  8
Group032
 10
231.125
 20
-41.375000000000014
 30
0.0
  0
VERTEX
  8
Group032
 10
231.125
 20
-53.875000000000014
 30
0.0
  0
SEQEND
  8
Group032
  0
POLYLINE
  8
Group032
 62
0
 70
0
 66
1
 10
0.0
 20
0.0
 30
0.0
  0
VERTEX
  8
Group032
 10
231.875
 20
-54.625000000000014
 30
0.0
  0
VERTEX
  8
Group032
 10
244.375
 20
-54.625000000000014
 30
0.0
  0
SEQEND
  8
Group032
  0
POLYLINE
  8
Group032
 62
0
 70
0
 66
1
 10
0.0
 20
0.0
 30
0.0
  0
VERTEX
  8
Group032
 10
245.12500000000006
 20
-53.875000000000014
 30
0.0
  0
VERTEX
  8
Group032
 10
245.12500000000006
 20
-41.375000000000014
 30
0.0
  0
SEQEND
  8
Group032
  0
ARC
  8
Group034
 62
0
 10
251.76200000000006
 20
-39.875000000000014
 30
0.0
 40
0.75
 50
90.0
 51
-180.0
  0
POLYLINE
  8
Group034
 62
0
 70
0
 66
1
 10
0.0
 20
0.0
 30
0.0
  0
VERTEX
  8
Group034
 10
251.76200000000006
 20
-39.125000000000014
 30
0.0
  0
VERTEX
  8
Group034
 10
257.76200000000006
 20
-39.125000000000014
 30
0.0
  0
SEQEND
  8
Group034
  0
ARC
  8
Group034
 62
0
 10
257.7620000000001
 20
-39.875000000000014
 30
0.0
 40
0.75
 50
-0.0
 51
90.0
  0
ARC
  8
Group034
 62
0
 10
257.7620000000001
 20
-55.375000000000014
 30
0.0
 40
0.75
 50
-90.0
 51
-0.0
  0
POLYLINE
  8
Group034
 62
0
 70
0
 66
1
 10
0.0
 20
0.0
 30
0.0
  0
VERTEX
  8
Group034
 10
257.7620000000001
 20
-56.125000000000014
 30
0.0
  0
VERTEX
  8
Group034
 10
251.7620000000001
 20
-56.125000000000014
 30
0.0
  0
SEQEND
  8
Group034
  0
ARC
  8
Group034
 62
0
 10
251.76200000000006
 20
-55.375000000000014
 30
0.0
 40
0.75
 50
-180.0
 51
-90.0
  0
ARC
  8
Group035
 62
0
 10
275.6380000000001
 20
-39.875000000000014
 30
0.0
 40
0.75
 50
90.0
 51
-180.0
  0
POLYLINE
  8
Group035
 62
0
 70
0
 66
1
 10
0.0
 20
0.0
 30
0.0
  0
VERTEX
  8
Group035
 10
275.6380000000001
 20
-39.125000000000014
 30
0.0
  0
VERTEX
  8
Group035
 10
281.6380000000001
 20
-39.125000000000014
 30
0.0
  0
SEQEND
  8
Group035
  0
ARC
  8
Group035
 62
0
 10
281.6380000000001
 20
-39.875000000000014
 30
0.0
 40
0.75
 50
-0.0
 51
90.0
  0
ARC
  8
Group035
 62
0
 10
281.6380000000001
 20
-55.375000000000014
 30
0.0
 40
0.75
 50
-90.0
 51
-0.0
  0
POLYLINE
  8
Group035
 62
0
 70
0
 66
1
 10
0.0
 20
0.0
 30
0.0
  0
VERTEX
  8
Group035
 10
281.6380000000001
 20
-56.125000000000014
 30
0.0
  0
VERTEX
  8
Group035
 10
275.6380000000001
 20
-56.125000000000014
 30
0.0
  0
SEQEND
  8
Group035
  0
ARC
  8
Group035
 62
0
 10
275.6380000000001
 20
-55.375000000000014
 30
0.0
 40
0.75
 50
-180.0
 51
-90.0
  0
ARC
  8
Group152
 62
0
 10
250.925
 20
-41.375000000000014
 30
0.0
 40
0.75
 50
90.0
 51
-180.0
  0
ARC
  8
Group152
 62
0
 10
250.925
 20
-53.875000000000014
 30
0.0
 40
0.75
 50
-180.0
 51
-90.0
  0
POLYLINE
  8
Group152
 62
0
 70
0
 66
1
 10
0.0
 20
0.0
 30
0.0
  0
VERTEX
  8
Group152
 10
250.175
 20
-41.375000000000014
 30
0.0
  0
VERTEX
  8
Group152
 10
250.175
 20
-53.875000000000014
 30
0.0
  0
SEQEND
  8
Group152
  0
ARC
  8
Group153
 62
0
 10
282.4750000000001
 20
-41.375000000000014
 30
0.0
 40
0.75
 50
-0.0
 51
90.0
  0
ARC
  8
Group153
 62
0
 10
282.4750000000001
 20
-53.875000000000014
 30
0.0
 40
0.75
 50
-90.0
 51
-0.0
  0
POLYLINE
  8
Group153
 62
0
 70
0
 66
1
 10
0.0
 20
0.0
 30
0.0
  0
VERTEX
  8
Group153
 10
283.2250000000001
 20
-53.875000000000014
 30
0.0
  0
VERTEX
  8
Group153
 10
283.2250000000001
 20
-41.375000000000014
 30
0.0
  0
SEQEND
  8
Group153
  0
POLYLINE
  8
backspace
 62
0
 70
0
 66
1
 10
0.0
 20
0.0
 30
0.0
  0
VERTEX
  8
backspace
 10
250.925
 20
-40.625000000000014
 30
0.0
  0
VERTEX
  8
backspace
 10
251.01200000000006
 20
-40.625000000000014
 30
0.0
  0
SEQEND
  8
backspace
  0
POLYLINE
  8
backspace
 62
0
 70
0
 66
1
 10
0.0
 20
0.0
 30
0.0
  0
VERTEX
  8
backspace
 10
258.5120000000001
 20
-40.625000000000014
 30
0.0
  0
VERTEX
  8
backspace
 10
274.8880000000001
 20
-40.625000000000014
 30
0.0
  0
SEQEND
  8
backspace
  0
POLYLINE
  8
backspace
 62
0
 70
0
 66
1
 10
0.0
 20
0.0
 30
0.0
  0
VERTEX
  8
backspace
 10
282.4750000000001
 20
-40.625000000000014
 30
0.0
  0
VERTEX
  8
backspace
 10
282.38800000000003
 20
-40.625000000000014
 30
0.0
  0
SEQEND
  8
backspace
  0
POLYLINE
  8
backspace
 62
0
 70
0
 66
1
 10
0.0
 20
0.0
 30
0.0
  0
VERTEX
  8
backspace
 10
282.4750000000001
 20
-54.625000000000014
 30
0.0
  0
VERTEX
  8
backspace
 10
282.38800000000003
 20
-54.625000000000014
 30
0.0
  0
SEQEND
  8
backspace
  0
POLYLINE
  8
backspace
 62
0
 70
0
 66
1
 10
0.0
 20
0.0
 30
0.0
  0
VERTEX
  8
backspace
 10
250.925
 20
-54.625000000000014
 30
0.0
  0
VERTEX
  8
backspace
 10
251.01200000000006
 20
-54.625000000000014
 30
0.0
  0
SEQEND
  8
backspace
  0
POLYLINE
  8
backspace
 62
0
 70
0
 66
1
 10
0.0
 20
0.0
 30
0.0
  0
VERTEX
  8
backspace
 10
251.01200000000006
 20
-40.625000000000014
 30
0.0
  0
VERTEX
  8
backspace
 10
251.01200000000006
 20
-39.875000000000014
 30
0.0
  0
SEQEND
  8
backspace
  0
POLYLINE
  8
backspace
 62
0
 70
0
 66
1
 10
0.0
 20
0.0
 30
0.0
  0
VERTEX
  8
backspace
 10
258.5120000000001
 20
-39.875000000000014
 30
0.0
  0
VERTEX
  8
backspace
 10
258.5120000000001
 20
-40.625000000000014
 30
0.0
  0
SEQEND
  8
backspace
  0
POLYLINE
  8
backspace
 62
0
 70
0
 66
1
 10
0.0
 20
0.0
 30
0.0
  0
VERTEX
  8
backspace
 10
274.8880000000001
 20
-39.875000000000014
 30
0.0
  0
VERTEX
  8
backspace
 10
274.8880000000001
 20
-40.625000000000014
 30
0.0
  0
SEQEND
  8
backspace
  0
POLYLINE
  8
backspace
 62
0
 70
0
 66
1
 10
0.0
 20
0.0
 30
0.0
  0
VERTEX
  8
backspace
 10
282.3880000000001
 20
-39.875000000000014
 30
0.0
  0
VERTEX
  8
backspace
 10
282.3880000000001
 20
-40.625000000000014
 30
0.0
  0
SEQEND
  8
backspace
  0
POLYLINE
  8
backspace
 62
0
 70
0
 66
1
 10
0.0
 20
0.0
 30
0.0
  0
VERTEX
  8
backspace
 10
251.01200000000006
 20
-55.375000000000014
 30
0.0
  0
VERTEX
  8
backspace
 10
251.01200000000006
 20
-54.625000000000014
 30
0.0
  0
SEQEND
  8
backspace
  0
POLYLINE
  8
backspace
 62
0
 70
0
 66
1
 10
0.0
 20
0.0
 30
0.0
  0
VERTEX
  8
backspace
 10
282.3880000000001
 20
-55.375000000000014
 30
0.0
  0
VERTEX
  8
backspace
 10
282.3880000000001
 20
-54.625000000000014
 30
0.0
  0
SEQEND
  8
backspace
  0
POLYLINE
  8
backspace
 62
0
 70
0
 66
1
 10
0.0
 20
0.0
 30
0.0
  0
VERTEX
  8
backspace
 10
274.8880000000001
 20
-55.375000000000014
 30
0.0
  0
VERTEX
  8
backspace
 10
274.8880000000001
 20
-54.625000000000014
 30
0.0
  0
SEQEND
  8
backspace
  0
POLYLINE
  8
backspace
 62
0
 70
0
 66
1
 10
0.0
 20
0.0
 30
0.0
  0
VERTEX
  8
backspace
 10
274.8880000000001
 20
-54.625000000000014
 30
0.0
  0
VERTEX
  8
backspace
 10
258.5120000000001
 20
-54.625000000000014
 30
0.0
  0
SEQEND
  8
backspace
  0
POLYLINE
  8
backspace
 62
0
 70
0
 66
1
 10
0.0
 20
0.0
 30
0.0
  0
VERTEX
  8
backspace
 10
258.5120000000001
 20
-55.375000000000014
 30
0.0
  0
VERTEX
  8
backspace
 10
258.5120000000001
 20
-54.625000000000014
 30
0.0
  0
SEQEND
  8
backspace
  0
ARC
  8
Group036
 62
0
 10
298.5499999999999
 20
-41.37499999999999
 30
0.0
 40
0.75
 50
90.0
 51
-180.0
  0
ARC
  8
Group036
 62
0
 10
311.0499999999999
 20
-41.37499999999999
 30
0.0
 40
0.75
 50
-0.0
 51
90.0
  0
ARC
  8
Group036
 62
0
 10
298.5499999999999
 20
-53.87499999999999
 30
0.0
 40
0.75
 50
-180.0
 51
-90.0
  0
ARC
  8
Group036
 62
0
 10
311.0499999999999
 20
-53.87499999999999
 30
0.0
 40
0.75
 50
-90.0
 51
-0.0
  0
POLYLINE
  8
Group036
 62
0
 70
0
 66
1
 10
0.0
 20
0.0
 30
0.0
  0
VERTEX
  8
Group036
 10
311.0499999999999
 20
-40.62499999999999
 30
0.0
  0
VERTEX
  8
Group036
 10
298.5499999999999
 20
-40.62499999999999
 30
0.0
  0
SEQEND
  8
Group036
  0
POLYLINE
  8
Group036
 62
0
 70
0
 66
1
 10
0.0
 20
0.0
 30
0.0
  0
VERTEX
  8
Group036
 10
297.7999999999999
 20
-41.37499999999999
 30
0.0
  0
VERTEX
  8
Group036
 10
297.7999999999999
 20
-53.87499999999999
 30
0.0
  0
SEQEND
  8
Group036
  0
POLYLINE
  8
Group036
 62
0
 70
0
 66
1
 10
0.0
 20
0.0
 30
0.0
  0
VERTEX
  8
Group036
 10
298.5499999999999
 20
-54.62499999999999
 30
0.0
  0
VERTEX
  8
Group036
 10
311.0499999999999
 20
-54.62499999999999
 30
0.0
  0
SEQEND
  8
Group036
  0
POLYLINE
  8
Group036
 62
0
 70
0
 66
1
 10
0.0
 20
0.0
 30
0.0
  0
VERTEX
  8
Group036
 10
311.7999999999999
 20
-53.87499999999999
 30
0.0
  0
VERTEX
  8
Group036
 10
311.7999999999999
 20
-41.37499999999999
 30
0.0
  0
SEQEND
  8
Group036
  0
ARC
  8
Group037
 62
0
 10
317.59999999999997
 20
-41.37499999999999
 30
0.0
 40
0.75
 50
90.0
 51
-180.0
  0
ARC
  8
Group037
 62
0
 10
330.09999999999997
 20
-41.37499999999999
 30
0.0
 40
0.75
 50
-0.0
 51
90.0
  0
ARC
  8
Group037
 62
0
 10
317.59999999999997
 20
-53.87499999999999
 30
0.0
 40
0.75
 50
-180.0
 51
-90.0
  0
ARC
  8
Group037
 62
0
 10
330.09999999999997
 20
-53.87499999999999
 30
0.0
 40
0.75
 50
-90.0
 51
-0.0
  0
POLYLINE
  8
Group037
 62
0
 70
0
 66
1
 10
0.0
 20
0.0
 30
0.0
  0
VERTEX
  8
Group037
 10
330.09999999999997
 20
-40.62499999999999
 30
0.0
  0
VERTEX
  8
Group037
 10
317.59999999999997
 20
-40.62499999999999
 30
0.0
  0
SEQEND
  8
Group037
  0
POLYLINE
  8
Group037
 62
0
 70
0
 66
1
 10
0.0
 20
0.0
 30
0.0
  0
VERTEX
  8
Group037
 10
316.84999999999997
 20
-41.37499999999999
 30
0.0
  0
VERTEX
  8
Group037
 10
316.84999999999997
 20
-53.87499999999999
 30
0.0
  0
SEQEND
  8
Group037
  0
POLYLINE
  8
Group037
 62
0
 70
0
 66
1
 10
0.0
 20
0.0
 30
0.0
  0
VERTEX
  8
Group037
 10
317.59999999999997
 20
-54.62499999999999
 30
0.0
  0
VERTEX
  8
Group037
 10
330.09999999999997
 20
-54.62499999999999
 30
0.0
  0
SEQEND
  8
Group037
  0
POLYLINE
  8
Group037
 62
0
 70
0
 66
1
 10
0.0
 20
0.0
 30
0.0
  0
VERTEX
  8
Group037
 10
330.84999999999997
 20
-53.87499999999999
 30
0.0
  0
VERTEX
  8
Group037
 10
330.84999999999997
 20
-41.37499999999999
 30
0.0
  0
SEQEND
  8
Group037
  0
ARC
  8
Group038
 62
0
 10
336.6499999999999
 20
-41.37499999999999
 30
0.0
 40
0.75
 50
90.0
 51
-180.0
  0
ARC
  8
Group038
 62
0
 10
349.1499999999999
 20
-41.37499999999999
 30
0.0
 40
0.75
 50
-0.0
 51
90.0
  0
ARC
  8
Group038
 62
0
 10
336.6499999999999
 20
-53.87499999999999
 30
0.0
 40
0.75
 50
-180.0
 51
-90.0
  0
ARC
  8
Group038
 62
0
 10
349.1499999999999
 20
-53.87499999999999
 30
0.0
 40
0.75
 50
-90.0
 51
-0.0
  0
POLYLINE
  8
Group038
 62
0
 70
0
 66
1
 10
0.0
 20
0.0
 30
0.0
  0
VERTEX
  8
Group038
 10
349.1499999999999
 20
-40.62499999999999
 30
0.0
  0
VERTEX
  8
Group038
 10
336.6499999999999
 20
-40.62499999999999
 30
0.0
  0
SEQEND
  8
Group038
  0
POLYLINE
  8
Group038
 62
0
 70
0
 66
1
 10
0.0
 20
0.0
 30
0.0
  0
VERTEX
  8
Group038
 10
335.8999999999999
 20
-41.37499999999999
 30
0.0
  0
VERTEX
  8
Group038
 10
335.8999999999999
 20
-53.87499999999999
 30
0.0
  0
SEQEND
  8
Group038
  0
POLYLINE
  8
Group038
 62
0
 70
0
 66
1
 10
0.0
 20
0.0
 30
0.0
  0
VERTEX
  8
Group038
 10
336.6499999999999
 20
-54.62499999999999
 30
0.0
  0
VERTEX
  8
Group038
 10
349.1499999999999
 20
-54.62499999999999
 30
0.0
  0
SEQEND
  8
Group038
  0
POLYLINE
  8
Group038
 62
0
 70
0
 66
1
 10
0.0
 20
0.0
 30
0.0
  0
VERTEX
  8
Group038
 10
349.8999999999999
 20
-53.87499999999999
 30
0.0
  0
VERTEX
  8
Group038
 10
349.8999999999999
 20
-41.37499999999999
 30
0.0
  0
SEQEND
  8
Group038
  0
ARC
  8
Group039
 62
0
 10
365.22499999999997
 20
-41.37499999999999
 30
0.0
 40
0.75
 50
90.0
 51
-180.0
  0
ARC
  8
Group039
 62
0
 10
377.72499999999997
 20
-41.37499999999999
 30
0.0
 40
0.75
 50
-0.0
 51
90.0
  0
ARC
  8
Group039
 62
0
 10
365.22499999999997
 20
-53.87499999999999
 30
0.0
 40
0.75
 50
-180.0
 51
-90.0
  0
ARC
  8
Group039
 62
0
 10
377.72499999999997
 20
-53.87499999999999
 30
0.0
 40
0.75
 50
-90.0
 51
-0.0
  0
POLYLINE
  8
Group039
 62
0
 70
0
 66
1
 10
0.0
 20
0.0
 30
0.0
  0
VERTEX
  8
Group039
 10
377.72499999999997
 20
-40.62499999999999
 30
0.0
  0
VERTEX
  8
Group039
 10
365.22499999999997
 20
-40.62499999999999
 30
0.0
  0
SEQEND
  8
Group039
  0
POLYLINE
  8
Group039
 62
0
 70
0
 66
1
 10
0.0
 20
0.0
 30
0.0
  0
VERTEX
  8
Group039
 10
364.47499999999997
 20
-41.37499999999999
 30
0.0
  0
VERTEX
  8
Group039
 10
364.47499999999997
 20
-53.87499999999999
 30
0.0
  0
SEQEND
  8
Group039
  0
POLYLINE
  8
Group039
 62
0
 70
0
 66
1
 10
0.0
 20
0.0
 30
0.0
  0
VERTEX
  8
Group039
 10
365.22499999999997
 20
-54.62499999999999
 30
0.0
  0
VERTEX
  8
Group039
 10
377.72499999999997
 20
-54.62499999999999
 30
0.0
  0
SEQEND
  8
Group039
  0
POLYLINE
  8
Group039
 62
0
 70
0
 66
1
 10
0.0
 20
0.0
 30
0.0
  0
VERTEX
  8
Group039
 10
378.47499999999997
 20
-53.87499999999999
 30
0.0
  0
VERTEX
  8
Group039
 10
378.47499999999997
 20
-41.37499999999999
 30
0.0
  0
SEQEND
  8
Group039
  0
ARC
  8
Group040
 62
0
 10
384.2749999999999
 20
-41.37499999999999
 30
0.0
 40
0.75
 50
90.0
 51
-180.0
  0
ARC
  8
Group040
 62
0
 10
396.7749999999999
 20
-41.37499999999999
 30
0.0
 40
0.75
 50
-0.0
 51
90.0
  0
ARC
  8
Group040
 62
0
 10
384.2749999999999
 20
-53.87499999999999
 30
0.0
 40
0.75
 50
-180.0
 51
-90.0
  0
ARC
  8
Group040
 62
0
 10
396.7749999999999
 20
-53.87499999999999
 30
0.0
 40
0.75
 50
-90.0
 51
-0.0
  0
POLYLINE
  8
Group040
 62
0
 70
0
 66
1
 10
0.0
 20
0.0
 30
0.0
  0
VERTEX
  8
Group040
 10
396.7749999999999
 20
-40.62499999999999
 30
0.0
  0
VERTEX
  8
Group040
 10
384.2749999999999
 20
-40.62499999999999
 30
0.0
  0
SEQEND
  8
Group040
  0
POLYLINE
  8
Group040
 62
0
 70
0
 66
1
 10
0.0
 20
0.0
 30
0.0
  0
VERTEX
  8
Group040
 10
383.5249999999999
 20
-41.37499999999999
 30
0.0
  0
VERTEX
  8
Group040
 10
383.5249999999999
 20
-53.87499999999999
 30
0.0
  0
SEQEND
  8
Group040
  0
POLYLINE
  8
Group040
 62
0
 70
0
 66
1
 10
0.0
 20
0.0
 30
0.0
  0
VERTEX
  8
Group040
 10
384.2749999999999
 20
-54.62499999999999
 30
0.0
  0
VERTEX
  8
Group040
 10
396.7749999999999
 20
-54.62499999999999
 30
0.0
  0
SEQEND
  8
Group040
  0
POLYLINE
  8
Group040
 62
0
 70
0
 66
1
 10
0.0
 20
0.0
 30
0.0
  0
VERTEX
  8
Group040
 10
397.5249999999999
 20
-53.87499999999999
 30
0.0
  0
VERTEX
  8
Group040
 10
397.5249999999999
 20
-41.37499999999999
 30
0.0
  0
SEQEND
  8
Group040
  0
ARC
  8
Group041
 62
0
 10
403.325
 20
-41.37499999999999
 30
0.0
 40
0.75
 50
90.0
 51
-180.0
  0
ARC
  8
Group041
 62
0
 10
415.825
 20
-41.37499999999999
 30
0.0
 40
0.75
 50
-0.0
 51
90.0
  0
ARC
  8
Group041
 62
0
 10
403.325
 20
-53.87499999999999
 30
0.0
 40
0.75
 50
-180.0
 51
-90.0
  0
ARC
  8
Group041
 62
0
 10
415.825
 20
-53.87499999999999
 30
0.0
 40
0.75
 50
-90.0
 51
-0.0
  0
POLYLINE
  8
Group041
 62
0
 70
0
 66
1
 10
0.0
 20
0.0
 30
0.0
  0
VERTEX
  8
Group041
 10
415.825
 20
-40.62499999999999
 30
0.0
  0
VERTEX
  8
Group041
 10
403.325
 20
-40.62499999999999
 30
0.0
  0
SEQEND
  8
Group041
  0
POLYLINE
  8
Group041
 62
0
 70
0
 66
1
 10
0.0
 20
0.0
 30
0.0
  0
VERTEX
  8
Group041
 10
402.575
 20
-41.37499999999999
 30
0.0
  0
VERTEX
  8
Group041
 10
402.575
 20
-53.87499999999999
 30
0.0
  0
SEQEND
  8
Group041
  0
POLYLINE
  8
Group041
 62
0
 70
0
 66
1
 10
0.0
 20
0.0
 30
0.0
  0
VERTEX
  8
Group041
 10
403.325
 20
-54.62499999999999
 30
0.0
  0
VERTEX
  8
Group041
 10
415.825
 20
-54.62499999999999
 30
0.0
  0
SEQEND
  8
Group041
  0
POLYLINE
  8
Group041
 62
0
 70
0
 66
1
 10
0.0
 20
0.0
 30
0.0
  0
VERTEX
  8
Group041
 10
416.575
 20
-53.87499999999999
 30
0.0
  0
VERTEX
  8
Group041
 10
416.575
 20
-41.37499999999999
 30
0.0
  0
SEQEND
  8
Group041
  0
ARC
  8
Group042
 62
0
 10
422.37499999999994
 20
-41.37499999999999
 30
0.0
 40
0.75
 50
90.0
 51
-180.0
  0
ARC
  8
Group042
 62
0
 10
434.87499999999994
 20
-41.37499999999999
 30
0.0
 40
0.75
 50
-0.0
 51
90.0
  0
ARC
  8
Group042
 62
0
 10
422.37499999999994
 20
-53.87499999999999
 30
0.0
 40
0.75
 50
-180.0
 51
-90.0
  0
ARC
  8
Group042
 62
0
 10
434.87499999999994
 20
-53.87499999999999
 30
0.0
 40
0.75
 50
-90.0
 51
-0.0
  0
POLYLINE
  8
Group042
 62
0
 70
0
 66
1
 10
0.0
 20
0.0
 30
0.0
  0
VERTEX
  8
Group042
 10
434.87499999999994
 20
-40.62499999999999
 30
0.0
  0
VERTEX
  8
Group042
 10
422.37499999999994
 20
-40.62499999999999
 30
0.0
  0
SEQEND
  8
Group042
  0
POLYLINE
  8
Group042
 62
0
 70
0
 66
1
 10
0.0
 20
0.0
 30
0.0
  0
VERTEX
  8
Group042
 10
421.62499999999994
 20
-41.37499999999999
 30
0.0
  0
VERTEX
  8
Group042
 10
421.62499999999994
 20
-53.87499999999999
 30
0.0
  0
SEQEND
  8
Group042
  0
POLYLINE
  8
Group042
 62
0
 70
0
 66
1
 10
0.0
 20
0.0
 30
0.0
  0
VERTEX
  8
Group042
 10
422.37499999999994
 20
-54.62499999999999
 30
0.0
  0
VERTEX
  8
Group042
 10
434.87499999999994
 20
-54.62499999999999
 30
0.0
  0
SEQEND
  8
Group042
  0
POLYLINE
  8
Group042
 62
0
 70
0
 66
1
 10
0.0
 20
0.0
 30
0.0
  0
VERTEX
  8
Group042
 10
435.62499999999994
 20
-53.87499999999999
 30
0.0
  0
VERTEX
  8
Group042
 10
435.62499999999994
 20
-41.37499999999999
 30
0.0
  0
SEQEND
  8
Group042
  0
ARC
  8
Group003
 62
0
 10
3.275
 20
-3.275000000000004
 30
0.0
 40
0.75
 50
90.0
 51
-180.0
  0
ARC
  8
Group003
 62
0
 10
15.775
 20
-3.275000000000005
 30
0.0
 40
0.75
 50
-0.0
 51
90.0
  0
ARC
  8
Group003
 62
0
 10
3.275
 20
-15.775000000000006
 30
0.0
 40
0.75
 50
-180.0
 51
-90.0
  0
ARC
  8
Group003
 62
0
 10
15.775
 20
-15.775000000000007
 30
0.0
 40
0.75
 50
-90.0
 51
-0.0
  0
POLYLINE
  8
Group003
 62
0
 70
0
 66
1
 10
0.0
 20
0.0
 30
0.0
  0
VERTEX
  8
Group003
 10
15.775
 20
-2.525000000000005
 30
0.0
  0
VERTEX
  8
Group003
 10
3.2750000000000004
 20
-2.525000000000004
 30
0.0
  0
SEQEND
  8
Group003
  0
POLYLINE
  8
Group003
 62
0
 70
0
 66
1
 10
0.0
 20
0.0
 30
0.0
  0
VERTEX
  8
Group003
 10
2.525
 20
-3.275000000000004
 30
0.0
  0
VERTEX
  8
Group003
 10
2.525
 20
-15.775000000000006
 30
0.0
  0
SEQEND
  8
Group003
  0
POLYLINE
  8
Group003
 62
0
 70
0
 66
1
 10
0.0
 20
0.0
 30
0.0
  0
VERTEX
  8
Group003
 10
3.275
 20
-16.525000000000006
 30
0.0
  0
VERTEX
  8
Group003
 10
15.775
 20
-16.525000000000006
 30
0.0
  0
SEQEND
  8
Group003
  0
POLYLINE
  8
Group003
 62
0
 70
0
 66
1
 10
0.0
 20
0.0
 30
0.0
  0
VERTEX
  8
Group003
 10
16.525
 20
-15.775000000000007
 30
0.0
  0
VERTEX
  8
Group003
 10
16.525
 20
-3.2750000000000057
 30
0.0
  0
SEQEND
  8
Group003
  0
ARC
  8
Group004
 62
0
 10
41.37500000000001
 20
-3.275000000000002
 30
0.0
 40
0.75
 50
90.0
 51
-180.0
  0
ARC
  8
Group004
 62
0
 10
53.87500000000001
 20
-3.275000000000003
 30
0.0
 40
0.75
 50
-0.0
 51
90.0
  0
ARC
  8
Group004
 62
0
 10
41.37500000000001
 20
-15.775000000000004
 30
0.0
 40
0.75
 50
-180.0
 51
-90.0
  0
ARC
  8
Group004
 62
0
 10
53.87500000000001
 20
-15.775000000000006
 30
0.0
 40
0.75
 50
-90.0
 51
-0.0
  0
POLYLINE
  8
Group004
 62
0
 70
0
 66
1
 10
0.0
 20
0.0
 30
0.0
  0
VERTEX
  8
Group004
 10
53.87500000000001
 20
-2.525000000000003
 30
0.0
  0
VERTEX
  8
Group004
 10
41.37500000000001
 20
-2.525000000000002
 30
0.0
  0
SEQEND
  8
Group004
  0
POLYLINE
  8
Group004
 62
0
 70
0
 66
1
 10
0.0
 20
0.0
 30
0.0
  0
VERTEX
  8
Group004
 10
40.62500000000001
 20
-3.275000000000002
 30
0.0
  0
VERTEX
  8
Group004
 10
40.62500000000001
 20
-15.775000000000004
 30
0.0
  0
SEQEND
  8
Group004
  0
POLYLINE
  8
Group004
 62
0
 70
0
 66
1
 10
0.0
 20
0.0
 30
0.0
  0
VERTEX
  8
Group004
 10
41.37500000000001
 20
-16.525000000000002
 30
0.0
  0
VERTEX
  8
Group004
 10
53.87500000000001
 20
-16.525000000000002
 30
0.0
  0
SEQEND
  8
Group004
  0
POLYLINE
  8
Group004
 62
0
 70
0
 66
1
 10
0.0
 20
0.0
 30
0.0
  0
VERTEX
  8
Group004
 10
54.62500000000001
 20
-15.775000000000006
 30
0.0
  0
VERTEX
  8
Group004
 10
54.62500000000001
 20
-3.275000000000004
 30
0.0
  0
SEQEND
  8
Group004
  0
ARC
  8
Group005
 62
0
 10
60.425
 20
-3.275000000000002
 30
0.0
 40
0.75
 50
90.0
 51
-180.0
  0
ARC
  8
Group005
 62
0
 10
72.92499999999998
 20
-3.275000000000003
 30
0.0
 40
0.75
 50
-0.0
 51
90.0
  0
ARC
  8
Group005
 62
0
 10
60.425
 20
-15.775000000000004
 30
0.0
 40
0.75
 50
-180.0
 51
-90.0
  0
ARC
  8
Group005
 62
0
 10
72.92499999999998
 20
-15.775000000000006
 30
0.0
 40
0.75
 50
-90.0
 51
-0.0
  0
POLYLINE
  8
Group005
 62
0
 70
0
 66
1
 10
0.0
 20
0.0
 30
0.0
  0
VERTEX
  8
Group005
 10
72.92499999999998
 20
-2.525000000000003
 30
0.0
  0
VERTEX
  8
Group005
 10
60.42499999999998
 20
-2.525000000000002
 30
0.0
  0
SEQEND
  8
Group005
  0
POLYLINE
  8
Group005
 62
0
 70
0
 66
1
 10
0.0
 20
0.0
 30
0.0
  0
VERTEX
  8
Group005
 10
59.675
 20
-3.275000000000002
 30
0.0
  0
VERTEX
  8
Group005
 10
59.675
 20
-15.775000000000004
 30
0.0
  0
SEQEND
  8
Group005
  0
POLYLINE
  8
Group005
 62
0
 70
0
 66
1
 10
0.0
 20
0.0
 30
0.0
  0
VERTEX
  8
Group005
 10
60.425
 20
-16.525000000000002
 30
0.0
  0
VERTEX
  8
Group005
 10
72.92499999999998
 20
-16.525000000000002
 30
0.0
  0
SEQEND
  8
Group005
  0
POLYLINE
  8
Group005
 62
0
 70
0
 66
1
 10
0.0
 20
0.0
 30
0.0
  0
VERTEX
  8
Group005
 10
73.67499999999998
 20
-15.775000000000006
 30
0.0
  0
VERTEX
  8
Group005
 10
73.67499999999998
 20
-3.275000000000004
 30
0.0
  0
SEQEND
  8
Group005
  0
ARC
  8
Group006
 62
0
 10
79.47499999999998
 20
-3.275000000000002
 30
0.0
 40
0.75
 50
90.0
 51
-180.0
  0
ARC
  8
Group006
 62
0
 10
91.97499999999997
 20
-3.275000000000003
 30
0.0
 40
0.75
 50
-0.0
 51
90.0
  0
ARC
  8
Group006
 62
0
 10
79.47499999999998
 20
-15.775000000000004
 30
0.0
 40
0.75
 50
-180.0
 51
-90.0
  0
ARC
  8
Group006
 62
0
 10
91.97499999999997
 20
-15.775000000000006
 30
0.0
 40
0.75
 50
-90.0
 51
-0.0
  0
POLYLINE
  8
Group006
 62
0
 70
0
 66
1
 10
0.0
 20
0.0
 30
0.0
  0
VERTEX
  8
Group006
 10
91.97499999999997
 20
-2.525000000000003
 30
0.0
  0
VERTEX
  8
Group006
 10
79.47499999999997
 20
-2.525000000000002
 30
0.0
  0
SEQEND
  8
Group006
  0
POLYLINE
  8
Group006
 62
0
 70
0
 66
1
 10
0.0
 20
0.0
 30
0.0
  0
VERTEX
  8
Group006
 10
78.72499999999998
 20
-3.275000000000002
 30
0.0
  0
VERTEX
  8
Group006
 10
78.72499999999998
 20
-15.775000000000004
 30
0.0
  0
SEQEND
  8
Group006
  0
POLYLINE
  8
Group006
 62
0
 70
0
 66
1
 10
0.0
 20
0.0
 30
0.0
  0
VERTEX
  8
Group006
 10
79.47499999999998
 20
-16.525000000000002
 30
0.0
  0
VERTEX
  8
Group006
 10
91.97499999999997
 20
-16.525000000000002
 30
0.0
  0
SEQEND
  8
Group006
  0
POLYLINE
  8
Group006
 62
0
 70
0
 66
1
 10
0.0
 20
0.0
 30
0.0
  0
VERTEX
  8
Group006
 10
92.72499999999997
 20
-15.775000000000006
 30
0.0
  0
VERTEX
  8
Group006
 10
92.72499999999997
 20
-3.275000000000004
 30
0.0
  0
SEQEND
  8
Group006
  0
ARC
  8
Group007
 62
0
 10
98.52499999999998
 20
-3.275000000000002
 30
0.0
 40
0.75
 50
90.0
 51
-180.0
  0
ARC
  8
Group007
 62
0
 10
111.02499999999996
 20
-3.275000000000003
 30
0.0
 40
0.75
 50
-0.0
 51
90.0
  0
ARC
  8
Group007
 62
0
 10
98.52499999999998
 20
-15.775000000000004
 30
0.0
 40
0.75
 50
-180.0
 51
-90.0
  0
ARC
  8
Group007
 62
0
 10
111.02499999999996
 20
-15.775000000000006
 30
0.0
 40
0.75
 50
-90.0
 51
-0.0
  0
POLYLINE
  8
Group007
 62
0
 70
0
 66
1
 10
0.0
 20
0.0
 30
0.0
  0
VERTEX
  8
Group007
 10
111.02499999999996
 20
-2.525000000000003
 30
0.0
  0
VERTEX
  8
Group007
 10
98.52499999999996
 20
-2.525000000000002
 30
0.0
  0
SEQEND
  8
Group007
  0
POLYLINE
  8
Group007
 62
0
 70
0
 66
1
 10
0.0
 20
0.0
 30
0.0
  0
VERTEX
  8
Group007
 10
97.77499999999998
 20
-3.275000000000002
 30
0.0
  0
VERTEX
  8
Group007
 10
97.77499999999998
 20
-15.775000000000004
 30
0.0
  0
SEQEND
  8
Group007
  0
POLYLINE
  8
Group007
 62
0
 70
0
 66
1
 10
0.0
 20
0.0
 30
0.0
  0
VERTEX
  8
Group007
 10
98.52499999999998
 20
-16.525000000000002
 30
0.0
  0
VERTEX
  8
Group007
 10
111.02499999999996
 20
-16.525000000000002
 30
0.0
  0
SEQEND
  8
Group007
  0
POLYLINE
  8
Group007
 62
0
 70
0
 66
1
 10
0.0
 20
0.0
 30
0.0
  0
VERTEX
  8
Group007
 10
111.77499999999996
 20
-15.775000000000006
 30
0.0
  0
VERTEX
  8
Group007
 10
111.77499999999996
 20
-3.275000000000004
 30
0.0
  0
SEQEND
  8
Group007
  0
ARC
  8
Group008
 62
0
 10
127.09999999999998
 20
-3.275
 30
0.0
 40
0.75
 50
90.0
 51
-180.0
  0
ARC
  8
Group008
 62
0
 10
139.59999999999997
 20
-3.275000000000001
 30
0.0
 40
0.75
 50
-0.0
 51
90.0
  0
ARC
  8
Group008
 62
0
 10
127.09999999999998
 20
-15.775000000000002
 30
0.0
 40
0.75
 50
-180.0
 51
-90.0
  0
ARC
  8
Group008
 62
0
 10
139.59999999999997
 20
-15.775000000000004
 30
0.0
 40
0.75
 50
-90.0
 51
-0.0
  0
POLYLINE
  8
Group008
 62
0
 70
0
 66
1
 10
0.0
 20
0.0
 30
0.0
  0
VERTEX
  8
Group008
 10
139.59999999999997
 20
-2.525000000000001
 30
0.0
  0
VERTEX
  8
Group008
 10
127.09999999999997
 20
-2.525
 30
0.0
  0
SEQEND
  8
Group008
  0
POLYLINE
  8
Group008
 62
0
 70
0
 66
1
 10
0.0
 20
0.0
 30
0.0
  0
VERTEX
  8
Group008
 10
126.34999999999998
 20
-3.275
 30
0.0
  0
VERTEX
  8
Group008
 10
126.34999999999998
 20
-15.775000000000002
 30
0.0
  0
SEQEND
  8
Group008
  0
POLYLINE
  8
Group008
 62
0
 70
0
 66
1
 10
0.0
 20
0.0
 30
0.0
  0
VERTEX
  8
Group008
 10
127.09999999999998
 20
-16.525000000000002
 30
0.0
  0
VERTEX
  8
Group008
 10
139.59999999999997
 20
-16.525000000000002
 30
0.0
  0
SEQEND
  8
Group008
  0
POLYLINE
  8
Group008
 62
0
 70
0
 66
1
 10
0.0
 20
0.0
 30
0.0
  0
VERTEX
  8
Group008
 10
140.34999999999997
 20
-15.775000000000004
 30
0.0
  0
VERTEX
  8
Group008
 10
140.34999999999997
 20
-3.275000000000002
 30
0.0
  0
SEQEND
  8
Group008
  0
ARC
  8
Group009
 62
0
 10
146.14999999999998
 20
-3.274999999999999
 30
0.0
 40
0.75
 50
90.0
 51
-180.0
  0
ARC
  8
Group009
 62
0
 10
158.64999999999998
 20
-3.275
 30
0.0
 40
0.75
 50
-0.0
 51
90.0
  0
ARC
  8
Group009
 62
0
 10
146.14999999999998
 20
-15.775000000000002
 30
0.0
 40
0.75
 50
-180.0
 51
-90.0
  0
ARC
  8
Group009
 62
0
 10
158.64999999999998
 20
-15.775000000000004
 30
0.0
 40
0.75
 50
-90.0
 51
-0.0
  0
POLYLINE
  8
Group009
 62
0
 70
0
 66
1
 10
0.0
 20
0.0
 30
0.0
  0
VERTEX
  8
Group009
 10
158.64999999999998
 20
-2.525
 30
0.0
  0
VERTEX
  8
Group009
 10
146.14999999999998
 20
-2.524999999999999
 30
0.0
  0
SEQEND
  8
Group009
  0
POLYLINE
  8
Group009
 62
0
 70
0
 66
1
 10
0.0
 20
0.0
 30
0.0
  0
VERTEX
  8
Group009
 10
145.39999999999998
 20
-3.274999999999999
 30
0.0
  0
VERTEX
  8
Group009
 10
145.39999999999998
 20
-15.775000000000002
 30
0.0
  0
SEQEND
  8
Group009
  0
POLYLINE
  8
Group009
 62
0
 70
0
 66
1
 10
0.0
 20
0.0
 30
0.0
  0
VERTEX
  8
Group009
 10
146.14999999999998
 20
-16.525000000000002
 30
0.0
  0
VERTEX
  8
Group009
 10
158.64999999999998
 20
-16.525000000000002
 30
0.0
  0
SEQEND
  8
Group009
  0
POLYLINE
  8
Group009
 62
0
 70
0
 66
1
 10
0.0
 20
0.0
 30
0.0
  0
VERTEX
  8
Group009
 10
159.39999999999998
 20
-15.775000000000004
 30
0.0
  0
VERTEX
  8
Group009
 10
159.39999999999998
 20
-3.275000000000002
 30
0.0
  0
SEQEND
  8
Group009
  0
ARC
  8
Group010
 62
0
 10
165.19999999999996
 20
-3.274999999999999
 30
0.0
 40
0.75
 50
90.0
 51
-180.0
  0
ARC
  8
Group010
 62
0
 10
177.69999999999996
 20
-3.274999999999999
 30
0.0
 40
0.75
 50
-0.0
 51
90.0
  0
ARC
  8
Group010
 62
0
 10
165.19999999999996
 20
-15.775000000000002
 30
0.0
 40
0.75
 50
-180.0
 51
-90.0
  0
ARC
  8
Group010
 62
0
 10
177.69999999999996
 20
-15.775000000000004
 30
0.0
 40
0.75
 50
-90.0
 51
-0.0
  0
POLYLINE
  8
Group010
 62
0
 70
0
 66
1
 10
0.0
 20
0.0
 30
0.0
  0
VERTEX
  8
Group010
 10
177.69999999999996
 20
-2.524999999999999
 30
0.0
  0
VERTEX
  8
Group010
 10
165.19999999999996
 20
-2.524999999999998
 30
0.0
  0
SEQEND
  8
Group010
  0
POLYLINE
  8
Group010
 62
0
 70
0
 66
1
 10
0.0
 20
0.0
 30
0.0
  0
VERTEX
  8
Group010
 10
164.44999999999996
 20
-3.274999999999999
 30
0.0
  0
VERTEX
  8
Group010
 10
164.44999999999996
 20
-15.775000000000002
 30
0.0
  0
SEQEND
  8
Group010
  0
POLYLINE
  8
Group010
 62
0
 70
0
 66
1
 10
0.0
 20
0.0
 30
0.0
  0
VERTEX
  8
Group010
 10
165.19999999999996
 20
-16.525000000000002
 30
0.0
  0
VERTEX
  8
Group010
 10
177.69999999999996
 20
-16.525000000000002
 30
0.0
  0
SEQEND
  8
Group010
  0
POLYLINE
  8
Group010
 62
0
 70
0
 66
1
 10
0.0
 20
0.0
 30
0.0
  0
VERTEX
  8
Group010
 10
178.44999999999996
 20
-15.775000000000004
 30
0.0
  0
VERTEX
  8
Group010
 10
178.44999999999996
 20
-3.275000000000002
 30
0.0
  0
SEQEND
  8
Group010
  0
ARC
  8
Group011
 62
0
 10
184.24999999999994
 20
-3.274999999999999
 30
0.0
 40
0.75
 50
90.0
 51
-180.0
  0
ARC
  8
Group011
 62
0
 10
196.74999999999994
 20
-3.274999999999999
 30
0.0
 40
0.75
 50
-0.0
 51
90.0
  0
ARC
  8
Group011
 62
0
 10
184.24999999999994
 20
-15.775000000000002
 30
0.0
 40
0.75
 50
-180.0
 51
-90.0
  0
ARC
  8
Group011
 62
0
 10
196.74999999999994
 20
-15.775000000000004
 30
0.0
 40
0.75
 50
-90.0
 51
-0.0
  0
POLYLINE
  8
Group011
 62
0
 70
0
 66
1
 10
0.0
 20
0.0
 30
0.0
  0
VERTEX
  8
Group011
 10
196.74999999999994
 20
-2.524999999999999
 30
0.0
  0
VERTEX
  8
Group011
 10
184.24999999999994
 20
-2.524999999999998
 30
0.0
  0
SEQEND
  8
Group011
  0
POLYLINE
  8
Group011
 62
0
 70
0
 66
1
 10
0.0
 20
0.0
 30
0.0
  0
VERTEX
  8
Group011
 10
183.49999999999994
 20
-3.274999999999999
 30
0.0
  0
VERTEX
  8
Group011
 10
183.49999999999994
 20
-15.775000000000002
 30
0.0
  0
SEQEND
  8
Group011
  0
POLYLINE
  8
Group011
 62
0
 70
0
 66
1
 10
0.0
 20
0.0
 30
0.0
  0
VERTEX
  8
Group011
 10
184.24999999999994
 20
-16.525000000000002
 30
0.0
  0
VERTEX
  8
Group011
 10
196.74999999999994
 20
-16.525000000000002
 30
0.0
  0
SEQEND
  8
Group011
  0
POLYLINE
  8
Group011
 62
0
 70
0
 66
1
 10
0.0
 20
0.0
 30
0.0
  0
VERTEX
  8
Group011
 10
197.49999999999994
 20
-15.775000000000004
 30
0.0
  0
VERTEX
  8
Group011
 10
197.49999999999994
 20
-3.275000000000002
 30
0.0
  0
SEQEND
  8
Group011
  0
ARC
  8
Group012
 62
0
 10
212.82499999999996
 20
-3.274999999999997
 30
0.0
 40
0.75
 50
90.0
 51
-180.0
  0
ARC
  8
Group012
 62
0
 10
225.32499999999996
 20
-3.274999999999997
 30
0.0
 40
0.75
 50
-0.0
 51
90.0
  0
ARC
  8
Group012
 62
0
 10
212.82499999999996
 20
-15.775
 30
0.0
 40
0.75
 50
-180.0
 51
-90.0
  0
ARC
  8
Group012
 62
0
 10
225.32499999999996
 20
-15.775000000000002
 30
0.0
 40
0.75
 50
-90.0
 51
-0.0
  0
POLYLINE
  8
Group012
 62
0
 70
0
 66
1
 10
0.0
 20
0.0
 30
0.0
  0
VERTEX
  8
Group012
 10
225.32499999999996
 20
-2.524999999999997
 30
0.0
  0
VERTEX
  8
Group012
 10
212.82499999999996
 20
-2.524999999999996
 30
0.0
  0
SEQEND
  8
Group012
  0
POLYLINE
  8
Group012
 62
0
 70
0
 66
1
 10
0.0
 20
0.0
 30
0.0
  0
VERTEX
  8
Group012
 10
212.07499999999996
 20
-3.274999999999997
 30
0.0
  0
VERTEX
  8
Group012
 10
212.07499999999996
 20
-15.775
 30
0.0
  0
SEQEND
  8
Group012
  0
POLYLINE
  8
Group012
 62
0
 70
0
 66
1
 10
0.0
 20
0.0
 30
0.0
  0
VERTEX
  8
Group012
 10
212.82499999999996
 20
-16.525000000000002
 30
0.0
  0
VERTEX
  8
Group012
 10
225.32499999999996
 20
-16.525000000000002
 30
0.0
  0
SEQEND
  8
Group012
  0
POLYLINE
  8
Group012
 62
0
 70
0
 66
1
 10
0.0
 20
0.0
 30
0.0
  0
VERTEX
  8
Group012
 10
226.07499999999996
 20
-15.775000000000002
 30
0.0
  0
VERTEX
  8
Group012
 10
226.07499999999996
 20
-3.2750000000000004
 30
0.0
  0
SEQEND
  8
Group012
  0
ARC
  8
Group013
 62
0
 10
231.87499999999994
 20
-3.274999999999996
 30
0.0
 40
0.75
 50
90.0
 51
-180.0
  0
ARC
  8
Group013
 62
0
 10
244.37499999999994
 20
-3.274999999999996
 30
0.0
 40
0.75
 50
-0.0
 51
90.0
  0
ARC
  8
Group013
 62
0
 10
231.87499999999994
 20
-15.775
 30
0.0
 40
0.75
 50
-180.0
 51
-90.0
  0
ARC
  8
Group013
 62
0
 10
244.37499999999994
 20
-15.775000000000002
 30
0.0
 40
0.75
 50
-90.0
 51
-0.0
  0
POLYLINE
  8
Group013
 62
0
 70
0
 66
1
 10
0.0
 20
0.0
 30
0.0
  0
VERTEX
  8
Group013
 10
244.37499999999994
 20
-2.524999999999996
 30
0.0
  0
VERTEX
  8
Group013
 10
231.87499999999994
 20
-2.524999999999995
 30
0.0
  0
SEQEND
  8
Group013
  0
POLYLINE
  8
Group013
 62
0
 70
0
 66
1
 10
0.0
 20
0.0
 30
0.0
  0
VERTEX
  8
Group013
 10
231.12499999999994
 20
-3.274999999999996
 30
0.0
  0
VERTEX
  8
Group013
 10
231.12499999999994
 20
-15.774999999999999
 30
0.0
  0
SEQEND
  8
Group013
  0
POLYLINE
  8
Group013
 62
0
 70
0
 66
1
 10
0.0
 20
0.0
 30
0.0
  0
VERTEX
  8
Group013
 10
231.87499999999994
 20
-16.525000000000002
 30
0.0
  0
VERTEX
  8
Group013
 10
244.37499999999994
 20
-16.525000000000002
 30
0.0
  0
SEQEND
  8
Group013
  0
POLYLINE
  8
Group013
 62
0
 70
0
 66
1
 10
0.0
 20
0.0
 30
0.0
  0
VERTEX
  8
Group013
 10
245.12499999999994
 20
-15.775000000000002
 30
0.0
  0
VERTEX
  8
Group013
 10
245.12499999999994
 20
-3.2750000000000004
 30
0.0
  0
SEQEND
  8
Group013
  0
ARC
  8
Group014
 62
0
 10
250.92499999999993
 20
-3.274999999999995
 30
0.0
 40
0.75
 50
90.0
 51
-180.0
  0
ARC
  8
Group014
 62
0
 10
263.425
 20
-3.274999999999995
 30
0.0
 40
0.75
 50
-0.0
 51
90.0
  0
ARC
  8
Group014
 62
0
 10
250.92499999999993
 20
-15.775
 30
0.0
 40
0.75
 50
-180.0
 51
-90.0
  0
ARC
  8
Group014
 62
0
 10
263.425
 20
-15.775000000000002
 30
0.0
 40
0.75
 50
-90.0
 51
-0.0
  0
POLYLINE
  8
Group014
 62
0
 70
0
 66
1
 10
0.0
 20
0.0
 30
0.0
  0
VERTEX
  8
Group014
 10
263.425
 20
-2.524999999999995
 30
0.0
  0
VERTEX
  8
Group014
 10
250.925
 20
-2.524999999999994
 30
0.0
  0
SEQEND
  8
Group014
  0
POLYLINE
  8
Group014
 62
0
 70
0
 66
1
 10
0.0
 20
0.0
 30
0.0
  0
VERTEX
  8
Group014
 10
250.17499999999993
 20
-3.274999999999995
 30
0.0
  0
VERTEX
  8
Group014
 10
250.17499999999993
 20
-15.774999999999999
 30
0.0
  0
SEQEND
  8
Group014
  0
POLYLINE
  8
Group014
 62
0
 70
0
 66
1
 10
0.0
 20
0.0
 30
0.0
  0
VERTEX
  8
Group014
 10
250.92499999999993
 20
-16.525000000000002
 30
0.0
  0
VERTEX
  8
Group014
 10
263.42499999999995
 20
-16.525000000000002
 30
0.0
  0
SEQEND
  8
Group014
  0
POLYLINE
  8
Group014
 62
0
 70
0
 66
1
 10
0.0
 20
0.0
 30
0.0
  0
VERTEX
  8
Group014
 10
264.175
 20
-15.775000000000002
 30
0.0
  0
VERTEX
  8
Group014
 10
264.175
 20
-3.2750000000000004
 30
0.0
  0
SEQEND
  8
Group014
  0
ARC
  8
Group015
 62
0
 10
269.97499999999997
 20
-3.274999999999995
 30
0.0
 40
0.75
 50
90.0
 51
-180.0
  0
ARC
  8
Group015
 62
0
 10
282.47499999999997
 20
-3.274999999999995
 30
0.0
 40
0.75
 50
-0.0
 51
90.0
  0
ARC
  8
Group015
 62
0
 10
269.97499999999997
 20
-15.775
 30
0.0
 40
0.75
 50
-180.0
 51
-90.0
  0
ARC
  8
Group015
 62
0
 10
282.47499999999997
 20
-15.775000000000002
 30
0.0
 40
0.75
 50
-90.0
 51
-0.0
  0
POLYLINE
  8
Group015
 62
0
 70
0
 66
1
 10
0.0
 20
0.0
 30
0.0
  0
VERTEX
  8
Group015
 10
282.47499999999997
 20
-2.524999999999995
 30
0.0
  0
VERTEX
  8
Group015
 10
269.97499999999997
 20
-2.524999999999994
 30
0.0
  0
SEQEND
  8
Group015
  0
POLYLINE
  8
Group015
 62
0
 70
0
 66
1
 10
0.0
 20
0.0
 30
0.0
  0
VERTEX
  8
Group015
 10
269.22499999999997
 20
-3.274999999999995
 30
0.0
  0
VERTEX
  8
Group015
 10
269.22499999999997
 20
-15.774999999999999
 30
0.0
  0
SEQEND
  8
Group015
  0
POLYLINE
  8
Group015
 62
0
 70
0
 66
1
 10
0.0
 20
0.0
 30
0.0
  0
VERTEX
  8
Group015
 10
269.97499999999997
 20
-16.525000000000002
 30
0.0
  0
VERTEX
  8
Group015
 10
282.47499999999997
 20
-16.525000000000002
 30
0.0
  0
SEQEND
  8
Group015
  0
POLYLINE
  8
Group015
 62
0
 70
0
 66
1
 10
0.0
 20
0.0
 30
0.0
  0
VERTEX
  8
Group015
 10
283.22499999999997
 20
-15.775000000000002
 30
0.0
  0
VERTEX
  8
Group015
 10
283.22499999999997
 20
-3.2750000000000004
 30
0.0
  0
SEQEND
  8
Group015
  0
ARC
  8
Group016
 62
0
 10
298.5499999999999
 20
-3.274999999999993
 30
0.0
 40
0.75
 50
90.0
 51
-180.0
  0
ARC
  8
Group016
 62
0
 10
311.05
 20
-3.274999999999993
 30
0.0
 40
0.75
 50
-0.0
 51
90.0
  0
ARC
  8
Group016
 62
0
 10
298.5499999999999
 20
-15.774999999999999
 30
0.0
 40
0.75
 50
-180.0
 51
-90.0
  0
ARC
  8
Group016
 62
0
 10
311.05
 20
-15.775
 30
0.0
 40
0.75
 50
-90.0
 51
-0.0
  0
POLYLINE
  8
Group016
 62
0
 70
0
 66
1
 10
0.0
 20
0.0
 30
0.0
  0
VERTEX
  8
Group016
 10
311.05
 20
-2.524999999999993
 30
0.0
  0
VERTEX
  8
Group016
 10
298.55
 20
-2.524999999999992
 30
0.0
  0
SEQEND
  8
Group016
  0
POLYLINE
  8
Group016
 62
0
 70
0
 66
1
 10
0.0
 20
0.0
 30
0.0
  0
VERTEX
  8
Group016
 10
297.7999999999999
 20
-3.274999999999993
 30
0.0
  0
VERTEX
  8
Group016
 10
297.7999999999999
 20
-15.774999999999997
 30
0.0
  0
SEQEND
  8
Group016
  0
POLYLINE
  8
Group016
 62
0
 70
0
 66
1
 10
0.0
 20
0.0
 30
0.0
  0
VERTEX
  8
Group016
 10
298.5499999999999
 20
-16.525000000000002
 30
0.0
  0
VERTEX
  8
Group016
 10
311.0499999999999
 20
-16.525000000000002
 30
0.0
  0
SEQEND
  8
Group016
  0
POLYLINE
  8
Group016
 62
0
 70
0
 66
1
 10
0.0
 20
0.0
 30
0.0
  0
VERTEX
  8
Group016
 10
311.8
 20
-15.775
 30
0.0
  0
VERTEX
  8
Group016
 10
311.8
 20
-3.2749999999999986
 30
0.0
  0
SEQEND
  8
Group016
  0
ARC
  8
Group017
 62
0
 10
317.59999999999997
 20
-3.274999999999992
 30
0.0
 40
0.75
 50
90.0
 51
-180.0
  0
ARC
  8
Group017
 62
0
 10
330.09999999999997
 20
-3.274999999999992
 30
0.0
 40
0.75
 50
-0.0
 51
90.0
  0
ARC
  8
Group017
 62
0
 10
317.59999999999997
 20
-15.774999999999999
 30
0.0
 40
0.75
 50
-180.0
 51
-90.0
  0
ARC
  8
Group017
 62
0
 10
330.09999999999997
 20
-15.775
 30
0.0
 40
0.75
 50
-90.0
 51
-0.0
  0
POLYLINE
  8
Group017
 62
0
 70
0
 66
1
 10
0.0
 20
0.0
 30
0.0
  0
VERTEX
  8
Group017
 10
330.09999999999997
 20
-2.524999999999992
 30
0.0
  0
VERTEX
  8
Group017
 10
317.59999999999997
 20
-2.524999999999991
 30
0.0
  0
SEQEND
  8
Group017
  0
POLYLINE
  8
Group017
 62
0
 70
0
 66
1
 10
0.0
 20
0.0
 30
0.0
  0
VERTEX
  8
Group017
 10
316.84999999999997
 20
-3.274999999999992
 30
0.0
  0
VERTEX
  8
Group017
 10
316.84999999999997
 20
-15.774999999999995
 30
0.0
  0
SEQEND
  8
Group017
  0
POLYLINE
  8
Group017
 62
0
 70
0
 66
1
 10
0.0
 20
0.0
 30
0.0
  0
VERTEX
  8
Group017
 10
317.59999999999997
 20
-16.525000000000002
 30
0.0
  0
VERTEX
  8
Group017
 10
330.09999999999997
 20
-16.525000000000002
 30
0.0
  0
SEQEND
  8
Group017
  0
POLYLINE
  8
Group017
 62
0
 70
0
 66
1
 10
0.0
 20
0.0
 30
0.0
  0
VERTEX
  8
Group017
 10
330.84999999999997
 20
-15.775
 30
0.0
  0
VERTEX
  8
Group017
 10
330.84999999999997
 20
-3.2749999999999986
 30
0.0
  0
SEQEND
  8
Group017
  0
ARC
  8
Group018
 62
0
 10
336.6499999999999
 20
-3.274999999999991
 30
0.0
 40
0.75
 50
90.0
 51
-180.0
  0
ARC
  8
Group018
 62
0
 10
349.15000000000003
 20
-3.274999999999991
 30
0.0
 40
0.75
 50
-0.0
 51
90.0
  0
ARC
  8
Group018
 62
0
 10
336.6499999999999
 20
-15.774999999999999
 30
0.0
 40
0.75
 50
-180.0
 51
-90.0
  0
ARC
  8
Group018
 62
0
 10
349.15000000000003
 20
-15.775
 30
0.0
 40
0.75
 50
-90.0
 51
-0.0
  0
POLYLINE
  8
Group018
 62
0
 70
0
 66
1
 10
0.0
 20
0.0
 30
0.0
  0
VERTEX
  8
Group018
 10
349.15000000000003
 20
-2.524999999999991
 30
0.0
  0
VERTEX
  8
Group018
 10
336.65000000000003
 20
-2.52499999999999
 30
0.0
  0
SEQEND
  8
Group018
  0
POLYLINE
  8
Group018
 62
0
 70
0
 66
1
 10
0.0
 20
0.0
 30
0.0
  0
VERTEX
  8
Group018
 10
335.8999999999999
 20
-3.274999999999991
 30
0.0
  0
VERTEX
  8
Group018
 10
335.8999999999999
 20
-15.774999999999995
 30
0.0
  0
SEQEND
  8
Group018
  0
POLYLINE
  8
Group018
 62
0
 70
0
 66
1
 10
0.0
 20
0.0
 30
0.0
  0
VERTEX
  8
Group018
 10
336.6499999999999
 20
-16.525000000000002
 30
0.0
  0
VERTEX
  8
Group018
 10
349.1499999999999
 20
-16.525000000000002
 30
0.0
  0
SEQEND
  8
Group018
  0
POLYLINE
  8
Group018
 62
0
 70
0
 66
1
 10
0.0
 20
0.0
 30
0.0
  0
VERTEX
  8
Group018
 10
349.90000000000003
 20
-15.775
 30
0.0
  0
VERTEX
  8
Group018
 10
349.90000000000003
 20
-3.2749999999999986
 30
0.0
  0
SEQEND
  8
Group018
  0
ENDSEC
  0
EOF
