0
SECTION
2
HEADER
9
$INSUNITS
70
4
9
$ACADVER
1
AC1014
9
$HANDSEED
5
FFFF
0
ENDSEC
0
SECTION
2
TABLES
0
TABLE
2
VPORT
5
8
100
AcDbSymbolTable
0
ENDTAB
0
TABLE
2
LTYPE
5
5
100
AcDbSymbolTable
0
LTYPE
5
14
100
AcDbSymbolTableRecord
100
AcDbLinetypeTableRecord
2
BYBLOCK
70
0
0
LTYPE
5
15
100
AcDbSymbolTableRecord
100
AcDbLinetypeTableRecord
2
BYLAYER
70
0
0
ENDTAB
0
TABLE
2
LAYER
5
2
100
AcDbSymbolTable
70
2
0
LAYER
5
50
100
AcDbSymbolTableRecord
100
AcDbLayerTableRecord
2
0
70
0
6
CONTINUOUS
0
ENDTAB
0
TABLE
2
STYLE
5
3
100
AcDbSymbolTable
70
1
0
STYLE
5
11
100
AcDbSymbolTableRecord
100
AcDbTextStyleTableRecord
2
STANDARD
70
0
0
ENDTAB
0
TABLE
2
VIEW
5
6
100
AcDbSymbolTable
70
0
0
ENDTAB
0
TABLE
2
UCS
5
7
100
AcDbSymbolTable
70
0
0
ENDTAB
0
TABLE
2
APPID
5
9
100
AcDbSymbolTable
70
2
0
APPID
5
12
100
AcDbSymbolTableRecord
100
AcDbRegAppTableRecord
2
ACAD
70
0
0
ENDTAB
0
TABLE
2
DIMSTYLE
5
A
100
AcDbSymbolTable
70
1
0
ENDTAB
0
TABLE
2
BLOCK_RECORD
5
1
100
AcDbSymbolTable
70
1
0
BLOCK_RECORD
5
1F
100
AcDbSymbolTableRecord
100
AcDbBlockTableRecord
2
*MODEL_SPACE
0
BLOCK_RECORD
5
1B
100
AcDbSymbolTableRecord
100
AcDbBlockTableRecord
2
*PAPER_SPACE
0
ENDTAB
0
ENDSEC
0
SECTION
2
BLOCKS
0
BLOCK
5
20
100
AcDbEntity
100
AcDbBlockBegin
2
*MODEL_SPACE
0
ENDBLK
5
21
100
AcDbEntity
100
AcDbBlockEnd
0
BLOCK
5
1C
100
AcDbEntity
100
AcDbBlockBegin
2
*PAPER_SPACE
0
ENDBLK
5
1D
100
AcDbEntity
100
AcDbBlockEnd
0
ENDSEC
0
SECTION
2
ENTITIES
0
LWPOLYLINE
5
100
100
AcDbEntity
8
0
100
AcDbPolyline
90
14
70
1
43
0.0
10
69
20
2.2204460492503131e-15
10
14.5
20
2.2204460492503131e-15
42
0.41421356237309503
10
12.5
20
-1.9999999999999973
10
12.5
20
-12.25
10
2.0000000000000013
20
-12.250000000000005
42
0.4142135623730952
10
0
20
-14.249999999999998
10
0
20
-71.249999999999986
42
0.41421356237309503
10
2.0000000000000018
20
-73.25
10
81.500000000000028
20
-73.250000000000014
42
0.41421356237309243
10
83.5
20
-71.249999999999986
10
83.5
20
-14.25
42
0.41421356237309664
10
81.5
20
-12.25
10
71
20
-12.25
10
70.999999999999986
20
-1.9999999999999973
42
0.41421356237309498
0
LINE
5
101
100
AcDbEntity
8
0
100
AcDbLine
10
83.5
20
2.3977827807621086e-31
30
0
11
71
21
7.3955709864469857e-31
31
0
0
LINE
5
102
100
AcDbEntity
8
0
100
AcDbLine
10
83.5
20
-12.25
30
0
11
83.5
21
2.3977827807621086e-31
31
0
0
LINE
5
103
100
AcDbEntity
8
0
100
AcDbLine
10
0
20
0
30
0
11
12.5
21
4.0444528832131953e-32
31
0
0
LINE
5
104
100
AcDbEntity
8
0
100
AcDbLine
10
0
20
-12.249999999999998
30
0
11
0
21
0
31
0
0
LWPOLYLINE
5
105
100
AcDbEntity
8
0
100
AcDbPolyline
90
4
70
1
43
0.0
10
37.399999999997405
20
-63.000000000025473
42
-0.99999999999999989
10
45.899999999997348
20
-62.999999999969319
10
45.900000000002606
20
-63.799999999997397
42
-0.99999999999999989
10
37.399999999997412
20
-63.799999999997397
0
LINE
5
106
100
AcDbEntity
8
0
100
AcDbLine
10
45.900000000000006
20
-63.399999999983365
30
0
11
83.5
21
-63.399999999983379
31
0
0
LWPOLYLINE
5
107
100
AcDbEntity
8
0
100
AcDbPolyline
90
3
70
1
43
0.0
10
78
20
-12.25
42
-0.41421356237309509
10
71
20
-5.2499999999999893
10
78
20
-5.2499999999999902
0
LWPOLYLINE
5
108
100
AcDbEntity
8
0
100
AcDbPolyline
90
3
70
1
43
0.0
10
12.5
20
-5.2499999999999982
42
-0.41421356237309503
10
5.4999999999999991
20
-12.25
10
5.4999999999999982
20
-5.2499999999999991
0
CIRCLE
5
109
100
AcDbEntity
8
0
100
AcDbCircle
10
79.75
20
-68.75
30
0
40
2.0000000000000018
210
0
220
0
230
1
0
LWPOLYLINE
5
110
100
AcDbEntity
8
0
100
AcDbPolyline
90
4
70
1
43
0.0
10
80.5
20
-64.5
10
79.099999999999994
20
-64.5
42
-0.99999999999999989
10
79.099999999999994
20
-62.800000000000004
10
80.5
20
-62.800000000000004
42
-0.99999999999999989
0
LINE
5
111
100
AcDbEntity
8
0
100
AcDbLine
10
79.099999999999994
20
-63.650000000000006
30
0
11
80.5
21
-63.650000000000006
31
0
0
LINE
5
112
100
AcDbEntity
8
0
100
AcDbLine
10
78.25
20
-63.650000000000006
30
0
11
81.349999999999994
21
-63.650000000000006
31
0
0
LINE
5
113
100
AcDbEntity
8
0
100
AcDbLine
10
81.349999999999994
20
-63.650000000000006
30
0
11
83.5
21
-63.650000000000006
31
0
0
LWPOLYLINE
5
114
100
AcDbEntity
8
0
100
AcDbPolyline
90
4
70
1
43
0.0
10
4.9187650000000005
20
-64.5
10
3.0999999999999996
20
-64.5
42
-0.99999999999999989
10
3.0999999999999996
20
-62.800000000000004
10
4.9187650000000005
20
-62.800000000000004
42
-0.99999999999999989
0
LINE
5
115
100
AcDbEntity
8
0
100
AcDbLine
10
3.0999999999999996
20
-63.650000000000006
30
0
11
4.9187650000000005
21
-63.650000000000006
31
0
0
LINE
5
116
100
AcDbEntity
8
0
100
AcDbLine
10
2.25
20
-63.650000000000006
30
0
11
5.7687650000000001
21
-63.650000000000006
31
0
0
CIRCLE
5
117
100
AcDbEntity
8
0
100
AcDbCircle
10
52.224999999999994
20
-63.399999999983365
30
0
40
1.3749999999999987
210
0
220
0
230
1
0
LINE
5
118
100
AcDbEntity
8
0
100
AcDbLine
10
53.599999999999994
20
-63.399999999983365
30
0
11
50.849999999999994
21
-63.399999999983365
31
0
0
CIRCLE
5
119
100
AcDbEntity
8
0
100
AcDbCircle
10
46.624999999999986
20
-10.925000000000002
30
0
40
1.3750000000000018
210
0
220
0
230
1
0
LINE
5
120
100
AcDbEntity
8
0
100
AcDbLine
10
45.249999999999986
20
-10.925000000000002
30
0
11
47.999999999999986
21
-10.925000000000004
31
0
0
LWPOLYLINE
5
121
100
AcDbEntity
8
0
100
AcDbPolyline
90
4
70
1
43
0.0
10
51.599999999999994
20
-6.0000000000000009
10
49.600000000000001
20
-6.0000000000000009
42
-0.99999999999999989
10
49.600000000000001
20
-3.0000000000000004
10
51.599999999999994
20
-3.0000000000000027
42
-0.99999999999999989
0
LINE
5
122
100
AcDbEntity
8
0
100
AcDbLine
10
49.600000000000001
20
-4.5000000000000009
30
0
11
51.599999999999994
21
-4.5000000000000018
31
0
0
LINE
5
123
100
AcDbEntity
8
0
100
AcDbLine
10
48.099999999999994
20
-4.5000000000000009
30
0
11
53.099999999999994
21
-4.5
31
0
0
LINE
5
124
100
AcDbEntity
8
0
100
AcDbLine
10
46.624999999999986
20
-9.5500000000000007
30
0
11
46.624999999999986
21
-12.300000000000004
31
0
0
CIRCLE
5
125
100
AcDbEntity
8
0
100
AcDbCircle
10
62.399999999999991
20
-4
30
0
40
1
210
0
220
0
230
1
0
LINE
5
126
100
AcDbEntity
8
0
100
AcDbLine
10
41.650000000000006
20
-68.049999999999997
30
0
11
41.650000000000006
21
-73.25
31
0
0
ENDSEC
0
SECTION
2
OBJECTS
0
DICTIONARY
5
C
100
AcDbDictionary
3
ACAD_GROUP
350
D
3
ACAD_MLINESTYLE
350
17
0
DICTIONARY
5
D
100
AcDbDictionary
0
DICTIONARY
5
1A
330
C
100
AcDbDictionary
0
DICTIONARY
5
17
100
AcDbDictionary
0
ENDSEC
0
EOF
